<svg width="24" height="24" viewBox="0 0 24 24" fill="none" xmlns="http://www.w3.org/2000/svg">
<path d="M12.0939 8.92585C12.3927 8.42675 12.8656 7.71243 13.463 7.02702H13.4637C13.9696 6.44529 14.9603 5.69868 14.9603 5.69868C15.1092 5.58614 15.0932 5.42941 14.9239 5.35053L13.7265 4.79091C13.5572 4.71169 13.327 4.76949 13.2148 4.91875C13.2148 4.91875 12.3291 6.18928 11.2867 8.89389C8.06364 7.43602 5 9.47799 5 13.0288C5 16.7378 7.85352 22.3717 11.7124 20.6711C15.7766 22.4299 18.4268 16.7381 18.4268 13.0288C18.4268 9.44739 15.6729 7.34762 12.0939 8.92585Z" fill="#18204E"/>
<path d="M11.3722 7.72463C11.5585 7.70899 11.7231 7.5441 11.738 7.35812C11.738 7.35812 11.8577 5.90773 10.8469 4.89593C9.83306 3.88378 8.38539 4.00448 8.38539 4.00448C8.19908 4.02012 8.03452 4.18501 8.01922 4.37098C8.01922 4.37098 7.89751 5.82205 8.90965 6.8342C9.92112 7.84533 11.3722 7.72463 11.3722 7.72463Z" fill="#3F45EA"/>
</svg>
