<svg width="24" height="24" viewBox="0 0 24 24" fill="none" xmlns="http://www.w3.org/2000/svg">
<path d="M11.9996 22.0002C11.5371 22.0002 11.0755 21.9361 10.6263 21.8078L5.02154 20.208C3.24245 19.7 2 18.0536 2 16.204V5.3443C2 4.8846 2.37332 4.51151 2.8333 4.51151C3.29328 4.51151 3.6666 4.8846 3.6666 5.3443V16.204C3.6666 17.3141 4.4124 18.3018 5.47986 18.6066L11.0846 20.2064C11.6838 20.3771 12.3162 20.3771 12.9162 20.2064L18.5201 18.6066C19.5876 18.3018 20.3334 17.3141 20.3334 16.204V4.51151C20.3334 4.0518 20.7067 3.67871 21.1667 3.67871C21.6267 3.67871 22 4.0518 22 4.51151V16.204C22 18.0528 20.7576 19.6992 18.9785 20.208L13.3737 21.8078C12.9237 21.9361 12.4612 22.0002 11.9996 22.0002Z" fill="#222C64"/>
<path d="M15.1352 2.21369C15.736 1.97385 16.4118 1.91805 17.0184 2.14207H17.0151C18.0276 2.516 18.6625 3.46039 18.6625 4.49222V15.0804C18.6625 16.1955 17.9234 17.1757 16.8501 17.4822L13.3703 18.4765C12.9219 18.6039 12.4595 18.6681 11.997 18.6681C11.5345 18.6681 11.072 18.6039 10.6237 18.4765L7.14385 17.4822C6.07139 17.1757 5.33142 16.1955 5.33142 15.0804V4.49222C5.33142 3.46039 5.96556 2.51683 6.97802 2.14207C7.58466 1.91722 8.26047 1.97301 8.86127 2.21286L9.59291 2.50517C10.5429 2.88409 11.1653 3.8035 11.1653 4.82534V16.8975C11.4387 16.9675 11.7178 17.0033 11.9986 17.0033C12.2795 17.0033 12.5586 16.9675 12.8319 16.8975V4.82534C12.8319 3.8035 13.4552 2.88409 14.4044 2.50517L15.1352 2.21369Z" fill="#3F45EA"/>
</svg>
