<svg width="24" height="24" viewBox="0 0 24 24" fill="none" xmlns="http://www.w3.org/2000/svg">
<path d="M5.33334 15.6665H7C7.73637 15.6665 8.33334 16.2635 8.33334 16.9998V18.6665C8.33334 19.4029 7.73637 19.9998 7 19.9998H5.33334C4.59697 19.9998 4 19.4029 4 18.6665V16.9998C4 16.2635 4.59697 15.6665 5.33334 15.6665Z" fill="#18204E"/>
<path d="M17 15.6665H18.6666C19.403 15.6665 20 16.2635 20 16.9998V18.6665C20 19.4029 19.403 19.9998 18.6666 19.9998H17C16.2636 19.9998 15.6666 19.4029 15.6666 18.6665V16.9998C15.6666 16.2635 16.2636 15.6665 17 15.6665Z" fill="#18204E"/>
<path d="M5.33334 9.8335H7C7.73637 9.8335 8.33334 10.4305 8.33334 11.1668V12.8335C8.33334 13.5699 7.73637 14.1668 7 14.1668H5.33334C4.59697 14.1668 4 13.5699 4 12.8335V11.1668C4 10.4304 4.59697 9.8335 5.33334 9.8335Z" fill="#18204E"/>
<path d="M17 9.8335H18.6666C19.403 9.8335 20 10.4305 20 11.1668V12.8335C20 13.5699 19.403 14.1668 18.6666 14.1668H17C16.2636 14.1668 15.6666 13.5699 15.6666 12.8335V11.1668C15.6666 10.4304 16.2636 9.8335 17 9.8335Z" fill="#18204E"/>
<path d="M5.33334 4H7C7.73637 4 8.33334 4.59697 8.33334 5.33334V7C8.33334 7.73637 7.73637 8.33334 7 8.33334H5.33334C4.59697 8.33334 4 7.73637 4 7V5.33334C4 4.59697 4.59697 4 5.33334 4Z" fill="#3F45EA"/>
<path d="M11.1667 15.6665H12.8334C13.5697 15.6665 14.1667 16.2635 14.1667 16.9998V18.6665C14.1667 19.4029 13.5697 19.9998 12.8334 19.9998H11.1667C10.4303 19.9998 9.83337 19.4029 9.83337 18.6665V16.9998C9.83341 16.2635 10.4303 15.6665 11.1667 15.6665Z" fill="#18204E"/>
<path d="M11.1667 9.8335H12.8334C13.5697 9.8335 14.1667 10.4305 14.1667 11.1668V12.8335C14.1667 13.5699 13.5697 14.1668 12.8334 14.1668H11.1667C10.4303 14.1668 9.83337 13.5699 9.83337 12.8335V11.1668C9.83341 10.4304 10.4303 9.8335 11.1667 9.8335Z" fill="#18204E"/>
<path d="M11.1667 4H12.8334C13.5697 4 14.1667 4.59697 14.1667 5.33334V7C14.1667 7.73637 13.5697 8.33334 12.8334 8.33334H11.1667C10.4303 8.33334 9.83337 7.73637 9.83337 7V5.33334C9.83341 4.59697 10.4303 4 11.1667 4Z" fill="#18204E"/>
<path d="M17 4H18.6666C19.403 4 20 4.59697 20 5.33334V7C20 7.73637 19.403 8.33334 18.6666 8.33334H17C16.2636 8.33334 15.6666 7.73637 15.6666 7V5.33334C15.6666 4.59697 16.2636 4 17 4Z" fill="#18204E"/>
</svg>
