<svg width="24" height="24" viewBox="0 0 24 24" fill="none" xmlns="http://www.w3.org/2000/svg">
<path d="M7.29991 12.268C7.78832 12.5943 8.36253 12.7685 8.94993 12.7685C9.73734 12.7677 10.4923 12.4545 11.049 11.8977C11.6058 11.3409 11.919 10.586 11.9199 9.79857C11.9199 9.21117 11.7457 8.63696 11.4194 8.14855C11.093 7.66015 10.6292 7.27948 10.0865 7.05469C9.5438 6.8299 8.94664 6.77109 8.37052 6.88568C7.7944 7.00028 7.26521 7.28314 6.84985 7.6985C6.4345 8.11385 6.15164 8.64305 6.03704 9.21916C5.92244 9.79528 5.98126 10.3924 6.20605 10.9351C6.43084 11.4778 6.8115 11.9417 7.29991 12.268Z" fill="#18204E"/>
<path d="M4.65999 20.0284H13.2399C13.4149 20.0284 13.5828 19.9589 13.7066 19.8351C13.8303 19.7114 13.8999 19.5435 13.8999 19.3684V19.0384C13.8999 17.7256 13.3784 16.4666 12.4501 15.5383C11.5218 14.61 10.2627 14.0885 8.94993 14.0885C7.63713 14.0885 6.37809 14.61 5.4498 15.5383C4.52151 16.4666 4 17.7256 4 19.0384V19.3684C4 19.5435 4.06953 19.7114 4.19331 19.8351C4.31708 19.9589 4.48495 20.0284 4.65999 20.0284Z" fill="#18204E"/>
<path d="M15.7099 9.93992C15.1225 9.93992 14.5483 9.76573 14.0599 9.43939C13.5715 9.11305 13.1908 8.6492 12.9661 8.10651C12.7413 7.56382 12.6825 6.96667 12.7971 6.39055C12.9116 5.81443 13.1945 5.28524 13.6099 4.86988C14.0252 4.45453 14.5544 4.17166 15.1305 4.05707C15.7066 3.94247 16.3038 4.00129 16.8465 4.22608C17.3892 4.45087 17.853 4.83153 18.1794 5.31994C18.5057 5.80835 18.6799 6.38256 18.6799 6.96996C18.679 7.75737 18.3658 8.51229 17.8091 9.06907C17.2523 9.62586 16.4974 9.93904 15.7099 9.93992ZM14.7721 11.2738C14.1574 11.3562 13.5664 11.5648 13.036 11.8863C12.5056 12.2078 12.0474 12.6353 11.6899 13.1422C13.1689 13.8138 14.331 15.0312 14.9331 16.5398H19.3399C19.5149 16.5398 19.6828 16.4703 19.8066 16.3465C19.9303 16.2227 19.9999 16.0549 19.9999 15.8798V15.8548C19.9992 15.1969 19.8582 14.5467 19.5862 13.9477C19.3143 13.3486 18.9177 12.8145 18.4229 12.3809C17.9281 11.9474 17.3465 11.6243 16.717 11.4334C16.0874 11.2425 15.4244 11.1881 14.7721 11.2738Z" fill="#3F45EA"/>
</svg>
