<svg width="34" height="34" viewBox="0 0 34 34" fill="none" xmlns="http://www.w3.org/2000/svg">
<mask id="mask0_3748_73833" style="mask-type:alpha" maskUnits="userSpaceOnUse" x="0" y="0" width="34" height="34">
<rect width="34" height="34" fill="#D9D9D9"/>
</mask>
<g mask="url(#mask0_3748_73833)">
<path d="M12.75 17C11.1917 17 9.85763 16.4451 8.74791 15.3354C7.63819 14.2257 7.08332 12.8917 7.08332 11.3333C7.08332 9.77499 7.63819 8.44096 8.74791 7.33124C9.85763 6.22152 11.1917 5.66666 12.75 5.66666C14.3083 5.66666 15.6424 6.22152 16.7521 7.33124C17.8618 8.44096 18.4167 9.77499 18.4167 11.3333C18.4167 12.8917 17.8618 14.2257 16.7521 15.3354C15.6424 16.4451 14.3083 17 12.75 17ZM2.83332 28.3333C2.43193 28.3333 2.09571 28.1973 1.82466 27.9253C1.55266 27.6543 1.41666 27.318 1.41666 26.9167V24.3667C1.41666 23.5639 1.62349 22.8258 2.03716 22.1524C2.44988 21.48 2.9986 20.9667 3.68332 20.6125C5.14721 19.8805 6.63471 19.3314 8.14582 18.9649C9.65693 18.5994 11.1917 18.4167 12.75 18.4167C14.3083 18.4167 15.843 18.5994 17.3542 18.9649C18.8653 19.3314 20.3528 19.8805 21.8167 20.6125C22.5014 20.9667 23.0501 21.48 23.4628 22.1524C23.8765 22.8258 24.0833 23.5639 24.0833 24.3667V26.9167C24.0833 27.318 23.9473 27.6543 23.6753 27.9253C23.4043 28.1973 23.068 28.3333 22.6667 28.3333H2.83332Z" fill="#3F45EA"/>
<path d="M25.908 19.4253C26.1791 19.6973 26.5153 19.8333 26.9167 19.8333C27.3181 19.8333 27.6543 19.6973 27.9253 19.4253C28.1973 19.1543 28.3333 18.8181 28.3333 18.4167V15.5833H31.1667C31.5681 15.5833 31.9043 15.4473 32.1753 15.1753C32.4473 14.9043 32.5833 14.5681 32.5833 14.1667C32.5833 13.7653 32.4473 13.4286 32.1753 13.1566C31.9043 12.8855 31.5681 12.75 31.1667 12.75H28.3333V9.91667C28.3333 9.51528 28.1973 9.17858 27.9253 8.90658C27.6543 8.63553 27.3181 8.5 26.9167 8.5C26.5153 8.5 26.1791 8.63553 25.908 8.90658C25.636 9.17858 25.5 9.51528 25.5 9.91667V12.75H22.6667C22.2653 12.75 21.9291 12.8855 21.658 13.1566C21.386 13.4286 21.25 13.7653 21.25 14.1667C21.25 14.5681 21.386 14.9043 21.658 15.1753C21.9291 15.4473 22.2653 15.5833 22.6667 15.5833H25.5V18.4167C25.5 18.8181 25.636 19.1543 25.908 19.4253Z" fill="#16205B"/>
</g>
</svg>
