<svg width="28" height="28" viewBox="0 0 28 28" fill="none" xmlns="http://www.w3.org/2000/svg">
<g clip-path="url(#clip0_3748_73839)">
<path d="M22.1667 9.828V8.16667C22.1667 6.00073 21.3063 3.92351 19.7747 2.39196C18.2432 0.860414 16.1659 0 14 0C11.8341 0 9.75685 0.860414 8.2253 2.39196C6.69376 3.92351 5.83334 6.00073 5.83334 8.16667V9.828C4.79426 10.2815 3.90985 11.0279 3.28826 11.9761C2.66667 12.9242 2.33483 14.0329 2.33334 15.1667V22.1667C2.3352 23.7132 2.95037 25.1959 4.04393 26.2894C5.13749 27.383 6.62015 27.9981 8.16668 28H19.8333C21.3799 27.9981 22.8625 27.383 23.9561 26.2894C25.0496 25.1959 25.6648 23.7132 25.6667 22.1667V15.1667C25.6652 14.0329 25.3334 12.9242 24.7118 11.9761C24.0902 11.0279 23.2058 10.2815 22.1667 9.828ZM8.16668 8.16667C8.16668 6.61957 8.78126 5.13584 9.87522 4.04188C10.9692 2.94791 12.4529 2.33333 14 2.33333C15.5471 2.33333 17.0308 2.94791 18.1248 4.04188C19.2188 5.13584 19.8333 6.61957 19.8333 8.16667V9.33333H8.16668V8.16667ZM23.3333 22.1667C23.3333 23.0949 22.9646 23.9852 22.3082 24.6415C21.6518 25.2979 20.7616 25.6667 19.8333 25.6667H8.16668C7.23842 25.6667 6.34818 25.2979 5.6918 24.6415C5.03543 23.9852 4.66668 23.0949 4.66668 22.1667V15.1667C4.66668 14.2384 5.03543 13.3482 5.6918 12.6918C6.34818 12.0354 7.23842 11.6667 8.16668 11.6667H19.8333C20.7616 11.6667 21.6518 12.0354 22.3082 12.6918C22.9646 13.3482 23.3333 14.2384 23.3333 15.1667V22.1667Z" fill="#16205B"/>
<path d="M14 16.3333C13.6906 16.3333 13.3938 16.4563 13.1751 16.6751C12.9563 16.8938 12.8333 17.1906 12.8333 17.5V19.8333C12.8333 20.1428 12.9563 20.4395 13.1751 20.6583C13.3938 20.8771 13.6906 21 14 21C14.3094 21 14.6062 20.8771 14.825 20.6583C15.0438 20.4395 15.1667 20.1428 15.1667 19.8333V17.5C15.1667 17.1906 15.0438 16.8938 14.825 16.6751C14.6062 16.4563 14.3094 16.3333 14 16.3333Z" fill="#3F45EA"/>
</g>
<defs>
<clipPath id="clip0_3748_73839">
<rect width="28" height="28" fill="white"/>
</clipPath>
</defs>
</svg>
