<svg width="30" height="30" viewBox="0 0 30 30" fill="none" xmlns="http://www.w3.org/2000/svg">
<path d="M14.9995 27.5C14.4214 27.5 13.8443 27.4198 13.2829 27.2595L6.27693 25.2598C4.05306 24.6248 2.5 22.5667 2.5 20.2547V6.6801C2.5 6.10547 2.96665 5.63911 3.54162 5.63911C4.1166 5.63911 4.58325 6.10547 4.58325 6.6801V20.2547C4.58325 21.6423 5.5155 22.8769 6.84982 23.2579L13.8558 25.2577C14.6047 25.4711 15.3953 25.4711 16.1453 25.2577L23.1502 23.2579C24.4845 22.8769 25.4168 21.6423 25.4168 20.2547V5.63911C25.4168 5.06448 25.8834 4.59811 26.4584 4.59811C27.0334 4.59811 27.5 5.06448 27.5 5.63911V20.2547C27.5 22.5657 25.9469 24.6237 23.7231 25.2598L16.7171 27.2595C16.1546 27.4198 15.5765 27.5 14.9995 27.5Z" fill="#222C64"/>
<path d="M18.919 2.76711C19.67 2.46731 20.5147 2.39756 21.2731 2.67759H21.2689C22.5345 3.145 23.3282 4.32548 23.3282 5.61528V18.8505C23.3282 20.2444 22.4043 21.4696 21.0626 21.8527L16.7128 23.0957C16.1524 23.2549 15.5743 23.3351 14.9962 23.3351C14.4181 23.3351 13.84 23.2549 13.2796 23.0957L8.92981 21.8527C7.58925 21.4696 6.66428 20.2444 6.66428 18.8505V5.61528C6.66428 4.32548 7.45696 3.14604 8.72253 2.67759C9.48083 2.39652 10.3256 2.46627 11.0766 2.76607L11.9911 3.13146C13.1786 3.60512 13.9567 4.75437 13.9567 6.03167V21.1219C14.2983 21.2094 14.6473 21.2541 14.9983 21.2541C15.3493 21.2541 15.6983 21.2094 16.0399 21.1219V6.03167C16.0399 4.75437 16.8191 3.60512 18.0055 3.13146L18.919 2.76711Z" fill="#3F45EA"/>
</svg>
