<svg width="24" height="24" viewBox="0 0 24 24" fill="none" xmlns="http://www.w3.org/2000/svg">
<g clip-path="url(#clip0_3089_155189)">
<path d="M16 4C16 3.44772 16.4477 3 17 3H23C23.5523 3 24 3.44772 24 4C24 4.55228 23.5523 5 23 5H17C16.4477 5 16 4.55228 16 4Z" fill="#16205B"/>
<path d="M20 -4.37114e-08C20.5523 -1.95703e-08 21 0.447715 21 1L21 7C21 7.55229 20.5523 8 20 8C19.4477 8 19 7.55229 19 7L19 1C19 0.447715 19.4477 -6.78525e-08 20 -4.37114e-08Z" fill="#16205B"/>
<path fill-rule="evenodd" clip-rule="evenodd" d="M18.8236 13.7242C18.8236 13.2524 18.4411 12.8699 17.9693 12.8699H3.03634C2.56452 12.8699 2.18202 13.2524 2.18202 13.7242V14.6722H0.900167C0.403028 14.6722 0 15.0752 0 15.5724V15.5724C0 16.0696 0.403028 16.4726 0.900167 16.4726H2.18202V21.1025C2.18202 22.7027 3.47925 23.9999 5.07946 23.9999H15.9262C17.5264 23.9999 18.8236 22.7027 18.8236 21.1025V16.4726H20.1055C20.6027 16.4726 21.0057 16.0696 21.0057 15.5724V15.5724C21.0057 15.0752 20.6027 14.6722 20.1055 14.6722H18.8236V13.7242Z" fill="#16205B"/>
<path fill-rule="evenodd" clip-rule="evenodd" d="M8.44406 8.05887C8.44406 6.92255 9.36661 6 10.5029 6C11.6393 6 12.5618 6.92255 12.5618 8.05887C12.5618 8.08273 12.5614 8.10649 12.5606 8.13015H16.6778C17.2285 8.13015 17.7567 8.34892 18.1461 8.73834C18.5355 9.12776 18.7543 9.6559 18.7543 10.2066V10.5626C18.7543 10.7588 18.6763 10.947 18.5376 11.0857C18.3989 11.2244 18.2107 11.3024 18.0145 11.3024H2.99119C2.79501 11.3024 2.60685 11.2244 2.46813 11.0857C2.3294 10.947 2.25146 10.7588 2.25146 10.5626V10.2066C2.25146 9.6559 2.47023 9.12776 2.85965 8.73834C3.24905 8.34892 3.77721 8.13015 4.32792 8.13015H8.44527C8.44447 8.10649 8.44406 8.08273 8.44406 8.05887ZM11.4621 8.13015H9.5438C9.54207 8.10662 9.54119 8.08284 9.54119 8.05887C9.54119 7.52807 9.97213 7.09713 10.5029 7.09713C11.0337 7.09713 11.4647 7.52807 11.4647 8.05887C11.4647 8.08284 11.4638 8.10662 11.4621 8.13015Z" fill="#3F45EA"/>
</g>
<defs>
<clipPath id="clip0_3089_155189">
<rect width="24" height="24" fill="white"/>
</clipPath>
</defs>
</svg>
