<svg width="14" height="14" viewBox="0 0 14 14" fill="none" xmlns="http://www.w3.org/2000/svg">
<path fill-rule="evenodd" clip-rule="evenodd" d="M6.99967 0.333603C10.6663 0.333603 13.6663 3.3336 13.6663 7.00027C13.6663 10.6669 10.6663 13.6669 6.99967 13.6669C3.33301 13.6669 0.333008 10.6669 0.333008 7.00027C0.333008 3.3336 3.33301 0.333603 6.99967 0.333603ZM10.1036 3.88876C9.86912 3.65462 9.48922 3.6549 9.25508 3.88939L7.18803 5.95963L7.14582 5.99409C7.04225 6.06233 6.9016 6.0508 6.81057 5.95958L4.74452 3.88939C4.51038 3.6549 4.13048 3.65462 3.89599 3.88876L3.84225 3.95016C3.66308 4.18521 3.68073 4.52234 3.89536 4.73729L5.96391 6.80962C6.06781 6.91372 6.06782 7.08229 5.96392 7.18639L3.89536 9.25899C3.66122 9.49348 3.6615 9.87338 3.89599 10.1075C4.13048 10.3417 4.51038 10.3414 4.74452 10.1069L6.81053 8.03587C6.91518 7.93142 7.08403 7.93159 7.18806 8.03583L9.25508 10.1069C9.48922 10.3414 9.86912 10.3417 10.1036 10.1075L10.1574 10.0461C10.3365 9.81107 10.3189 9.47394 10.1042 9.25899L8.03534 7.18641C7.93142 7.0823 7.93143 6.91371 8.03536 6.80961L10.1042 4.73729C10.3384 4.5028 10.3381 4.1229 10.1036 3.88876Z" fill="#004680"/>
</svg>
