<svg width="22" height="22" viewBox="0 0 22 22" fill="none" xmlns="http://www.w3.org/2000/svg">
<path d="M9.50002 12.8499L7.35002 10.6749C7.16669 10.4916 6.92502 10.3999 6.62502 10.3999C6.32502 10.3999 6.07502 10.4999 5.87502 10.6999C5.65836 10.9166 5.55002 11.1707 5.55002 11.4624C5.55002 11.7541 5.65836 11.9916 5.87502 12.1749L8.77502 15.0999C8.97502 15.2999 9.21669 15.3999 9.50002 15.3999C9.78336 15.3999 10.025 15.2999 10.225 15.0999L16.1 9.2249C16.2834 9.04157 16.3709 8.80824 16.3625 8.5249C16.3542 8.24157 16.2584 7.99157 16.075 7.7749C15.875 7.5749 15.625 7.4749 15.325 7.4749C15.025 7.4749 14.7667 7.5749 14.55 7.7749L9.50002 12.8499ZM11 21.4749C9.53336 21.4749 8.15419 21.2082 6.86252 20.6749C5.57086 20.1416 4.45836 19.4082 3.52502 18.4749C2.59169 17.5416 1.85836 16.4291 1.32502 15.1374C0.791691 13.8457 0.525024 12.4666 0.525024 10.9999C0.525024 9.53324 0.791691 8.15824 1.32502 6.8749C1.85836 5.59157 2.59586 4.47907 3.53752 3.5374C4.47919 2.59574 5.59169 1.85824 6.87502 1.3249C8.15836 0.791569 9.53336 0.524902 11 0.524902C12.4667 0.524902 13.8417 0.791569 15.125 1.3249C16.4084 1.85824 17.5209 2.59574 18.4625 3.5374C19.4042 4.47907 20.1417 5.5874 20.675 6.8624C21.2084 8.1374 21.475 9.51657 21.475 10.9999C21.475 12.4666 21.2084 13.8416 20.675 15.1249C20.1417 16.4082 19.4042 17.5207 18.4625 18.4624C17.5209 19.4041 16.4084 20.1416 15.125 20.6749C13.8417 21.2082 12.4667 21.4749 11 21.4749ZM11 19.3999C13.3834 19.3999 15.3792 18.5999 16.9875 16.9999C18.5959 15.3999 19.4 13.3999 19.4 10.9999C19.4 8.61657 18.5959 6.62074 16.9875 5.0124C15.3792 3.40407 13.3834 2.5999 11 2.5999C8.61669 2.5999 6.62086 3.3999 5.01252 4.9999C3.40419 6.5999 2.60002 8.5999 2.60002 10.9999C2.60002 13.3832 3.40419 15.3791 5.01252 16.9874C6.62086 18.5957 8.61669 19.3999 11 19.3999Z" fill="#3F45EA"/>
</svg>
