<svg width="74" height="44" viewBox="0 0 74 44" fill="none" xmlns="http://www.w3.org/2000/svg">
<rect width="74" height="44" rx="4" fill="#3F45EA"/>
<path d="M22.9111 19.4929C22.8581 19.0223 22.6394 18.6577 22.2549 18.3991C21.8704 18.1373 21.3865 18.0064 20.8032 18.0064C20.3856 18.0064 20.0243 18.0727 19.7194 18.2053C19.4144 18.3345 19.1775 18.5135 19.0084 18.7422C18.8427 18.9676 18.7599 19.2244 18.7599 19.5128C18.7599 19.7547 18.8162 19.9635 18.9289 20.1392C19.0449 20.3149 19.1957 20.4624 19.3813 20.5817C19.5702 20.6977 19.7724 20.7955 19.9878 20.875C20.2033 20.9512 20.4104 21.0142 20.6093 21.0639L21.6036 21.3224C21.9284 21.402 22.2615 21.5097 22.6029 21.6456C22.9443 21.7815 23.2608 21.9605 23.5525 22.1825C23.8441 22.4046 24.0795 22.6797 24.2584 23.0078C24.4407 23.3359 24.5319 23.7287 24.5319 24.1861C24.5319 24.7628 24.3827 25.2749 24.0844 25.7223C23.7894 26.1697 23.3602 26.5227 22.7968 26.7812C22.2367 27.0398 21.5589 27.169 20.7634 27.169C20.0011 27.169 19.3415 27.0481 18.7847 26.8061C18.2279 26.5642 17.7921 26.2211 17.4772 25.777C17.1623 25.3295 16.9883 24.7992 16.9552 24.1861H18.4964C18.5262 24.554 18.6455 24.8606 18.8543 25.1058C19.0664 25.3478 19.3366 25.5284 19.6647 25.6477C19.9961 25.7637 20.359 25.8217 20.7535 25.8217C21.1876 25.8217 21.5738 25.7538 21.9118 25.6179C22.2532 25.4787 22.5217 25.2865 22.7172 25.0412C22.9128 24.7926 23.0106 24.5026 23.0106 24.1712C23.0106 23.8696 22.9244 23.6226 22.752 23.4304C22.583 23.2382 22.3527 23.0791 22.061 22.9531C21.7726 22.8272 21.4462 22.7161 21.0816 22.62L19.8785 22.2919C19.0631 22.0698 18.4168 21.7434 17.9395 21.3125C17.4656 20.8816 17.2286 20.3116 17.2286 19.6023C17.2286 19.0156 17.3877 18.5036 17.7059 18.0661C18.0241 17.6286 18.4549 17.2888 18.9985 17.0469C19.5421 16.8016 20.1552 16.679 20.838 16.679C21.5274 16.679 22.1356 16.8 22.6626 17.0419C23.1929 17.2839 23.6105 17.617 23.9154 18.0412C24.2203 18.4621 24.3794 18.946 24.3927 19.4929H22.9111ZM28.4706 27.169C27.9867 27.169 27.5492 27.0795 27.1581 26.9006C26.767 26.7183 26.4571 26.4548 26.2284 26.1101C26.003 25.7654 25.8904 25.3428 25.8904 24.8423C25.8904 24.4115 25.9732 24.0568 26.1389 23.7784C26.3047 23.5 26.5284 23.2796 26.8101 23.1172C27.0918 22.9548 27.4067 22.8321 27.7547 22.7493C28.1027 22.6664 28.4574 22.6035 28.8186 22.5604C29.276 22.5073 29.6472 22.4643 29.9323 22.4311C30.2173 22.3946 30.4244 22.3366 30.5537 22.2571C30.683 22.1776 30.7476 22.0483 30.7476 21.8693V21.8345C30.7476 21.4003 30.625 21.0639 30.3797 20.8253C30.1378 20.5866 29.7765 20.4673 29.2959 20.4673C28.7954 20.4673 28.401 20.5784 28.1127 20.8004C27.8276 21.0192 27.6304 21.2628 27.521 21.5312L26.124 21.2131C26.2897 20.7491 26.5317 20.3745 26.8499 20.0895C27.1714 19.8011 27.5409 19.5923 27.9585 19.4631C28.3762 19.3305 28.8153 19.2642 29.276 19.2642C29.5809 19.2642 29.9041 19.3007 30.2455 19.3736C30.5902 19.4432 30.9117 19.5724 31.21 19.7614C31.5116 19.9503 31.7585 20.2204 31.9507 20.5717C32.143 20.9197 32.2391 21.3722 32.2391 21.929V27H30.7874V25.956H30.7277C30.6316 26.1482 30.4874 26.3371 30.2952 26.5227C30.103 26.7083 29.856 26.8625 29.5544 26.9851C29.2528 27.1077 28.8915 27.169 28.4706 27.169ZM28.7938 25.9759C29.2048 25.9759 29.5561 25.8946 29.8477 25.7322C30.1427 25.5698 30.3664 25.3577 30.5189 25.0959C30.6747 24.8307 30.7526 24.5473 30.7526 24.2457V23.2614C30.6995 23.3144 30.5968 23.3641 30.4443 23.4105C30.2952 23.4536 30.1245 23.4917 29.9323 23.5249C29.74 23.5547 29.5528 23.5829 29.3705 23.6094C29.1882 23.6326 29.0357 23.6525 28.9131 23.669C28.6247 23.7055 28.3612 23.7668 28.1226 23.853C27.8873 23.9392 27.6984 24.0634 27.5558 24.2259C27.4166 24.3849 27.347 24.5971 27.347 24.8622C27.347 25.2301 27.4829 25.5085 27.7547 25.6974C28.0265 25.883 28.3728 25.9759 28.7938 25.9759ZM35.7055 16.8182V27H34.219V16.8182H35.7055ZM44.238 19.3636L41.4688 27H39.8779L37.1038 19.3636H38.6997L40.6336 25.2401H40.7132L42.6421 19.3636H44.238ZM47.6386 27.169C47.1547 27.169 46.7172 27.0795 46.3261 26.9006C45.935 26.7183 45.6251 26.4548 45.3964 26.1101C45.171 25.7654 45.0583 25.3428 45.0583 24.8423C45.0583 24.4115 45.1412 24.0568 45.3069 23.7784C45.4726 23.5 45.6963 23.2796 45.9781 23.1172C46.2598 22.9548 46.5747 22.8321 46.9227 22.7493C47.2707 22.6664 47.6253 22.6035 47.9866 22.5604C48.444 22.5073 48.8152 22.4643 49.1002 22.4311C49.3853 22.3946 49.5924 22.3366 49.7217 22.2571C49.8509 22.1776 49.9156 22.0483 49.9156 21.8693V21.8345C49.9156 21.4003 49.7929 21.0639 49.5477 20.8253C49.3057 20.5866 48.9445 20.4673 48.4639 20.4673C47.9634 20.4673 47.569 20.5784 47.2806 20.8004C46.9956 21.0192 46.7984 21.2628 46.689 21.5312L45.292 21.2131C45.4577 20.7491 45.6997 20.3745 46.0178 20.0895C46.3393 19.8011 46.7089 19.5923 47.1265 19.4631C47.5441 19.3305 47.9833 19.2642 48.444 19.2642C48.7489 19.2642 49.0721 19.3007 49.4134 19.3736C49.7581 19.4432 50.0796 19.5724 50.3779 19.7614C50.6795 19.9503 50.9265 20.2204 51.1187 20.5717C51.3109 20.9197 51.407 21.3722 51.407 21.929V27H49.9553V25.956H49.8957C49.7996 26.1482 49.6554 26.3371 49.4632 26.5227C49.2709 26.7083 49.024 26.8625 48.7224 26.9851C48.4208 27.1077 48.0595 27.169 47.6386 27.169ZM47.9617 25.9759C48.3727 25.9759 48.724 25.8946 49.0157 25.7322C49.3107 25.5698 49.5344 25.3577 49.6869 25.0959C49.8427 24.8307 49.9205 24.5473 49.9205 24.2457V23.2614C49.8675 23.3144 49.7648 23.3641 49.6123 23.4105C49.4632 23.4536 49.2925 23.4917 49.1002 23.5249C48.908 23.5547 48.7207 23.5829 48.5384 23.6094C48.3561 23.6326 48.2037 23.6525 48.0811 23.669C47.7927 23.7055 47.5292 23.7668 47.2906 23.853C47.0552 23.9392 46.8663 24.0634 46.7238 24.2259C46.5846 24.3849 46.515 24.5971 46.515 24.8622C46.515 25.2301 46.6509 25.5085 46.9227 25.6974C47.1945 25.883 47.5408 25.9759 47.9617 25.9759ZM53.387 27V19.3636H54.8238V20.5767H54.9033C55.0425 20.1657 55.2878 19.8426 55.6391 19.6072C55.9938 19.3686 56.3948 19.2493 56.8422 19.2493C56.935 19.2493 57.0444 19.2526 57.1704 19.2592C57.2996 19.2659 57.4007 19.2741 57.4736 19.2841V20.706C57.414 20.6894 57.3079 20.6712 57.1555 20.6513C57.003 20.6281 56.8505 20.6165 56.6981 20.6165C56.3467 20.6165 56.0335 20.6911 55.7584 20.8402C55.4867 20.986 55.2712 21.1899 55.1121 21.4517C54.953 21.7102 54.8735 22.0052 54.8735 22.3366V27H53.387Z" fill="white"/>
</svg>
