<svg width="20" height="20" viewBox="0 0 20 20" fill="none" xmlns="http://www.w3.org/2000/svg">
<path fill-rule="evenodd" clip-rule="evenodd" d="M17.402 16.4019C17.0116 16.7922 16.323 16.7372 15.863 16.2771L10.522 10.9361L4.79877 16.6593C4.33957 17.1185 3.6501 17.1744 3.25978 16.7841C2.86945 16.3938 2.92536 15.7043 3.38456 15.2451L9.10774 9.5219L3.38461 3.79877C2.92541 3.33957 2.8695 2.6501 3.25983 2.25978C3.65015 1.86945 4.33962 1.92536 4.79882 2.38456L10.522 8.10769L15.8629 2.76673C16.323 2.30669 17.0116 2.25162 17.4019 2.64195C17.7922 3.03227 17.7372 3.72091 17.2771 4.18094L11.9362 9.5219L17.2772 14.8629C17.7372 15.323 17.7923 16.0116 17.402 16.4019Z" fill="#D21C1C"/>
</svg>
