<svg width="20" height="20" viewBox="0 0 20 20" fill="none" xmlns="http://www.w3.org/2000/svg">
<path d="M3 17.2499H4.4L13.025 8.6249L11.625 7.2249L3 15.8499V17.2499ZM2 19.2499C1.71667 19.2499 1.47933 19.1539 1.288 18.9619C1.096 18.7706 1 18.5332 1 18.2499V15.4249C1 15.2916 1.025 15.1626 1.075 15.0379C1.125 14.9126 1.2 14.7999 1.3 14.6999L11.6 4.3999L15.85 8.6499L5.55 18.9499C5.45 19.0499 5.33767 19.1249 5.213 19.1749C5.08767 19.2249 4.95833 19.2499 4.825 19.2499H2Z" fill="#3F45EA"/>
<path d="M13.05 2.975L17.3 7.175L18.725 5.75C19.1084 5.36667 19.2917 4.90433 19.275 4.363C19.2584 3.821 19.0584 3.35833 18.675 2.975L17.275 1.575C16.8917 1.19167 16.421 1 15.863 1C15.3044 1 14.8334 1.19167 14.45 1.575L13.05 2.975Z" fill="#1C1F7F"/>
</svg>
