<svg width="24" height="20" viewBox="0 0 24 20" fill="none" xmlns="http://www.w3.org/2000/svg">
<circle cx="9.99992" cy="10" r="6.66667" fill="#D21C1C"/>
<path d="M10.7901 6.06067L10.6516 11.153H9.35188L9.20983 6.06067H10.7901ZM10.0017 13.4257C9.76736 13.4257 9.56613 13.3429 9.39804 13.1771C9.22996 13.0091 9.1471 12.8078 9.14946 12.5735C9.1471 12.3414 9.22996 12.1426 9.39804 11.9769C9.56613 11.8111 9.76736 11.7283 10.0017 11.7283C10.2266 11.7283 10.4243 11.8111 10.5948 11.9769C10.7652 12.1426 10.8516 12.3414 10.854 12.5735C10.8516 12.7297 10.8102 12.8729 10.7297 13.0031C10.6516 13.131 10.5486 13.234 10.4208 13.3121C10.2929 13.3878 10.1533 13.4257 10.0017 13.4257Z" fill="white"/>
</svg>
