<svg width="30" height="30" viewBox="0 0 30 30" fill="none" xmlns="http://www.w3.org/2000/svg">
<path d="M11.4063 3.75H7.44794C6.13566 3.75 4.87714 4.2713 3.94922 5.19921C3.0213 6.12713 2.5 7.38565 2.5 8.69792L2.5 22.5521C2.5 23.2019 2.62798 23.8453 2.87664 24.4456C3.1253 25.0459 3.48976 25.5913 3.94922 26.0508C4.87714 26.9787 6.13566 27.5 7.44794 27.5H16.3542V8.69792C16.3542 8.04815 16.2262 7.40474 15.9776 6.80443C15.7289 6.20412 15.3645 5.65867 14.905 5.19921C14.4455 4.73975 13.9001 4.37529 13.2998 4.12664C12.6995 3.87798 12.0561 3.75 11.4063 3.75ZM7.44794 22.5521H6.45835C6.19589 22.5521 5.94419 22.4478 5.75861 22.2622C5.57302 22.0767 5.46876 21.825 5.46876 21.5625C5.46876 21.3 5.57302 21.0483 5.75861 20.8628C5.94419 20.6772 6.19589 20.5729 6.45835 20.5729H7.44794C7.71039 20.5729 7.9621 20.6772 8.14768 20.8628C8.33326 21.0483 8.43752 21.3 8.43752 21.5625C8.43752 21.825 8.33326 22.0767 8.14768 22.2622C7.9621 22.4478 7.71039 22.5521 7.44794 22.5521ZM7.44794 18.5938H6.45835C6.19589 18.5938 5.94419 18.4895 5.75861 18.3039C5.57302 18.1183 5.46876 17.8666 5.46876 17.6042C5.46876 17.3417 5.57302 17.09 5.75861 16.9044C5.94419 16.7188 6.19589 16.6146 6.45835 16.6146H7.44794C7.71039 16.6146 7.9621 16.7188 8.14768 16.9044C8.33326 17.09 8.43752 17.3417 8.43752 17.6042C8.43752 17.8666 8.33326 18.1183 8.14768 18.3039C7.9621 18.4895 7.71039 18.5938 7.44794 18.5938ZM7.44794 14.6354H6.45835C6.19589 14.6354 5.94419 14.5312 5.75861 14.3456C5.57302 14.16 5.46876 13.9083 5.46876 13.6458C5.46876 13.3834 5.57302 13.1317 5.75861 12.9461C5.94419 12.7605 6.19589 12.6562 6.45835 12.6562H7.44794C7.71039 12.6562 7.9621 12.7605 8.14768 12.9461C8.33326 13.1317 8.43752 13.3834 8.43752 13.6458C8.43752 13.9083 8.33326 14.16 8.14768 14.3456C7.9621 14.5312 7.71039 14.6354 7.44794 14.6354ZM7.44794 10.6771H6.45835C6.19589 10.6771 5.94419 10.5728 5.75861 10.3872C5.57302 10.2017 5.46876 9.94995 5.46876 9.6875C5.46876 9.42505 5.57302 9.17334 5.75861 8.98776C5.94419 8.80218 6.19589 8.69792 6.45835 8.69792H7.44794C7.71039 8.69792 7.9621 8.80218 8.14768 8.98776C8.33326 9.17334 8.43752 9.42505 8.43752 9.6875C8.43752 9.94995 8.33326 10.2017 8.14768 10.3872C7.9621 10.5728 7.71039 10.6771 7.44794 10.6771ZM12.3959 22.5521H11.4063C11.1438 22.5521 10.8921 22.4478 10.7065 22.2622C10.521 22.0767 10.4167 21.825 10.4167 21.5625C10.4167 21.3 10.521 21.0483 10.7065 20.8628C10.8921 20.6772 11.1438 20.5729 11.4063 20.5729H12.3959C12.6583 20.5729 12.91 20.6772 13.0956 20.8628C13.2812 21.0483 13.3855 21.3 13.3855 21.5625C13.3855 21.825 13.2812 22.0767 13.0956 22.2622C12.91 22.4478 12.6583 22.5521 12.3959 22.5521ZM12.3959 18.5938H11.4063C11.1438 18.5938 10.8921 18.4895 10.7065 18.3039C10.521 18.1183 10.4167 17.8666 10.4167 17.6042C10.4167 17.3417 10.521 17.09 10.7065 16.9044C10.8921 16.7188 11.1438 16.6146 11.4063 16.6146H12.3959C12.6583 16.6146 12.91 16.7188 13.0956 16.9044C13.2812 17.09 13.3855 17.3417 13.3855 17.6042C13.3855 17.8666 13.2812 18.1183 13.0956 18.3039C12.91 18.4895 12.6583 18.5938 12.3959 18.5938ZM12.3959 14.6354H11.4063C11.1438 14.6354 10.8921 14.5312 10.7065 14.3456C10.521 14.16 10.4167 13.9083 10.4167 13.6458C10.4167 13.3834 10.521 13.1317 10.7065 12.9461C10.8921 12.7605 11.1438 12.6562 11.4063 12.6562H12.3959C12.6583 12.6562 12.91 12.7605 13.0956 12.9461C13.2812 13.1317 13.3855 13.3834 13.3855 13.6458C13.3855 13.9083 13.2812 14.16 13.0956 14.3456C12.91 14.5312 12.6583 14.6354 12.3959 14.6354ZM12.3959 10.6771H11.4063C11.1438 10.6771 10.8921 10.5728 10.7065 10.3872C10.521 10.2017 10.4167 9.94995 10.4167 9.6875C10.4167 9.42505 10.521 9.17334 10.7065 8.98776C10.8921 8.80218 11.1438 8.69792 11.4063 8.69792H12.3959C12.6583 8.69792 12.91 8.80218 13.0956 8.98776C13.2812 9.17334 13.3855 9.42505 13.3855 9.6875C13.3855 9.94995 13.2812 10.2017 13.0956 10.3872C12.91 10.5728 12.6583 10.6771 12.3959 10.6771Z" fill="#18204E"/>
<path fill-rule="evenodd" clip-rule="evenodd" d="M21.302 8.69788H18.3333V27.5H21.302C22.6138 27.4984 23.8714 26.9766 24.799 26.049C25.7266 25.1214 26.2484 23.8638 26.25 22.552V13.6458C26.2484 12.334 25.7266 11.0764 24.799 10.1488C23.8714 9.22125 22.6138 8.69945 21.302 8.69788ZM22.5094 14.0813C23.0669 14.0813 23.5188 13.6293 23.5188 13.0719C23.5188 12.5144 23.0669 12.0625 22.5094 12.0625C21.9519 12.0625 21.5 12.5144 21.5 13.0719C21.5 13.6293 21.9519 14.0813 22.5094 14.0813ZM22.5094 18.8313C23.0669 18.8313 23.5188 18.3793 23.5188 17.8219C23.5188 17.2644 23.0669 16.8125 22.5094 16.8125C21.9519 16.8125 21.5 17.2644 21.5 17.8219C21.5 18.3793 21.9519 18.8313 22.5094 18.8313ZM23.5188 22.5719C23.5188 23.1293 23.0669 23.5813 22.5094 23.5813C21.9519 23.5813 21.5 23.1293 21.5 22.5719C21.5 22.0144 21.9519 21.5625 22.5094 21.5625C23.0669 21.5625 23.5188 22.0144 23.5188 22.5719Z" fill="#3F45EA"/>
</svg>
