<svg width="25" height="25" viewBox="0 0 25 25" fill="none" xmlns="http://www.w3.org/2000/svg">
<path d="M9.40629 0.75H5.44794C4.13566 0.75 2.87714 1.2713 1.94922 2.19921C1.0213 3.12713 0.5 4.38565 0.5 5.69792L0.5 19.5521C0.5 20.2019 0.627982 20.8453 0.876639 21.4456C1.1253 22.0459 1.48976 22.5913 1.94922 23.0508C2.87714 23.9787 4.13566 24.5 5.44794 24.5H14.3542V5.69792C14.3542 5.04815 14.2262 4.40474 13.9776 3.80443C13.7289 3.20412 13.3645 2.65867 12.905 2.19921C12.4455 1.73975 11.9001 1.37529 11.2998 1.12664C10.6995 0.877982 10.0561 0.75 9.40629 0.75ZM5.44794 19.5521H4.45835C4.19589 19.5521 3.94419 19.4478 3.75861 19.2622C3.57302 19.0767 3.46876 18.825 3.46876 18.5625C3.46876 18.3 3.57302 18.0483 3.75861 17.8628C3.94419 17.6772 4.19589 17.5729 4.45835 17.5729H5.44794C5.71039 17.5729 5.9621 17.6772 6.14768 17.8628C6.33326 18.0483 6.43752 18.3 6.43752 18.5625C6.43752 18.825 6.33326 19.0767 6.14768 19.2622C5.9621 19.4478 5.71039 19.5521 5.44794 19.5521ZM5.44794 15.5938H4.45835C4.19589 15.5938 3.94419 15.4895 3.75861 15.3039C3.57302 15.1183 3.46876 14.8666 3.46876 14.6042C3.46876 14.3417 3.57302 14.09 3.75861 13.9044C3.94419 13.7188 4.19589 13.6146 4.45835 13.6146H5.44794C5.71039 13.6146 5.9621 13.7188 6.14768 13.9044C6.33326 14.09 6.43752 14.3417 6.43752 14.6042C6.43752 14.8666 6.33326 15.1183 6.14768 15.3039C5.9621 15.4895 5.71039 15.5938 5.44794 15.5938ZM5.44794 11.6354H4.45835C4.19589 11.6354 3.94419 11.5312 3.75861 11.3456C3.57302 11.16 3.46876 10.9083 3.46876 10.6458C3.46876 10.3834 3.57302 10.1317 3.75861 9.94609C3.94419 9.76051 4.19589 9.65625 4.45835 9.65625H5.44794C5.71039 9.65625 5.9621 9.76051 6.14768 9.94609C6.33326 10.1317 6.43752 10.3834 6.43752 10.6458C6.43752 10.9083 6.33326 11.16 6.14768 11.3456C5.9621 11.5312 5.71039 11.6354 5.44794 11.6354ZM5.44794 7.67708H4.45835C4.19589 7.67708 3.94419 7.57282 3.75861 7.38724C3.57302 7.20166 3.46876 6.94995 3.46876 6.6875C3.46876 6.42505 3.57302 6.17334 3.75861 5.98776C3.94419 5.80218 4.19589 5.69792 4.45835 5.69792H5.44794C5.71039 5.69792 5.9621 5.80218 6.14768 5.98776C6.33326 6.17334 6.43752 6.42505 6.43752 6.6875C6.43752 6.94995 6.33326 7.20166 6.14768 7.38724C5.9621 7.57282 5.71039 7.67708 5.44794 7.67708ZM10.3959 19.5521H9.40629C9.14383 19.5521 8.89213 19.4478 8.70654 19.2622C8.52096 19.0767 8.4167 18.825 8.4167 18.5625C8.4167 18.3 8.52096 18.0483 8.70654 17.8628C8.89213 17.6772 9.14383 17.5729 9.40629 17.5729H10.3959C10.6583 17.5729 10.91 17.6772 11.0956 17.8628C11.2812 18.0483 11.3855 18.3 11.3855 18.5625C11.3855 18.825 11.2812 19.0767 11.0956 19.2622C10.91 19.4478 10.6583 19.5521 10.3959 19.5521ZM10.3959 15.5938H9.40629C9.14383 15.5938 8.89213 15.4895 8.70654 15.3039C8.52096 15.1183 8.4167 14.8666 8.4167 14.6042C8.4167 14.3417 8.52096 14.09 8.70654 13.9044C8.89213 13.7188 9.14383 13.6146 9.40629 13.6146H10.3959C10.6583 13.6146 10.91 13.7188 11.0956 13.9044C11.2812 14.09 11.3855 14.3417 11.3855 14.6042C11.3855 14.8666 11.2812 15.1183 11.0956 15.3039C10.91 15.4895 10.6583 15.5938 10.3959 15.5938ZM10.3959 11.6354H9.40629C9.14383 11.6354 8.89213 11.5312 8.70654 11.3456C8.52096 11.16 8.4167 10.9083 8.4167 10.6458C8.4167 10.3834 8.52096 10.1317 8.70654 9.94609C8.89213 9.76051 9.14383 9.65625 9.40629 9.65625H10.3959C10.6583 9.65625 10.91 9.76051 11.0956 9.94609C11.2812 10.1317 11.3855 10.3834 11.3855 10.6458C11.3855 10.9083 11.2812 11.16 11.0956 11.3456C10.91 11.5312 10.6583 11.6354 10.3959 11.6354ZM10.3959 7.67708H9.40629C9.14383 7.67708 8.89213 7.57282 8.70654 7.38724C8.52096 7.20166 8.4167 6.94995 8.4167 6.6875C8.4167 6.42505 8.52096 6.17334 8.70654 5.98776C8.89213 5.80218 9.14383 5.69792 9.40629 5.69792H10.3959C10.6583 5.69792 10.91 5.80218 11.0956 5.98776C11.2812 6.17334 11.3855 6.42505 11.3855 6.6875C11.3855 6.94995 11.2812 7.20166 11.0956 7.38724C10.91 7.57282 10.6583 7.67708 10.3959 7.67708Z" fill="#18204E"/>
<path fill-rule="evenodd" clip-rule="evenodd" d="M19.302 5.69788H16.3333V24.5H19.302C20.6138 24.4984 21.8714 23.9766 22.799 23.049C23.7266 22.1214 24.2484 20.8638 24.25 19.552V10.6458C24.2484 9.33401 23.7266 8.0764 22.799 7.14882C21.8714 6.22125 20.6138 5.69945 19.302 5.69788ZM20.5094 11.0813C21.0669 11.0813 21.5188 10.6293 21.5188 10.0719C21.5188 9.51442 21.0669 9.06251 20.5094 9.06251C19.9519 9.06251 19.5 9.51442 19.5 10.0719C19.5 10.6293 19.9519 11.0813 20.5094 11.0813ZM20.5094 15.8313C21.0669 15.8313 21.5188 15.3793 21.5188 14.8219C21.5188 14.2644 21.0669 13.8125 20.5094 13.8125C19.9519 13.8125 19.5 14.2644 19.5 14.8219C19.5 15.3793 19.9519 15.8313 20.5094 15.8313ZM21.5188 19.5719C21.5188 20.1293 21.0669 20.5813 20.5094 20.5813C19.9519 20.5813 19.5 20.1293 19.5 19.5719C19.5 19.0144 19.9519 18.5625 20.5094 18.5625C21.0669 18.5625 21.5188 19.0144 21.5188 19.5719Z" fill="#3F45EA"/>
</svg>
