<svg width="24" height="24" viewBox="0 0 24 24" fill="none" xmlns="http://www.w3.org/2000/svg">
<path d="M12.0551 9.33333C12.3204 9.33333 12.5747 9.22798 12.7622 9.04044C12.9498 8.8529 13.0551 8.59855 13.0551 8.33333L13.0551 7.8C13.0551 7.32261 13.2448 6.86477 13.5823 6.52721C13.9199 6.18964 14.3777 6 14.8551 6L15.9218 6C16.3992 6 16.857 6.18964 17.1946 6.52721C17.5322 6.86477 17.7218 7.32261 17.7218 7.8L17.7218 16.2C17.7218 16.6774 17.5322 17.1352 17.1946 17.4728C16.857 17.8104 16.3992 18 15.9218 18L14.8551 18C14.3777 18 13.9199 17.8104 13.5823 17.4728C13.2448 17.1352 13.0551 16.6774 13.0551 16.2L13.0551 15.6667C13.0551 15.4014 12.9498 15.1471 12.7622 14.9596C12.5747 14.772 12.3204 14.6667 12.0551 14.6667C11.7899 14.6667 11.5356 14.772 11.348 14.9596C11.1605 15.1471 11.0551 15.4014 11.0551 15.6667L11.0551 16.2C11.0562 17.2075 11.4569 18.1734 12.1693 18.8858C12.8817 19.5982 13.8476 19.9989 14.8551 20L15.9218 20C16.9293 19.9989 17.8952 19.5982 18.6076 18.8858C19.32 18.1734 19.7207 17.2075 19.7218 16.2L19.7218 7.8C19.7207 6.7925 19.32 5.82657 18.6076 5.11416C17.8952 4.40175 16.9293 4.00106 15.9218 4L14.8551 4C13.8476 4.00106 12.8817 4.40175 12.1693 5.11416C11.4569 5.82657 11.0562 6.7925 11.0551 7.8L11.0551 8.33333C11.0551 8.59855 11.1605 8.8529 11.348 9.04044C11.5356 9.22798 11.7899 9.33333 12.0551 9.33333Z" fill="#FAFAFE"/>
<path d="M4.68117 13.6499L7.73851 16.7072C7.8314 16.8001 7.94166 16.8737 8.06301 16.924C8.18436 16.9742 8.31441 17 8.44574 17C8.57708 17 8.70712 16.9741 8.82844 16.9238C8.94977 16.8735 9.06 16.7998 9.15284 16.7069C9.34035 16.5193 9.44566 16.2649 9.44559 15.9997C9.44556 15.8683 9.41966 15.7383 9.36938 15.617C9.31909 15.4957 9.2454 15.3854 9.15251 15.2926L6.87851 13.0186L15.0552 12.9999C15.3204 12.9999 15.5747 12.8946 15.7623 12.707C15.9498 12.5195 16.0552 12.2651 16.0552 11.9999C16.0552 11.7347 15.9498 11.4803 15.7623 11.2928C15.5747 11.1053 15.3204 10.9999 15.0552 10.9999L6.84317 11.0186L9.15451 8.70725C9.34211 8.51974 9.44753 8.26539 9.44759 8.00015C9.44766 7.73491 9.34235 7.48051 9.15484 7.29291C8.96733 7.10532 8.71298 6.99989 8.44774 6.99983C8.18251 6.99977 7.92811 7.10507 7.74051 7.29258L4.68317 10.3499C4.24609 10.7877 4.00043 11.3809 4.00005 11.9995C3.99968 12.6181 4.24462 13.2116 4.68117 13.6499Z" fill="#FAFAFE"/>
</svg>
