<svg width="143" height="74" viewBox="0 0 143 74" fill="none" xmlns="http://www.w3.org/2000/svg">
<path d="M18.1698 17.4519H26.4571V24.9859H18.1698V45.2904C18.1698 47.1943 18.4875 48.4636 19.1252 49.096C19.7628 49.7307 21.0382 50.0469 22.9511 50.0469C24.2264 50.0469 25.3943 49.9422 26.4571 49.7307V58.534C25.5018 58.6932 24.4367 58.7978 23.2688 58.8502C22.1009 58.9025 20.9582 58.9298 19.8428 58.9298C18.0898 58.9298 16.4283 58.8115 14.8627 58.5726C13.2948 58.3361 11.9144 57.8584 10.7191 57.1441C9.52374 56.4298 8.57982 55.438 7.88959 54.171C7.19937 52.9017 6.85425 51.2366 6.85425 49.1756V24.9882H0V17.4519H6.85425V5.15916H18.1698V17.4519Z" fill="#16205B"/>
<path d="M30.5985 30.0631C30.7585 27.4199 31.4212 25.2247 32.5891 23.48C33.757 21.7353 35.2449 20.334 37.0528 19.2762C38.8583 18.2185 40.8787 17.4655 43.1094 17.0151C45.34 16.567 47.6233 16.3418 49.9636 16.3418C52.0366 16.3418 54.1324 16.4874 56.2579 16.7786C58.3812 17.0697 60.3216 17.6384 62.0746 18.4824C63.8275 19.3286 65.2628 20.5183 66.3782 22.0514C67.4935 23.5846 68.0512 25.5682 68.0512 27.9999V49.3348C68.0512 51.1865 68.1563 52.9585 68.3689 54.6487C68.5814 56.3411 68.9539 57.6104 69.4842 58.4566H58.0086C57.7961 57.8219 57.6224 57.1759 57.4898 56.514C57.3573 55.8543 57.2636 55.1787 57.211 54.4917C55.4054 56.3433 53.2799 57.6513 50.8367 58.4179C48.3912 59.1845 45.8954 59.5689 43.3471 59.5689C41.3815 59.5689 39.5485 59.3164 37.8481 58.816C36.1477 58.3133 34.6598 57.5603 33.3845 56.5549C32.1092 55.5517 31.1127 54.2824 30.3973 52.7492C29.6797 51.216 29.3209 49.3917 29.3209 47.2762C29.3209 44.9491 29.7185 43.0338 30.5162 41.5256C31.3138 40.0197 32.3743 38.8164 33.7045 37.9178C35.0324 37.0193 36.5339 36.346 38.2069 35.8956C39.8799 35.4475 41.5941 35.0903 43.3471 34.8242C45.1 34.5603 46.773 34.3488 48.3683 34.1895C49.9613 34.0303 51.3829 33.7937 52.6308 33.4753C53.8787 33.1568 54.8752 32.695 55.618 32.0877C56.3608 31.4803 56.7333 30.5931 56.7333 29.4307C56.7333 28.2137 56.5345 27.2493 56.1345 26.535C55.7368 25.8207 55.2043 25.2657 54.5415 24.8699C53.8764 24.4741 53.1062 24.2102 52.2309 24.076C51.3532 23.944 50.4093 23.8781 49.4014 23.8781C47.2233 23.8781 45.484 24.3535 44.1813 25.3066C42.8785 26.2575 42.122 27.8452 41.9095 30.0654H30.5985V30.0631ZM56.7356 38.391C56.2579 38.8141 55.6591 39.1439 54.9415 39.3828C54.2238 39.6216 53.4536 39.8195 52.6308 39.9788C51.8057 40.138 50.9304 40.2699 50.0002 40.3746C49.07 40.4815 48.1809 40.6134 47.3307 40.7704C46.4279 40.9296 45.5777 41.1412 44.7801 41.405C43.9824 41.6712 43.2785 42.026 42.6683 42.4764C42.058 42.9268 41.5644 43.5069 41.1941 44.2212C40.8216 44.9355 40.6364 45.7953 40.6364 46.7985C40.6364 47.8562 40.8216 48.7161 41.1941 49.3758C41.5644 50.0377 42.0695 50.5655 42.7071 50.9613C43.3448 51.3571 44.0876 51.6346 44.9378 51.7938C45.788 51.9531 46.6633 52.0327 47.5684 52.0327C49.7991 52.0327 51.5246 51.6642 52.7474 50.9226C53.9678 50.1833 54.8706 49.2962 55.4557 48.2657C56.0408 47.2352 56.3973 46.1911 56.5322 45.1334C56.6647 44.0756 56.731 43.2294 56.731 42.5947V38.391H56.7356Z" fill="#16205B"/>
<path d="M112.438 55.8407C112.438 56.9507 112.344 58.1814 112.159 59.528C111.972 60.877 111.613 62.2236 111.083 63.5725C110.55 64.9215 109.807 66.2158 108.852 67.4578C107.897 68.6998 106.621 69.8099 105.026 70.7881C103.433 71.7662 101.493 72.5464 99.2095 73.1288C96.924 73.7088 94.2157 74 91.0823 74C89.0619 74 87.0049 73.7475 84.9068 73.2471C82.8087 72.7443 80.8957 71.9641 79.1702 70.9063C77.4446 69.8486 76.0093 68.4883 74.8666 66.8232C73.7238 65.158 73.0747 63.1608 72.9147 60.8337H84.1503C84.6805 62.947 85.7159 64.4142 87.2586 65.2354C88.799 66.0543 90.5772 66.4637 92.5976 66.4637C95.731 66.4637 98.0417 65.5129 99.5295 63.6089C101.017 61.705 101.733 59.2733 101.68 56.3115V50.9181H101.52C100.297 53.0859 98.5582 54.6851 96.3001 55.7155C94.042 56.746 91.6651 57.2624 89.1693 57.2624C86.0884 57.2624 83.4327 56.721 81.1997 55.6359C78.969 54.5531 77.1361 53.0723 75.7008 51.1933C74.2677 49.3167 73.2164 47.1215 72.5536 44.6102C71.8885 42.0989 71.5571 39.442 71.5571 36.6395C71.5571 33.9962 71.9411 31.4439 72.7136 28.9872C73.4838 26.5282 74.6129 24.3603 76.1007 22.4837C77.5863 20.607 79.4353 19.1125 81.6385 18.0024C83.8418 16.8923 86.381 16.3373 89.2493 16.3373C91.9599 16.3373 94.3346 16.84 96.3801 17.8432C98.4256 18.8486 100.137 20.5388 101.52 22.9182H101.68V17.4519H112.438V55.8407ZM92.0376 48.7821C93.6306 48.7821 95.0385 48.4636 96.2612 47.8312C97.4817 47.1966 98.4919 46.3527 99.2895 45.2926C100.087 44.2349 100.684 43.0315 101.084 41.6826C101.481 40.3337 101.68 38.921 101.68 37.4402C101.68 35.8024 101.52 34.2146 101.203 32.6814C100.883 31.1482 100.352 29.7993 99.6095 28.6369C98.8644 27.4745 97.868 26.5487 96.6201 25.8617C95.3722 25.1747 93.8432 24.8312 92.0376 24.8312C90.4446 24.8312 89.0756 25.1497 87.9328 25.7821C86.7901 26.4167 85.8347 27.2766 85.0645 28.3594C84.2943 29.4444 83.7366 30.6864 83.3915 32.0877C83.0441 33.4889 82.8727 34.9561 82.8727 36.4893C82.8727 37.9702 83.019 39.4374 83.3115 40.891C83.6041 42.3468 84.1092 43.6548 84.8245 44.8172C85.5422 45.9819 86.4838 46.9327 87.654 47.672C88.8242 48.4113 90.2846 48.7821 92.0376 48.7821Z" fill="#16205B"/>
<path d="M131.497 19.067L131.223 13.0139L137.305 13.2868L143 18.9555L137.193 24.7357L131.497 19.067Z" fill="#16205B"/>
<path d="M129.568 19.067L129.842 13.0139L123.763 13.2868L118.065 18.9555L123.873 24.7357L129.568 19.067Z" fill="#16205B"/>
<path d="M129.568 5.66868L129.842 11.7218L123.763 11.4488L118.065 5.78015L123.873 0L129.568 5.66868Z" fill="#16205B"/>
<path d="M131.497 5.66868L131.223 11.7218L137.305 11.4488L143 5.78015L137.193 0L131.497 5.66868Z" fill="#16205B"/>
</svg>
