<svg width="34" height="17" viewBox="0 0 34 17" fill="none" xmlns="http://www.w3.org/2000/svg">
<path d="M1.17719 17C0.854039 17 0.577054 16.8846 0.346232 16.6538C0.115411 16.423 0 16.146 0 15.8228V15.0611C0 14.1147 0.484725 13.3588 1.45417 12.7933C2.42362 12.2278 3.70468 11.945 5.29735 11.945C5.52817 11.945 5.76476 11.9508 6.00713 11.9623C6.24949 11.9739 6.47454 11.9912 6.68228 12.0143C6.49762 12.4297 6.35913 12.8568 6.2668 13.2953C6.17447 13.7339 6.12831 14.1955 6.12831 14.6802V17H1.17719ZM27.3177 17V14.6802C27.3177 14.1955 27.2715 13.7339 27.1792 13.2953C27.0869 12.8568 26.9484 12.4297 26.7637 12.0143C26.9715 11.9912 27.1965 11.9739 27.4389 11.9623C27.6813 11.9508 27.9179 11.945 28.1487 11.945C29.7183 11.945 30.9935 12.2278 31.9745 12.7933C32.9555 13.3588 33.446 14.1147 33.446 15.0611V15.8228C33.446 16.146 33.3306 16.423 33.0998 16.6538C32.869 16.8846 32.592 17 32.2688 17H27.3177ZM5.29735 10.9409C4.60489 10.9409 4.01629 10.6986 3.53157 10.2139C3.04684 9.72913 2.80448 9.14053 2.80448 8.44807C2.80448 7.75561 3.04684 7.16701 3.53157 6.68229C4.01629 6.19756 4.60489 5.9552 5.29735 5.9552C5.98982 5.9552 6.57841 6.19756 7.06314 6.68229C7.54786 7.16701 7.79022 7.75561 7.79022 8.44807C7.79022 9.14053 7.54786 9.72913 7.06314 10.2139C6.57841 10.6986 5.98982 10.9409 5.29735 10.9409ZM28.1487 10.9409C27.4562 10.9409 26.8676 10.6986 26.3829 10.2139C25.8982 9.72913 25.6558 9.14053 25.6558 8.44807C25.6558 7.75561 25.8982 7.16701 26.3829 6.68229C26.8676 6.19756 27.4562 5.9552 28.1487 5.9552C28.8411 5.9552 29.4297 6.19756 29.9145 6.68229C30.3992 7.16701 30.6415 7.75561 30.6415 8.44807C30.6415 9.14053 30.3992 9.72913 29.9145 10.2139C29.4297 10.6986 28.8411 10.9409 28.1487 10.9409Z" fill="#18204E"/>
<path d="M8.6558 16.6538C8.88662 16.8846 9.16361 17 9.48676 17H23.9593C24.2824 17 24.5594 16.8846 24.7902 16.6538C25.021 16.4229 25.1365 16.146 25.1365 15.8228V14.6802C25.1365 13.1568 24.3632 11.9162 22.8167 10.9582C21.2702 10.0003 19.239 9.52139 16.723 9.52139C14.2071 9.52139 12.1758 10.0003 10.6293 10.9582C9.08282 11.9162 8.30957 13.1568 8.30957 14.6802V15.8228C8.30957 16.146 8.42498 16.4229 8.6558 16.6538Z" fill="#3F45EA"/>
<path d="M13.7108 7.25356C14.5417 8.07298 15.5458 8.48269 16.723 8.48269C17.9002 8.48269 18.9043 8.07298 19.7352 7.25356C20.5662 6.43415 20.9817 5.4243 20.9817 4.22403C20.9817 3.04684 20.5662 2.04854 19.7352 1.22912C18.9043 0.409708 17.9002 0 16.723 0C15.5458 0 14.5417 0.409708 13.7108 1.22912C12.8798 2.04854 12.4644 3.04684 12.4644 4.22403C12.4644 5.4243 12.8798 6.43415 13.7108 7.25356Z" fill="#3F45EA"/>
</svg>
