<svg width="30" height="30" viewBox="0 0 30 30" fill="none" xmlns="http://www.w3.org/2000/svg">
<path d="M1.0207 22.9999C0.740511 22.9999 0.500345 22.8981 0.300207 22.6944C0.100069 22.4908 0 22.2464 0 21.9612V21.2891C0 20.4541 0.42029 19.7871 1.26087 19.2881C2.10145 18.7891 3.21222 18.5396 4.59317 18.5396C4.79331 18.5396 4.99845 18.5447 5.20859 18.5549C5.41874 18.5651 5.61387 18.5804 5.794 18.6007C5.63388 18.9673 5.5138 19.3441 5.43375 19.7311C5.35369 20.1181 5.31366 20.5254 5.31366 20.9531V22.9999H1.0207ZM23.6863 22.9999V20.9531C23.6863 20.5254 23.6463 20.1181 23.5663 19.7311C23.4862 19.3441 23.3661 18.9673 23.206 18.6007C23.3861 18.5804 23.5813 18.5651 23.7914 18.5549C24.0016 18.5447 24.2067 18.5396 24.4068 18.5396C25.7678 18.5396 26.8735 18.7891 27.7241 19.2881C28.5747 19.7871 29 20.4541 29 21.2891V21.9612C29 22.2464 28.8999 22.4908 28.6998 22.6944C28.4997 22.8981 28.2595 22.9999 27.9793 22.9999H23.6863ZM4.59317 17.6537C3.99275 17.6537 3.4824 17.4399 3.06211 17.0122C2.64182 16.5845 2.43168 16.0651 2.43168 15.4541C2.43168 14.8431 2.64182 14.3238 3.06211 13.8961C3.4824 13.4684 3.99275 13.2545 4.59317 13.2545C5.19358 13.2545 5.70393 13.4684 6.12422 13.8961C6.54451 14.3238 6.75466 14.8431 6.75466 15.4541C6.75466 16.0651 6.54451 16.5845 6.12422 17.0122C5.70393 17.4399 5.19358 17.6537 4.59317 17.6537ZM24.4068 17.6537C23.8064 17.6537 23.2961 17.4399 22.8758 17.0122C22.4555 16.5845 22.2453 16.0651 22.2453 15.4541C22.2453 14.8431 22.4555 14.3238 22.8758 13.8961C23.2961 13.4684 23.8064 13.2545 24.4068 13.2545C25.0072 13.2545 25.5176 13.4684 25.9379 13.8961C26.3582 14.3238 26.5683 14.8431 26.5683 15.4541C26.5683 16.0651 26.3582 16.5845 25.9379 17.0122C25.5176 17.4399 25.0072 17.6537 24.4068 17.6537Z" fill="#18204E"/>
<path d="M7.50504 22.6945C7.70518 22.8982 7.94534 23 8.22554 23H20.7742C21.0544 23 21.2946 22.8982 21.4947 22.6945C21.6948 22.4908 21.7949 22.2464 21.7949 21.9613V20.9532C21.7949 19.609 21.1244 18.5143 19.7835 17.669C18.4426 16.8238 16.6814 16.4012 14.4999 16.4012C12.3184 16.4012 10.5571 16.8238 9.21622 17.669C7.8753 18.5143 7.20483 19.609 7.20483 20.9532V21.9613C7.20483 22.2464 7.3049 22.4908 7.50504 22.6945Z" fill="#3F45EA"/>
<path d="M11.8881 14.4002C12.6086 15.1232 13.4792 15.4847 14.4999 15.4847C15.5206 15.4847 16.3912 15.1232 17.1117 14.4002C17.8322 13.6772 18.1924 12.7862 18.1924 11.7271C18.1924 10.6884 17.8322 9.80754 17.1117 9.08452C16.3912 8.36151 15.5206 8 14.4999 8C13.4792 8 12.6086 8.36151 11.8881 9.08452C11.1676 9.80754 10.8073 10.6884 10.8073 11.7271C10.8073 12.7862 11.1676 13.6772 11.8881 14.4002Z" fill="#3F45EA"/>
</svg>
