<svg width="23" height="22" viewBox="0 0 23 22" fill="none" xmlns="http://www.w3.org/2000/svg">
<path d="M12.0001 21.4749C10.5334 21.4749 9.15422 21.2082 7.86256 20.6749C6.57089 20.1416 5.45839 19.4082 4.52506 18.4749C3.59172 17.5416 2.85839 16.4291 2.32506 15.1374C1.79172 13.8457 1.52506 12.4666 1.52506 10.9999C1.52506 9.83324 1.69589 8.72074 2.03756 7.6624C2.37922 6.60407 2.86672 5.64157 3.50006 4.7749L1.12506 2.3999C0.958391 2.23324 0.879225 2.02907 0.887558 1.7874C0.895891 1.54574 0.975058 1.34157 1.12506 1.1749C1.29172 1.00824 1.50422 0.924902 1.76256 0.924902C2.02089 0.924902 2.23339 1.00824 2.40006 1.1749L21.6501 20.4249C21.8167 20.5916 21.9001 20.7999 21.9001 21.0499C21.9001 21.2999 21.8167 21.5082 21.6501 21.6749C21.4834 21.8416 21.2751 21.9249 21.0251 21.9249C20.7751 21.9249 20.5667 21.8416 20.4001 21.6749L18.2251 19.4999C17.3584 20.1332 16.3959 20.6207 15.3376 20.9624C14.2792 21.3041 13.1667 21.4749 12.0001 21.4749ZM12.0001 19.3999C12.9001 19.3999 13.7459 19.2791 14.5376 19.0374C15.3292 18.7957 16.0584 18.4499 16.7251 17.9999L12.5251 13.7999L11.2251 15.0999C11.0251 15.2999 10.7834 15.3999 10.5001 15.3999C10.2167 15.3999 9.97506 15.2999 9.77506 15.0999L6.87506 12.1499C6.67506 11.9666 6.57506 11.7291 6.57506 11.4374C6.57506 11.1457 6.68339 10.8916 6.90006 10.6749C7.08339 10.4916 7.32089 10.3999 7.61256 10.3999C7.90423 10.3999 8.15006 10.4916 8.35006 10.6749L10.5001 12.8249L11.0501 12.3249L5.00006 6.2749C4.55006 6.94157 4.20422 7.67074 3.96256 8.4624C3.72089 9.25407 3.60006 10.0999 3.60006 10.9999C3.60006 13.3999 4.40422 15.3999 6.01256 16.9999C7.62089 18.5999 9.61672 19.3999 12.0001 19.3999ZM20.6251 17.0249L19.1001 15.5249C19.5167 14.8749 19.8376 14.1707 20.0626 13.4124C20.2876 12.6541 20.4001 11.8499 20.4001 10.9999C20.4001 8.5999 19.5959 6.5999 17.9876 4.9999C16.3792 3.3999 14.3834 2.5999 12.0001 2.5999C11.1501 2.5999 10.3459 2.7124 9.58756 2.9374C8.82922 3.1624 8.12506 3.48324 7.47506 3.8999L5.97506 2.3749C6.80839 1.7749 7.73756 1.31657 8.76256 0.999902C9.78756 0.683236 10.8667 0.524902 12.0001 0.524902C13.4834 0.524902 14.8626 0.791569 16.1376 1.3249C17.4126 1.85824 18.5209 2.59574 19.4626 3.5374C20.4042 4.47907 21.1417 5.5874 21.6751 6.8624C22.2084 8.1374 22.4751 9.51657 22.4751 10.9999C22.4751 12.1332 22.3167 13.2124 22.0001 14.2374C21.6834 15.2624 21.2251 16.1916 20.6251 17.0249ZM14.9751 11.3749L13.4501 9.8749L15.5751 7.7499C15.7584 7.56657 15.9959 7.4749 16.2876 7.4749C16.5792 7.4749 16.8417 7.56657 17.0751 7.7499C17.2751 7.96657 17.3751 8.22074 17.3751 8.5124C17.3751 8.80407 17.2751 9.0499 17.0751 9.2499L14.9751 11.3749Z" fill="#5F738C"/>
</svg>
