<svg id="boy" xmlns="http://www.w3.org/2000/svg" xmlns:xlink="http://www.w3.org/1999/xlink" width="63" height="63" viewBox="0 0 63 63">
  <defs>
    <clipPath id="clip-path">
      <rect id="Ret창ngulo_37" data-name="Ret창ngulo 37" width="63" height="63" rx="17.008" fill="none"/>
    </clipPath>
  </defs>
  <rect id="Ret창ngulo_36" data-name="Ret창ngulo 36" width="63" height="63" rx="8" fill="#eaf4fe"/>
  <g id="Grupo_800" data-name="Grupo 800" transform="translate(0 0)">
    <g id="student-male-icon" clip-path="url(#clip-path)">
      <g id="Grupo_798" data-name="Grupo 798" transform="translate(8.649 4.887)">
        <path id="Caminho_57" data-name="Caminho 57" d="M5310.346,2315.522s-2.921,6.556-1.759,9.337c2.141,5.119-1.435,14.538-12.631,3.648-1.877-1.826,7.389-6.029,5.96-11.53S5310.346,2315.522,5310.346,2315.522Z" transform="translate(-5282.57 -2283.207)" fill="#f7b68b"/>
        <path id="Caminho_58" data-name="Caminho 58" d="M5358.918,2317.509s-2.557,1.178-3.342,9.456c0,.01-5.186.1-6.651-4.267a5.57,5.57,0,0,0,.474-4.257C5347.969,2312.94,5358.918,2317.509,5358.918,2317.509Z" transform="translate(-5330.052 -2284.67)" fill="#ec9568"/>
        <path id="Caminho_59" data-name="Caminho 59" d="M5253.645,2057.567s8.426,1.921,9.565-1.6-2.52-6.025.562-8.292,7.222-3.564,1.158-7.127-.3-8.8-4.936-10.241-6.173,1.383-10.61.407-9.064-5.793-13-.881-4.972,10.246-2.343,11.324-1.3,2.614-2.545,4.331-1.31,9.368,10.944,7.947S5248.566,2056.1,5253.645,2057.567Z" transform="translate(-5224.806 -2027.656)" fill="#202954"/>
        <path id="Caminho_60" data-name="Caminho 60" d="M5307.439,2139.062s-2.8,4.764-3.137,13.072,3.291,11.256,10.284,11.054,9.109-8.164,9.246-10.181,6.275.425,5.474-4.357-3.822-3.411-4.392-1.648-2.066,3.913-3.305,2.253,2.594-8.38-.828-7.711S5311.455,2142.937,5307.439,2139.062Z" transform="translate(-5290.222 -2127.051)" fill="#f7b68b"/>
        <g id="Grupo_794" data-name="Grupo 794" transform="translate(20.604 15.334)">
          <path id="Caminho_61" data-name="Caminho 61" d="M5365.152,2178.591l-.166-.172c2.344-2.252,2.349-8.47,2.348-8.533h.239C5367.574,2170.145,5367.569,2176.269,5365.152,2178.591Z" transform="translate(-5364.987 -2169.885)" fill="#212a54"/>
        </g>
        <g id="Grupo_795" data-name="Grupo 795" transform="translate(24.716 17.918)">
          <path id="Caminho_62" data-name="Caminho 62" d="M5404.987,2198.628a1.6,1.6,0,0,1-.422-.058,1.709,1.709,0,0,1-1.08-.847c-.767-1.373-.074-3.774-.044-3.875l.229.067c-.007.024-.695,2.407.023,3.692a1.482,1.482,0,0,0,.935.733,1.365,1.365,0,0,0,1.074-.154c1.409-.816,2.2-3.776,2.206-3.806l.23.06c-.033.125-.822,3.087-2.317,3.952A1.65,1.65,0,0,1,5404.987,2198.628Z" transform="translate(-5403.125 -2193.848)" fill="#212a54"/>
        </g>
        <g id="Grupo_796" data-name="Grupo 796" transform="translate(16.061 15.55)">
          <path id="Caminho_63" data-name="Caminho 63" d="M5324.381,2176.837a2.879,2.879,0,0,1-.513-.048,1.1,1.1,0,0,1-.812-.579c-.691-1.284.542-4.2.594-4.322l.219.094c-.013.029-1.241,2.932-.6,4.115a.861.861,0,0,0,.645.458,2.044,2.044,0,0,0,1.692-.369c1.185-.928,1.337-3.112,1.339-3.134l.238.015c-.006.094-.162,2.313-1.43,3.307A2.166,2.166,0,0,1,5324.381,2176.837Z" transform="translate(-5322.845 -2171.888)" fill="#212a54"/>
        </g>
        <g id="Grupo_797" data-name="Grupo 797" transform="translate(22.189 26.067)">
          <path id="Caminho_64" data-name="Caminho 64" d="M5380.355,2271.642a4.613,4.613,0,0,1-.664-.05l.034-.236a2.8,2.8,0,0,0,3.381-1.925l.231.059A3.028,3.028,0,0,1,5380.355,2271.642Z" transform="translate(-5379.692 -2269.431)" fill="#212a54"/>
        </g>
        <path id="Caminho_65" data-name="Caminho 65" d="M5209.975,2414.43a73.552,73.552,0,0,0-9.707-6.286c-.433-.254-.979,7.814-7.627,6.238s-2.428-7.37-2.607-8.057c-.08-.308-11.062-1.423-14.416,10.056a47.953,47.953,0,0,0-1.74,8.159,47.549,47.549,0,0,0,5.557,1.268c16.453,2.5,27.14.925,33.621.358.274-.024.543-.051.811-.078C5213.7,2422.45,5212.942,2416.712,5209.975,2414.43Z" transform="translate(-5173.879 -2365.341)" fill="#60aaff"/>
        <path id="Caminho_66" data-name="Caminho 66" d="M5173.9,2426.318c1.115.314,2.156.581,3.112.8a61.536,61.536,0,0,1,9.235-18.975c-3.527.631-8.532,2.908-10.609,10.019A47.818,47.818,0,0,0,5173.9,2426.318Z" transform="translate(-5173.898 -2367.118)" fill="#5381ff"/>
        <path id="Caminho_67" data-name="Caminho 67" d="M5428.544,2479.546c.274-.024.544-.051.811-.078-.171-3.637-.925-9.376-3.893-11.658-.9-.692-1.721-1.294-2.483-1.832-2.294,2.191-4.958,6.46-7.572,14.542C5420.976,2480.37,5425.291,2479.831,5428.544,2479.546Z" transform="translate(-5389.366 -2418.721)" fill="#5381ff"/>
      </g>
    </g>
  </g>
</svg>
