<svg xmlns="http://www.w3.org/2000/svg" width="406.107" height="338.427" viewBox="0 0 406.107 338.427">
  <g id="cadastro-usuario" transform="translate(-6109.476 -3431.653)">
    <g id="Grupo_897" data-name="Grupo 897" transform="translate(6153.239 3475.568)">
      <g id="Grupo_371" data-name="Grupo 371" transform="translate(43.711 0)">
        <path id="Caminho_685" data-name="Caminho 685" d="M1772.712,966.192c-62.074,95.872-171.626,79.762-224.555,31.825,0,0-58.487-55.571-13.51-110.183,19.014-23.087,21.722-46.968,26.359-68.281h0c6.332-29.1,16.253-53.42,76.18-64.387,40.311-7.378,79.11,8.338,107.859,35.939C1790.333,834.58,1810.681,907.549,1772.712,966.192Z" transform="translate(-1517.644 -750.374)" fill="#f3f3f3" stroke="rgba(0,0,0,0)" stroke-width="1"/>
        <path id="Caminho_686" data-name="Caminho 686" d="M1772.713,1168.727c-62.074,95.871-171.626,79.762-224.555,31.824,0,0-47.679-45.3-23.833-94.3a80.207,80.207,0,0,1,10.323-15.886c19.013-23.085,21.723-46.964,26.358-68.275.031.559,2.941,50.684,57.574,34.284,42.455-12.743,76.729-56.41,126.464-62.738,25.491,24.469,43.081,58.284,46.818,93.626C1794.764,1114.715,1789.311,1143.089,1772.713,1168.727Z" transform="translate(-1517.646 -952.909)" fill="#fbf9f4" stroke="rgba(0,0,0,0)" stroke-width="1"/>
        <path id="Caminho_687" data-name="Caminho 687" d="M1772.714,1570.039c-62.074,95.872-171.626,79.762-224.555,31.824,0,0-22.226-21.118-28.738-50.109a65.729,65.729,0,0,1,4.9-44.187c22.984,13.118,74.446,36.63,111.979,10.27,41.8-29.358,107.875-73.669,155.559-29.26a132.656,132.656,0,0,1,.742,14.067A122.89,122.89,0,0,1,1772.714,1570.039Z" transform="translate(-1517.647 -1354.221)" fill="#fefae8" stroke="rgba(0,0,0,0)" stroke-width="1"/>
        <path id="Caminho_688" data-name="Caminho 688" d="M1782.227,1746.434c-62.074,95.872-171.626,79.762-224.555,31.825,0,0-22.226-21.118-28.738-50.11,0,0,22.543,32.542,83.649,40.074,66.853,8.24,126.5-77.694,189.535-89.185A122.893,122.893,0,0,1,1782.227,1746.434Z" transform="translate(-1527.161 -1530.616)" fill="#fef4ba" stroke="rgba(0,0,0,0)" stroke-width="1"/>
        <path id="Caminho_689" data-name="Caminho 689" d="M1835.5,761.689c-42.668,10.217-49.276,52.407-49.276,52.407" transform="translate(-1744.021 -757.404)" fill="none" stroke="#fefae8" stroke-linecap="round" stroke-width="2"/>
        <path id="Caminho_690" data-name="Caminho 690" d="M2144.446,737.872s14.9-3.333,20.8-3.454" transform="translate(-2045.961 -734.418)" fill="none" stroke="#fefae8" stroke-linecap="round" stroke-width="2"/>
      </g>
      <path id="Caminho_691" data-name="Caminho 691" d="M1240.327,1061.582c4.977,26.364,38.964,34.122,54.879,12.522,11.818-16.041,22.108-39.324,10.89-64.67-20.747-46.875-73.1,10.286-65.988,50.942Q1240.214,1060.985,1240.327,1061.582Z" transform="translate(-1239.448 -951.395)" fill="#f3f3f3" stroke="rgba(0,0,0,0)" stroke-width="1"/>
    </g>
    <g id="Grupo_896" data-name="Grupo 896" transform="translate(6110 3432.153)">
      <g id="freepik--Graphics--inject-2" transform="translate(33.404 0)">
        <g id="freepik--background-details--inject-2">
          <path id="Caminho_1556" data-name="Caminho 1556" d="M141.536,105.778l-34.98-4.869-3.214,22.831,34.573,5.767Zm-2.061.6-17.15,8.244-13.964-12.574Zm-35.094,16.573,2.9-20.647,14.881,13.415,18.255-8.764-3.3,21.509Z" transform="translate(-57.29 -60.607)" fill="#60aaff" stroke="rgba(0,0,0,0)" stroke-width="1"/>
          <path id="Caminho_1557" data-name="Caminho 1557" d="M141.536,105.778l-34.98-4.869-3.214,22.831,34.573,5.767Zm-2.061.6-17.15,8.244-13.964-12.574Zm-35.094,16.573,2.9-20.647,14.881,13.415,18.255-8.764-3.3,21.509Z" transform="translate(-57.29 -60.607)" fill="#fff" stroke="rgba(0,0,0,0)" stroke-width="1" opacity="0.6" style="isolation: isolate"/>
          <path id="Caminho_1558" data-name="Caminho 1558" d="M314.253,84.037l-28.778,25.176,37.041,44.6.293.35,30.263-25.848Zm36.871,43.4-32.144-8.7-4.1-32.636Zm-64.382-18.123L313.865,85.6l4.254,33.865L351.5,128.49l-28.58,24.382Z" transform="translate(-58.17 -60.525)" fill="#60aaff" stroke="rgba(0,0,0,0)" stroke-width="1"/>
          <path id="Caminho_1559" data-name="Caminho 1559" d="M314.253,84.037l-28.778,25.176,37.041,44.6.293.35,30.263-25.848Zm36.871,43.4-32.144-8.7-4.1-32.636Zm-64.382-18.123L313.865,85.6l4.254,33.865L351.5,128.49l-28.58,24.382Z" transform="translate(-58.17 -60.525)" fill="#fff" stroke="rgba(0,0,0,0)" stroke-width="1" opacity="0.6" style="isolation: isolate"/>
          <path id="Caminho_1560" data-name="Caminho 1560" d="M57.52,214.078h0a.474.474,0,0,1-.454-.464V211.78a.473.473,0,0,1,.945,0V213.6a.461.461,0,0,1-.452.474Zm.189-6.4h0a.454.454,0,0,1-.435-.472h0l.085-1.834a.463.463,0,0,1,.482-.426.455.455,0,0,1,.436.473h0c0,.615-.066,1.22-.085,1.825A.463.463,0,0,1,57.709,207.677Zm.369-6.382h0a.463.463,0,0,1-.426-.482l.142-1.824a.454.454,0,0,1,.48-.427h.012a.463.463,0,0,1,.416.492c0,.605-.095,1.21-.132,1.825A.463.463,0,0,1,58.078,201.3Zm.529-6.381h0a.464.464,0,0,1-.416-.5c.067-.605.123-1.209.189-1.824a.476.476,0,1,1,.945.1h0c-.066.605-.122,1.21-.189,1.815a.443.443,0,0,1-.473.413A.369.369,0,0,1,58.608,194.914Zm.719-6.353h-.057a.464.464,0,0,1-.4-.511c.076-.605.161-1.21.237-1.815a.462.462,0,0,1,.519-.387.454.454,0,0,1,.388.51c-.077.605-.161,1.21-.237,1.806A.463.463,0,0,1,59.326,188.561Zm.945-6.334H60.2a.454.454,0,0,1-.378-.518v0c.095-.605.189-1.21.293-1.805a.479.479,0,0,1,.945.151h0c-.095.6-.2,1.191-.293,1.8a.454.454,0,0,1-.517.38l-.012,0Zm1.1-6.305h-.095a.454.454,0,0,1-.359-.529c.113-.605.227-1.2.35-1.8a.443.443,0,0,1,.512-.365l.027.006a.454.454,0,0,1,.361.53l0,.008c-.122.6-.236,1.191-.349,1.787a.456.456,0,0,1-.483.359Zm1.3-6.269h-.1a.444.444,0,0,1-.342-.526l0-.013c.132-.605.265-1.191.407-1.786a.456.456,0,0,1,.889.208c-.132.586-.275,1.181-.406,1.777A.455.455,0,0,1,62.673,169.653Zm1.5-6.212h-.113a.444.444,0,0,1-.326-.536l0-.021c.152-.586.3-1.182.464-1.768a.463.463,0,0,1,.889.237c-.161.586-.321,1.181-.473,1.767a.454.454,0,0,1-.492.322Zm1.731-6.164a.3.3,0,0,1-.132,0,.454.454,0,0,1-.314-.559l0-.008L66,154.961a.455.455,0,1,1,.87.265c-.18.586-.359,1.162-.529,1.748a.454.454,0,0,1-.482.3Zm1.891-6.088h-.142a.453.453,0,0,1-.255-.576c.189-.586.4-1.162.6-1.74a.454.454,0,0,1,.579-.277l.007,0a.452.452,0,0,1,.275.576l-.6,1.731a.454.454,0,0,1-.464.283Zm2.174-6.022h-.16a.471.471,0,0,1-.265-.6c.217-.567.444-1.134.671-1.7a.454.454,0,0,1,.842.331c-.218.567-.445,1.135-.653,1.7a.473.473,0,0,1-.435.265Zm2.41-5.9a.419.419,0,0,1-.179,0,.463.463,0,0,1-.246-.605l.737-1.674a.455.455,0,0,1,.832.369L72.8,139.03A.45.45,0,0,1,72.382,139.267Zm2.638-5.824a.463.463,0,0,1-.451-.475.469.469,0,0,1,.044-.187c.265-.548.529-1.1.8-1.645a.453.453,0,0,1,.606-.212l.008,0a.462.462,0,0,1,.2.614l-.794,1.636a.461.461,0,0,1-.416.236Zm2.893-5.72a.43.43,0,0,1-.218-.057.444.444,0,0,1-.2-.6l.009-.018c.284-.539.577-1.078.87-1.617a.464.464,0,0,1,.8.445l-.87,1.6a.435.435,0,0,1-.4.218Zm3.129-5.578a.44.44,0,0,1-.236-.066.464.464,0,0,1-.161-.624c.312-.529.634-1.05.945-1.579a.446.446,0,0,1,.608-.161l.016.01a.464.464,0,0,1,.152.634q-.484.775-.945,1.559a.472.472,0,0,1-.379.2Zm3.376-5.464a.438.438,0,0,1-.255-.076.453.453,0,0,1-.126-.629l0,0c.331-.511.672-1.012,1.012-1.523a.473.473,0,0,1,.643-.122.454.454,0,0,1,.125.629l0,0c-.35.5-.681,1.012-1.021,1.523A.434.434,0,0,1,84.417,116.681Zm3.649-5.255a.5.5,0,0,1-.275-.086.464.464,0,0,1-.094-.643l1.087-1.475a.455.455,0,1,1,.727.548l-1.078,1.466a.466.466,0,0,1-.349.189Zm3.914-5.087a.4.4,0,0,1-.284-.1.463.463,0,0,1-.076-.643l1.162-1.418a.457.457,0,1,1,.71.576l-1.162,1.428A.465.465,0,0,1,91.981,106.338Zm4.122-4.9a.477.477,0,0,1-.3-.113.453.453,0,0,1,0-.641v0c.406-.454.813-.945,1.229-1.361a.455.455,0,0,1,.642,0h0a.464.464,0,0,1,0,.653c-.406.444-.813.9-1.21,1.351a.462.462,0,0,1-.369.123Zm200.2-1.494a.351.351,0,0,1-.17,0l-1.693-.69a.456.456,0,1,1,.35-.842l1.692.691a.463.463,0,0,1,.247.6.446.446,0,0,1-.436.247Zm-5.909-2.458a.488.488,0,0,1-.17,0l-1.692-.765a.463.463,0,0,1-.246-.605.454.454,0,0,1,.6-.241l.01,0,1.673.72a.453.453,0,0,1,.248.592l0,0a.461.461,0,0,1-.425.293Zm-189.9-.765a.447.447,0,0,1-.321-.122.464.464,0,0,1,0-.653l1.267-1.276a.463.463,0,0,1,.653.652c-.435.425-.861.861-1.286,1.3A.463.463,0,0,1,100.489,96.724Zm184.061-1.8a.418.418,0,0,1-.179,0L282.7,94.19a.453.453,0,0,1-.241-.6l0-.01a.463.463,0,0,1,.605-.227l1.674.737a.464.464,0,0,1-.19.88Zm-5.842-2.609a.455.455,0,0,1-.19-.048l-1.664-.746a.463.463,0,0,1-.227-.605.455.455,0,0,1,.6-.23l.006,0,1.664.746a.464.464,0,0,1,.227.605.456.456,0,0,1-.455.3ZM105.017,92.28a.416.416,0,0,1-.33-.151.463.463,0,0,1,0-.643l1.352-1.238a.453.453,0,0,1,.641,0l0,0a.464.464,0,0,1,0,.652l-1.342,1.229A.437.437,0,0,1,105.017,92.28ZM272.846,89.7a.433.433,0,0,1-.189,0l-1.664-.756a.457.457,0,0,1,.378-.832l1.664.757a.463.463,0,0,1-.189.879ZM109.8,88.035a.463.463,0,0,1-.293-.813l1.38-1.172a.463.463,0,0,1,.643.067.454.454,0,0,1-.062.639l0,0-1.4,1.163A.442.442,0,0,1,109.8,88.035Zm157.232-1.011a.474.474,0,0,1-.2,0l-1.655-.756a.464.464,0,0,1-.227-.615.453.453,0,0,1,.6-.218h0l1.664.756a.444.444,0,0,1,.226.586l-.008.019A.446.446,0,0,1,267.033,87.024Zm-5.824-2.657a.668.668,0,0,1-.189,0l-1.7-.8a.457.457,0,0,1,.368-.836l.01,0,1.664.766a.454.454,0,0,1,.23.6l0,.006A.472.472,0,0,1,261.209,84.367Zm-146.415-.33a.463.463,0,0,1-.369-.189.444.444,0,0,1,.081-.623l.014-.01,1.466-1.107a.454.454,0,0,1,.633.1h0a.444.444,0,0,1-.081.623l-.014.01-1.456,1.1A.5.5,0,0,1,114.794,84.036ZM255.376,81.73a.465.465,0,0,1-.189,0l-1.665-.747a.454.454,0,0,1-.241-.594l0-.011a.462.462,0,0,1,.605-.226l1.673.746a.453.453,0,0,1,.23.6l0,.006a.443.443,0,0,1-.416.227Zm-135.4-1.437a.436.436,0,0,1-.368-.2.445.445,0,0,1,.1-.622l.018-.012c.511-.349,1.012-.69,1.523-1.021a.453.453,0,0,1,.63.118l0,0a.445.445,0,0,1-.109.619l-.023.015-1.5,1.021A.544.544,0,0,1,119.974,80.292Zm129.521-1.143a.389.389,0,0,1-.179,0l-1.683-.719a.463.463,0,0,1-.237-.605.454.454,0,0,1,.6-.237l1.683.719a.454.454,0,0,1,.241.6l0,.01a.463.463,0,0,1-.387.237ZM125.353,76.87a.455.455,0,0,1-.388-.218.463.463,0,0,1,.152-.633l1.569-.945a.455.455,0,1,1,.463.784c-.519.312-1.04.615-1.559.945A.417.417,0,0,1,125.353,76.87Zm118.281-.18a.393.393,0,0,1-.18,0l-1.683-.765a.458.458,0,1,1,.34-.851l1.692.7a.453.453,0,0,1-.169.879Zm-5.937-2.4a.439.439,0,0,1-.161,0l-1.7-.662a.457.457,0,0,1,.331-.851l1.7.662a.454.454,0,0,1,.258.588l0,.008a.445.445,0,0,1-.425.218ZM130.913,73.7a.453.453,0,0,1-.217-.86c.538-.294,1.078-.567,1.626-.851a.457.457,0,0,1,.416.813l-1.607.841a.491.491,0,0,1-.218.019Zm100.8-1.72a.429.429,0,0,1-.151,0l-1.721-.615a.458.458,0,0,1,.311-.861l1.721.615a.472.472,0,0,1,.275.6A.465.465,0,0,1,231.712,71.983Zm-95.08-1.163a.464.464,0,0,1-.189-.88l1.674-.746a.444.444,0,0,1,.59.215l.006.012a.454.454,0,0,1-.222.6l0,0-1.664.746A.42.42,0,0,1,136.632,70.819Zm89.049-.945a.43.43,0,0,1-.151,0l-1.731-.567a.457.457,0,0,1,.284-.87h0l1.74.586a.428.428,0,0,1-.141.841Zm-83.2-1.56a.473.473,0,0,1-.426-.293.445.445,0,0,1,.246-.579l.019-.007,1.712-.662a.463.463,0,0,1,.586.274.454.454,0,0,1-.263.586h0q-.851.312-1.7.652a.522.522,0,0,1-.142.019Zm77.127-.406a.329.329,0,0,1-.132,0l-1.758-.492a.454.454,0,0,1-.314-.559l0-.008a.465.465,0,0,1,.568-.312l1.758.529a.454.454,0,0,1-.132.889Zm-6.154-1.75h-.123l-1.758-.463a.454.454,0,0,1,.227-.88l1.767.464a.463.463,0,0,1,.331.557.47.47,0,0,1-.473.321Zm-64.893,0a.455.455,0,0,1-.142-.889c.586-.189,1.172-.378,1.758-.548a.455.455,0,0,1,.567.3h0a.454.454,0,0,1-.3.567h0l-1.74.548Zm58.681-1.522h-.1l-1.787-.4a.454.454,0,0,1,.189-.889h0l1.8.387a.463.463,0,0,1,.349.549.454.454,0,0,1-.473.34Zm-52.536-.255a.474.474,0,0,1-.445-.341.463.463,0,0,1,.331-.557l1.786-.444a.454.454,0,0,1,.547.334v.006a.472.472,0,0,1-.34.557c-.586.132-1.181.284-1.767.435Zm46.258-1.022h-.086l-1.8-.311a.479.479,0,1,1,.151-.945l1.815.311a.475.475,0,1,1-.086.945ZM160.958,63a.446.446,0,0,1-.445-.379.453.453,0,0,1,.359-.528l1.815-.321a.479.479,0,0,1,.151.945l-1.8.321Zm33.684-.634h-.057c-.605-.085-1.2-.16-1.805-.227a.476.476,0,0,1,.1-.945l1.825.227a.453.453,0,0,1,.387.511.463.463,0,0,1-.482.426Zm-27.35-.34a.474.474,0,0,1-.057-.945l1.834-.208a.464.464,0,0,1,.5.416.474.474,0,0,1-.416.5c-.605.056-1.21.122-1.806.2Zm20.988-.34h0l-1.815-.132a.454.454,0,0,1-.426-.481h0a.463.463,0,0,1,.492-.426l1.824.132a.454.454,0,0,1,.426.48v.012a.463.463,0,0,1-.512.409l-.018,0Zm-14.606-.208a.473.473,0,0,1,0-.945l1.834-.076a.435.435,0,0,1,.471.4c0,.014,0,.027,0,.04a.455.455,0,0,1-.435.473h0a13.106,13.106,0,0,0-1.824.085Zm8.224-.122h-1.814a.473.473,0,1,1,0-.945h1.834a.443.443,0,0,1,.444.444v.019a.453.453,0,0,1-.433.474.389.389,0,0,1-.059,0Z" transform="translate(-57.066 -60.411)" fill="#60aaff" stroke="rgba(0,0,0,0)" stroke-width="1"/>
          <path id="Caminho_1561" data-name="Caminho 1561" d="M57.52,214.078h0a.474.474,0,0,1-.454-.464V211.78a.473.473,0,0,1,.945,0V213.6a.461.461,0,0,1-.452.474Zm.189-6.4h0a.454.454,0,0,1-.435-.472h0l.085-1.834a.463.463,0,0,1,.482-.426.455.455,0,0,1,.436.473h0c0,.615-.066,1.22-.085,1.825A.463.463,0,0,1,57.709,207.677Zm.369-6.382h0a.463.463,0,0,1-.426-.482l.142-1.824a.454.454,0,0,1,.48-.427h.012a.463.463,0,0,1,.416.492c0,.605-.095,1.21-.132,1.825A.463.463,0,0,1,58.078,201.3Zm.529-6.381h0a.464.464,0,0,1-.416-.5c.067-.605.123-1.209.189-1.824a.476.476,0,1,1,.945.1h0c-.066.605-.122,1.21-.189,1.815a.443.443,0,0,1-.473.413A.369.369,0,0,1,58.608,194.914Zm.719-6.353h-.057a.464.464,0,0,1-.4-.511c.076-.605.161-1.21.237-1.815a.462.462,0,0,1,.519-.387.454.454,0,0,1,.388.51c-.077.605-.161,1.21-.237,1.806A.463.463,0,0,1,59.326,188.561Zm.945-6.334H60.2a.454.454,0,0,1-.378-.518v0c.095-.605.189-1.21.293-1.805a.479.479,0,0,1,.945.151h0c-.095.6-.2,1.191-.293,1.8a.454.454,0,0,1-.517.38l-.012,0Zm1.1-6.305h-.095a.454.454,0,0,1-.359-.529c.113-.605.227-1.2.35-1.8a.443.443,0,0,1,.512-.365l.027.006a.454.454,0,0,1,.361.53l0,.008c-.122.6-.236,1.191-.349,1.787a.456.456,0,0,1-.483.359Zm1.3-6.269h-.1a.444.444,0,0,1-.342-.526l0-.013c.132-.605.265-1.191.407-1.786a.456.456,0,0,1,.889.208c-.132.586-.275,1.181-.406,1.777A.455.455,0,0,1,62.673,169.653Zm1.5-6.212h-.113a.444.444,0,0,1-.326-.536l0-.021c.152-.586.3-1.182.464-1.768a.463.463,0,0,1,.889.237c-.161.586-.321,1.181-.473,1.767a.454.454,0,0,1-.492.322Zm1.731-6.164a.3.3,0,0,1-.132,0,.454.454,0,0,1-.314-.559l0-.008L66,154.961a.455.455,0,1,1,.87.265c-.18.586-.359,1.162-.529,1.748a.454.454,0,0,1-.482.3Zm1.891-6.088h-.142a.453.453,0,0,1-.255-.576c.189-.586.4-1.162.6-1.74a.454.454,0,0,1,.579-.277l.007,0a.452.452,0,0,1,.275.576l-.6,1.731a.454.454,0,0,1-.464.283Zm2.174-6.022h-.16a.471.471,0,0,1-.265-.6c.217-.567.444-1.134.671-1.7a.454.454,0,0,1,.842.331c-.218.567-.445,1.135-.653,1.7a.473.473,0,0,1-.435.265Zm2.41-5.9a.419.419,0,0,1-.179,0,.463.463,0,0,1-.246-.605l.737-1.674a.455.455,0,0,1,.832.369L72.8,139.03A.45.45,0,0,1,72.382,139.267Zm2.638-5.824a.463.463,0,0,1-.451-.475.469.469,0,0,1,.044-.187c.265-.548.529-1.1.8-1.645a.453.453,0,0,1,.606-.212l.008,0a.462.462,0,0,1,.2.614l-.794,1.636a.461.461,0,0,1-.416.236Zm2.893-5.72a.43.43,0,0,1-.218-.057.444.444,0,0,1-.2-.6l.009-.018c.284-.539.577-1.078.87-1.617a.464.464,0,0,1,.8.445l-.87,1.6a.435.435,0,0,1-.4.218Zm3.129-5.578a.44.44,0,0,1-.236-.066.464.464,0,0,1-.161-.624c.312-.529.634-1.05.945-1.579a.446.446,0,0,1,.608-.161l.016.01a.464.464,0,0,1,.152.634q-.484.775-.945,1.559a.472.472,0,0,1-.379.2Zm3.376-5.464a.438.438,0,0,1-.255-.076.453.453,0,0,1-.126-.629l0,0c.331-.511.672-1.012,1.012-1.523a.473.473,0,0,1,.643-.122.454.454,0,0,1,.125.629l0,0c-.35.5-.681,1.012-1.021,1.523A.434.434,0,0,1,84.417,116.681Zm3.649-5.255a.5.5,0,0,1-.275-.086.464.464,0,0,1-.094-.643l1.087-1.475a.455.455,0,1,1,.727.548l-1.078,1.466a.466.466,0,0,1-.349.189Zm3.914-5.087a.4.4,0,0,1-.284-.1.463.463,0,0,1-.076-.643l1.162-1.418a.457.457,0,1,1,.71.576l-1.162,1.428A.465.465,0,0,1,91.981,106.338Zm4.122-4.9a.477.477,0,0,1-.3-.113.453.453,0,0,1,0-.641v0c.406-.454.813-.945,1.229-1.361a.455.455,0,0,1,.642,0h0a.464.464,0,0,1,0,.653c-.406.444-.813.9-1.21,1.351a.462.462,0,0,1-.369.123Zm200.2-1.494a.351.351,0,0,1-.17,0l-1.693-.69a.456.456,0,1,1,.35-.842l1.692.691a.463.463,0,0,1,.247.6.446.446,0,0,1-.436.247Zm-5.909-2.458a.488.488,0,0,1-.17,0l-1.692-.765a.463.463,0,0,1-.246-.605.454.454,0,0,1,.6-.241l.01,0,1.673.72a.453.453,0,0,1,.248.592l0,0a.461.461,0,0,1-.425.293Zm-189.9-.765a.447.447,0,0,1-.321-.122.464.464,0,0,1,0-.653l1.267-1.276a.463.463,0,0,1,.653.652c-.435.425-.861.861-1.286,1.3A.463.463,0,0,1,100.489,96.724Zm184.061-1.8a.418.418,0,0,1-.179,0L282.7,94.19a.453.453,0,0,1-.241-.6l0-.01a.463.463,0,0,1,.605-.227l1.674.737a.464.464,0,0,1-.19.88Zm-5.842-2.609a.455.455,0,0,1-.19-.048l-1.664-.746a.463.463,0,0,1-.227-.605.455.455,0,0,1,.6-.23l.006,0,1.664.746a.464.464,0,0,1,.227.605.456.456,0,0,1-.455.3ZM105.017,92.28a.416.416,0,0,1-.33-.151.463.463,0,0,1,0-.643l1.352-1.238a.453.453,0,0,1,.641,0l0,0a.464.464,0,0,1,0,.652l-1.342,1.229A.437.437,0,0,1,105.017,92.28ZM272.846,89.7a.433.433,0,0,1-.189,0l-1.664-.756a.457.457,0,0,1,.378-.832l1.664.757a.463.463,0,0,1-.189.879ZM109.8,88.035a.463.463,0,0,1-.293-.813l1.38-1.172a.463.463,0,0,1,.643.067.454.454,0,0,1-.062.639l0,0-1.4,1.163A.442.442,0,0,1,109.8,88.035Zm157.232-1.011a.474.474,0,0,1-.2,0l-1.655-.756a.464.464,0,0,1-.227-.615.453.453,0,0,1,.6-.218h0l1.664.756a.444.444,0,0,1,.226.586l-.008.019A.446.446,0,0,1,267.033,87.024Zm-5.824-2.657a.668.668,0,0,1-.189,0l-1.7-.8a.457.457,0,0,1,.368-.836l.01,0,1.664.766a.454.454,0,0,1,.23.6l0,.006A.472.472,0,0,1,261.209,84.367Zm-146.415-.33a.463.463,0,0,1-.369-.189.444.444,0,0,1,.081-.623l.014-.01,1.466-1.107a.454.454,0,0,1,.633.1h0a.444.444,0,0,1-.081.623l-.014.01-1.456,1.1A.5.5,0,0,1,114.794,84.036ZM255.376,81.73a.465.465,0,0,1-.189,0l-1.665-.747a.454.454,0,0,1-.241-.594l0-.011a.462.462,0,0,1,.605-.226l1.673.746a.453.453,0,0,1,.23.6l0,.006a.443.443,0,0,1-.416.227Zm-135.4-1.437a.436.436,0,0,1-.368-.2.445.445,0,0,1,.1-.622l.018-.012c.511-.349,1.012-.69,1.523-1.021a.453.453,0,0,1,.63.118l0,0a.445.445,0,0,1-.109.619l-.023.015-1.5,1.021A.544.544,0,0,1,119.974,80.292Zm129.521-1.143a.389.389,0,0,1-.179,0l-1.683-.719a.463.463,0,0,1-.237-.605.454.454,0,0,1,.6-.237l1.683.719a.454.454,0,0,1,.241.6l0,.01a.463.463,0,0,1-.387.237ZM125.353,76.87a.455.455,0,0,1-.388-.218.463.463,0,0,1,.152-.633l1.569-.945a.455.455,0,1,1,.463.784c-.519.312-1.04.615-1.559.945A.417.417,0,0,1,125.353,76.87Zm118.281-.18a.393.393,0,0,1-.18,0l-1.683-.765a.458.458,0,1,1,.34-.851l1.692.7a.453.453,0,0,1-.169.879Zm-5.937-2.4a.439.439,0,0,1-.161,0l-1.7-.662a.457.457,0,0,1,.331-.851l1.7.662a.454.454,0,0,1,.258.588l0,.008a.445.445,0,0,1-.425.218ZM130.913,73.7a.453.453,0,0,1-.217-.86c.538-.294,1.078-.567,1.626-.851a.457.457,0,0,1,.416.813l-1.607.841a.491.491,0,0,1-.218.019Zm100.8-1.72a.429.429,0,0,1-.151,0l-1.721-.615a.458.458,0,0,1,.311-.861l1.721.615a.472.472,0,0,1,.275.6A.465.465,0,0,1,231.712,71.983Zm-95.08-1.163a.464.464,0,0,1-.189-.88l1.674-.746a.444.444,0,0,1,.59.215l.006.012a.454.454,0,0,1-.222.6l0,0-1.664.746A.42.42,0,0,1,136.632,70.819Zm89.049-.945a.43.43,0,0,1-.151,0l-1.731-.567a.457.457,0,0,1,.284-.87h0l1.74.586a.428.428,0,0,1-.141.841Zm-83.2-1.56a.473.473,0,0,1-.426-.293.445.445,0,0,1,.246-.579l.019-.007,1.712-.662a.463.463,0,0,1,.586.274.454.454,0,0,1-.263.586h0q-.851.312-1.7.652a.522.522,0,0,1-.142.019Zm77.127-.406a.329.329,0,0,1-.132,0l-1.758-.492a.454.454,0,0,1-.314-.559l0-.008a.465.465,0,0,1,.568-.312l1.758.529a.454.454,0,0,1-.132.889Zm-6.154-1.75h-.123l-1.758-.463a.454.454,0,0,1,.227-.88l1.767.464a.463.463,0,0,1,.331.557.47.47,0,0,1-.473.321Zm-64.893,0a.455.455,0,0,1-.142-.889c.586-.189,1.172-.378,1.758-.548a.455.455,0,0,1,.567.3h0a.454.454,0,0,1-.3.567h0l-1.74.548Zm58.681-1.522h-.1l-1.787-.4a.454.454,0,0,1,.189-.889h0l1.8.387a.463.463,0,0,1,.349.549.454.454,0,0,1-.473.34Zm-52.536-.255a.474.474,0,0,1-.445-.341.463.463,0,0,1,.331-.557l1.786-.444a.454.454,0,0,1,.547.334v.006a.472.472,0,0,1-.34.557c-.586.132-1.181.284-1.767.435Zm46.258-1.022h-.086l-1.8-.311a.479.479,0,1,1,.151-.945l1.815.311a.475.475,0,1,1-.086.945ZM160.958,63a.446.446,0,0,1-.445-.379.453.453,0,0,1,.359-.528l1.815-.321a.479.479,0,0,1,.151.945l-1.8.321Zm33.684-.634h-.057c-.605-.085-1.2-.16-1.805-.227a.476.476,0,0,1,.1-.945l1.825.227a.453.453,0,0,1,.387.511.463.463,0,0,1-.482.426Zm-27.35-.34a.474.474,0,0,1-.057-.945l1.834-.208a.464.464,0,0,1,.5.416.474.474,0,0,1-.416.5c-.605.056-1.21.122-1.806.2Zm20.988-.34h0l-1.815-.132a.454.454,0,0,1-.426-.481h0a.463.463,0,0,1,.492-.426l1.824.132a.454.454,0,0,1,.426.48v.012a.463.463,0,0,1-.512.409l-.018,0Zm-14.606-.208a.473.473,0,0,1,0-.945l1.834-.076a.435.435,0,0,1,.471.4c0,.014,0,.027,0,.04a.455.455,0,0,1-.435.473h0a13.106,13.106,0,0,0-1.824.085Zm8.224-.122h-1.814a.473.473,0,1,1,0-.945h1.834a.443.443,0,0,1,.444.444v.019a.453.453,0,0,1-.433.474.389.389,0,0,1-.059,0Z" transform="translate(-57.066 -60.411)" fill="#fff" stroke="rgba(0,0,0,0)" stroke-width="1" opacity="0.6" style="isolation: isolate"/>
          <path id="Caminho_1562" data-name="Caminho 1562" d="M413.839,232.865a.487.487,0,0,1-.2-.048.453.453,0,0,1-.213-.605l0-.009c.265-.548.528-1.1.784-1.645a.462.462,0,0,1,.605-.217.454.454,0,0,1,.23.6l0,.006-.794,1.654A.463.463,0,0,1,413.839,232.865Zm2.656-5.824a.6.6,0,0,1-.179,0,.463.463,0,0,1-.246-.605c.236-.557.473-1.116.7-1.674a.458.458,0,0,1,.851.34h0c-.237.568-.464,1.135-.71,1.693a.434.434,0,0,1-.387.246Zm2.326-5.965a.43.43,0,0,1-.151,0,.445.445,0,0,1-.29-.558l.006-.019c.208-.576.407-1.144.606-1.721a.454.454,0,0,1,.569-.3l.007,0a.464.464,0,0,1,.284.586c-.2.577-.4,1.153-.605,1.731a.446.446,0,0,1-.4.275ZM420.8,215h-.132a.454.454,0,0,1-.3-.565v0c.17-.586.33-1.172.492-1.758a.463.463,0,0,1,.889.246c-.17.586-.331,1.181-.511,1.767a.454.454,0,0,1-.406.313Zm1.616-6.192h-.1a.464.464,0,0,1-.35-.548c.142-.586.275-1.182.4-1.778a.453.453,0,0,1,.537-.349h0a.445.445,0,0,1,.354.519l0,.02c-.123.605-.256,1.2-.388,1.8a.462.462,0,0,1-.416.339Zm1.22-6.288h-.067a.455.455,0,0,1-.38-.517l0-.012c.095-.6.189-1.2.275-1.8a.444.444,0,0,1,.493-.39l.018,0a.452.452,0,0,1,.389.51l0,.01c-.085.605-.179,1.21-.274,1.815a.453.453,0,0,1-.425.378Zm.822-6.343h-.047a.454.454,0,0,1-.407-.5v0c.057-.605.1-1.21.151-1.815a.474.474,0,1,1,.945.067h0c0,.614-.095,1.229-.151,1.834a.461.461,0,0,1-.463.415Zm.378-6.391h0a.444.444,0,0,1-.444-.445v-1.843a.462.462,0,0,1,.463-.454h0a.454.454,0,0,1,.455.453v1.844a.454.454,0,0,1-.444.444Zm-.076-6.391a.464.464,0,0,1-.463-.435c0-.605-.067-1.21-.1-1.815a.454.454,0,0,1,.413-.492h.012a.463.463,0,0,1,.483.425c.047.614.085,1.219.113,1.834a.465.465,0,0,1-.435.483Zm-.567-6.372a.465.465,0,0,1-.454-.407c-.076-.6-.16-1.2-.246-1.8a.454.454,0,0,1,.377-.519h0a.463.463,0,0,1,.521.378c.095.614.179,1.219.255,1.824a.444.444,0,0,1-.37.508l-.027,0Zm-1.03-6.306a.454.454,0,0,1-.454-.359c-.123-.6-.256-1.182-.4-1.768a.472.472,0,0,1,.34-.557.454.454,0,0,1,.547.335v0c.141.6.284,1.2.406,1.8a.443.443,0,0,1-.329.534l-.02,0Zm-1.6-6.193a.444.444,0,0,1-.435-.321c-.179-.576-.359-1.153-.548-1.73a.454.454,0,1,1,.823-.265c.2.586.378,1.172.557,1.758a.454.454,0,0,1-.3.567h0a.333.333,0,0,1-.094-.019Zm-2.127-6.032a.473.473,0,0,1-.426-.284c-.217-.567-.454-1.125-.69-1.683a.457.457,0,0,1,.837-.369l0,.01c.237.567.473,1.126.7,1.7a.445.445,0,0,1-.24.581l-.015,0a.371.371,0,0,1-.17.029Zm-2.628-5.833a.436.436,0,0,1-.407-.246c-.274-.539-.557-1.078-.841-1.617a.454.454,0,0,1,.179-.614.463.463,0,0,1,.624.179c.294.549.577,1.088.851,1.636a.452.452,0,0,1-.2.61l-.009,0a.367.367,0,0,1-.2.038Zm-3.139-5.578a.456.456,0,0,1-.388-.217c-.312-.511-.643-1.021-.945-1.532a.456.456,0,0,1,.126-.63l.006,0a.463.463,0,0,1,.634.132c.331.511.662,1.031.945,1.55a.454.454,0,0,1-.133.628l-.008.006a.462.462,0,0,1-.237.066Zm-3.611-5.284a.466.466,0,0,1-.369-.189c-.359-.483-.727-.945-1.106-1.428a.457.457,0,1,1,.709-.576h0c.388.482.756.945,1.134,1.456a.462.462,0,0,1-.095.642A.434.434,0,0,1,410.057,141.794Zm-4.084-4.926a.452.452,0,0,1-.34-.151c-.406-.445-.822-.889-1.238-1.324a.455.455,0,1,1,.652-.634h0c.426.445.851.89,1.267,1.342a.454.454,0,0,1,0,.642h0A.421.421,0,0,1,405.973,136.868Zm-4.538-4.51a.482.482,0,0,1-.311-.113c-.445-.406-.9-.8-1.361-1.2a.454.454,0,0,1-.061-.639l0,0a.463.463,0,0,1,.643-.048c.473.4.945.794,1.389,1.21a.454.454,0,0,1-.3.794Zm-4.973-4.027a.442.442,0,0,1-.265-.085c-.492-.359-.945-.709-1.485-1.05a.454.454,0,0,1,.451-.787.422.422,0,0,1,.06.041c.512.34,1.012.7,1.513,1.059a.453.453,0,0,1-.274.822Zm-5.313-3.478a.463.463,0,0,1-.227-.057l-1.664-.88a.444.444,0,0,1-.2-.6l.01-.018a.453.453,0,0,1,.613-.19h0c.548.284,1.078.586,1.617.889a.463.463,0,0,1,.17.624A.453.453,0,0,1,391.149,124.852Zm-5.719-2.836a.393.393,0,0,1-.18,0c-.557-.246-1.116-.473-1.673-.7a.458.458,0,1,1,.34-.851h0c.567.227,1.135.463,1.692.709a.463.463,0,0,1-.179.879Zm-5.985-2.269a.421.421,0,0,1-.141,0c-.567-.189-1.153-.369-1.731-.539a.463.463,0,0,1,.265-.879c.586.179,1.172.358,1.758.557a.454.454,0,0,1-.151.889Zm-6.145-1.758h-.113c-.586-.152-1.172-.294-1.768-.426a.456.456,0,0,1,.209-.889q.888.2,1.786.425a.456.456,0,0,1,.331.549.465.465,0,0,1-.492.311Zm-6.249-1.352h-.086l-1.8-.321a.454.454,0,0,1-.369-.524v0a.463.463,0,0,1,.529-.378l1.805.331a.454.454,0,0,1,.361.53l0,.008a.443.443,0,0,1-.492.33Zm-6.306-1.068h-.076l-1.805-.275a.453.453,0,0,1-.388-.511.464.464,0,0,1,.521-.388l1.815.265a.455.455,0,0,1,.378.518v0a.445.445,0,0,1-.492.359Zm-6.343-.889h-.123l-1.815-.237a.464.464,0,0,1-.388-.52.454.454,0,0,1,.511-.387l1.816.236a.474.474,0,0,1-.067.945h0Zm-6.344-.842H348l-1.815-.246a.477.477,0,1,1,.123-.945l1.815.246a.474.474,0,0,1-.067.945Zm-6.334-.945h-.066l-1.815-.284a.478.478,0,1,1,.141-.945l1.806.284a.474.474,0,0,1-.067.945Z" transform="translate(-58.43 -60.659)" fill="#60aaff" stroke="rgba(0,0,0,0)" stroke-width="1"/>
          <path id="Caminho_1563" data-name="Caminho 1563" d="M413.839,232.865a.487.487,0,0,1-.2-.048.453.453,0,0,1-.213-.605l0-.009c.265-.548.528-1.1.784-1.645a.462.462,0,0,1,.605-.217.454.454,0,0,1,.23.6l0,.006-.794,1.654A.463.463,0,0,1,413.839,232.865Zm2.656-5.824a.6.6,0,0,1-.179,0,.463.463,0,0,1-.246-.605c.236-.557.473-1.116.7-1.674a.458.458,0,0,1,.851.34h0c-.237.568-.464,1.135-.71,1.693a.434.434,0,0,1-.387.246Zm2.326-5.965a.43.43,0,0,1-.151,0,.445.445,0,0,1-.29-.558l.006-.019c.208-.576.407-1.144.606-1.721a.454.454,0,0,1,.569-.3l.007,0a.464.464,0,0,1,.284.586c-.2.577-.4,1.153-.605,1.731a.446.446,0,0,1-.4.275ZM420.8,215h-.132a.454.454,0,0,1-.3-.565v0c.17-.586.33-1.172.492-1.758a.463.463,0,0,1,.889.246c-.17.586-.331,1.181-.511,1.767a.454.454,0,0,1-.406.313Zm1.616-6.192h-.1a.464.464,0,0,1-.35-.548c.142-.586.275-1.182.4-1.778a.453.453,0,0,1,.537-.349h0a.445.445,0,0,1,.354.519l0,.02c-.123.605-.256,1.2-.388,1.8a.462.462,0,0,1-.416.339Zm1.22-6.288h-.067a.455.455,0,0,1-.38-.517l0-.012c.095-.6.189-1.2.275-1.8a.444.444,0,0,1,.493-.39l.018,0a.452.452,0,0,1,.389.51l0,.01c-.085.605-.179,1.21-.274,1.815a.453.453,0,0,1-.425.378Zm.822-6.343h-.047a.454.454,0,0,1-.407-.5v0c.057-.605.1-1.21.151-1.815a.474.474,0,1,1,.945.067h0c0,.614-.095,1.229-.151,1.834a.461.461,0,0,1-.463.415Zm.378-6.391h0a.444.444,0,0,1-.444-.445v-1.843a.462.462,0,0,1,.463-.454h0a.454.454,0,0,1,.455.453v1.844a.454.454,0,0,1-.444.444Zm-.076-6.391a.464.464,0,0,1-.463-.435c0-.605-.067-1.21-.1-1.815a.454.454,0,0,1,.413-.492h.012a.463.463,0,0,1,.483.425c.047.614.085,1.219.113,1.834a.465.465,0,0,1-.435.483Zm-.567-6.372a.465.465,0,0,1-.454-.407c-.076-.6-.16-1.2-.246-1.8a.454.454,0,0,1,.377-.519h0a.463.463,0,0,1,.521.378c.095.614.179,1.219.255,1.824a.444.444,0,0,1-.37.508l-.027,0Zm-1.03-6.306a.454.454,0,0,1-.454-.359c-.123-.6-.256-1.182-.4-1.768a.472.472,0,0,1,.34-.557.454.454,0,0,1,.547.335v0c.141.6.284,1.2.406,1.8a.443.443,0,0,1-.329.534l-.02,0Zm-1.6-6.193a.444.444,0,0,1-.435-.321c-.179-.576-.359-1.153-.548-1.73a.454.454,0,1,1,.823-.265c.2.586.378,1.172.557,1.758a.454.454,0,0,1-.3.567h0a.333.333,0,0,1-.094-.019Zm-2.127-6.032a.473.473,0,0,1-.426-.284c-.217-.567-.454-1.125-.69-1.683a.457.457,0,0,1,.837-.369l0,.01c.237.567.473,1.126.7,1.7a.445.445,0,0,1-.24.581l-.015,0a.371.371,0,0,1-.17.029Zm-2.628-5.833a.436.436,0,0,1-.407-.246c-.274-.539-.557-1.078-.841-1.617a.454.454,0,0,1,.179-.614.463.463,0,0,1,.624.179c.294.549.577,1.088.851,1.636a.452.452,0,0,1-.2.61l-.009,0a.367.367,0,0,1-.2.038Zm-3.139-5.578a.456.456,0,0,1-.388-.217c-.312-.511-.643-1.021-.945-1.532a.456.456,0,0,1,.126-.63l.006,0a.463.463,0,0,1,.634.132c.331.511.662,1.031.945,1.55a.454.454,0,0,1-.133.628l-.008.006a.462.462,0,0,1-.237.066Zm-3.611-5.284a.466.466,0,0,1-.369-.189c-.359-.483-.727-.945-1.106-1.428a.457.457,0,1,1,.709-.576h0c.388.482.756.945,1.134,1.456a.462.462,0,0,1-.095.642A.434.434,0,0,1,410.057,141.794Zm-4.084-4.926a.452.452,0,0,1-.34-.151c-.406-.445-.822-.889-1.238-1.324a.455.455,0,1,1,.652-.634h0c.426.445.851.89,1.267,1.342a.454.454,0,0,1,0,.642h0A.421.421,0,0,1,405.973,136.868Zm-4.538-4.51a.482.482,0,0,1-.311-.113c-.445-.406-.9-.8-1.361-1.2a.454.454,0,0,1-.061-.639l0,0a.463.463,0,0,1,.643-.048c.473.4.945.794,1.389,1.21a.454.454,0,0,1-.3.794Zm-4.973-4.027a.442.442,0,0,1-.265-.085c-.492-.359-.945-.709-1.485-1.05a.454.454,0,0,1,.451-.787.422.422,0,0,1,.06.041c.512.34,1.012.7,1.513,1.059a.453.453,0,0,1-.274.822Zm-5.313-3.478a.463.463,0,0,1-.227-.057l-1.664-.88a.444.444,0,0,1-.2-.6l.01-.018a.453.453,0,0,1,.613-.19h0c.548.284,1.078.586,1.617.889a.463.463,0,0,1,.17.624A.453.453,0,0,1,391.149,124.852Zm-5.719-2.836a.393.393,0,0,1-.18,0c-.557-.246-1.116-.473-1.673-.7a.458.458,0,1,1,.34-.851h0c.567.227,1.135.463,1.692.709a.463.463,0,0,1-.179.879Zm-5.985-2.269a.421.421,0,0,1-.141,0c-.567-.189-1.153-.369-1.731-.539a.463.463,0,0,1,.265-.879c.586.179,1.172.358,1.758.557a.454.454,0,0,1-.151.889Zm-6.145-1.758h-.113c-.586-.152-1.172-.294-1.768-.426a.456.456,0,0,1,.209-.889q.888.2,1.786.425a.456.456,0,0,1,.331.549.465.465,0,0,1-.492.311Zm-6.249-1.352h-.086l-1.8-.321a.454.454,0,0,1-.369-.524v0a.463.463,0,0,1,.529-.378l1.805.331a.454.454,0,0,1,.361.53l0,.008a.443.443,0,0,1-.492.33Zm-6.306-1.068h-.076l-1.805-.275a.453.453,0,0,1-.388-.511.464.464,0,0,1,.521-.388l1.815.265a.455.455,0,0,1,.378.518v0a.445.445,0,0,1-.492.359Zm-6.343-.889h-.123l-1.815-.237a.464.464,0,0,1-.388-.52.454.454,0,0,1,.511-.387l1.816.236a.474.474,0,0,1-.067.945h0Zm-6.344-.842H348l-1.815-.246a.477.477,0,1,1,.123-.945l1.815.246a.474.474,0,0,1-.067.945Zm-6.334-.945h-.066l-1.815-.284a.478.478,0,1,1,.141-.945l1.806.284a.474.474,0,0,1-.067.945Z" transform="translate(-58.43 -60.659)" fill="#fff" stroke="rgba(0,0,0,0)" stroke-width="1" opacity="0.6" style="isolation: isolate"/>
        </g>
      </g>
      <g id="freepik--Window--inject-2" transform="translate(97.895 73.626)">
        <rect id="Retângulo_155" data-name="Retângulo 155" width="110.361" height="69.879" transform="translate(2.148 14.237)" fill="#fff" stroke="#263238" stroke-width="0.733"/>
        <path id="Caminho_1564" data-name="Caminho 1564" d="M158.591,140.518l-2.142-6.124H121.87V223.6H236.519V140.518Zm75.788,78H124.019V148.631h110.36Z" transform="translate(-121.87 -134.394)" fill="#60aaff" stroke="#263238" stroke-linecap="round" stroke-linejoin="round" stroke-width="0.733"/>
        <path id="Caminho_1565" data-name="Caminho 1565" d="M126.687,142.33l-1.58,1.517,1.642,1.767" transform="translate(-121.886 -134.432)" fill="#60aaff" stroke="#263238" stroke-linecap="round" stroke-linejoin="round" stroke-width="0.733"/>
        <line id="Linha_39" data-name="Linha 39" x2="3.513" transform="translate(3.222 9.415)" fill="none" stroke="#263238" stroke-linecap="round" stroke-linejoin="round" stroke-width="0.733"/>
        <path id="Caminho_1566" data-name="Caminho 1566" d="M135.7,142.33l1.587,1.517-1.649,1.767" transform="translate(-121.937 -134.432)" fill="#60aaff" stroke="#263238" stroke-linecap="round" stroke-linejoin="round" stroke-width="0.733"/>
        <line id="Linha_40" data-name="Linha 40" x1="3.513" transform="translate(11.834 9.415)" fill="none" stroke="#263238" stroke-linecap="round" stroke-linejoin="round" stroke-width="0.733"/>
        <path id="Caminho_1567" data-name="Caminho 1567" d="M144.871,143.633a1.733,1.733,0,0,0-1.628-1.247,1.587,1.587,0,1,0,0,3.174h0a1.605,1.605,0,0,0,1-.36" transform="translate(-121.966 -134.433)" fill="#60aaff" stroke="#263238" stroke-linecap="round" stroke-linejoin="round" stroke-width="0.733"/>
        <path id="Caminho_1568" data-name="Caminho 1568" d="M143.808,143.82h1.24v-1.455" transform="translate(-121.976 -134.433)" fill="#60aaff" stroke="#263238" stroke-linecap="round" stroke-linejoin="round" stroke-width="0.733"/>
        <line id="Linha_41" data-name="Linha 41" x2="2.224" y2="2.293" transform="translate(30.755 3.166)" fill="none" stroke="#263238" stroke-linecap="round" stroke-linejoin="round" stroke-width="0.733"/>
        <line id="Linha_42" data-name="Linha 42" x1="2.293" y2="2.21" transform="translate(30.721 3.208)" fill="none" stroke="#263238" stroke-linecap="round" stroke-linejoin="round" stroke-width="0.733"/>
      </g>
      <g id="freepik--Email--inject-2" transform="translate(0 92.143)">
        <g id="freepik--email--inject-2-2" data-name="freepik--email--inject-2">
          <path id="Caminho_1569" data-name="Caminho 1569" d="M165.6,327.644l-23.219-45.314L75.24,318.748l23.333,42.78Z" transform="translate(-23.75 -153.626)" fill="#fff" stroke="rgba(0,0,0,0)" stroke-width="1"/>
          <path id="Caminho_1570" data-name="Caminho 1570" d="M137.449,294.64l-13.444,33.6-48.49-9.284,45.03,4.217,15.117-28.986Z" transform="translate(-23.751 -153.684)" fill="#60aaff" stroke="rgba(0,0,0,0)" stroke-width="1"/>
          <path id="Caminho_1571" data-name="Caminho 1571" d="M137.449,294.64l-13.444,33.6-48.49-9.284,45.03,4.217,15.117-28.986Z" transform="translate(-23.751 -153.684)" fill="#fff" stroke="rgba(0,0,0,0)" stroke-width="1" opacity="0.5" style="isolation: isolate"/>
          <path id="Caminho_1572" data-name="Caminho 1572" d="M75.477,318.6l23.1,42.931,67.03-33.884-23.5-45.02Z" transform="translate(-23.751 -153.628)" fill="none" stroke="#263238" stroke-linecap="round" stroke-linejoin="round" stroke-width="1"/>
          <path id="Caminho_1573" data-name="Caminho 1573" d="M75.477,318.6l45.068,4.519L142.1,282.625" transform="translate(-23.751 -153.628)" fill="none" stroke="#263238" stroke-linecap="round" stroke-linejoin="round" stroke-width="1"/>
          <circle id="Elipse_39" data-name="Elipse 39" cx="9.908" cy="9.908" r="9.908" transform="translate(101.982 130.852) rotate(-45)" fill="#60aaff" stroke="rgba(0,0,0,0)" stroke-width="1"/>
          <circle id="Elipse_40" data-name="Elipse 40" cx="9.908" cy="9.908" r="9.908" transform="translate(101.982 130.852) rotate(-45)" stroke="rgba(0,0,0,0)" stroke-width="1" opacity="0.3" style="isolation: isolate"/>
          <ellipse id="Elipse_41" data-name="Elipse 41" cx="9.908" cy="9.908" rx="9.908" ry="9.908" transform="translate(106.087 121.245)" fill="none" stroke="#263238" stroke-linecap="round" stroke-linejoin="round" stroke-width="1"/>
          <ellipse id="Elipse_42" data-name="Elipse 42" cx="9.908" cy="9.908" rx="9.908" ry="9.908" transform="translate(106.087 118.484)" fill="#60aaff" stroke="rgba(0,0,0,0)" stroke-width="1"/>
          <ellipse id="Elipse_43" data-name="Elipse 43" cx="9.908" cy="9.908" rx="9.908" ry="9.908" transform="translate(106.087 118.484)" fill="none" stroke="#263238" stroke-linecap="round" stroke-linejoin="round" stroke-width="1"/>
          <rect id="Retângulo_156" data-name="Retângulo 156" width="53.104" height="32.078" transform="translate(222.335 69.739)" fill="#fff" stroke="rgba(0,0,0,0)" stroke-width="1"/>
          <rect id="Retângulo_157" data-name="Retângulo 157" width="53.104" height="32.078" transform="translate(222.335 69.739)" fill="none" stroke="#263238" stroke-linecap="round" stroke-linejoin="round" stroke-width="1"/>
          <rect id="Retângulo_158" data-name="Retângulo 158" width="46.353" height="2.165" transform="translate(225.833 74.617)" fill="#60aaff" stroke="rgba(0,0,0,0)" stroke-width="1"/>
          <rect id="Retângulo_159" data-name="Retângulo 159" width="46.353" height="2.165" transform="translate(225.833 79.618)" fill="#60aaff" stroke="rgba(0,0,0,0)" stroke-width="1"/>
          <rect id="Retângulo_160" data-name="Retângulo 160" width="46.353" height="2.165" transform="translate(225.833 84.62)" fill="#60aaff" stroke="rgba(0,0,0,0)" stroke-width="1"/>
          <rect id="Retângulo_161" data-name="Retângulo 161" width="46.353" height="2.165" transform="translate(225.833 89.621)" fill="#60aaff" stroke="rgba(0,0,0,0)" stroke-width="1"/>
          <rect id="Retângulo_162" data-name="Retângulo 162" width="46.353" height="2.165" transform="translate(225.833 94.622)" fill="#60aaff" stroke="rgba(0,0,0,0)" stroke-width="1"/>
          <path id="Caminho_1574" data-name="Caminho 1574" d="M242.923,249.271A92.241,92.241,0,0,0,222.2,264.322c-14.181,14.124-21.167,33.647-31.2,50.91a156.862,156.862,0,0,1-40.321,45.579c-16.763,12.763-36.616,22.236-57.67,23.758s-43.253-5.748-56.97-21.744-17.1-40.936-5.521-58.492c9.549-14.465,28.476-22.1,45.445-18.341,6.618,1.465,12.811,4.471,18.908,7.45l9.454,4.595" transform="translate(-23.5 -153.467)" fill="none" stroke="#263238" stroke-linecap="round" stroke-linejoin="round" stroke-width="1" stroke-dasharray="2 5"/>
          <path id="Caminho_1575" data-name="Caminho 1575" d="M272.926,157.3c9.454-4.51,20.732-5.8,30.63-2.269s18.1,12.234,19.8,22.605c1.465,8.944-1.891,18.18-7.317,25.422a68.186,68.186,0,0,1-14.711,13.879" transform="translate(-24.705 -153.002)" fill="none" stroke="#263238" stroke-linecap="round" stroke-linejoin="round" stroke-width="1" stroke-dasharray="2 5"/>
        </g>
      </g>
      <g id="freepik--character-2--inject-2" transform="translate(186.617 137.313)">
        <g id="freepik--character-2--inject-2-2" data-name="freepik--character-2--inject-2">
          <path id="Caminho_1576" data-name="Caminho 1576" d="M244.018,303.169l.775-8.471,7.062-3.829-10.693-19.863-30.14,15.732,10.541,19.769,6.514-3.214,12.829,6.731Z" transform="translate(-211.023 -198.741)" fill="#fff" stroke="rgba(0,0,0,0)" stroke-width="1"/>
          <path id="Caminho_1577" data-name="Caminho 1577" d="M342.431,212.61s-9.785,22.879-10.674,30.556-.454,11.563,3.262,14.228,10.446,2.836,10.446,2.836l-.643,4.065s-2.685-.2-4.727,2.922-2.042,5.152-2.042,5.152,2.59,10.22,4.727,10.4,4.33-6.986,4.33-6.986,1.891,10.229,3.668,9.879S369.2,274.194,369.2,274.194s1.485-7.715-2.156-11.714c0,0-.945-7.648.076-11.213,0,0,7.176.945,7.563-6.438.34-6.542-3.11-9.341-5.19-6.675l-4.9-12.29,1.891-8.746Z" transform="translate(-211.605 -198.459)" fill="#fff" stroke="rgba(0,0,0,0)" stroke-width="1"/>
          <path id="Caminho_1578" data-name="Caminho 1578" d="M345.956,214.9l.756,1.334s-11.95,19.721-11.345,32.617,18.974,9.454,18.974,9.454-1.143,16.128-7.969,15.127l-1.75-3.905.492-9s-7.128.653-11.486-3.706-2.279-13.662,1.7-26.368,7.1-17.839,7.1-17.839Z" transform="translate(-211.604 -198.459)" fill="#60aaff" stroke="rgba(0,0,0,0)" stroke-width="1"/>
          <path id="Caminho_1579" data-name="Caminho 1579" d="M345.956,214.9l.756,1.334s-11.95,19.721-11.345,32.617,18.974,9.454,18.974,9.454-1.143,16.128-7.969,15.127l-1.75-3.905.492-9s-7.128.653-11.486-3.706-2.279-13.662,1.7-26.368,7.1-17.839,7.1-17.839Z" transform="translate(-211.604 -198.459)" fill="#fff" stroke="rgba(0,0,0,0)" stroke-width="1" opacity="0.6" style="isolation: isolate"/>
          <path id="Caminho_1580" data-name="Caminho 1580" d="M403.3,306.009a42.268,42.268,0,0,1-3.971,11.96,53.009,53.009,0,0,1-7.4,11.061l1.655,15.58,3.961,23.209h0l-.179.133c-.237.179-.662.492-1.267.945h-58.71c-1.541-3.574-3.252-7.62-4.859-11.6-2.931-7.27-5.521-14.3-6.107-17.83a9.3,9.3,0,0,1-.123-1.21l-9.955-9.946L283.493,346.2l-42.355-35.841.067-.122,4.3-8.6v-.047l42.117,20.108,8.727-12.063.122-.4v-.048l2.5-8.2V300.9l1.559-5.1,2-6.533,12.517-5.918h0l22.539-10.721v.113c.113.387.463,1.645.945,3.167.113.369.227.737.359,1.107s.179.548.284.813a29.438,29.438,0,0,0,1.513,3.564c.095.18.2.35.293.5a5.611,5.611,0,0,0,.445.633v.048a1.019,1.019,0,0,0,.765.444c1.059-.085,2.336-2.391,3.234-4.33a1.483,1.483,0,0,1,.075-.179c.511-1.143.889-2.128.993-2.4v-.076a1.116,1.116,0,0,1,0,.113c.141.9,1.2,7.091,2.723,9.123l.151.2a1.144,1.144,0,0,0,.775.444h0c.737,0,3.054-1.408,5.824-3.28h0c5.114-3.46,11.742-8.509,12.716-9.256l.122-.1a18.562,18.562,0,0,0,0-5.446l.161.057,27.369,10.579h0l.794.3s3.981,4.878,6.042,16.923A30.943,30.943,0,0,1,403.3,306.009Z" transform="translate(-211.169 -198.726)" fill="#60aaff" stroke="rgba(0,0,0,0)" stroke-width="1"/>
          <path id="Caminho_1581" data-name="Caminho 1581" d="M312.931,296.443l2.534-14.314-30.329-8.149L279.9,295.942l12.082,3.782,5.464,11.08,8.3,5.7,9.1-8.49.775-6.779Z" transform="translate(-211.356 -198.755)" fill="#fff" stroke="rgba(0,0,0,0)" stroke-width="1"/>
          <path id="Caminho_1582" data-name="Caminho 1582" d="M244.794,294.7l7.043-3.489L241.22,270.883l-30.083,16.242,10.428,19.381,14.172-7.242" transform="translate(-211.024 -198.74)" fill="none" stroke="#263238" stroke-linecap="round" stroke-linejoin="round" stroke-width="1"/>
          <path id="Caminho_1583" data-name="Caminho 1583" d="M211.137,287.125l20.355,2.042,9.728-18.284" transform="translate(-211.024 -198.74)" fill="none" stroke="#263238" stroke-linecap="round" stroke-linejoin="round" stroke-width="1"/>
          <path id="Caminho_1584" data-name="Caminho 1584" d="M308.119,304.1l3.243.936,4.207-23.248-30.433-7.941L279.9,295.941l11.676,3.375" transform="translate(-211.356 -198.755)" fill="none" stroke="#263238" stroke-linecap="round" stroke-linejoin="round" stroke-width="1"/>
          <path id="Caminho_1585" data-name="Caminho 1585" d="M285.323,273.847l12.082,15.108,18.19-7.166" transform="translate(-211.382 -198.755)" fill="none" stroke="#263238" stroke-linecap="round" stroke-linejoin="round" stroke-width="1"/>
          <path id="Caminho_1586" data-name="Caminho 1586" d="M343.734,209.5s-11.912,26.983-12.716,37.949,9.454,12.584,9.549,12.6a22.24,22.24,0,0,0,12.206-1.239c3.053-1.314,5.492-3.782,8.036-5.824" transform="translate(-211.603 -198.444)" fill="none" stroke="#263238" stroke-linecap="round" stroke-linejoin="round" stroke-width="1"/>
          <path id="Caminho_1587" data-name="Caminho 1587" d="M341.625,240.06l-4.812-2.676,5.616-12.026" transform="translate(-211.631 -198.521)" fill="none" stroke="#263238" stroke-linecap="round" stroke-linejoin="round" stroke-width="1"/>
          <path id="Caminho_1588" data-name="Caminho 1588" d="M347.7,230.652c-.349,1.069-.17,2.08.4,2.269s1.315-.52,1.664-1.588.18-2.08-.387-2.269S348.021,229.583,347.7,230.652Z" transform="translate(-211.683 -198.538)" fill="#263238" stroke="rgba(0,0,0,0)" stroke-width="1"/>
          <path id="Caminho_1589" data-name="Caminho 1589" d="M338.418,227.184c-.35,1.069-.18,2.09.4,2.269s1.314-.519,1.664-1.588.179-2.08-.388-2.269S338.767,226.1,338.418,227.184Z" transform="translate(-211.638 -198.522)" fill="#263238" stroke="rgba(0,0,0,0)" stroke-width="1"/>
          <path id="Caminho_1590" data-name="Caminho 1590" d="M348.275,242.544a7.657,7.657,0,0,1-6.9,2.581" transform="translate(-211.653 -198.604)" fill="none" stroke="#263238" stroke-linecap="round" stroke-linejoin="round" stroke-width="1"/>
          <path id="Caminho_1591" data-name="Caminho 1591" d="M348.146,224.8a2.883,2.883,0,0,1,3.422.624,8.49,8.49,0,0,1,1.777,3.271" transform="translate(-211.686 -198.516)" fill="none" stroke="#263238" stroke-linecap="round" stroke-linejoin="round" stroke-width="2"/>
          <path id="Caminho_1592" data-name="Caminho 1592" d="M342.827,223.243a2.145,2.145,0,0,0-3.857-.425" transform="translate(-211.642 -198.503)" fill="none" stroke="#263238" stroke-linecap="round" stroke-linejoin="round" stroke-width="2"/>
          <path id="Caminho_1593" data-name="Caminho 1593" d="M366.922,243.683s3.186-5.209,6.513-4.055,1.74,5.937.142,8.981-5.672,3.177-7.96,1.891" transform="translate(-211.77 -198.589)" fill="none" stroke="#263238" stroke-linecap="round" stroke-linejoin="round" stroke-width="1"/>
          <path id="Caminho_1594" data-name="Caminho 1594" d="M374.3,246.406s3.158-5.332-.2-7.109-7.5,4.235-7.5,4.235a2.86,2.86,0,0,1-.851-.151,3.053,3.053,0,0,1-1.789-3.93c.015-.043.032-.085.05-.126.142-.33.256-.662.359-.945a8.711,8.711,0,0,0,.34-4.263c-.548-2.893-2.609-5.247-2.278-8.339a20.062,20.062,0,0,1,2.146-6.92c-17.187,3.441-27.5-6.306-25.215-14.323s7.733-.86,19.769-5.446S379.8,214.025,379.8,214.025c12.036,8.311.529,19.986.529,19.986L374.2,246.765Z" transform="translate(-211.642 -198.39)" fill="#263238" stroke="rgba(0,0,0,0)" stroke-width="1"/>
          <path id="Caminho_1595" data-name="Caminho 1595" d="M392.626,328.89c.444,15.173,5.672,39.225,5.672,39.225h0l-.18.133-1.3.945" transform="translate(-211.901 -199.021)" fill="none" stroke="#263238" stroke-linecap="round" stroke-linejoin="round" stroke-width="1"/>
          <path id="Caminho_1596" data-name="Caminho 1596" d="M337.445,369.239c-1.531-3.611-3.025-7.507-4.5-11.6-2.156-5.994-4.244-12.423-6.231-19.041" transform="translate(-211.582 -199.068)" fill="none" stroke="#263238" stroke-linecap="round" stroke-linejoin="round" stroke-width="1"/>
          <path id="Caminho_1597" data-name="Caminho 1597" d="M369.6,267.786s24.458,8.689,28.183,11" transform="translate(-211.79 -198.726)" fill="none" stroke="#263238" stroke-linecap="round" stroke-linejoin="round" stroke-width="1"/>
          <path id="Caminho_1598" data-name="Caminho 1598" d="M347.525,274.776c-1.891-1.408-3.006-5.02-2.572-7.677l.605-6.24" transform="translate(-211.67 -198.692)" fill="none" stroke="#263238" stroke-linecap="round" stroke-linejoin="round" stroke-width="1"/>
          <path id="Caminho_1599" data-name="Caminho 1599" d="M367.267,251.151s-1.229,4.1-.218,11.478" transform="translate(-211.775 -198.645)" fill="none" stroke="#263238" stroke-linecap="round" stroke-linejoin="round" stroke-width="1"/>
          <path id="Caminho_1600" data-name="Caminho 1600" d="M358.843,338.462l-43.489-30.556-9.454,8.509s38.705,43.12,53.983,49.908c0,0,30.48-32.862,40.331-49.161,0,0,9.946-16.28-2.553-38.308" transform="translate(-211.482 -198.779)" fill="none" stroke="#263238" stroke-linecap="round" stroke-linejoin="round" stroke-width="1"/>
          <line id="Linha_43" data-name="Linha 43" y1="30.953" x2="23.342" transform="translate(142.133 105.147)" fill="none" stroke="#263238" stroke-linecap="round" stroke-linejoin="round" stroke-width="1"/>
          <line id="Linha_44" data-name="Linha 44" x2="14.607" y2="0.681" transform="translate(142.852 136.591)" fill="none" stroke="#263238" stroke-linecap="round" stroke-linejoin="round" stroke-width="1"/>
          <path id="Caminho_1601" data-name="Caminho 1601" d="M380.252,215.357s1.891-7.563-2.836-13.416" transform="translate(-211.827 -198.407)" fill="none" stroke="#263238" stroke-linecap="round" stroke-width="1"/>
          <path id="Caminho_1602" data-name="Caminho 1602" d="M296.379,309.793l-8.925,12.394-42.411-20.619-3.971,8.726,42.421,36.067,32.721-18.038" transform="translate(-211.169 -198.889)" fill="none" stroke="#263238" stroke-linecap="round" stroke-linejoin="round" stroke-width="1"/>
          <line id="Linha_45" data-name="Linha 45" y1="11.213" x2="22.52" transform="translate(103.891 73.882)" fill="none" stroke="#263238" stroke-linecap="round" stroke-linejoin="round" stroke-width="1"/>
          <path id="Caminho_1603" data-name="Caminho 1603" d="M243.845,303.733l1.22-11.345-4.558-8.462s.653-5.975-.652-5.947-1.239,14.55-1.239,14.55-3.866,2.723-2.439,8.7" transform="translate(-211.144 -198.775)" fill="none" stroke="#263238" stroke-linecap="round" stroke-linejoin="round" stroke-width="1"/>
          <line id="Linha_46" data-name="Linha 46" x2="12.149" y2="7.034" transform="translate(17.764 104.372)" fill="none" stroke="#263238" stroke-linecap="round" stroke-linejoin="round" stroke-width="1"/>
          <path id="Caminho_1604" data-name="Caminho 1604" d="M313.3,296.837l2.3,4.018-.444,7.138" transform="translate(-211.518 -198.866)" fill="none" stroke="#263238" stroke-linecap="round" stroke-linejoin="round" stroke-width="1"/>
          <path id="Caminho_1605" data-name="Caminho 1605" d="M309.065,305.392c0-.624-12.924-14.559-12.924-14.559l-1.484,1.172,5.3,10.4-4.443-7.809-1.248,1.484,1.163,5.672-1.55-4.141-2.1,1.088,5.719,12.187,8.149,5.255" transform="translate(-211.414 -198.837)" fill="none" stroke="#263238" stroke-linecap="round" stroke-linejoin="round" stroke-width="1"/>
          <path id="Caminho_1606" data-name="Caminho 1606" d="M367.051,262.685s-10.125,8.026-19.522,11.619c0,0,.945,10.843,3.252,11.562.87.275,2.2-.633,2.9-1.011a55.45,55.45,0,0,0,4.841-3.044c3.214-2.193,6.334-4.519,9.454-6.893.6-.463,1.5-.9,1.54-1.711.208-3.782.426-7.563-2.391-10.485Z" transform="translate(-211.683 -198.701)" fill="none" stroke="#263238" stroke-linecap="round" stroke-linejoin="round" stroke-width="1"/>
          <path id="Caminho_1607" data-name="Caminho 1607" d="M347.483,274.314s-2.581,8.981-4.727,8.669-4.794-10.976-4.794-10.976,2.477-8.509,7.11-7.109" transform="translate(-211.637 -198.711)" fill="none" stroke="#263238" stroke-linecap="round" stroke-linejoin="round" stroke-width="1"/>
          <path id="Caminho_1608" data-name="Caminho 1608" d="M287.85,321.964a42,42,0,0,1,0,9.681" transform="translate(-211.395 -198.987)" fill="none" stroke="#263238" stroke-linecap="round" stroke-linejoin="round" stroke-width="1"/>
          <line id="Linha_47" data-name="Linha 47" x2="3.602" y2="11.723" transform="translate(107.796 102.575)" fill="none" stroke="#263238" stroke-linecap="round" stroke-linejoin="round" stroke-width="1"/>
          <path id="Caminho_1609" data-name="Caminho 1609" d="M375.336,294.129a31.986,31.986,0,0,0-3.639,17.017" transform="translate(-211.799 -198.853)" fill="none" stroke="#263238" stroke-linecap="round" stroke-linejoin="round" stroke-width="1"/>
          <path id="Caminho_1610" data-name="Caminho 1610" d="M369.1,300.865a37.917,37.917,0,0,0,.35,10.343" transform="translate(-211.786 -198.885)" fill="none" stroke="#263238" stroke-linecap="round" stroke-linejoin="round" stroke-width="1"/>
          <path id="Caminho_1611" data-name="Caminho 1611" d="M289.342,323.313a16.551,16.551,0,0,1,1.891,5.985" transform="translate(-211.402 -198.994)" fill="none" stroke="#263238" stroke-linecap="round" stroke-linejoin="round" stroke-width="1"/>
          <path id="Caminho_1612" data-name="Caminho 1612" d="M342.19,205.875a6.387,6.387,0,0,0,2.6,3.782,14.747,14.747,0,0,0,4.254,2,44.519,44.519,0,0,0,13.68,2.212,11.268,11.268,0,0,1,3.035.246,3.267,3.267,0,0,1,2.24,1.891" transform="translate(-211.657 -198.426)" fill="none" stroke="#fff" stroke-linecap="round" stroke-linejoin="round" stroke-width="0.5"/>
          <path id="Caminho_1613" data-name="Caminho 1613" d="M345.7,202.188c.605,2.572,3.271,4.208,5.89,4.586s5.265-.227,7.884-.6,5.427-.473,7.762.775,3.9,4.263,2.713,6.618" transform="translate(-211.674 -198.409)" fill="none" stroke="#fff" stroke-linecap="round" stroke-linejoin="round" stroke-width="0.5"/>
        </g>
      </g>
      <g id="freepik--Table--inject-2" transform="translate(228.111 288.785)">
        <path id="Caminho_1614" data-name="Caminho 1614" d="M319.342,369.388h110.67" transform="translate(-253.041 -350.688)" fill="none" stroke="#263238" stroke-linecap="round" stroke-linejoin="round" stroke-width="1"/>
        <line id="Linha_48" data-name="Linha 48" x2="33.411" transform="translate(24.307 18.7)" fill="none" stroke="#263238" stroke-linecap="round" stroke-linejoin="round" stroke-width="1"/>
        <g id="freepik--Device--inject-47--inject-2">
          <path id="Caminho_1615" data-name="Caminho 1615" d="M350.4,382.613H288.3l-23.7,12.81h65.063Z" transform="translate(-252.776 -350.752)" fill="none" stroke="#263238" stroke-linecap="round" stroke-linejoin="round" stroke-width="1"/>
          <line id="Linha_49" data-name="Linha 49" x2="45.852" transform="translate(39.594 35.207)" fill="none" stroke="#263238" stroke-linecap="round" stroke-linejoin="round" stroke-width="1"/>
          <line id="Linha_50" data-name="Linha 50" x2="44.576" transform="translate(36.247 37.599)" fill="none" stroke="#263238" stroke-linecap="round" stroke-linejoin="round" stroke-width="1"/>
          <line id="Linha_51" data-name="Linha 51" x2="43.271" transform="translate(32.9 39.981)" fill="none" stroke="#263238" stroke-linecap="round" stroke-linejoin="round" stroke-width="1"/>
          <line id="Linha_52" data-name="Linha 52" x1="13.132" y2="6.448" transform="translate(72.551 35.207)" fill="none" stroke="#263238" stroke-linecap="round" stroke-linejoin="round" stroke-width="1"/>
          <line id="Linha_53" data-name="Linha 53" x1="13.132" y2="6.448" transform="translate(65.385 35.207)" fill="none" stroke="#263238" stroke-linecap="round" stroke-linejoin="round" stroke-width="1"/>
          <path id="Caminho_1616" data-name="Caminho 1616" d="M253.441,350.6h65.073l11.1,44.671H264.55Z" transform="translate(-252.722 -350.597)" fill="#263238" stroke="rgba(0,0,0,0)" stroke-width="1"/>
          <rect id="Retângulo_163" data-name="Retângulo 163" width="65.649" height="3.177" transform="translate(11.25 44.661)" fill="none" stroke="#263238" stroke-linecap="round" stroke-linejoin="round" stroke-width="1"/>
          <path id="Caminho_1617" data-name="Caminho 1617" d="M252.719,350.6h65.073L328.9,395.268H263.828Z" transform="translate(-252.719 -350.597)" fill="#fff" stroke="#263238" stroke-linecap="round" stroke-linejoin="round" stroke-width="1"/>
          <path id="Caminho_1618" data-name="Caminho 1618" d="M329.983,395.422l21.187-12.886-.01,2.42L330.219,399Z" transform="translate(-253.092 -350.752)" fill="#263238" stroke="rgba(0,0,0,0)" stroke-width="1"/>
          <path id="Caminho_1619" data-name="Caminho 1619" d="M293.8,371.655a3.479,3.479,0,1,1-4.311-2.836A3.648,3.648,0,0,1,293.8,371.655Z" transform="translate(-252.884 -350.685)" fill="none" stroke="#263238" stroke-linecap="round" stroke-linejoin="round" stroke-width="1"/>
        </g>
      </g>
    </g>
  </g>
</svg>
