<svg xmlns="http://www.w3.org/2000/svg" xmlns:xlink="http://www.w3.org/1999/xlink" width="63" height="63" viewBox="0 0 63 63">
  <defs>
    <clipPath id="clip-path">
      <rect id="Ret창ngulo_39" data-name="Ret창ngulo 39" width="63" height="63" rx="17.008" transform="translate(0.473)" fill="none"/>
    </clipPath>
  </defs>
  <g id="girl" transform="translate(-0.473)">
    <rect id="Ret창ngulo_38" data-name="Ret창ngulo 38" width="63" height="63" rx="8" transform="translate(0.473)" fill="#eaf4fe"/>
    <g id="Grupo_810" data-name="Grupo 810">
      <g id="student-woman-icon" transform="translate(0)" clip-path="url(#clip-path)">
        <g id="Grupo_808" data-name="Grupo 808" transform="translate(15.429 4.884)">
          <path id="Caminho_68" data-name="Caminho 68" d="M6099.851,2074.121s-.542,1.624-3.79,1.624-6.768-4.331-5.414-12.182-3.52-7.85-2.437-13.805,4.331-9.2,7.851-5.414,6.5,4.872,4.872,6.767-6.226,1.625-5.685-1.083,13.751-13.618,20.574-9.2c4.6,2.978,5.143,4.873,2.436,9.745-1.972,3.549-2.436,7.038,1.9,10.016,5.576,3.833,3.2,5.755.812,7.038-3.519,1.895-8.662,2.437-8.121,6.5S6105.265,2077.1,6099.851,2074.121Z" transform="translate(-6088.053 -2039.785)" fill="#212a54"/>
          <path id="Caminho_69" data-name="Caminho 69" d="M6113.184,2293.813s2.466,2.466,1.9,5.5-6.261,4.344-9.3,9.088-2.087,23.293-2.087,23.293h25.424s-.189-22.724-1.9-25.949-1.518-5.113-5.123-4.923-2.277-6.446-1.518-9.482S6113.184,2293.813,6113.184,2293.813Z" transform="translate(-6101.878 -2263.297)" fill="#f7b68b"/>
          <path id="Caminho_70" data-name="Caminho 70" d="M6194.041,2300.262a22.424,22.424,0,0,0,4.983-3.614,28.1,28.1,0,0,1,.865-5.266c.759-3.036-7.4,2.467-7.4,2.467s2.466,2.466,1.9,5.5A2.9,2.9,0,0,1,6194.041,2300.262Z" transform="translate(-6181.185 -2263.333)" fill="#ec9568"/>
          <path id="Caminho_71" data-name="Caminho 71" d="M6133.285,2133.972s-14.472,22.956,2.883,21.079c7.02-.759,7.589-3.795,8.348-5.882s3.226,1.328,3.795-2.846-.759-3.984-2.657-2.087-2.656.948-2.846-2.087,2.642-3.387-3.036-3.795C6136.989,2138.155,6131.2,2138.526,6133.285,2133.972Z" transform="translate(-6123.344 -2123.776)" fill="#f7b68b"/>
          <path id="Caminho_72" data-name="Caminho 72" d="M6159.533,2483.057l-1.556-22.894-16.317,1.426,1.046,21.468C6142.69,2483.057,6159.541,2483.116,6159.533,2483.057Z" transform="translate(-6135.857 -2414.658)" fill="#ffe019"/>
          <path id="Caminho_73" data-name="Caminho 73" d="M6101.642,2419.046l22.767-5.692,2.846,5.692-26.466,6.83Z" transform="translate(-6099.409 -2372.916)" fill="#ffe019"/>
          <g id="Grupo_804" data-name="Grupo 804" transform="translate(8.908 25.15)">
            <path id="Caminho_74" data-name="Caminho 74" d="M6171.549,2274.658a.7.7,0,0,1-.119-.01c-.566-.1-.922-.906-1.088-2.458l.237-.025c.188,1.759.59,2.193.893,2.248.726.132,1.767-1.607,2.107-2.288l.214.107C6173.666,2272.488,6172.55,2274.658,6171.549,2274.658Z" transform="translate(-6170.343 -2272.124)" fill="#212a54"/>
          </g>
          <g id="Grupo_805" data-name="Grupo 805" transform="translate(12.901 18.33)">
            <path id="Caminho_75" data-name="Caminho 75" d="M6210.655,2213.985l-.18-.157c.6-.682.7-2.8.183-3.9-.121-.259-.329-.565-.641-.565h-.009c-.389.007-1.238.491-2.558,3.644l-.221-.092c1.046-2.5,1.98-3.776,2.773-3.791.246-.009.6.113.872.7C6211.382,2210.916,6211.367,2213.173,6210.655,2213.985Z" transform="translate(-6207.229 -2209.12)" fill="#212a54"/>
          </g>
          <g id="Grupo_806" data-name="Grupo 806" transform="translate(5.88 16.941)">
            <path id="Caminho_76" data-name="Caminho 76" d="M6145.446,2200.188h-.239c0-1.356-.208-3.548-.769-3.654-.237-.045-.794.276-1.846,2.939l-.223-.088c1.149-2.908,1.756-3.155,2.114-3.087C6145.4,2196.474,6145.446,2199.569,6145.446,2200.188Z" transform="translate(-6142.369 -2196.29)" fill="#212a54"/>
          </g>
          <g id="Grupo_807" data-name="Grupo 807" transform="translate(9.882 15.522)">
            <path id="Caminho_77" data-name="Caminho 77" d="M6179.533,2190.277l-.186-.151a11.42,11.42,0,0,0,2.25-6.939l.239-.011A11.678,11.678,0,0,1,6179.533,2190.277Z" transform="translate(-6179.347 -2183.176)" fill="#212a54"/>
          </g>
        </g>
      </g>
    </g>
  </g>
</svg>
