<svg xmlns="http://www.w3.org/2000/svg" width="398.504" height="425.814" viewBox="0 0 398.504 425.814">
  <g id="recuperar-senha" transform="translate(-6112.277 -3431.653)">
    <g id="Grupo_897" data-name="Grupo 897" transform="translate(6153.239 3475.568)">
      <path id="Caminho_691" data-name="Caminho 691" d="M1240.327,1061.582c4.977,26.364,38.964,34.122,54.879,12.522,11.818-16.041,22.108-39.324,10.89-64.67-20.747-46.875-73.1,10.286-65.988,50.942Q1240.214,1060.985,1240.327,1061.582Z" transform="translate(-1239.448 -951.395)" fill="#f3f3f3" stroke="rgba(0,0,0,0)" stroke-width="1"/>
    </g>
    <g id="Grupo_896" data-name="Grupo 896" transform="translate(6110 3432.153)">
      <g id="freepik--Graphics--inject-2" transform="translate(33.404 0)">
        <g id="freepik--background-details--inject-2">
          <path id="Caminho_1556" data-name="Caminho 1556" d="M141.536,105.778l-34.98-4.869-3.214,22.831,34.573,5.767Zm-2.061.6-17.15,8.244-13.964-12.574Zm-35.094,16.573,2.9-20.647,14.881,13.415,18.255-8.764-3.3,21.509Z" transform="translate(-57.29 -60.607)" fill="#60aaff" stroke="rgba(0,0,0,0)" stroke-width="1"/>
          <path id="Caminho_1557" data-name="Caminho 1557" d="M141.536,105.778l-34.98-4.869-3.214,22.831,34.573,5.767Zm-2.061.6-17.15,8.244-13.964-12.574Zm-35.094,16.573,2.9-20.647,14.881,13.415,18.255-8.764-3.3,21.509Z" transform="translate(-57.29 -60.607)" fill="#fff" stroke="rgba(0,0,0,0)" stroke-width="1" opacity="0.6" style="isolation: isolate"/>
          <path id="Caminho_1558" data-name="Caminho 1558" d="M314.253,84.037l-28.778,25.176,37.041,44.6.293.35,30.263-25.848Zm36.871,43.4-32.144-8.7-4.1-32.636Zm-64.382-18.123L313.865,85.6l4.254,33.865L351.5,128.49l-28.58,24.382Z" transform="translate(-58.17 -60.525)" fill="#60aaff" stroke="rgba(0,0,0,0)" stroke-width="1"/>
          <path id="Caminho_1559" data-name="Caminho 1559" d="M314.253,84.037l-28.778,25.176,37.041,44.6.293.35,30.263-25.848Zm36.871,43.4-32.144-8.7-4.1-32.636Zm-64.382-18.123L313.865,85.6l4.254,33.865L351.5,128.49l-28.58,24.382Z" transform="translate(-58.17 -60.525)" fill="#fff" stroke="rgba(0,0,0,0)" stroke-width="1" opacity="0.6" style="isolation: isolate"/>
          <path id="Caminho_1560" data-name="Caminho 1560" d="M57.52,214.078h0a.474.474,0,0,1-.454-.464V211.78a.473.473,0,0,1,.945,0V213.6a.461.461,0,0,1-.452.474Zm.189-6.4h0a.454.454,0,0,1-.435-.472h0l.085-1.834a.463.463,0,0,1,.482-.426.455.455,0,0,1,.436.473h0c0,.615-.066,1.22-.085,1.825A.463.463,0,0,1,57.709,207.677Zm.369-6.382h0a.463.463,0,0,1-.426-.482l.142-1.824a.454.454,0,0,1,.48-.427h.012a.463.463,0,0,1,.416.492c0,.605-.095,1.21-.132,1.825A.463.463,0,0,1,58.078,201.3Zm.529-6.381h0a.464.464,0,0,1-.416-.5c.067-.605.123-1.209.189-1.824a.476.476,0,1,1,.945.1h0c-.066.605-.122,1.21-.189,1.815a.443.443,0,0,1-.473.413A.369.369,0,0,1,58.608,194.914Zm.719-6.353h-.057a.464.464,0,0,1-.4-.511c.076-.605.161-1.21.237-1.815a.462.462,0,0,1,.519-.387.454.454,0,0,1,.388.51c-.077.605-.161,1.21-.237,1.806A.463.463,0,0,1,59.326,188.561Zm.945-6.334H60.2a.454.454,0,0,1-.378-.518v0c.095-.605.189-1.21.293-1.805a.479.479,0,0,1,.945.151h0c-.095.6-.2,1.191-.293,1.8a.454.454,0,0,1-.517.38l-.012,0Zm1.1-6.305h-.095a.454.454,0,0,1-.359-.529c.113-.605.227-1.2.35-1.8a.443.443,0,0,1,.512-.365l.027.006a.454.454,0,0,1,.361.53l0,.008c-.122.6-.236,1.191-.349,1.787a.456.456,0,0,1-.483.359Zm1.3-6.269h-.1a.444.444,0,0,1-.342-.526l0-.013c.132-.605.265-1.191.407-1.786a.456.456,0,0,1,.889.208c-.132.586-.275,1.181-.406,1.777A.455.455,0,0,1,62.673,169.653Zm1.5-6.212h-.113a.444.444,0,0,1-.326-.536l0-.021c.152-.586.3-1.182.464-1.768a.463.463,0,0,1,.889.237c-.161.586-.321,1.181-.473,1.767a.454.454,0,0,1-.492.322Zm1.731-6.164a.3.3,0,0,1-.132,0,.454.454,0,0,1-.314-.559l0-.008L66,154.961a.455.455,0,1,1,.87.265c-.18.586-.359,1.162-.529,1.748a.454.454,0,0,1-.482.3Zm1.891-6.088h-.142a.453.453,0,0,1-.255-.576c.189-.586.4-1.162.6-1.74a.454.454,0,0,1,.579-.277l.007,0a.452.452,0,0,1,.275.576l-.6,1.731a.454.454,0,0,1-.464.283Zm2.174-6.022h-.16a.471.471,0,0,1-.265-.6c.217-.567.444-1.134.671-1.7a.454.454,0,0,1,.842.331c-.218.567-.445,1.135-.653,1.7a.473.473,0,0,1-.435.265Zm2.41-5.9a.419.419,0,0,1-.179,0,.463.463,0,0,1-.246-.605l.737-1.674a.455.455,0,0,1,.832.369L72.8,139.03A.45.45,0,0,1,72.382,139.267Zm2.638-5.824a.463.463,0,0,1-.451-.475.469.469,0,0,1,.044-.187c.265-.548.529-1.1.8-1.645a.453.453,0,0,1,.606-.212l.008,0a.462.462,0,0,1,.2.614l-.794,1.636a.461.461,0,0,1-.416.236Zm2.893-5.72a.43.43,0,0,1-.218-.057.444.444,0,0,1-.2-.6l.009-.018c.284-.539.577-1.078.87-1.617a.464.464,0,0,1,.8.445l-.87,1.6a.435.435,0,0,1-.4.218Zm3.129-5.578a.44.44,0,0,1-.236-.066.464.464,0,0,1-.161-.624c.312-.529.634-1.05.945-1.579a.446.446,0,0,1,.608-.161l.016.01a.464.464,0,0,1,.152.634q-.484.775-.945,1.559a.472.472,0,0,1-.379.2Zm3.376-5.464a.438.438,0,0,1-.255-.076.453.453,0,0,1-.126-.629l0,0c.331-.511.672-1.012,1.012-1.523a.473.473,0,0,1,.643-.122.454.454,0,0,1,.125.629l0,0c-.35.5-.681,1.012-1.021,1.523A.434.434,0,0,1,84.417,116.681Zm3.649-5.255a.5.5,0,0,1-.275-.086.464.464,0,0,1-.094-.643l1.087-1.475a.455.455,0,1,1,.727.548l-1.078,1.466a.466.466,0,0,1-.349.189Zm3.914-5.087a.4.4,0,0,1-.284-.1.463.463,0,0,1-.076-.643l1.162-1.418a.457.457,0,1,1,.71.576l-1.162,1.428A.465.465,0,0,1,91.981,106.338Zm4.122-4.9a.477.477,0,0,1-.3-.113.453.453,0,0,1,0-.641v0c.406-.454.813-.945,1.229-1.361a.455.455,0,0,1,.642,0h0a.464.464,0,0,1,0,.653c-.406.444-.813.9-1.21,1.351a.462.462,0,0,1-.369.123Zm200.2-1.494a.351.351,0,0,1-.17,0l-1.693-.69a.456.456,0,1,1,.35-.842l1.692.691a.463.463,0,0,1,.247.6.446.446,0,0,1-.436.247Zm-5.909-2.458a.488.488,0,0,1-.17,0l-1.692-.765a.463.463,0,0,1-.246-.605.454.454,0,0,1,.6-.241l.01,0,1.673.72a.453.453,0,0,1,.248.592l0,0a.461.461,0,0,1-.425.293Zm-189.9-.765a.447.447,0,0,1-.321-.122.464.464,0,0,1,0-.653l1.267-1.276a.463.463,0,0,1,.653.652c-.435.425-.861.861-1.286,1.3A.463.463,0,0,1,100.489,96.724Zm184.061-1.8a.418.418,0,0,1-.179,0L282.7,94.19a.453.453,0,0,1-.241-.6l0-.01a.463.463,0,0,1,.605-.227l1.674.737a.464.464,0,0,1-.19.88Zm-5.842-2.609a.455.455,0,0,1-.19-.048l-1.664-.746a.463.463,0,0,1-.227-.605.455.455,0,0,1,.6-.23l.006,0,1.664.746a.464.464,0,0,1,.227.605.456.456,0,0,1-.455.3ZM105.017,92.28a.416.416,0,0,1-.33-.151.463.463,0,0,1,0-.643l1.352-1.238a.453.453,0,0,1,.641,0l0,0a.464.464,0,0,1,0,.652l-1.342,1.229A.437.437,0,0,1,105.017,92.28ZM272.846,89.7a.433.433,0,0,1-.189,0l-1.664-.756a.457.457,0,0,1,.378-.832l1.664.757a.463.463,0,0,1-.189.879ZM109.8,88.035a.463.463,0,0,1-.293-.813l1.38-1.172a.463.463,0,0,1,.643.067.454.454,0,0,1-.062.639l0,0-1.4,1.163A.442.442,0,0,1,109.8,88.035Zm157.232-1.011a.474.474,0,0,1-.2,0l-1.655-.756a.464.464,0,0,1-.227-.615.453.453,0,0,1,.6-.218h0l1.664.756a.444.444,0,0,1,.226.586l-.008.019A.446.446,0,0,1,267.033,87.024Zm-5.824-2.657a.668.668,0,0,1-.189,0l-1.7-.8a.457.457,0,0,1,.368-.836l.01,0,1.664.766a.454.454,0,0,1,.23.6l0,.006A.472.472,0,0,1,261.209,84.367Zm-146.415-.33a.463.463,0,0,1-.369-.189.444.444,0,0,1,.081-.623l.014-.01,1.466-1.107a.454.454,0,0,1,.633.1h0a.444.444,0,0,1-.081.623l-.014.01-1.456,1.1A.5.5,0,0,1,114.794,84.036ZM255.376,81.73a.465.465,0,0,1-.189,0l-1.665-.747a.454.454,0,0,1-.241-.594l0-.011a.462.462,0,0,1,.605-.226l1.673.746a.453.453,0,0,1,.23.6l0,.006a.443.443,0,0,1-.416.227Zm-135.4-1.437a.436.436,0,0,1-.368-.2.445.445,0,0,1,.1-.622l.018-.012c.511-.349,1.012-.69,1.523-1.021a.453.453,0,0,1,.63.118l0,0a.445.445,0,0,1-.109.619l-.023.015-1.5,1.021A.544.544,0,0,1,119.974,80.292Zm129.521-1.143a.389.389,0,0,1-.179,0l-1.683-.719a.463.463,0,0,1-.237-.605.454.454,0,0,1,.6-.237l1.683.719a.454.454,0,0,1,.241.6l0,.01a.463.463,0,0,1-.387.237ZM125.353,76.87a.455.455,0,0,1-.388-.218.463.463,0,0,1,.152-.633l1.569-.945a.455.455,0,1,1,.463.784c-.519.312-1.04.615-1.559.945A.417.417,0,0,1,125.353,76.87Zm118.281-.18a.393.393,0,0,1-.18,0l-1.683-.765a.458.458,0,1,1,.34-.851l1.692.7a.453.453,0,0,1-.169.879Zm-5.937-2.4a.439.439,0,0,1-.161,0l-1.7-.662a.457.457,0,0,1,.331-.851l1.7.662a.454.454,0,0,1,.258.588l0,.008a.445.445,0,0,1-.425.218ZM130.913,73.7a.453.453,0,0,1-.217-.86c.538-.294,1.078-.567,1.626-.851a.457.457,0,0,1,.416.813l-1.607.841a.491.491,0,0,1-.218.019Zm100.8-1.72a.429.429,0,0,1-.151,0l-1.721-.615a.458.458,0,0,1,.311-.861l1.721.615a.472.472,0,0,1,.275.6A.465.465,0,0,1,231.712,71.983Zm-95.08-1.163a.464.464,0,0,1-.189-.88l1.674-.746a.444.444,0,0,1,.59.215l.006.012a.454.454,0,0,1-.222.6l0,0-1.664.746A.42.42,0,0,1,136.632,70.819Zm89.049-.945a.43.43,0,0,1-.151,0l-1.731-.567a.457.457,0,0,1,.284-.87h0l1.74.586a.428.428,0,0,1-.141.841Zm-83.2-1.56a.473.473,0,0,1-.426-.293.445.445,0,0,1,.246-.579l.019-.007,1.712-.662a.463.463,0,0,1,.586.274.454.454,0,0,1-.263.586h0q-.851.312-1.7.652a.522.522,0,0,1-.142.019Zm77.127-.406a.329.329,0,0,1-.132,0l-1.758-.492a.454.454,0,0,1-.314-.559l0-.008a.465.465,0,0,1,.568-.312l1.758.529a.454.454,0,0,1-.132.889Zm-6.154-1.75h-.123l-1.758-.463a.454.454,0,0,1,.227-.88l1.767.464a.463.463,0,0,1,.331.557.47.47,0,0,1-.473.321Zm-64.893,0a.455.455,0,0,1-.142-.889c.586-.189,1.172-.378,1.758-.548a.455.455,0,0,1,.567.3h0a.454.454,0,0,1-.3.567h0l-1.74.548Zm58.681-1.522h-.1l-1.787-.4a.454.454,0,0,1,.189-.889h0l1.8.387a.463.463,0,0,1,.349.549.454.454,0,0,1-.473.34Zm-52.536-.255a.474.474,0,0,1-.445-.341.463.463,0,0,1,.331-.557l1.786-.444a.454.454,0,0,1,.547.334v.006a.472.472,0,0,1-.34.557c-.586.132-1.181.284-1.767.435Zm46.258-1.022h-.086l-1.8-.311a.479.479,0,1,1,.151-.945l1.815.311a.475.475,0,1,1-.086.945ZM160.958,63a.446.446,0,0,1-.445-.379.453.453,0,0,1,.359-.528l1.815-.321a.479.479,0,0,1,.151.945l-1.8.321Zm33.684-.634h-.057c-.605-.085-1.2-.16-1.805-.227a.476.476,0,0,1,.1-.945l1.825.227a.453.453,0,0,1,.387.511.463.463,0,0,1-.482.426Zm-27.35-.34a.474.474,0,0,1-.057-.945l1.834-.208a.464.464,0,0,1,.5.416.474.474,0,0,1-.416.5c-.605.056-1.21.122-1.806.2Zm20.988-.34h0l-1.815-.132a.454.454,0,0,1-.426-.481h0a.463.463,0,0,1,.492-.426l1.824.132a.454.454,0,0,1,.426.48v.012a.463.463,0,0,1-.512.409l-.018,0Zm-14.606-.208a.473.473,0,0,1,0-.945l1.834-.076a.435.435,0,0,1,.471.4c0,.014,0,.027,0,.04a.455.455,0,0,1-.435.473h0a13.106,13.106,0,0,0-1.824.085Zm8.224-.122h-1.814a.473.473,0,1,1,0-.945h1.834a.443.443,0,0,1,.444.444v.019a.453.453,0,0,1-.433.474.389.389,0,0,1-.059,0Z" transform="translate(-57.066 -60.411)" fill="#60aaff" stroke="rgba(0,0,0,0)" stroke-width="1"/>
          <path id="Caminho_1561" data-name="Caminho 1561" d="M57.52,214.078h0a.474.474,0,0,1-.454-.464V211.78a.473.473,0,0,1,.945,0V213.6a.461.461,0,0,1-.452.474Zm.189-6.4h0a.454.454,0,0,1-.435-.472h0l.085-1.834a.463.463,0,0,1,.482-.426.455.455,0,0,1,.436.473h0c0,.615-.066,1.22-.085,1.825A.463.463,0,0,1,57.709,207.677Zm.369-6.382h0a.463.463,0,0,1-.426-.482l.142-1.824a.454.454,0,0,1,.48-.427h.012a.463.463,0,0,1,.416.492c0,.605-.095,1.21-.132,1.825A.463.463,0,0,1,58.078,201.3Zm.529-6.381h0a.464.464,0,0,1-.416-.5c.067-.605.123-1.209.189-1.824a.476.476,0,1,1,.945.1h0c-.066.605-.122,1.21-.189,1.815a.443.443,0,0,1-.473.413A.369.369,0,0,1,58.608,194.914Zm.719-6.353h-.057a.464.464,0,0,1-.4-.511c.076-.605.161-1.21.237-1.815a.462.462,0,0,1,.519-.387.454.454,0,0,1,.388.51c-.077.605-.161,1.21-.237,1.806A.463.463,0,0,1,59.326,188.561Zm.945-6.334H60.2a.454.454,0,0,1-.378-.518v0c.095-.605.189-1.21.293-1.805a.479.479,0,0,1,.945.151h0c-.095.6-.2,1.191-.293,1.8a.454.454,0,0,1-.517.38l-.012,0Zm1.1-6.305h-.095a.454.454,0,0,1-.359-.529c.113-.605.227-1.2.35-1.8a.443.443,0,0,1,.512-.365l.027.006a.454.454,0,0,1,.361.53l0,.008c-.122.6-.236,1.191-.349,1.787a.456.456,0,0,1-.483.359Zm1.3-6.269h-.1a.444.444,0,0,1-.342-.526l0-.013c.132-.605.265-1.191.407-1.786a.456.456,0,0,1,.889.208c-.132.586-.275,1.181-.406,1.777A.455.455,0,0,1,62.673,169.653Zm1.5-6.212h-.113a.444.444,0,0,1-.326-.536l0-.021c.152-.586.3-1.182.464-1.768a.463.463,0,0,1,.889.237c-.161.586-.321,1.181-.473,1.767a.454.454,0,0,1-.492.322Zm1.731-6.164a.3.3,0,0,1-.132,0,.454.454,0,0,1-.314-.559l0-.008L66,154.961a.455.455,0,1,1,.87.265c-.18.586-.359,1.162-.529,1.748a.454.454,0,0,1-.482.3Zm1.891-6.088h-.142a.453.453,0,0,1-.255-.576c.189-.586.4-1.162.6-1.74a.454.454,0,0,1,.579-.277l.007,0a.452.452,0,0,1,.275.576l-.6,1.731a.454.454,0,0,1-.464.283Zm2.174-6.022h-.16a.471.471,0,0,1-.265-.6c.217-.567.444-1.134.671-1.7a.454.454,0,0,1,.842.331c-.218.567-.445,1.135-.653,1.7a.473.473,0,0,1-.435.265Zm2.41-5.9a.419.419,0,0,1-.179,0,.463.463,0,0,1-.246-.605l.737-1.674a.455.455,0,0,1,.832.369L72.8,139.03A.45.45,0,0,1,72.382,139.267Zm2.638-5.824a.463.463,0,0,1-.451-.475.469.469,0,0,1,.044-.187c.265-.548.529-1.1.8-1.645a.453.453,0,0,1,.606-.212l.008,0a.462.462,0,0,1,.2.614l-.794,1.636a.461.461,0,0,1-.416.236Zm2.893-5.72a.43.43,0,0,1-.218-.057.444.444,0,0,1-.2-.6l.009-.018c.284-.539.577-1.078.87-1.617a.464.464,0,0,1,.8.445l-.87,1.6a.435.435,0,0,1-.4.218Zm3.129-5.578a.44.44,0,0,1-.236-.066.464.464,0,0,1-.161-.624c.312-.529.634-1.05.945-1.579a.446.446,0,0,1,.608-.161l.016.01a.464.464,0,0,1,.152.634q-.484.775-.945,1.559a.472.472,0,0,1-.379.2Zm3.376-5.464a.438.438,0,0,1-.255-.076.453.453,0,0,1-.126-.629l0,0c.331-.511.672-1.012,1.012-1.523a.473.473,0,0,1,.643-.122.454.454,0,0,1,.125.629l0,0c-.35.5-.681,1.012-1.021,1.523A.434.434,0,0,1,84.417,116.681Zm3.649-5.255a.5.5,0,0,1-.275-.086.464.464,0,0,1-.094-.643l1.087-1.475a.455.455,0,1,1,.727.548l-1.078,1.466a.466.466,0,0,1-.349.189Zm3.914-5.087a.4.4,0,0,1-.284-.1.463.463,0,0,1-.076-.643l1.162-1.418a.457.457,0,1,1,.71.576l-1.162,1.428A.465.465,0,0,1,91.981,106.338Zm4.122-4.9a.477.477,0,0,1-.3-.113.453.453,0,0,1,0-.641v0c.406-.454.813-.945,1.229-1.361a.455.455,0,0,1,.642,0h0a.464.464,0,0,1,0,.653c-.406.444-.813.9-1.21,1.351a.462.462,0,0,1-.369.123Zm200.2-1.494a.351.351,0,0,1-.17,0l-1.693-.69a.456.456,0,1,1,.35-.842l1.692.691a.463.463,0,0,1,.247.6.446.446,0,0,1-.436.247Zm-5.909-2.458a.488.488,0,0,1-.17,0l-1.692-.765a.463.463,0,0,1-.246-.605.454.454,0,0,1,.6-.241l.01,0,1.673.72a.453.453,0,0,1,.248.592l0,0a.461.461,0,0,1-.425.293Zm-189.9-.765a.447.447,0,0,1-.321-.122.464.464,0,0,1,0-.653l1.267-1.276a.463.463,0,0,1,.653.652c-.435.425-.861.861-1.286,1.3A.463.463,0,0,1,100.489,96.724Zm184.061-1.8a.418.418,0,0,1-.179,0L282.7,94.19a.453.453,0,0,1-.241-.6l0-.01a.463.463,0,0,1,.605-.227l1.674.737a.464.464,0,0,1-.19.88Zm-5.842-2.609a.455.455,0,0,1-.19-.048l-1.664-.746a.463.463,0,0,1-.227-.605.455.455,0,0,1,.6-.23l.006,0,1.664.746a.464.464,0,0,1,.227.605.456.456,0,0,1-.455.3ZM105.017,92.28a.416.416,0,0,1-.33-.151.463.463,0,0,1,0-.643l1.352-1.238a.453.453,0,0,1,.641,0l0,0a.464.464,0,0,1,0,.652l-1.342,1.229A.437.437,0,0,1,105.017,92.28ZM272.846,89.7a.433.433,0,0,1-.189,0l-1.664-.756a.457.457,0,0,1,.378-.832l1.664.757a.463.463,0,0,1-.189.879ZM109.8,88.035a.463.463,0,0,1-.293-.813l1.38-1.172a.463.463,0,0,1,.643.067.454.454,0,0,1-.062.639l0,0-1.4,1.163A.442.442,0,0,1,109.8,88.035Zm157.232-1.011a.474.474,0,0,1-.2,0l-1.655-.756a.464.464,0,0,1-.227-.615.453.453,0,0,1,.6-.218h0l1.664.756a.444.444,0,0,1,.226.586l-.008.019A.446.446,0,0,1,267.033,87.024Zm-5.824-2.657a.668.668,0,0,1-.189,0l-1.7-.8a.457.457,0,0,1,.368-.836l.01,0,1.664.766a.454.454,0,0,1,.23.6l0,.006A.472.472,0,0,1,261.209,84.367Zm-146.415-.33a.463.463,0,0,1-.369-.189.444.444,0,0,1,.081-.623l.014-.01,1.466-1.107a.454.454,0,0,1,.633.1h0a.444.444,0,0,1-.081.623l-.014.01-1.456,1.1A.5.5,0,0,1,114.794,84.036ZM255.376,81.73a.465.465,0,0,1-.189,0l-1.665-.747a.454.454,0,0,1-.241-.594l0-.011a.462.462,0,0,1,.605-.226l1.673.746a.453.453,0,0,1,.23.6l0,.006a.443.443,0,0,1-.416.227Zm-135.4-1.437a.436.436,0,0,1-.368-.2.445.445,0,0,1,.1-.622l.018-.012c.511-.349,1.012-.69,1.523-1.021a.453.453,0,0,1,.63.118l0,0a.445.445,0,0,1-.109.619l-.023.015-1.5,1.021A.544.544,0,0,1,119.974,80.292Zm129.521-1.143a.389.389,0,0,1-.179,0l-1.683-.719a.463.463,0,0,1-.237-.605.454.454,0,0,1,.6-.237l1.683.719a.454.454,0,0,1,.241.6l0,.01a.463.463,0,0,1-.387.237ZM125.353,76.87a.455.455,0,0,1-.388-.218.463.463,0,0,1,.152-.633l1.569-.945a.455.455,0,1,1,.463.784c-.519.312-1.04.615-1.559.945A.417.417,0,0,1,125.353,76.87Zm118.281-.18a.393.393,0,0,1-.18,0l-1.683-.765a.458.458,0,1,1,.34-.851l1.692.7a.453.453,0,0,1-.169.879Zm-5.937-2.4a.439.439,0,0,1-.161,0l-1.7-.662a.457.457,0,0,1,.331-.851l1.7.662a.454.454,0,0,1,.258.588l0,.008a.445.445,0,0,1-.425.218ZM130.913,73.7a.453.453,0,0,1-.217-.86c.538-.294,1.078-.567,1.626-.851a.457.457,0,0,1,.416.813l-1.607.841a.491.491,0,0,1-.218.019Zm100.8-1.72a.429.429,0,0,1-.151,0l-1.721-.615a.458.458,0,0,1,.311-.861l1.721.615a.472.472,0,0,1,.275.6A.465.465,0,0,1,231.712,71.983Zm-95.08-1.163a.464.464,0,0,1-.189-.88l1.674-.746a.444.444,0,0,1,.59.215l.006.012a.454.454,0,0,1-.222.6l0,0-1.664.746A.42.42,0,0,1,136.632,70.819Zm89.049-.945a.43.43,0,0,1-.151,0l-1.731-.567a.457.457,0,0,1,.284-.87h0l1.74.586a.428.428,0,0,1-.141.841Zm-83.2-1.56a.473.473,0,0,1-.426-.293.445.445,0,0,1,.246-.579l.019-.007,1.712-.662a.463.463,0,0,1,.586.274.454.454,0,0,1-.263.586h0q-.851.312-1.7.652a.522.522,0,0,1-.142.019Zm77.127-.406a.329.329,0,0,1-.132,0l-1.758-.492a.454.454,0,0,1-.314-.559l0-.008a.465.465,0,0,1,.568-.312l1.758.529a.454.454,0,0,1-.132.889Zm-6.154-1.75h-.123l-1.758-.463a.454.454,0,0,1,.227-.88l1.767.464a.463.463,0,0,1,.331.557.47.47,0,0,1-.473.321Zm-64.893,0a.455.455,0,0,1-.142-.889c.586-.189,1.172-.378,1.758-.548a.455.455,0,0,1,.567.3h0a.454.454,0,0,1-.3.567h0l-1.74.548Zm58.681-1.522h-.1l-1.787-.4a.454.454,0,0,1,.189-.889h0l1.8.387a.463.463,0,0,1,.349.549.454.454,0,0,1-.473.34Zm-52.536-.255a.474.474,0,0,1-.445-.341.463.463,0,0,1,.331-.557l1.786-.444a.454.454,0,0,1,.547.334v.006a.472.472,0,0,1-.34.557c-.586.132-1.181.284-1.767.435Zm46.258-1.022h-.086l-1.8-.311a.479.479,0,1,1,.151-.945l1.815.311a.475.475,0,1,1-.086.945ZM160.958,63a.446.446,0,0,1-.445-.379.453.453,0,0,1,.359-.528l1.815-.321a.479.479,0,0,1,.151.945l-1.8.321Zm33.684-.634h-.057c-.605-.085-1.2-.16-1.805-.227a.476.476,0,0,1,.1-.945l1.825.227a.453.453,0,0,1,.387.511.463.463,0,0,1-.482.426Zm-27.35-.34a.474.474,0,0,1-.057-.945l1.834-.208a.464.464,0,0,1,.5.416.474.474,0,0,1-.416.5c-.605.056-1.21.122-1.806.2Zm20.988-.34h0l-1.815-.132a.454.454,0,0,1-.426-.481h0a.463.463,0,0,1,.492-.426l1.824.132a.454.454,0,0,1,.426.48v.012a.463.463,0,0,1-.512.409l-.018,0Zm-14.606-.208a.473.473,0,0,1,0-.945l1.834-.076a.435.435,0,0,1,.471.4c0,.014,0,.027,0,.04a.455.455,0,0,1-.435.473h0a13.106,13.106,0,0,0-1.824.085Zm8.224-.122h-1.814a.473.473,0,1,1,0-.945h1.834a.443.443,0,0,1,.444.444v.019a.453.453,0,0,1-.433.474.389.389,0,0,1-.059,0Z" transform="translate(-57.066 -60.411)" fill="#fff" stroke="rgba(0,0,0,0)" stroke-width="1" opacity="0.6" style="isolation: isolate"/>
          <path id="Caminho_1562" data-name="Caminho 1562" d="M413.839,232.865a.487.487,0,0,1-.2-.048.453.453,0,0,1-.213-.605l0-.009c.265-.548.528-1.1.784-1.645a.462.462,0,0,1,.605-.217.454.454,0,0,1,.23.6l0,.006-.794,1.654A.463.463,0,0,1,413.839,232.865Zm2.656-5.824a.6.6,0,0,1-.179,0,.463.463,0,0,1-.246-.605c.236-.557.473-1.116.7-1.674a.458.458,0,0,1,.851.34h0c-.237.568-.464,1.135-.71,1.693a.434.434,0,0,1-.387.246Zm2.326-5.965a.43.43,0,0,1-.151,0,.445.445,0,0,1-.29-.558l.006-.019c.208-.576.407-1.144.606-1.721a.454.454,0,0,1,.569-.3l.007,0a.464.464,0,0,1,.284.586c-.2.577-.4,1.153-.605,1.731a.446.446,0,0,1-.4.275ZM420.8,215h-.132a.454.454,0,0,1-.3-.565v0c.17-.586.33-1.172.492-1.758a.463.463,0,0,1,.889.246c-.17.586-.331,1.181-.511,1.767a.454.454,0,0,1-.406.313Zm1.616-6.192h-.1a.464.464,0,0,1-.35-.548c.142-.586.275-1.182.4-1.778a.453.453,0,0,1,.537-.349h0a.445.445,0,0,1,.354.519l0,.02c-.123.605-.256,1.2-.388,1.8a.462.462,0,0,1-.416.339Zm1.22-6.288h-.067a.455.455,0,0,1-.38-.517l0-.012c.095-.6.189-1.2.275-1.8a.444.444,0,0,1,.493-.39l.018,0a.452.452,0,0,1,.389.51l0,.01c-.085.605-.179,1.21-.274,1.815a.453.453,0,0,1-.425.378Zm.822-6.343h-.047a.454.454,0,0,1-.407-.5v0c.057-.605.1-1.21.151-1.815a.474.474,0,1,1,.945.067h0c0,.614-.095,1.229-.151,1.834a.461.461,0,0,1-.463.415Zm.378-6.391h0a.444.444,0,0,1-.444-.445v-1.843a.462.462,0,0,1,.463-.454h0a.454.454,0,0,1,.455.453v1.844a.454.454,0,0,1-.444.444Zm-.076-6.391a.464.464,0,0,1-.463-.435c0-.605-.067-1.21-.1-1.815a.454.454,0,0,1,.413-.492h.012a.463.463,0,0,1,.483.425c.047.614.085,1.219.113,1.834a.465.465,0,0,1-.435.483Zm-.567-6.372a.465.465,0,0,1-.454-.407c-.076-.6-.16-1.2-.246-1.8a.454.454,0,0,1,.377-.519h0a.463.463,0,0,1,.521.378c.095.614.179,1.219.255,1.824a.444.444,0,0,1-.37.508l-.027,0Zm-1.03-6.306a.454.454,0,0,1-.454-.359c-.123-.6-.256-1.182-.4-1.768a.472.472,0,0,1,.34-.557.454.454,0,0,1,.547.335v0c.141.6.284,1.2.406,1.8a.443.443,0,0,1-.329.534l-.02,0Zm-1.6-6.193a.444.444,0,0,1-.435-.321c-.179-.576-.359-1.153-.548-1.73a.454.454,0,1,1,.823-.265c.2.586.378,1.172.557,1.758a.454.454,0,0,1-.3.567h0a.333.333,0,0,1-.094-.019Zm-2.127-6.032a.473.473,0,0,1-.426-.284c-.217-.567-.454-1.125-.69-1.683a.457.457,0,0,1,.837-.369l0,.01c.237.567.473,1.126.7,1.7a.445.445,0,0,1-.24.581l-.015,0a.371.371,0,0,1-.17.029Zm-2.628-5.833a.436.436,0,0,1-.407-.246c-.274-.539-.557-1.078-.841-1.617a.454.454,0,0,1,.179-.614.463.463,0,0,1,.624.179c.294.549.577,1.088.851,1.636a.452.452,0,0,1-.2.61l-.009,0a.367.367,0,0,1-.2.038Zm-3.139-5.578a.456.456,0,0,1-.388-.217c-.312-.511-.643-1.021-.945-1.532a.456.456,0,0,1,.126-.63l.006,0a.463.463,0,0,1,.634.132c.331.511.662,1.031.945,1.55a.454.454,0,0,1-.133.628l-.008.006a.462.462,0,0,1-.237.066Zm-3.611-5.284a.466.466,0,0,1-.369-.189c-.359-.483-.727-.945-1.106-1.428a.457.457,0,1,1,.709-.576h0c.388.482.756.945,1.134,1.456a.462.462,0,0,1-.095.642A.434.434,0,0,1,410.057,141.794Zm-4.084-4.926a.452.452,0,0,1-.34-.151c-.406-.445-.822-.889-1.238-1.324a.455.455,0,1,1,.652-.634h0c.426.445.851.89,1.267,1.342a.454.454,0,0,1,0,.642h0A.421.421,0,0,1,405.973,136.868Zm-4.538-4.51a.482.482,0,0,1-.311-.113c-.445-.406-.9-.8-1.361-1.2a.454.454,0,0,1-.061-.639l0,0a.463.463,0,0,1,.643-.048c.473.4.945.794,1.389,1.21a.454.454,0,0,1-.3.794Zm-4.973-4.027a.442.442,0,0,1-.265-.085c-.492-.359-.945-.709-1.485-1.05a.454.454,0,0,1,.451-.787.422.422,0,0,1,.06.041c.512.34,1.012.7,1.513,1.059a.453.453,0,0,1-.274.822Zm-5.313-3.478a.463.463,0,0,1-.227-.057l-1.664-.88a.444.444,0,0,1-.2-.6l.01-.018a.453.453,0,0,1,.613-.19h0c.548.284,1.078.586,1.617.889a.463.463,0,0,1,.17.624A.453.453,0,0,1,391.149,124.852Zm-5.719-2.836a.393.393,0,0,1-.18,0c-.557-.246-1.116-.473-1.673-.7a.458.458,0,1,1,.34-.851h0c.567.227,1.135.463,1.692.709a.463.463,0,0,1-.179.879Zm-5.985-2.269a.421.421,0,0,1-.141,0c-.567-.189-1.153-.369-1.731-.539a.463.463,0,0,1,.265-.879c.586.179,1.172.358,1.758.557a.454.454,0,0,1-.151.889Zm-6.145-1.758h-.113c-.586-.152-1.172-.294-1.768-.426a.456.456,0,0,1,.209-.889q.888.2,1.786.425a.456.456,0,0,1,.331.549.465.465,0,0,1-.492.311Zm-6.249-1.352h-.086l-1.8-.321a.454.454,0,0,1-.369-.524v0a.463.463,0,0,1,.529-.378l1.805.331a.454.454,0,0,1,.361.53l0,.008a.443.443,0,0,1-.492.33Zm-6.306-1.068h-.076l-1.805-.275a.453.453,0,0,1-.388-.511.464.464,0,0,1,.521-.388l1.815.265a.455.455,0,0,1,.378.518v0a.445.445,0,0,1-.492.359Zm-6.343-.889h-.123l-1.815-.237a.464.464,0,0,1-.388-.52.454.454,0,0,1,.511-.387l1.816.236a.474.474,0,0,1-.067.945h0Zm-6.344-.842H348l-1.815-.246a.477.477,0,1,1,.123-.945l1.815.246a.474.474,0,0,1-.067.945Zm-6.334-.945h-.066l-1.815-.284a.478.478,0,1,1,.141-.945l1.806.284a.474.474,0,0,1-.067.945Z" transform="translate(-58.43 -60.659)" fill="#60aaff" stroke="rgba(0,0,0,0)" stroke-width="1"/>
          <path id="Caminho_1563" data-name="Caminho 1563" d="M413.839,232.865a.487.487,0,0,1-.2-.048.453.453,0,0,1-.213-.605l0-.009c.265-.548.528-1.1.784-1.645a.462.462,0,0,1,.605-.217.454.454,0,0,1,.23.6l0,.006-.794,1.654A.463.463,0,0,1,413.839,232.865Zm2.656-5.824a.6.6,0,0,1-.179,0,.463.463,0,0,1-.246-.605c.236-.557.473-1.116.7-1.674a.458.458,0,0,1,.851.34h0c-.237.568-.464,1.135-.71,1.693a.434.434,0,0,1-.387.246Zm2.326-5.965a.43.43,0,0,1-.151,0,.445.445,0,0,1-.29-.558l.006-.019c.208-.576.407-1.144.606-1.721a.454.454,0,0,1,.569-.3l.007,0a.464.464,0,0,1,.284.586c-.2.577-.4,1.153-.605,1.731a.446.446,0,0,1-.4.275ZM420.8,215h-.132a.454.454,0,0,1-.3-.565v0c.17-.586.33-1.172.492-1.758a.463.463,0,0,1,.889.246c-.17.586-.331,1.181-.511,1.767a.454.454,0,0,1-.406.313Zm1.616-6.192h-.1a.464.464,0,0,1-.35-.548c.142-.586.275-1.182.4-1.778a.453.453,0,0,1,.537-.349h0a.445.445,0,0,1,.354.519l0,.02c-.123.605-.256,1.2-.388,1.8a.462.462,0,0,1-.416.339Zm1.22-6.288h-.067a.455.455,0,0,1-.38-.517l0-.012c.095-.6.189-1.2.275-1.8a.444.444,0,0,1,.493-.39l.018,0a.452.452,0,0,1,.389.51l0,.01c-.085.605-.179,1.21-.274,1.815a.453.453,0,0,1-.425.378Zm.822-6.343h-.047a.454.454,0,0,1-.407-.5v0c.057-.605.1-1.21.151-1.815a.474.474,0,1,1,.945.067h0c0,.614-.095,1.229-.151,1.834a.461.461,0,0,1-.463.415Zm.378-6.391h0a.444.444,0,0,1-.444-.445v-1.843a.462.462,0,0,1,.463-.454h0a.454.454,0,0,1,.455.453v1.844a.454.454,0,0,1-.444.444Zm-.076-6.391a.464.464,0,0,1-.463-.435c0-.605-.067-1.21-.1-1.815a.454.454,0,0,1,.413-.492h.012a.463.463,0,0,1,.483.425c.047.614.085,1.219.113,1.834a.465.465,0,0,1-.435.483Zm-.567-6.372a.465.465,0,0,1-.454-.407c-.076-.6-.16-1.2-.246-1.8a.454.454,0,0,1,.377-.519h0a.463.463,0,0,1,.521.378c.095.614.179,1.219.255,1.824a.444.444,0,0,1-.37.508l-.027,0Zm-1.03-6.306a.454.454,0,0,1-.454-.359c-.123-.6-.256-1.182-.4-1.768a.472.472,0,0,1,.34-.557.454.454,0,0,1,.547.335v0c.141.6.284,1.2.406,1.8a.443.443,0,0,1-.329.534l-.02,0Zm-1.6-6.193a.444.444,0,0,1-.435-.321c-.179-.576-.359-1.153-.548-1.73a.454.454,0,1,1,.823-.265c.2.586.378,1.172.557,1.758a.454.454,0,0,1-.3.567h0a.333.333,0,0,1-.094-.019Zm-2.127-6.032a.473.473,0,0,1-.426-.284c-.217-.567-.454-1.125-.69-1.683a.457.457,0,0,1,.837-.369l0,.01c.237.567.473,1.126.7,1.7a.445.445,0,0,1-.24.581l-.015,0a.371.371,0,0,1-.17.029Zm-2.628-5.833a.436.436,0,0,1-.407-.246c-.274-.539-.557-1.078-.841-1.617a.454.454,0,0,1,.179-.614.463.463,0,0,1,.624.179c.294.549.577,1.088.851,1.636a.452.452,0,0,1-.2.61l-.009,0a.367.367,0,0,1-.2.038Zm-3.139-5.578a.456.456,0,0,1-.388-.217c-.312-.511-.643-1.021-.945-1.532a.456.456,0,0,1,.126-.63l.006,0a.463.463,0,0,1,.634.132c.331.511.662,1.031.945,1.55a.454.454,0,0,1-.133.628l-.008.006a.462.462,0,0,1-.237.066Zm-3.611-5.284a.466.466,0,0,1-.369-.189c-.359-.483-.727-.945-1.106-1.428a.457.457,0,1,1,.709-.576h0c.388.482.756.945,1.134,1.456a.462.462,0,0,1-.095.642A.434.434,0,0,1,410.057,141.794Zm-4.084-4.926a.452.452,0,0,1-.34-.151c-.406-.445-.822-.889-1.238-1.324a.455.455,0,1,1,.652-.634h0c.426.445.851.89,1.267,1.342a.454.454,0,0,1,0,.642h0A.421.421,0,0,1,405.973,136.868Zm-4.538-4.51a.482.482,0,0,1-.311-.113c-.445-.406-.9-.8-1.361-1.2a.454.454,0,0,1-.061-.639l0,0a.463.463,0,0,1,.643-.048c.473.4.945.794,1.389,1.21a.454.454,0,0,1-.3.794Zm-4.973-4.027a.442.442,0,0,1-.265-.085c-.492-.359-.945-.709-1.485-1.05a.454.454,0,0,1,.451-.787.422.422,0,0,1,.06.041c.512.34,1.012.7,1.513,1.059a.453.453,0,0,1-.274.822Zm-5.313-3.478a.463.463,0,0,1-.227-.057l-1.664-.88a.444.444,0,0,1-.2-.6l.01-.018a.453.453,0,0,1,.613-.19h0c.548.284,1.078.586,1.617.889a.463.463,0,0,1,.17.624A.453.453,0,0,1,391.149,124.852Zm-5.719-2.836a.393.393,0,0,1-.18,0c-.557-.246-1.116-.473-1.673-.7a.458.458,0,1,1,.34-.851h0c.567.227,1.135.463,1.692.709a.463.463,0,0,1-.179.879Zm-5.985-2.269a.421.421,0,0,1-.141,0c-.567-.189-1.153-.369-1.731-.539a.463.463,0,0,1,.265-.879c.586.179,1.172.358,1.758.557a.454.454,0,0,1-.151.889Zm-6.145-1.758h-.113c-.586-.152-1.172-.294-1.768-.426a.456.456,0,0,1,.209-.889q.888.2,1.786.425a.456.456,0,0,1,.331.549.465.465,0,0,1-.492.311Zm-6.249-1.352h-.086l-1.8-.321a.454.454,0,0,1-.369-.524v0a.463.463,0,0,1,.529-.378l1.805.331a.454.454,0,0,1,.361.53l0,.008a.443.443,0,0,1-.492.33Zm-6.306-1.068h-.076l-1.805-.275a.453.453,0,0,1-.388-.511.464.464,0,0,1,.521-.388l1.815.265a.455.455,0,0,1,.378.518v0a.445.445,0,0,1-.492.359Zm-6.343-.889h-.123l-1.815-.237a.464.464,0,0,1-.388-.52.454.454,0,0,1,.511-.387l1.816.236a.474.474,0,0,1-.067.945h0Zm-6.344-.842H348l-1.815-.246a.477.477,0,1,1,.123-.945l1.815.246a.474.474,0,0,1-.067.945Zm-6.334-.945h-.066l-1.815-.284a.478.478,0,1,1,.141-.945l1.806.284a.474.474,0,0,1-.067.945Z" transform="translate(-58.43 -60.659)" fill="#fff" stroke="rgba(0,0,0,0)" stroke-width="1" opacity="0.6" style="isolation: isolate"/>
        </g>
      </g>
      <g id="freepik--Email--inject-2" transform="translate(58.501 106.945) rotate(13)">
        <g id="freepik--email--inject-2-2" data-name="freepik--email--inject-2">
          <path id="Caminho_1574" data-name="Caminho 1574" d="M247.9,249.271a94.334,94.334,0,0,0-21.193,15.392c-14.5,14.445-21.647,34.41-31.906,52.065a160.42,160.42,0,0,1-41.236,46.612c-17.143,13.053-37.447,22.74-58.978,24.3S50.352,381.758,36.324,365.4s-17.491-41.865-5.646-59.819c9.765-14.793,29.122-22.605,46.476-18.757,6.768,1.5,13.1,4.573,19.337,7.619l9.669,4.7" transform="translate(177.833 -172.715) rotate(34)" fill="none" stroke="#60aaff" stroke-linecap="round" stroke-linejoin="round" stroke-width="1" stroke-dasharray="2 5"/>
        </g>
      </g>
      <g id="freepik--Table--inject-2" transform="translate(228.111 288.785)">
        <line id="Linha_48" data-name="Linha 48" x2="33.411" transform="translate(24.307 18.7)" fill="none" stroke="#263238" stroke-linecap="round" stroke-linejoin="round" stroke-width="1"/>
        <g id="freepik--Device--inject-47--inject-2">
          <path id="Caminho_1615" data-name="Caminho 1615" d="M350.4,382.613H288.3l-23.7,12.81h65.063Z" transform="translate(-252.776 -350.752)" fill="none" stroke="#263238" stroke-linecap="round" stroke-linejoin="round" stroke-width="1"/>
          <line id="Linha_49" data-name="Linha 49" x2="45.852" transform="translate(39.594 35.207)" fill="none" stroke="#263238" stroke-linecap="round" stroke-linejoin="round" stroke-width="1"/>
          <line id="Linha_50" data-name="Linha 50" x2="44.576" transform="translate(36.247 37.599)" fill="none" stroke="#263238" stroke-linecap="round" stroke-linejoin="round" stroke-width="1"/>
          <line id="Linha_51" data-name="Linha 51" x2="43.271" transform="translate(32.9 39.981)" fill="none" stroke="#263238" stroke-linecap="round" stroke-linejoin="round" stroke-width="1"/>
          <line id="Linha_52" data-name="Linha 52" x1="13.132" y2="6.448" transform="translate(72.551 35.207)" fill="none" stroke="#263238" stroke-linecap="round" stroke-linejoin="round" stroke-width="1"/>
          <line id="Linha_53" data-name="Linha 53" x1="13.132" y2="6.448" transform="translate(65.385 35.207)" fill="none" stroke="#263238" stroke-linecap="round" stroke-linejoin="round" stroke-width="1"/>
          <path id="Caminho_1616" data-name="Caminho 1616" d="M253.441,350.6h65.073l11.1,44.671H264.55Z" transform="translate(-252.722 -350.597)" fill="#263238" stroke="rgba(0,0,0,0)" stroke-width="1"/>
          <rect id="Retângulo_163" data-name="Retângulo 163" width="65.649" height="3.177" transform="translate(11.25 44.661)" fill="none" stroke="#263238" stroke-linecap="round" stroke-linejoin="round" stroke-width="1"/>
          <path id="Caminho_1617" data-name="Caminho 1617" d="M252.719,350.6h65.073L328.9,395.268H263.828Z" transform="translate(-252.719 -350.597)" fill="#fff" stroke="#263238" stroke-linecap="round" stroke-linejoin="round" stroke-width="1"/>
          <path id="Caminho_1618" data-name="Caminho 1618" d="M329.983,395.422l21.187-12.886-.01,2.42L330.219,399Z" transform="translate(-253.092 -350.752)" fill="#263238" stroke="rgba(0,0,0,0)" stroke-width="1"/>
          <path id="Caminho_1619" data-name="Caminho 1619" d="M293.8,371.655a3.479,3.479,0,1,1-4.311-2.836A3.648,3.648,0,0,1,293.8,371.655Z" transform="translate(-252.884 -350.685)" fill="none" stroke="#263238" stroke-linecap="round" stroke-linejoin="round" stroke-width="1"/>
        </g>
      </g>
    </g>
    <g id="security-login" transform="translate(6285.651 3546.389)" opacity="0.8">
      <g id="Grupo_61" data-name="Grupo 61">
        <path id="Caminho_26" data-name="Caminho 26" d="M887.3,453.677H847.944a6.286,6.286,0,0,1-6.278-6.279V335.34a6.285,6.285,0,0,1,6.278-6.278h53.183a6.284,6.284,0,0,1,6.277,6.278v39.026h-4.96V335.34a1.319,1.319,0,0,0-1.317-1.318H847.944a1.32,1.32,0,0,0-1.318,1.318V447.4a1.32,1.32,0,0,0,1.318,1.319H887.3Z" transform="translate(-841.666 -329.062)" fill="#282d33"/>
      </g>
      <g id="Grupo_62" data-name="Grupo 62" transform="translate(60.778 58.966)">
        <rect id="Retângulo_45" data-name="Retângulo 45" width="4.96" height="10.827" fill="#282d33"/>
      </g>
      <rect id="Retângulo_46" data-name="Retângulo 46" width="47.639" height="86.418" transform="translate(9.05 18.624)" fill="#60aaff"/>
      <g id="Grupo_64" data-name="Grupo 64" transform="translate(22.717 8.485)">
        <g id="Grupo_63" data-name="Grupo 63">
          <rect id="Retângulo_47" data-name="Retângulo 47" width="20.304" height="4.96" fill="#282d33"/>
        </g>
      </g>
      <g id="Grupo_65" data-name="Grupo 65" transform="translate(30.389 109.75)">
        <rect id="Retângulo_48" data-name="Retângulo 48" width="4.96" height="4.96" fill="#282d33"/>
      </g>
      <g id="Grupo_69" data-name="Grupo 69" transform="translate(39.233 49.589)">
        <g id="Grupo_67" data-name="Grupo 67" transform="translate(8.139)">
          <g id="Grupo_66" data-name="Grupo 66">
            <path id="Caminho_27" data-name="Caminho 27" d="M902,438.972h-4.665c-10.938,0-17.469-5.689-17.469-15.218V388.307c0-10.615,7.837-19.252,17.469-19.252H902c9.631,0,17.466,8.636,17.466,19.252v35.448C919.47,433.283,912.941,438.972,902,438.972Zm-4.665-64.957c-6.9,0-12.509,6.412-12.509,14.292v35.448c0,6.807,4.21,10.258,12.509,10.258H902c8.3,0,12.506-3.451,12.506-10.258V388.307c0-7.88-5.609-14.292-12.506-14.292Z" transform="translate(-879.871 -369.055)" fill="#282d33"/>
          </g>
        </g>
        <g id="Grupo_68" data-name="Grupo 68" transform="translate(0 25.459)">
          <rect id="Retângulo_49" data-name="Retângulo 49" width="50.92" height="44.582" transform="translate(2.48 2.48)" fill="#ffe019"/>
          <path id="Caminho_28" data-name="Caminho 28" d="M924.227,394.547V434.17h-45.96V394.547h45.96m4.96-4.96h-55.88v49.542h55.88V389.587Z" transform="translate(-873.307 -389.587)" fill="#282d33"/>
        </g>
        <path id="Caminho_29" data-name="Caminho 29" d="M896.663,400.354a4.513,4.513,0,0,0-4.242,4.744,4.866,4.866,0,0,0,2.067,4.063l-.961,11.682h6.266l-.957-11.682A4.868,4.868,0,0,0,900.9,405.1a4.512,4.512,0,0,0-4.238-4.744Z" transform="translate(-868.721 -361.545)" fill="#282d33"/>
      </g>
    </g>
  </g>
</svg>
