<svg xmlns="http://www.w3.org/2000/svg" width="21.436" height="18.692" viewBox="0 0 21.436 18.692">
  <defs>
    <style>
      .cls-1 {
        fill: none;
        stroke: #d5d5d5;
        stroke-linecap: round;
        stroke-linejoin: round;
        stroke-width: 2px;
      }
    </style>
  </defs>
  <g id="Grupo_21" data-name="Grupo 21" transform="translate(1.014 1)">
    <path id="Caminho_17" data-name="Caminho 17" class="cls-1" d="M1136.412,379.671v7.168a2.157,2.157,0,0,1-2.156,2.156h-11.511a2.156,2.156,0,0,1-2.156-2.156V382.3" transform="translate(-1118.796 -372.304)"/>
    <path id="Caminho_18" data-name="Caminho 18" class="cls-1" d="M1120.208,366.006a1.617,1.617,0,0,0-1.528,1.088l-1.285,3.716a1.859,1.859,0,0,0,1.913,2.563,3.468,3.468,0,0,0,2.82-1.574,2.3,2.3,0,0,0,2.287,1.574,2.858,2.858,0,0,1,5.107,0h0a2.305,2.305,0,0,0,2.287-1.574,3.467,3.467,0,0,0,2.819,1.574h0a1.859,1.859,0,0,0,1.914-2.563l-1.285-3.716a1.618,1.618,0,0,0-1.529-1.088Z" transform="translate(-1117.264 -366.006)"/>
    <path id="Caminho_19" data-name="Caminho 19" class="cls-1" d="M1135.641,391.516h-4.612v-4.182a2.194,2.194,0,0,1,2.194-2.194h.224a2.194,2.194,0,0,1,2.194,2.194Z" transform="translate(-1123.608 -374.824)"/>
  </g>
</svg>
