<svg width="18" height="18" viewBox="0 0 18 18" fill="none" xmlns="http://www.w3.org/2000/svg">
<path fill-rule="evenodd" clip-rule="evenodd" d="M15.1051 7.98329C15.102 7.62943 14.8126 7.34508 14.4588 7.34817L3.25951 7.4459C2.90566 7.44899 2.6213 7.73835 2.62439 8.09221L2.63059 8.80318L1.66923 8.81157C1.29639 8.81483 0.996773 9.11972 1.00003 9.49257L1.00003 9.4926C1.00328 9.86545 1.30818 10.1651 1.68102 10.1618L2.64237 10.1534L2.67268 13.6257C2.68315 14.8258 3.66453 15.7902 4.86463 15.7798L12.9994 15.7088C14.1995 15.6983 15.1639 14.7169 15.1534 13.5168L15.1231 10.0445L16.0845 10.0361C16.4573 10.0329 16.757 9.72796 16.7537 9.35512L16.7537 9.35509C16.7505 8.98224 16.4456 8.68262 16.0727 8.68588L15.1113 8.69427L15.1051 7.98329ZM9.73874 9.23527C9.73513 8.82107 9.39642 8.48823 8.98222 8.49184C8.56803 8.49546 8.23518 8.83416 8.2388 9.24836L8.25189 10.7483L6.75195 10.7614C6.33775 10.765 6.0049 11.1037 6.00852 11.5179C6.01213 11.9321 6.35084 12.2649 6.76503 12.2613L8.26498 12.2482L8.27807 13.7482C8.28168 14.1624 8.62039 14.4952 9.03458 14.4916C9.44878 14.488 9.78162 14.1493 9.77801 13.7351L9.76492 12.2352L11.2649 12.2221C11.6791 12.2185 12.0119 11.8797 12.0083 11.4655C12.0047 11.0514 11.666 10.7185 11.2518 10.7221L9.75183 10.7352L9.73874 9.23527Z" fill="white"/>
<path fill-rule="evenodd" clip-rule="evenodd" d="M7.28959 3.61147C7.28215 2.75927 7.968 2.06134 8.82021 2.05391C9.67242 2.04647 10.3703 2.73232 10.3778 3.58452C10.3779 3.60241 10.3778 3.62024 10.3773 3.63799L13.4651 3.61105C13.8781 3.60744 14.2757 3.76805 14.5703 4.05756C14.8649 4.34706 15.0324 4.74172 15.036 5.15474L15.0383 5.42175C15.0396 5.56888 14.9824 5.7105 14.8793 5.81545C14.7761 5.9204 14.6355 5.98008 14.4884 5.98136L3.22132 6.07969C3.07419 6.08097 2.93257 6.02376 2.82762 5.92062C2.72267 5.81749 2.66299 5.67689 2.66171 5.52976L2.65938 5.26275C2.65577 4.84973 2.81639 4.45221 3.10589 4.15761C3.39538 3.86301 3.79006 3.69548 4.20307 3.69187L7.29097 3.66493C7.29021 3.64719 7.28975 3.62937 7.28959 3.61147ZM9.55348 3.64518L8.11483 3.65774C8.11338 3.6401 8.11257 3.62227 8.11241 3.60429C8.10893 3.20621 8.4293 2.8802 8.82739 2.87672C9.22547 2.87325 9.55149 3.19362 9.55497 3.5917C9.55513 3.60968 9.55462 3.62752 9.55348 3.64518Z" fill="white"/>
</svg>
