<svg width="24" height="24" viewBox="0 0 24 24" fill="none" xmlns="http://www.w3.org/2000/svg">
<path d="M9.12503 3H5.95835C4.90853 3 3.90171 3.41704 3.15937 4.15937C2.41704 4.9017 2 5.90852 2 6.95833L2 18.0417C2 18.5615 2.10239 19.0762 2.30131 19.5565C2.50024 20.0367 2.79181 20.4731 3.15937 20.8406C3.90171 21.583 4.90853 22 5.95835 22H13.0834V6.95833C13.0834 6.43852 12.981 5.92379 12.7821 5.44354C12.5831 4.9633 12.2916 4.52693 11.924 4.15937C11.5564 3.7918 11.1201 3.50024 10.6398 3.30131C10.1596 3.10239 9.64485 3 9.12503 3ZM5.95835 18.0417H5.16668C4.95672 18.0417 4.75535 17.9583 4.60688 17.8098C4.45842 17.6613 4.37501 17.46 4.37501 17.25C4.37501 17.04 4.45842 16.8387 4.60688 16.6902C4.75535 16.5417 4.95672 16.4583 5.16668 16.4583H5.95835C6.16831 16.4583 6.36968 16.5417 6.51814 16.6902C6.66661 16.8387 6.75002 17.04 6.75002 17.25C6.75002 17.46 6.66661 17.6613 6.51814 17.8098C6.36968 17.9583 6.16831 18.0417 5.95835 18.0417ZM5.95835 14.875H5.16668C4.95672 14.875 4.75535 14.7916 4.60688 14.6431C4.45842 14.4947 4.37501 14.2933 4.37501 14.0833C4.37501 13.8734 4.45842 13.672 4.60688 13.5235C4.75535 13.3751 4.95672 13.2917 5.16668 13.2917H5.95835C6.16831 13.2917 6.36968 13.3751 6.51814 13.5235C6.66661 13.672 6.75002 13.8734 6.75002 14.0833C6.75002 14.2933 6.66661 14.4947 6.51814 14.6431C6.36968 14.7916 6.16831 14.875 5.95835 14.875ZM5.95835 11.7083H5.16668C4.95672 11.7083 4.75535 11.6249 4.60688 11.4765C4.45842 11.328 4.37501 11.1266 4.37501 10.9167C4.37501 10.7067 4.45842 10.5053 4.60688 10.3569C4.75535 10.2084 4.95672 10.125 5.16668 10.125H5.95835C6.16831 10.125 6.36968 10.2084 6.51814 10.3569C6.66661 10.5053 6.75002 10.7067 6.75002 10.9167C6.75002 11.1266 6.66661 11.328 6.51814 11.4765C6.36968 11.6249 6.16831 11.7083 5.95835 11.7083ZM5.95835 8.54167H5.16668C4.95672 8.54167 4.75535 8.45826 4.60688 8.30979C4.45842 8.16133 4.37501 7.95996 4.37501 7.75C4.37501 7.54004 4.45842 7.33867 4.60688 7.19021C4.75535 7.04174 4.95672 6.95833 5.16668 6.95833H5.95835C6.16831 6.95833 6.36968 7.04174 6.51814 7.19021C6.66661 7.33867 6.75002 7.54004 6.75002 7.75C6.75002 7.95996 6.66661 8.16133 6.51814 8.30979C6.36968 8.45826 6.16831 8.54167 5.95835 8.54167ZM9.9167 18.0417H9.12503C8.91506 18.0417 8.7137 17.9583 8.56523 17.8098C8.41677 17.6613 8.33336 17.46 8.33336 17.25C8.33336 17.04 8.41677 16.8387 8.56523 16.6902C8.7137 16.5417 8.91506 16.4583 9.12503 16.4583H9.9167C10.1267 16.4583 10.328 16.5417 10.4765 16.6902C10.625 16.8387 10.7084 17.04 10.7084 17.25C10.7084 17.46 10.625 17.6613 10.4765 17.8098C10.328 17.9583 10.1267 18.0417 9.9167 18.0417ZM9.9167 14.875H9.12503C8.91506 14.875 8.7137 14.7916 8.56523 14.6431C8.41677 14.4947 8.33336 14.2933 8.33336 14.0833C8.33336 13.8734 8.41677 13.672 8.56523 13.5235C8.7137 13.3751 8.91506 13.2917 9.12503 13.2917H9.9167C10.1267 13.2917 10.328 13.3751 10.4765 13.5235C10.625 13.672 10.7084 13.8734 10.7084 14.0833C10.7084 14.2933 10.625 14.4947 10.4765 14.6431C10.328 14.7916 10.1267 14.875 9.9167 14.875ZM9.9167 11.7083H9.12503C8.91506 11.7083 8.7137 11.6249 8.56523 11.4765C8.41677 11.328 8.33336 11.1266 8.33336 10.9167C8.33336 10.7067 8.41677 10.5053 8.56523 10.3569C8.7137 10.2084 8.91506 10.125 9.12503 10.125H9.9167C10.1267 10.125 10.328 10.2084 10.4765 10.3569C10.625 10.5053 10.7084 10.7067 10.7084 10.9167C10.7084 11.1266 10.625 11.328 10.4765 11.4765C10.328 11.6249 10.1267 11.7083 9.9167 11.7083ZM9.9167 8.54167H9.12503C8.91506 8.54167 8.7137 8.45826 8.56523 8.30979C8.41677 8.16133 8.33336 7.95996 8.33336 7.75C8.33336 7.54004 8.41677 7.33867 8.56523 7.19021C8.7137 7.04174 8.91506 6.95833 9.12503 6.95833H9.9167C10.1267 6.95833 10.328 7.04174 10.4765 7.19021C10.625 7.33867 10.7084 7.54004 10.7084 7.75C10.7084 7.95996 10.625 8.16133 10.4765 8.30979C10.328 8.45826 10.1267 8.54167 9.9167 8.54167Z" fill="#FAFAFE"/>
<path fill-rule="evenodd" clip-rule="evenodd" d="M17.0416 6.9585H14.6666V22.0002H17.0416C18.0911 21.9989 19.0972 21.5815 19.8392 20.8394C20.5813 20.0973 20.9987 19.0913 21 18.0418V10.9168C20.9987 9.8674 20.5813 8.86131 19.8392 8.11925C19.0972 7.37719 18.0911 6.95975 17.0416 6.9585ZM18.0075 11.2652C18.4535 11.2652 18.8151 10.9037 18.8151 10.4577C18.8151 10.0117 18.4535 9.6502 18.0075 9.6502C17.5616 9.6502 17.2 10.0117 17.2 10.4577C17.2 10.9037 17.5616 11.2652 18.0075 11.2652ZM18.0075 15.0652C18.4535 15.0652 18.8151 14.7037 18.8151 14.2577C18.8151 13.8117 18.4535 13.4502 18.0075 13.4502C17.5616 13.4502 17.2 13.8117 17.2 14.2577C17.2 14.7037 17.5616 15.0652 18.0075 15.0652ZM18.8151 18.0577C18.8151 18.5037 18.4535 18.8652 18.0075 18.8652C17.5616 18.8652 17.2 18.5037 17.2 18.0577C17.2 17.6117 17.5616 17.2502 18.0075 17.2502C18.4535 17.2502 18.8151 17.6117 18.8151 18.0577Z" fill="#EAEAF8"/>
</svg>
