<svg width="24" height="24" viewBox="0 0 24 24" fill="none" xmlns="http://www.w3.org/2000/svg">
<g clip-path="url(#clip0_171_9037)">
<path d="M4.93744 8.12499C4.5351 8.12612 4.13652 8.04744 3.76479 7.89349C3.39306 7.73954 3.05555 7.51338 2.77182 7.22812L1.43744 6.04249C1.17753 5.81043 1.02045 5.48462 1.00076 5.13674C0.991009 4.96448 1.01528 4.792 1.07219 4.62913C1.1291 4.46625 1.21754 4.31619 1.33244 4.18749C1.44735 4.0588 1.58648 3.95399 1.74189 3.87907C1.8973 3.80414 2.06594 3.76056 2.2382 3.75081C2.58608 3.73112 2.92753 3.85043 3.18744 4.08249L4.57344 5.31974C4.61857 5.37307 4.67416 5.41658 4.73676 5.44759C4.79937 5.47859 4.86767 5.49642 4.93744 5.49999C5.05325 5.49997 5.16433 5.45403 5.24632 5.37224L8.40769 2.36224C8.66153 2.13255 8.99506 2.01112 9.33715 2.02386C9.67925 2.03659 10.0028 2.18248 10.2389 2.43041C10.4749 2.67834 10.6048 3.00868 10.6007 3.35099C10.5967 3.69329 10.4591 4.02047 10.2172 4.26274L7.07944 7.24999C6.79752 7.52958 6.4632 7.75078 6.09563 7.90093C5.72807 8.05108 5.33449 8.12722 4.93744 8.12499ZM7.07944 14.25L10.2172 11.2627C10.4591 11.0205 10.5967 10.6933 10.6007 10.351C10.6048 10.0087 10.4749 9.67834 10.2389 9.43041C10.0028 9.18248 9.67925 9.03659 9.33715 9.02386C8.99506 9.01112 8.66153 9.13255 8.40769 9.36224L5.24632 12.3722C5.16427 12.4543 5.05301 12.5003 4.937 12.5003C4.821 12.5003 4.70974 12.4543 4.62769 12.3722L3.24082 10.9845C2.9946 10.7383 2.66065 10.5999 2.31244 10.5999C1.96423 10.5999 1.63029 10.7383 1.38407 10.9845C1.13785 11.2307 0.999521 11.5647 0.999521 11.9129C0.999521 12.2611 1.13785 12.595 1.38407 12.8412L2.77182 14.2281C3.34228 14.7982 4.11462 15.1203 4.92113 15.1244C5.72764 15.1285 6.50322 14.8143 7.07944 14.25ZM7.07944 21.25L10.2172 18.2627C10.4591 18.0205 10.5967 17.6933 10.6007 17.351C10.6048 17.0087 10.4749 16.6783 10.2389 16.4304C10.0028 16.1825 9.67925 16.0366 9.33715 16.0239C8.99506 16.0111 8.66153 16.1326 8.40769 16.3622L5.24632 19.3722C5.16433 19.454 5.05325 19.5 4.93744 19.5C4.86767 19.4964 4.79937 19.4786 4.73676 19.4476C4.67416 19.4166 4.61857 19.3731 4.57344 19.3197L3.18744 18.0825C2.92753 17.8504 2.58608 17.7311 2.2382 17.7508C1.89032 17.7705 1.56451 17.9276 1.33244 18.1875C1.10038 18.4474 0.981067 18.7889 1.00076 19.1367C1.02045 19.4846 1.17753 19.8104 1.43744 20.0425L2.77007 21.2281C3.34061 21.7988 4.11332 22.1212 4.92026 22.1253C5.72719 22.1294 6.50314 21.8148 7.07944 21.25Z" fill="#FAFAFE"/>
<path d="M21.6155 4.13442C21.8616 4.38056 21.9999 4.7144 21.9999 5.0625C21.9999 5.4106 21.8616 5.74444 21.6155 5.99058C21.3693 6.23672 21.0355 6.375 20.6874 6.375H13.6874C13.3393 6.375 13.0054 6.23672 12.7593 5.99058C12.5132 5.74444 12.3749 5.4106 12.3749 5.0625C12.3749 4.7144 12.5132 4.38056 12.7593 4.13442C13.0054 3.88828 13.3393 3.75 13.6874 3.75H20.6874C21.0355 3.75 21.3693 3.88828 21.6155 4.13442Z" fill="#FAFAFE"/>
<path d="M21.6155 11.1344C21.8616 11.3806 21.9999 11.7144 21.9999 12.0625C21.9999 12.4106 21.8616 12.7444 21.6155 12.9906C21.3693 13.2367 21.0355 13.375 20.6874 13.375H13.6874C13.3393 13.375 13.0054 13.2367 12.7593 12.9906C12.5132 12.7444 12.3749 12.4106 12.3749 12.0625C12.3749 11.7144 12.5132 11.3806 12.7593 11.1344C13.0054 10.8883 13.3393 10.75 13.6874 10.75H20.6874C21.0355 10.75 21.3693 10.8883 21.6155 11.1344Z" fill="#FAFAFE"/>
<path d="M21.6155 18.1344C21.8616 18.3806 21.9999 18.7144 21.9999 19.0625C21.9999 19.4106 21.8616 19.7444 21.6155 19.9906C21.3693 20.2367 21.0355 20.375 20.6874 20.375H13.6874C13.3393 20.375 13.0054 20.2367 12.7593 19.9906C12.5132 19.7444 12.3749 19.4106 12.3749 19.0625C12.3749 18.7144 12.5132 18.3806 12.7593 18.1344C13.0054 17.8883 13.3393 17.75 13.6874 17.75H20.6874C21.0355 17.75 21.3693 17.8883 21.6155 18.1344Z" fill="#FAFAFE"/>
</g>
<defs>
<clipPath id="clip0_171_9037">
<rect width="21" height="21" fill="white" transform="translate(1 2)"/>
</clipPath>
</defs>
</svg>
