<svg width="24" height="24" viewBox="0 0 24 24" fill="none" xmlns="http://www.w3.org/2000/svg">
<path d="M7.66667 18C7.22464 18 6.80072 17.8244 6.48816 17.5118C6.17559 17.1993 6 16.7754 6 16.3333V5C6 4.73478 5.89464 4.48043 5.70711 4.29289C5.51957 4.10536 5.26522 4 5 4V4C4.73478 4 4.48043 4.10536 4.29289 4.29289C4.10536 4.48043 4 4.73478 4 5V16.3333C4 17.3058 4.38631 18.2384 5.07394 18.9261C5.76158 19.6137 6.69421 20 7.66667 20H19C19.2652 20 19.5196 19.8946 19.7071 19.7071C19.8946 19.5196 20 19.2652 20 19C20 18.7348 19.8946 18.4804 19.7071 18.2929C19.5196 18.1054 19.2652 18 19 18H7.66667Z" fill="#FAFAFE"/>
<path d="M17 16C17.2652 16 17.5196 15.8946 17.7071 15.7071C17.8946 15.5196 18 15.2652 18 15V11C18 10.7348 17.8946 10.4804 17.7071 10.2929C17.5196 10.1054 17.2652 10 17 10C16.7348 10 16.4804 10.1054 16.2929 10.2929C16.1054 10.4804 16 10.7348 16 11V15C16 15.2652 16.1054 15.5196 16.2929 15.7071C16.4804 15.8946 16.7348 16 17 16Z" fill="#FAFAFE"/>
<path d="M9 16C9.26522 16 9.51957 15.8946 9.70711 15.7071C9.89464 15.5196 10 15.2652 10 15V11C10 10.7348 9.89464 10.4804 9.70711 10.2929C9.51957 10.1054 9.26522 10 9 10C8.73478 10 8.48043 10.1054 8.29289 10.2929C8.10536 10.4804 8 10.7348 8 11V15C8 15.2652 8.10536 15.5196 8.29289 15.7071C8.48043 15.8946 8.73478 16 9 16Z" fill="#FAFAFE"/>
<path d="M13 16.0003C13.2652 16.0003 13.5196 15.895 13.7071 15.7074C13.8946 15.5199 14 15.2655 14 15.0003V7.66699C14 7.40178 13.8946 7.14742 13.7071 6.95989C13.5196 6.77235 13.2652 6.66699 13 6.66699C12.7348 6.66699 12.4804 6.77235 12.2929 6.95989C12.1054 7.14742 12 7.40178 12 7.66699V15.0003C12 15.2655 12.1054 15.5199 12.2929 15.7074C12.4804 15.895 12.7348 16.0003 13 16.0003Z" fill="#FAFAFE"/>
</svg>
