<svg width="18" height="18" viewBox="0 0 18 18" fill="none" xmlns="http://www.w3.org/2000/svg">
<path fill-rule="evenodd" clip-rule="evenodd" d="M14.4769 7.5C14.8308 7.5 15.1177 7.78687 15.1177 8.14075V8.85175H16.0791C16.452 8.85175 16.7543 9.15402 16.7543 9.52686C16.7543 9.89975 16.452 10.202 16.0791 10.202H15.1177V13.6745C15.1177 14.8746 14.1448 15.8475 12.9446 15.8475H4.80957C3.6095 15.8475 2.63654 14.8746 2.63654 13.6745V10.202H1.67511C1.30225 10.202 1 9.89975 1 9.52692C1 9.15402 1.30225 8.85175 1.67511 8.85175H2.63654V8.14075C2.63654 7.78687 2.9234 7.5 3.27722 7.5H14.4769ZM6.75 10.5C6.33582 10.5 6 10.8358 6 11.25C6 11.6642 6.33582 12 6.75 12H11.25C11.6642 12 12 11.6642 12 11.25C12 10.8358 11.6642 10.5 11.25 10.5H6.75Z" fill="white"/>
<path fill-rule="evenodd" clip-rule="evenodd" d="M7.64445 3.54415C7.64445 2.69192 8.33636 2 9.1886 2C10.0408 2 10.7327 2.69192 10.7327 3.54415C10.7327 3.56204 10.7324 3.57987 10.7318 3.59762H13.8198C14.2328 3.59762 14.6289 3.76169 14.921 4.05376C15.213 4.34582 15.3771 4.74193 15.3771 5.15496V5.42198C15.3771 5.56912 15.3186 5.71023 15.2146 5.81428C15.1106 5.91832 14.9695 5.97677 14.8223 5.97677H3.5548C3.40766 5.97677 3.26654 5.91832 3.1625 5.81428C3.05845 5.71023 3 5.56912 3 5.42198V5.15496C3 4.74193 3.16408 4.34582 3.45614 4.05376C3.74819 3.76169 4.14431 3.59762 4.55734 3.59762H7.64536C7.64475 3.57987 7.64445 3.56204 7.64445 3.54415ZM9.90796 3.59762H8.46925C8.46796 3.57996 8.4673 3.56213 8.4673 3.54415C8.4673 3.14605 8.7905 2.82285 9.1886 2.82285C9.5867 2.82285 9.90991 3.14605 9.90991 3.54415C9.90991 3.56213 9.90925 3.57996 9.90796 3.59762Z" fill="white"/>
</svg>
