<svg width="34" height="34" viewBox="0 0 34 34" fill="none" xmlns="http://www.w3.org/2000/svg">
<path d="M12.9271 4.25H8.441C6.95376 4.25 5.52743 4.8408 4.47579 5.89244C3.42415 6.94408 2.83334 8.3704 2.83334 9.85764L2.83334 25.559C2.83334 26.2954 2.97839 27.0246 3.2602 27.705C3.54201 28.3853 3.95507 29.0035 4.47579 29.5242C5.52743 30.5759 6.95376 31.1667 8.441 31.1667H18.5348V9.85764C18.5348 9.12123 18.3897 8.39204 18.1079 7.71169C17.8261 7.03134 17.4131 6.41316 16.8923 5.89244C16.3716 5.37172 15.7534 4.95867 15.0731 4.67686C14.3927 4.39505 13.6635 4.25 12.9271 4.25ZM8.441 25.559H7.31947C7.02202 25.559 6.73676 25.4409 6.52643 25.2305C6.3161 25.0202 6.19794 24.7349 6.19794 24.4375C6.19794 24.1401 6.3161 23.8548 6.52643 23.6445C6.73676 23.4341 7.02202 23.316 7.31947 23.316H8.441C8.73845 23.316 9.02372 23.4341 9.23405 23.6445C9.44438 23.8548 9.56254 24.1401 9.56254 24.4375C9.56254 24.7349 9.44438 25.0202 9.23405 25.2305C9.02372 25.4409 8.73845 25.559 8.441 25.559ZM8.441 21.0729H7.31947C7.02202 21.0729 6.73676 20.9548 6.52643 20.7444C6.3161 20.5341 6.19794 20.2488 6.19794 19.9514C6.19794 19.6539 6.3161 19.3687 6.52643 19.1583C6.73676 18.948 7.02202 18.8299 7.31947 18.8299H8.441C8.73845 18.8299 9.02372 18.948 9.23405 19.1583C9.44438 19.3687 9.56254 19.6539 9.56254 19.9514C9.56254 20.2488 9.44438 20.5341 9.23405 20.7444C9.02372 20.9548 8.73845 21.0729 8.441 21.0729ZM8.441 16.5868H7.31947C7.02202 16.5868 6.73676 16.4686 6.52643 16.2583C6.3161 16.048 6.19794 15.7627 6.19794 15.4653C6.19794 15.1678 6.3161 14.8826 6.52643 14.6722C6.73676 14.4619 7.02202 14.3438 7.31947 14.3438H8.441C8.73845 14.3438 9.02372 14.4619 9.23405 14.6722C9.44438 14.8826 9.56254 15.1678 9.56254 15.4653C9.56254 15.7627 9.44438 16.048 9.23405 16.2583C9.02372 16.4686 8.73845 16.5868 8.441 16.5868ZM8.441 12.1007H7.31947C7.02202 12.1007 6.73676 11.9825 6.52643 11.7722C6.3161 11.5619 6.19794 11.2766 6.19794 10.9792C6.19794 10.6817 6.3161 10.3965 6.52643 10.1861C6.73676 9.9758 7.02202 9.85764 7.31947 9.85764H8.441C8.73845 9.85764 9.02372 9.9758 9.23405 10.1861C9.44438 10.3965 9.56254 10.6817 9.56254 10.9792C9.56254 11.2766 9.44438 11.5619 9.23405 11.7722C9.02372 11.9825 8.73845 12.1007 8.441 12.1007ZM14.0487 25.559H12.9271C12.6297 25.559 12.3444 25.4409 12.1341 25.2305C11.9238 25.0202 11.8056 24.7349 11.8056 24.4375C11.8056 24.1401 11.9238 23.8548 12.1341 23.6445C12.3444 23.4341 12.6297 23.316 12.9271 23.316H14.0487C14.3461 23.316 14.6314 23.4341 14.8417 23.6445C15.052 23.8548 15.1702 24.1401 15.1702 24.4375C15.1702 24.7349 15.052 25.0202 14.8417 25.2305C14.6314 25.4409 14.3461 25.559 14.0487 25.559ZM14.0487 21.0729H12.9271C12.6297 21.0729 12.3444 20.9548 12.1341 20.7444C11.9238 20.5341 11.8056 20.2488 11.8056 19.9514C11.8056 19.6539 11.9238 19.3687 12.1341 19.1583C12.3444 18.948 12.6297 18.8299 12.9271 18.8299H14.0487C14.3461 18.8299 14.6314 18.948 14.8417 19.1583C15.052 19.3687 15.1702 19.6539 15.1702 19.9514C15.1702 20.2488 15.052 20.5341 14.8417 20.7444C14.6314 20.9548 14.3461 21.0729 14.0487 21.0729ZM14.0487 16.5868H12.9271C12.6297 16.5868 12.3444 16.4686 12.1341 16.2583C11.9238 16.048 11.8056 15.7627 11.8056 15.4653C11.8056 15.1678 11.9238 14.8826 12.1341 14.6722C12.3444 14.4619 12.6297 14.3438 12.9271 14.3438H14.0487C14.3461 14.3438 14.6314 14.4619 14.8417 14.6722C15.052 14.8826 15.1702 15.1678 15.1702 15.4653C15.1702 15.7627 15.052 16.048 14.8417 16.2583C14.6314 16.4686 14.3461 16.5868 14.0487 16.5868ZM14.0487 12.1007H12.9271C12.6297 12.1007 12.3444 11.9825 12.1341 11.7722C11.9238 11.5619 11.8056 11.2766 11.8056 10.9792C11.8056 10.6817 11.9238 10.3965 12.1341 10.1861C12.3444 9.9758 12.6297 9.85764 12.9271 9.85764H14.0487C14.3461 9.85764 14.6314 9.9758 14.8417 10.1861C15.052 10.3965 15.1702 10.6817 15.1702 10.9792C15.1702 11.2766 15.052 11.5619 14.8417 11.7722C14.6314 11.9825 14.3461 12.1007 14.0487 12.1007Z" fill="#18204E"/>
<path fill-rule="evenodd" clip-rule="evenodd" d="M24.1423 9.85757H20.7777V31.1666H24.1423C25.629 31.1648 27.0543 30.5734 28.1056 29.5222C29.1568 28.4709 29.7482 27.0457 29.75 25.559V15.4652C29.7482 13.9785 29.1568 12.5532 28.1056 11.502C27.0543 10.4507 25.629 9.85936 24.1423 9.85757ZM25.5107 15.9587C26.1425 15.9587 26.6547 15.4466 26.6547 14.8148C26.6547 14.183 26.1425 13.6708 25.5107 13.6708C24.8789 13.6708 24.3668 14.183 24.3668 14.8148C24.3668 15.4466 24.8789 15.9587 25.5107 15.9587ZM25.5107 21.3421C26.1425 21.3421 26.6547 20.8299 26.6547 20.1981C26.6547 19.5663 26.1425 19.0542 25.5107 19.0542C24.8789 19.0542 24.3668 19.5663 24.3668 20.1981C24.3668 20.8299 24.8789 21.3421 25.5107 21.3421ZM26.6547 25.5814C26.6547 26.2132 26.1425 26.7254 25.5107 26.7254C24.8789 26.7254 24.3668 26.2132 24.3668 25.5814C24.3668 24.9497 24.8789 24.4375 25.5107 24.4375C26.1425 24.4375 26.6547 24.9497 26.6547 25.5814Z" fill="#3F45EA"/>
</svg>
