<svg width="24" height="24" viewBox="0 0 24 24" fill="none" xmlns="http://www.w3.org/2000/svg">
<path fill-rule="evenodd" clip-rule="evenodd" d="M19.0709 18.8493C18.6806 19.2396 17.9919 19.1846 17.5319 18.7245L12.1909 13.3835L6.46772 19.1067C6.00852 19.5659 5.31905 19.6218 4.92872 19.2315C4.5384 18.8411 4.5943 18.1517 5.05351 17.6925L10.7767 11.9693L5.05355 6.24616C4.59435 5.78696 4.53845 5.09749 4.92877 4.70716C5.31909 4.31684 6.00856 4.37274 6.46777 4.83195L12.1909 10.5551L17.5319 5.21412C17.9919 4.75408 18.6805 4.69901 19.0709 5.08933C19.4612 5.47966 19.4061 6.16829 18.9461 6.62833L13.6051 11.9693L18.9461 17.3103C19.4062 17.7703 19.4612 18.459 19.0709 18.8493Z" fill="#252A31"/>
</svg>
