<svg width="20" height="20" viewBox="0 0 20 20" fill="none" xmlns="http://www.w3.org/2000/svg">
<path d="M19.3333 2.5H15.1667V2.08333C15.1667 1.5308 14.9472 1.0009 14.5565 0.610194C14.1658 0.219493 13.6359 0 13.0833 0L7.25 0C6.69747 0 6.16756 0.219493 5.77686 0.610194C5.38616 1.0009 5.16667 1.5308 5.16667 2.08333V2.5H1V5H2.66667V17.5C2.66667 18.163 2.93006 18.7989 3.3989 19.2678C3.86774 19.7366 4.50363 20 5.16667 20H15.1667C15.8297 20 16.4656 19.7366 16.9344 19.2678C17.4033 18.7989 17.6667 18.163 17.6667 17.5V5H19.3333V2.5ZM15.1667 17.5H5.16667V5H15.1667V17.5Z" fill="#D21C1C"/>
<path d="M9.33325 7.5H6.83325V15H9.33325V7.5Z" fill="#970C0C"/>
<path d="M13.5 7.5H11V15H13.5V7.5Z" fill="#970C0C"/>
</svg>
