<svg width="40" height="40" viewBox="0 0 40 40" fill="none" xmlns="http://www.w3.org/2000/svg">
<circle cx="20" cy="20" r="19.5" fill="white" stroke="#16205B"/>
<path d="M32 16.4942V28.002C32 28.267 31.8946 28.5211 31.7071 28.7084C31.5196 28.8957 31.2652 29.001 31 29.001C30.7348 29.001 30.4804 28.8957 30.2929 28.7084C30.1054 28.5211 30 28.267 30 28.002V19.7628L22.6 23.295C21.8197 23.7551 20.929 23.9947 20.023 23.9883C19.0728 23.9898 18.1399 23.7347 17.3229 23.2501L9.94292 19.7408C9.3628 19.4292 8.87672 18.9681 8.53513 18.4056C8.19354 17.843 8.00888 17.1993 8.00031 16.5414C7.99174 15.8835 8.15957 15.2353 8.48639 14.664C8.81321 14.0927 9.28711 13.6192 9.85892 13.2926C9.88592 13.2766 9.91492 13.2616 9.94292 13.2477L17.3999 9.69342C18.205 9.23157 19.1187 8.99229 20.0471 9.00019C20.9754 9.00809 21.8849 9.26289 22.682 9.73837L30.057 13.2477C30.6389 13.5693 31.1253 14.0391 31.4665 14.6093C31.8078 15.1796 31.9919 15.8299 32 16.4942ZM20.022 25.9842C18.7425 25.987 17.4851 25.652 16.3769 25.0132L11.9999 22.9264V25.6236C12.0005 26.69 12.3423 27.7282 12.9754 28.5869C13.6084 29.4455 14.4996 30.0796 15.5189 30.3965C16.9753 30.8142 18.4849 31.0171 20 30.9989C21.5152 31.0158 23.0248 30.8116 24.481 30.3925C25.5003 30.0756 26.3915 29.4415 27.0246 28.5829C27.6576 27.7242 27.9994 26.686 28 25.6196V22.9314L23.541 25.0592C22.4706 25.6734 21.2564 25.9933 20.022 25.9862V25.9842Z" fill="#222C64"/>
</svg>
