<svg width="24" height="24" viewBox="0 0 24 24" fill="none" xmlns="http://www.w3.org/2000/svg">
<path fill-rule="evenodd" clip-rule="evenodd" d="M19.0714 18.8494C18.681 19.2397 17.9924 19.1847 17.5324 18.7246L12.1914 13.3836L6.46818 19.1068C6.00897 19.566 5.3195 19.6219 4.92918 19.2316C4.53886 18.8413 4.59476 18.1518 5.05396 17.6926L10.7771 11.9694L5.05401 6.24628C4.59481 5.78708 4.53891 5.09761 4.92923 4.70729C5.31955 4.31696 6.00902 4.37287 6.46823 4.83207L12.1914 10.5552L17.5323 5.21424C17.9924 4.7542 18.681 4.69913 19.0713 5.08946C19.4616 5.47978 19.4066 6.16842 18.9465 6.62845L13.6056 11.9694L18.9466 17.3104C19.4066 17.7705 19.4617 18.4591 19.0714 18.8494Z" fill="#252A31"/>
</svg>
