<svg width="16" height="16" viewBox="0 0 16 16" fill="none" xmlns="http://www.w3.org/2000/svg">
<path d="M8.05513 5.33333C8.32034 5.33333 8.5747 5.22798 8.76224 5.04044C8.94977 4.8529 9.05513 4.59855 9.05513 4.33333L9.05513 3.8C9.05513 3.32261 9.24477 2.86477 9.58234 2.52721C9.9199 2.18964 10.3777 2 10.8551 2L11.9218 2C12.3992 2 12.857 2.18964 13.1946 2.52721C13.5322 2.86477 13.7218 3.32261 13.7218 3.8L13.7218 12.2C13.7218 12.6774 13.5322 13.1352 13.1946 13.4728C12.857 13.8104 12.3992 14 11.9218 14L10.8551 14C10.3777 14 9.9199 13.8104 9.58234 13.4728C9.24477 13.1352 9.05513 12.6774 9.05513 12.2L9.05513 11.6667C9.05513 11.4014 8.94977 11.1471 8.76223 10.9596C8.5747 10.772 8.32034 10.6667 8.05513 10.6667C7.78991 10.6667 7.53556 10.772 7.34802 10.9596C7.16048 11.1471 7.05513 11.4014 7.05513 11.6667L7.05513 12.2C7.05619 13.2075 7.45688 14.1734 8.16929 14.8858C8.8817 15.5982 9.84763 15.9989 10.8551 16L11.9218 16C12.9293 15.9989 13.8952 15.5982 14.6076 14.8858C15.32 14.1734 15.7207 13.2075 15.7218 12.2L15.7218 3.8C15.7207 2.7925 15.32 1.82657 14.6076 1.11416C13.8952 0.401754 12.9293 0.00105833 11.9218 -3.32207e-07L10.8551 -4.25458e-07C9.84763 0.00105806 8.8817 0.401754 8.16929 1.11416C7.45688 1.82657 7.05619 2.7925 7.05513 3.8L7.05513 4.33333C7.05513 4.59855 7.16049 4.8529 7.34802 5.04044C7.53556 5.22798 7.78991 5.33333 8.05513 5.33333Z" fill="#FAFAFE"/>
<path d="M0.681125 9.65004L3.73846 12.7074C3.83135 12.8002 3.94161 12.8739 4.06296 12.9241C4.18431 12.9743 4.31436 13.0002 4.44569 13.0001C4.57703 13.0001 4.70707 12.9742 4.82839 12.9239C4.94972 12.8736 5.05995 12.7999 5.15279 12.707C5.3403 12.5194 5.44561 12.265 5.44554 11.9998C5.44551 11.8685 5.41961 11.7384 5.36933 11.6171C5.31904 11.4958 5.24535 11.3856 5.15246 11.2927L2.87846 9.01871L11.0551 9.00004C11.3203 9.00004 11.5747 8.89469 11.7622 8.70715C11.9498 8.51962 12.0551 8.26526 12.0551 8.00004C12.0551 7.73483 11.9498 7.48047 11.7622 7.29294C11.5747 7.1054 11.3203 7.00004 11.0551 7.00004L2.84312 7.01871L5.15446 4.70738C5.34206 4.51987 5.44748 4.26552 5.44754 4.00028C5.44761 3.73504 5.3423 3.48064 5.15479 3.29304C4.96728 3.10545 4.71293 3.00002 4.4477 2.99996C4.18246 2.9999 3.92806 3.1052 3.74046 3.29271L0.683125 6.35004C0.246038 6.7878 0.000376239 7.38102 1.39083e-06 7.99963C-0.000373457 8.61824 0.244568 9.21176 0.681125 9.65004Z" fill="#FAFAFE"/>
</svg>
