<svg width="24" height="24" viewBox="0 0 24 24" fill="none" xmlns="http://www.w3.org/2000/svg">
<path d="M20.5348 18.5978L17.2747 15.2178C19.714 11.8395 19.0489 7.0515 15.7891 4.52349C12.5294 1.99548 7.90934 2.68478 5.47003 6.06309C3.03072 9.44139 3.69584 14.2294 6.95561 16.7574C9.57412 18.7882 13.1706 18.7882 15.7891 16.7574L19.0506 20.1374C19.4604 20.5622 20.1249 20.5622 20.5347 20.1374C20.9446 19.7127 20.9446 19.024 20.5347 18.5993L20.5348 18.5978ZM11.3996 16.1051C8.50243 16.1051 6.15387 13.6711 6.15387 10.6686C6.15387 7.66616 8.50243 5.23219 11.3996 5.23219C14.2967 5.23219 16.6452 7.66616 16.6452 10.6686C16.6422 13.6697 14.2954 16.1019 11.3996 16.1051Z" fill="#222C64"/>
</svg>
