<svg width="24" height="24" viewBox="0 0 24 24" fill="none" xmlns="http://www.w3.org/2000/svg">
<path d="M0.84472 18C0.612836 18 0.414079 17.9117 0.248447 17.7352C0.0828157 17.5587 0 17.3469 0 17.0998V16.5173C0 15.7936 0.347826 15.2155 1.04348 14.7831C1.73913 14.3506 2.65839 14.1344 3.80124 14.1344C3.96687 14.1344 4.13665 14.1388 4.31056 14.1476C4.48447 14.1565 4.64596 14.1697 4.79503 14.1874C4.66253 14.5051 4.56315 14.8316 4.49689 15.167C4.43064 15.5024 4.39752 15.8554 4.39752 16.2261V18H0.84472ZM19.6025 18V16.2261C19.6025 15.8554 19.5694 15.5024 19.5031 15.167C19.4369 14.8316 19.3375 14.5051 19.205 14.1874C19.354 14.1697 19.5155 14.1565 19.6894 14.1476C19.8634 14.1388 20.0331 14.1344 20.1988 14.1344C21.3251 14.1344 22.2402 14.3506 22.9441 14.7831C23.648 15.2155 24 15.7936 24 16.5173V17.0998C24 17.3469 23.9172 17.5587 23.7516 17.7352C23.5859 17.9117 23.3872 18 23.1553 18H19.6025ZM3.80124 13.3666C3.30435 13.3666 2.88199 13.1812 2.53416 12.8106C2.18634 12.4399 2.01242 11.9898 2.01242 11.4603C2.01242 10.9307 2.18634 10.4806 2.53416 10.11C2.88199 9.73929 3.30435 9.55396 3.80124 9.55396C4.29814 9.55396 4.7205 9.73929 5.06832 10.11C5.41615 10.4806 5.59006 10.9307 5.59006 11.4603C5.59006 11.9898 5.41615 12.4399 5.06832 12.8106C4.7205 13.1812 4.29814 13.3666 3.80124 13.3666ZM20.1988 13.3666C19.7019 13.3666 19.2795 13.1812 18.9317 12.8106C18.5839 12.4399 18.4099 11.9898 18.4099 11.4603C18.4099 10.9307 18.5839 10.4806 18.9317 10.11C19.2795 9.73929 19.7019 9.55396 20.1988 9.55396C20.6957 9.55396 21.118 9.73929 21.4658 10.11C21.8137 10.4806 21.9876 10.9307 21.9876 11.4603C21.9876 11.9898 21.8137 12.4399 21.4658 12.8106C21.118 13.1812 20.6957 13.3666 20.1988 13.3666Z" fill="#18204E"/>
<path d="M6.21109 17.7352C6.37673 17.9117 6.57548 18 6.80737 18H17.1925C17.4243 18 17.6231 17.9117 17.7887 17.7352C17.9544 17.5587 18.0372 17.3469 18.0372 17.0998V16.2261C18.0372 15.0611 17.4823 14.1124 16.3726 13.3798C15.2629 12.6473 13.8053 12.2811 11.9999 12.2811C10.1945 12.2811 8.73697 12.6473 7.62724 13.3798C6.51751 14.1124 5.96265 15.0611 5.96265 16.2261V17.0998C5.96265 17.3469 6.04546 17.5587 6.21109 17.7352Z" fill="#3F45EA"/>
<path d="M9.83842 10.5468C10.4347 11.1735 11.1552 11.4868 11.9999 11.4868C12.8446 11.4868 13.5651 11.1735 14.1614 10.5468C14.7577 9.92023 15.0558 9.148 15.0558 8.23014C15.0558 7.32994 14.7577 6.56653 14.1614 5.93992C13.5651 5.31331 12.8446 5 11.9999 5C11.1552 5 10.4347 5.31331 9.83842 5.93992C9.24215 6.56653 8.94401 7.32994 8.94401 8.23014C8.94401 9.148 9.24215 9.92023 9.83842 10.5468Z" fill="#3F45EA"/>
</svg>
