<svg width="34" height="34" viewBox="0 0 34 34" fill="none" xmlns="http://www.w3.org/2000/svg">
<mask id="mask0_3748_74221" style="mask-type:alpha" maskUnits="userSpaceOnUse" x="0" y="0" width="34" height="34">
<rect width="34" height="34" fill="#16205B"/>
</mask>
<g mask="url(#mask0_3748_74221)">
<path d="M12.75 17C11.1917 17 9.85764 16.4451 8.74791 15.3354C7.63819 14.2257 7.08333 12.8917 7.08333 11.3333C7.08333 9.77499 7.63819 8.44096 8.74791 7.33124C9.85764 6.22152 11.1917 5.66666 12.75 5.66666C14.3083 5.66666 15.6424 6.22152 16.7521 7.33124C17.8618 8.44096 18.4167 9.77499 18.4167 11.3333C18.4167 12.8917 17.8618 14.2257 16.7521 15.3354C15.6424 16.4451 14.3083 17 12.75 17ZM2.83333 28.3333C2.43194 28.3333 2.09572 28.1973 1.82466 27.9253C1.55266 27.6543 1.41666 27.318 1.41666 26.9167V24.3667C1.41666 23.5639 1.6235 22.8258 2.03716 22.1524C2.44989 21.48 2.99861 20.9667 3.68333 20.6125C5.14722 19.8805 6.63472 19.3314 8.14583 18.9649C9.65694 18.5994 11.1917 18.4167 12.75 18.4167C14.3083 18.4167 15.8431 18.5994 17.3542 18.9649C18.8653 19.3314 20.3528 19.8805 21.8167 20.6125C22.5014 20.9667 23.0501 21.48 23.4628 22.1524C23.8765 22.8258 24.0833 23.5639 24.0833 24.3667V26.9167C24.0833 27.318 23.9473 27.6543 23.6753 27.9253C23.4043 28.1973 23.0681 28.3333 22.6667 28.3333H2.83333Z" fill="#3F45EA"/>
<path d="M23.0747 15.1753C23.3457 15.4473 23.6819 15.5833 24.0833 15.5833H29.75C30.1514 15.5833 30.4876 15.4473 30.7587 15.1753C31.0307 14.9043 31.1667 14.5681 31.1667 14.1667C31.1667 13.7653 31.0307 13.4286 30.7587 13.1566C30.4876 12.8855 30.1514 12.75 29.75 12.75H24.0833C23.6819 12.75 23.3457 12.8855 23.0747 13.1566C22.8027 13.4286 22.6667 13.7653 22.6667 14.1667C22.6667 14.5681 22.8027 14.9043 23.0747 15.1753Z" fill="#16205B"/>
</g>
</svg>
