<svg width="30" height="30" viewBox="0 0 30 30" fill="none" xmlns="http://www.w3.org/2000/svg">
<g clip-path="url(#clip0_3748_74236)">
<path d="M15 2.49996C16.6581 2.5054 18.2987 2.83963 19.8268 3.4833C21.355 4.12698 22.7402 5.06732 23.9025 6.2499H20C19.6685 6.2499 19.3505 6.3816 19.1161 6.61601C18.8817 6.85043 18.75 7.16837 18.75 7.49988C18.75 7.8314 18.8817 8.14934 19.1161 8.38375C19.3505 8.61817 19.6685 8.74986 20 8.74986H25.1788C25.7943 8.74953 26.3845 8.50487 26.8198 8.06963C27.255 7.63439 27.4997 7.04417 27.5 6.42865V1.24998C27.5 0.91846 27.3683 0.600522 27.1339 0.366105C26.8995 0.131688 26.5815 -6.00195e-06 26.25 -6.00195e-06C25.9185 -6.00195e-06 25.6005 0.131688 25.3661 0.366105C25.1317 0.600522 25 0.91846 25 1.24998V3.84744C22.934 1.98678 20.3907 0.737995 17.6551 0.240927C14.9195 -0.256142 12.0995 0.0181337 9.51099 1.03304C6.92244 2.04794 4.66753 3.7634 2.99877 5.98731C1.33002 8.21122 0.313311 10.8558 0.062509 13.6248C0.0463632 13.7989 0.0666537 13.9744 0.122088 14.1402C0.177522 14.306 0.266883 14.4584 0.384479 14.5878C0.502075 14.7171 0.645327 14.8206 0.805107 14.8915C0.964886 14.9624 1.13769 14.9993 1.31251 14.9998C1.61824 15.0037 1.91443 14.8933 2.14308 14.6903C2.37174 14.4873 2.5164 14.2063 2.54876 13.9023C2.82703 10.7908 4.25873 7.89575 6.56261 5.78596C8.86649 3.67616 11.876 2.50407 15 2.49996Z" fill="#16205B"/>
</g>
<path d="M28.6888 14.9999C28.383 14.996 28.0868 15.1063 27.8582 15.3093C27.6295 15.5123 27.4849 15.7933 27.4525 16.0974C27.2459 18.4764 26.3612 20.7462 24.9033 22.6375C23.4455 24.5288 21.4757 25.9623 19.2277 26.7679C16.9797 27.5734 14.5477 27.7173 12.2204 27.1823C9.89313 26.6474 7.76812 25.4561 6.0975 23.7497H10C10.3315 23.7497 10.6495 23.618 10.8839 23.3836C11.1183 23.1492 11.25 22.8313 11.25 22.4998C11.25 22.1682 11.1183 21.8503 10.8839 21.6159C10.6495 21.3815 10.3315 21.2498 10 21.2498H4.82125C4.51637 21.2496 4.21445 21.3095 3.93275 21.4261C3.65105 21.5427 3.39509 21.7137 3.17951 21.9293C2.96393 22.1449 2.79296 22.4008 2.67636 22.6825C2.55976 22.9642 2.49984 23.2661 2.5 23.571V28.7497C2.5 29.0812 2.6317 29.3991 2.86612 29.6335C3.10054 29.868 3.41848 29.9996 3.75 29.9996C4.08152 29.9996 4.39946 29.868 4.63388 29.6335C4.8683 29.3991 5 29.0812 5 28.7497V26.1522C7.06604 28.0129 9.60927 29.2616 12.3449 29.7587C15.0805 30.2558 17.9005 29.9815 20.489 28.9666C23.0776 27.9517 25.3325 26.2362 27.0012 24.0123C28.67 21.7884 29.6867 19.1439 29.9375 16.3749C29.9536 16.2008 29.9334 16.0253 29.8779 15.8595C29.8225 15.6937 29.7331 15.5412 29.6155 15.4119C29.4979 15.2825 29.3547 15.1791 29.1949 15.1082C29.0351 15.0372 28.8636 15.0003 28.6888 14.9999Z" fill="#3F45EA"/>
<defs>
<clipPath id="clip0_3748_74236">
<rect width="30" height="29.9996" fill="white"/>
</clipPath>
</defs>
</svg>
