<svg width="34" height="34" viewBox="0 0 34 34" fill="none" xmlns="http://www.w3.org/2000/svg">
<path d="M18.2689 11.9298H26.5586C26.115 10.7763 25.4432 9.71161 24.5432 8.81165L20.1322 4.38792C19.2322 3.48797 18.1675 2.81617 17.014 2.37253V10.6623C17.014 11.3594 17.5844 11.9298 18.2815 11.9298H18.2689ZM24.3657 25.8728H19.5364C17.445 25.8728 15.7338 24.1616 15.7338 22.0702C15.7338 19.9787 17.445 18.2675 19.5364 18.2675H24.3657C24.3657 17.2915 24.7333 16.3155 25.4812 15.5803C25.9502 15.1113 26.5206 14.7818 27.1163 14.617V14.4649H18.2689C16.1774 14.4649 14.4662 12.7537 14.4662 10.6623V1.81481C14.2634 1.80213 14.0606 1.78946 13.8451 1.78946H8.12851C4.63009 1.78946 1.79079 4.62876 1.79079 8.12718V25.8728C1.79079 29.3712 4.63009 32.2105 8.12851 32.2105H20.804C23.0982 32.2105 25.1136 30.981 26.229 29.1431C25.9629 28.9783 25.7093 28.7881 25.4812 28.56C24.746 27.8248 24.3657 26.8488 24.3657 25.8728Z" fill="#16205B"/>
<path d="M31.0961 24.7316L31.0963 24.7315C32.5538 23.2612 32.5538 20.8783 31.0961 19.4206L29.0554 17.3799C28.5611 16.8855 27.7625 16.8855 27.2682 17.3799C26.7738 17.8742 26.7738 18.6728 27.2682 19.1671L28.9033 20.8022H19.5235C18.8263 20.8022 18.2559 21.3726 18.2559 22.0698C18.2559 22.7669 18.8263 23.3373 19.5235 23.3373H28.9033L27.2682 24.9725C26.7738 25.4668 26.7738 26.2654 27.2682 26.7597C27.5217 27.0005 27.8386 27.1273 28.1681 27.1273C28.4977 27.1273 28.8146 27.0132 29.0681 26.7597L31.0961 24.7316Z" fill="#3F45EA"/>
</svg>
