<svg width="36" height="36" viewBox="0 0 36 36" fill="none" xmlns="http://www.w3.org/2000/svg">
<path d="M7.26335 26.4504H23.6869C24.0219 26.4504 24.3433 26.3107 24.5802 26.0622C24.8171 25.8136 24.9502 25.4764 24.9502 25.1249V24.4622C24.9502 21.8256 23.9519 19.297 22.175 17.4327C20.3981 15.5683 17.9881 14.521 15.4751 14.521C12.9622 14.521 10.5521 15.5683 8.77519 17.4327C6.99827 19.297 6 21.8256 6 24.4622V25.1249C6 25.4764 6.1331 25.8136 6.37003 26.0622C6.60695 26.3107 6.92829 26.4504 7.26335 26.4504Z" fill="#3F45EA"/>
<path d="M15.7542 27.8149C16.3257 28.7943 17.593 29.1308 18.5849 28.5665C18.5856 28.5661 18.5862 28.5657 18.5869 28.5653L18.8943 28.39C19.4747 28.8803 20.1418 29.2606 20.862 29.5116V29.8616C20.862 30.992 21.79 31.9083 22.9347 31.9083C24.0794 31.9083 25.0073 30.992 25.0073 29.8616V29.5116C25.7277 29.2602 26.3948 28.8795 26.975 28.3886L27.2838 28.5647C28.2759 29.1298 29.5441 28.7939 30.1165 27.8142C30.6889 26.8346 30.3486 25.5822 29.3565 25.017L29.0498 24.8424C29.1878 24.1004 29.1878 23.3398 29.0498 22.5978L29.3565 22.4231C30.3486 21.858 30.6889 20.6056 30.1165 19.626C29.5441 18.6463 28.2759 18.3103 27.2838 18.8755L26.9764 19.0508C26.3955 18.5611 25.7279 18.1816 25.0073 17.9313V17.5813C25.0073 16.451 24.0794 15.5346 22.9347 15.5346C21.79 15.5346 20.862 16.451 20.862 17.5813V17.9313C20.1417 18.1828 19.4746 18.5635 18.8943 19.0543L18.5855 18.8776C17.5934 18.3124 16.3252 18.6484 15.7528 19.628C15.1805 20.6077 15.5207 21.86 16.5128 22.4252L16.8196 22.5999C16.6815 23.3418 16.6815 24.1024 16.8196 24.8444L16.5128 25.0191C15.5235 25.5858 15.1843 26.8357 15.7542 27.8149ZM22.9347 20.9925C24.4609 20.9925 25.6982 22.2143 25.6982 23.7215C25.6982 25.2286 24.4609 26.4504 22.9347 26.4504C21.4084 26.4504 20.1711 25.2286 20.1711 23.7215C20.1711 22.2143 21.4084 20.9925 22.9347 20.9925Z" fill="#222C64"/>
<path d="M12.3165 12.4242C13.2514 13.0796 14.3506 13.4294 15.475 13.4294C16.9822 13.4277 18.4273 12.7987 19.4931 11.6805C20.5589 10.5622 21.1584 9.04612 21.16 7.46471C21.16 6.28501 20.8266 5.13179 20.2019 4.1509C19.5773 3.17001 18.6894 2.40549 17.6506 1.95404C16.6118 1.50258 15.4687 1.38446 14.3659 1.61461C13.2631 1.84476 12.2501 2.41285 11.455 3.24703C10.66 4.08121 10.1185 5.14402 9.89916 6.30106C9.6798 7.4581 9.79238 8.6574 10.2227 9.74731C10.653 10.8372 11.3816 11.7688 12.3165 12.4242Z" fill="#3F45EA"/>
<path fill-rule="evenodd" clip-rule="evenodd" d="M14.7958 28.3588C13.9883 26.9713 14.3719 25.2292 15.6329 24.2882C15.6032 23.9116 15.6032 23.5334 15.6328 23.1568C14.3686 22.2164 13.9842 20.4708 14.7953 19.0825C15.6068 17.6937 17.3306 17.1486 18.7883 17.7599C19.1035 17.5458 19.4353 17.3565 19.7806 17.1937C19.974 15.6434 21.3124 14.443 22.9347 14.443C24.5566 14.443 25.8947 15.6427 26.0886 17.1925C26.4342 17.3548 26.7663 17.5437 27.082 17.7574C28.5394 17.1468 30.2627 17.6918 31.074 19.0805C31.8851 20.4688 31.5007 22.2143 30.2366 23.1547C30.2662 23.5311 30.2662 23.9091 30.2366 24.2854C31.5007 25.2258 31.8851 26.9714 31.074 28.3597C30.2627 29.7484 28.5392 30.2934 27.0817 29.6826C26.7663 29.8969 26.4343 30.0863 26.0888 30.2492C25.8954 31.7996 24.557 32.9999 22.9347 32.9999C21.3125 32.9999 19.9742 31.7997 19.7806 30.2495C19.4353 30.0869 19.1035 29.8978 18.7882 29.6838C17.3305 30.2947 15.6064 29.748 14.7958 28.3588ZM19.1368 29.5123L19.1398 29.5106L19.1368 29.5123ZM18.5849 28.5665C17.5931 29.1308 16.3257 28.7943 15.7542 27.8149C15.1844 26.8357 15.5235 25.5858 16.5128 25.0191L16.8196 24.8444C16.6815 24.1024 16.6815 23.3418 16.8196 22.5999L16.5128 22.4252C15.5207 21.86 15.1805 20.6077 15.7529 19.628C16.3252 18.6484 17.5934 18.3124 18.5855 18.8776L18.8944 19.0543C19.4746 18.5635 20.1417 18.1828 20.862 17.9313V17.5813C20.862 16.451 21.79 15.5346 22.9347 15.5346C24.0794 15.5346 25.0074 16.451 25.0074 17.5813V17.9313C25.7279 18.1816 26.3955 18.5611 26.9764 19.0508L27.2838 18.8755C28.2759 18.3103 29.5442 18.6463 30.1165 19.626C30.6889 20.6056 30.3486 21.858 29.3565 22.4231L29.0498 22.5978C29.1879 23.3398 29.1879 24.1004 29.0498 24.8424L29.3565 25.017C30.3486 25.5822 30.6889 26.8346 30.1165 27.8142C29.5442 28.7939 28.2759 29.1298 27.2838 28.5647L26.975 28.3886C26.3948 28.8795 25.7277 29.2602 25.0074 29.5116V29.8616C25.0074 30.992 24.0794 31.9083 22.9347 31.9083C21.79 31.9083 20.862 30.992 20.862 29.8616V29.5116C20.1418 29.2605 19.4747 28.8803 18.8944 28.39L18.5869 28.5653L18.5849 28.5665ZM24.5928 23.7215C24.5928 22.8172 23.8504 22.0841 22.9347 22.0841C22.0189 22.0841 21.2766 22.8172 21.2766 23.7215C21.2766 24.6258 22.0189 25.3588 22.9347 25.3588C23.8504 25.3588 24.5928 24.6258 24.5928 23.7215ZM25.6982 23.7215C25.6982 22.2143 24.461 20.9925 22.9347 20.9925C21.4084 20.9925 20.1711 22.2143 20.1711 23.7215C20.1711 25.2286 21.4084 26.4504 22.9347 26.4504C24.461 26.4504 25.6982 25.2286 25.6982 23.7215Z" fill="white"/>
</svg>
