<svg width="34" height="34" viewBox="0 0 34 34" fill="none" xmlns="http://www.w3.org/2000/svg">
<mask id="mask0_3491_67727" style="mask-type:alpha" maskUnits="userSpaceOnUse" x="0" y="0" width="34" height="34">
<rect width="34" height="34" fill="#D9D9D9"/>
</mask>
<g mask="url(#mask0_3491_67727)">
<path d="M25.5006 31.1667C25.0993 31.1667 24.763 31.0307 24.492 30.7587C24.22 30.4876 24.084 30.1514 24.084 29.75V19.8333H22.6673C21.8882 19.8333 21.2214 19.5557 20.667 19.0003C20.1117 18.446 19.834 17.7792 19.834 17V9.91668C19.834 7.95695 20.5248 6.2867 21.9066 4.90593C23.2873 3.5242 24.9576 2.83334 26.9173 2.83334V29.75C26.9173 30.1514 26.7813 30.4876 26.5093 30.7587C26.2383 31.0307 25.902 31.1667 25.5006 31.1667Z" fill="#3F45EA"/>
<path d="M10.3226 30.7587C10.5946 31.0307 10.9313 31.1667 11.3327 31.1667C11.7341 31.1667 12.0708 31.0307 12.3428 30.7587C12.6138 30.4876 12.7493 30.1514 12.7493 29.75V18.2042C13.9535 17.8736 14.9627 17.2125 15.7768 16.2208C16.5918 15.2292 16.9993 14.0722 16.9993 12.75V4.25001C16.9993 3.84862 16.8638 3.51193 16.5928 3.23993C16.3208 2.96887 15.9841 2.83334 15.5827 2.83334C15.1813 2.83334 14.8451 2.96887 14.574 3.23993C14.302 3.51193 14.166 3.84862 14.166 4.25001V12.75H12.7493V4.25001C12.7493 3.84862 12.6138 3.51193 12.3428 3.23993C12.0708 2.96887 11.7341 2.83334 11.3327 2.83334C10.9313 2.83334 10.5946 2.96887 10.3226 3.23993C10.0515 3.51193 9.91602 3.84862 9.91602 4.25001V12.75H8.49935V4.25001C8.49935 3.84862 8.36382 3.51193 8.09277 3.23993C7.82077 2.96887 7.48407 2.83334 7.08268 2.83334C6.68129 2.83334 6.3446 2.96887 6.0726 3.23993C5.80154 3.51193 5.66602 3.84862 5.66602 4.25001V12.75C5.66602 14.0722 6.07354 15.2292 6.8886 16.2208C7.70271 17.2125 8.71185 17.8736 9.91602 18.2042V29.75C9.91602 30.1514 10.0515 30.4876 10.3226 30.7587Z" fill="#16205B"/>
</g>
</svg>
