<svg width="34" height="34" viewBox="0 0 34 34" fill="none" xmlns="http://www.w3.org/2000/svg">
<mask id="mask0_3638_71583" style="mask-type:alpha" maskUnits="userSpaceOnUse" x="0" y="0" width="34" height="34">
<rect width="34" height="34" fill="#16205B"/>
</mask>
<g mask="url(#mask0_3638_71583)">
<path d="M30.1664 23.4873C31.5002 22.2521 31.5001 20.2503 30.1663 19.0258L28.2989 17.3115C27.8465 16.8962 27.1158 16.8962 26.6634 17.3115C26.2111 17.7267 26.2111 18.3976 26.6634 18.8129L28.1597 20.1865H19.5766C18.9386 20.1865 18.4167 20.6657 18.4167 21.2513C18.4167 21.837 18.9386 22.3162 19.5766 22.3162H28.1597L26.6634 23.6898C26.2111 24.1051 26.2111 24.7759 26.6634 25.1912C26.8954 25.3935 27.1854 25.5 27.487 25.5C27.7885 25.5 28.0785 25.4042 28.3105 25.1912L30.1664 23.4873Z" fill="#16205B"/>
<path fill-rule="evenodd" clip-rule="evenodd" d="M8.74794 15.3354C9.85766 16.4451 11.1917 17 12.75 17C14.3084 17 15.6424 16.4451 16.7521 15.3354C17.8618 14.2257 18.4167 12.8916 18.4167 11.3333C18.4167 9.77496 17.8618 8.44093 16.7521 7.33121C15.6424 6.22149 14.3084 5.66663 12.75 5.66663C11.1917 5.66663 9.85766 6.22149 8.74794 7.33121C7.63822 8.44093 7.08335 9.77496 7.08335 11.3333C7.08335 12.8916 7.63822 14.2257 8.74794 15.3354ZM1.82469 27.9253C2.09574 28.1973 2.43196 28.3333 2.83335 28.3333H22.6667C23.0681 28.3333 23.4043 28.1973 23.6754 27.9253C23.9474 27.6542 24.0834 27.318 24.0834 26.9166V24.3666C24.0834 24.1011 24.0607 23.8426 24.0155 23.5913H19.5767C18.3394 23.5913 17.1418 22.6417 17.1418 21.2514C17.1418 20.3441 17.652 19.6244 18.3504 19.2339C18.0194 19.1354 17.6874 19.0457 17.3542 18.9649C15.8431 18.5994 14.3084 18.4166 12.75 18.4166C11.1917 18.4166 9.65697 18.5994 8.14585 18.9649C6.63474 19.3313 5.14724 19.8805 3.68335 20.6125C2.99863 20.9666 2.44991 21.4799 2.03719 22.1524C1.62352 22.8258 1.41669 23.5639 1.41669 24.3666V26.9166C1.41669 27.318 1.55269 27.6542 1.82469 27.9253Z" fill="#3F45EA"/>
</g>
</svg>
