<svg width="36" height="36" viewBox="0 0 36 36" fill="none" xmlns="http://www.w3.org/2000/svg">
<path d="M13.6875 4.5H8.93752C7.36279 4.5 5.85256 5.12556 4.73906 6.23905C3.62556 7.35255 3 8.86278 3 10.4375L3 27.0625C3 27.8422 3.15358 28.6143 3.45197 29.3347C3.75036 30.0551 4.18771 30.7096 4.73906 31.2609C5.85256 32.3744 7.36279 33 8.93752 33H19.6251V10.4375C19.6251 9.65778 19.4715 8.88569 19.1731 8.16532C18.8747 7.44495 18.4374 6.7904 17.886 6.23905C17.3347 5.68771 16.6801 5.25035 15.9597 4.95197C15.2394 4.65358 14.4673 4.5 13.6875 4.5ZM8.93752 27.0625H7.75002C7.43507 27.0625 7.13303 26.9374 6.91033 26.7147C6.68763 26.492 6.56251 26.1899 6.56251 25.875C6.56251 25.5601 6.68763 25.258 6.91033 25.0353C7.13303 24.8126 7.43507 24.6875 7.75002 24.6875H8.93752C9.25247 24.6875 9.55452 24.8126 9.77722 25.0353C9.99992 25.258 10.125 25.5601 10.125 25.875C10.125 26.1899 9.99992 26.492 9.77722 26.7147C9.55452 26.9374 9.25247 27.0625 8.93752 27.0625ZM8.93752 22.3125H7.75002C7.43507 22.3125 7.13303 22.1874 6.91033 21.9647C6.68763 21.742 6.56251 21.4399 6.56251 21.125C6.56251 20.8101 6.68763 20.508 6.91033 20.2853C7.13303 20.0626 7.43507 19.9375 7.75002 19.9375H8.93752C9.25247 19.9375 9.55452 20.0626 9.77722 20.2853C9.99992 20.508 10.125 20.8101 10.125 21.125C10.125 21.4399 9.99992 21.742 9.77722 21.9647C9.55452 22.1874 9.25247 22.3125 8.93752 22.3125ZM8.93752 17.5625H7.75002C7.43507 17.5625 7.13303 17.4374 6.91033 17.2147C6.68763 16.992 6.56251 16.6899 6.56251 16.375C6.56251 16.0601 6.68763 15.758 6.91033 15.5353C7.13303 15.3126 7.43507 15.1875 7.75002 15.1875H8.93752C9.25247 15.1875 9.55452 15.3126 9.77722 15.5353C9.99992 15.758 10.125 16.0601 10.125 16.375C10.125 16.6899 9.99992 16.992 9.77722 17.2147C9.55452 17.4374 9.25247 17.5625 8.93752 17.5625ZM8.93752 12.8125H7.75002C7.43507 12.8125 7.13303 12.6874 6.91033 12.4647C6.68763 12.242 6.56251 11.9399 6.56251 11.625C6.56251 11.3101 6.68763 11.008 6.91033 10.7853C7.13303 10.5626 7.43507 10.4375 7.75002 10.4375H8.93752C9.25247 10.4375 9.55452 10.5626 9.77722 10.7853C9.99992 11.008 10.125 11.3101 10.125 11.625C10.125 11.9399 9.99992 12.242 9.77722 12.4647C9.55452 12.6874 9.25247 12.8125 8.93752 12.8125ZM14.875 27.0625H13.6875C13.3726 27.0625 13.0706 26.9374 12.8478 26.7147C12.6251 26.492 12.5 26.1899 12.5 25.875C12.5 25.5601 12.6251 25.258 12.8478 25.0353C13.0706 24.8126 13.3726 24.6875 13.6875 24.6875H14.875C15.19 24.6875 15.492 24.8126 15.7147 25.0353C15.9374 25.258 16.0626 25.5601 16.0626 25.875C16.0626 26.1899 15.9374 26.492 15.7147 26.7147C15.492 26.9374 15.19 27.0625 14.875 27.0625ZM14.875 22.3125H13.6875C13.3726 22.3125 13.0706 22.1874 12.8478 21.9647C12.6251 21.742 12.5 21.4399 12.5 21.125C12.5 20.8101 12.6251 20.508 12.8478 20.2853C13.0706 20.0626 13.3726 19.9375 13.6875 19.9375H14.875C15.19 19.9375 15.492 20.0626 15.7147 20.2853C15.9374 20.508 16.0626 20.8101 16.0626 21.125C16.0626 21.4399 15.9374 21.742 15.7147 21.9647C15.492 22.1874 15.19 22.3125 14.875 22.3125ZM14.875 17.5625H13.6875C13.3726 17.5625 13.0706 17.4374 12.8478 17.2147C12.6251 16.992 12.5 16.6899 12.5 16.375C12.5 16.0601 12.6251 15.758 12.8478 15.5353C13.0706 15.3126 13.3726 15.1875 13.6875 15.1875H14.875C15.19 15.1875 15.492 15.3126 15.7147 15.5353C15.9374 15.758 16.0626 16.0601 16.0626 16.375C16.0626 16.6899 15.9374 16.992 15.7147 17.2147C15.492 17.4374 15.19 17.5625 14.875 17.5625ZM14.875 12.8125H13.6875C13.3726 12.8125 13.0706 12.6874 12.8478 12.4647C12.6251 12.242 12.5 11.9399 12.5 11.625C12.5 11.3101 12.6251 11.008 12.8478 10.7853C13.0706 10.5626 13.3726 10.4375 13.6875 10.4375H14.875C15.19 10.4375 15.492 10.5626 15.7147 10.7853C15.9374 11.008 16.0626 11.3101 16.0626 11.625C16.0626 11.9399 15.9374 12.242 15.7147 12.4647C15.492 12.6874 15.19 12.8125 14.875 12.8125Z" fill="#18204E"/>
<path fill-rule="evenodd" clip-rule="evenodd" d="M25.5625 10.4375H21.9999V33H25.5625C27.1366 32.9981 28.6457 32.372 29.7588 31.2589C30.8719 30.1458 31.4981 28.6366 31.5 27.0625V16.375C31.4981 14.8009 30.8719 13.2917 29.7588 12.1786C28.6457 11.0655 27.1366 10.4394 25.5625 10.4375ZM27.0113 16.8976C27.6803 16.8976 28.2226 16.3553 28.2226 15.6863C28.2226 15.0174 27.6803 14.4751 27.0113 14.4751C26.3424 14.4751 25.8001 15.0174 25.8001 15.6863C25.8001 16.3553 26.3424 16.8976 27.0113 16.8976ZM27.0113 22.5976C27.6803 22.5976 28.2226 22.0553 28.2226 21.3863C28.2226 20.7174 27.6803 20.1751 27.0113 20.1751C26.3424 20.1751 25.8001 20.7174 25.8001 21.3863C25.8001 22.0553 26.3424 22.5976 27.0113 22.5976ZM28.2226 27.0863C28.2226 27.7553 27.6803 28.2976 27.0113 28.2976C26.3424 28.2976 25.8001 27.7553 25.8001 27.0863C25.8001 26.4174 26.3424 25.8751 27.0113 25.8751C27.6803 25.8751 28.2226 26.4174 28.2226 27.0863Z" fill="#3F45EA"/>
</svg>
