<svg id="Layer_1" data-name="Layer 1" xmlns="http://www.w3.org/2000/svg" viewBox="0 0 493 215"><defs><style>.cls-1{fill:#fff;}</style></defs><title>Artboard 1</title><path class="cls-1" d="M62.32,165.87a3.32,3.32,0,0,0,.28,2.32,34,34,0,0,0,29.72,23.95c3.42.29,3.42.29,3.42,3.85,0,3,0,6.08,0,9.12,0,1.7,0,1.76-1.76,1.72a46.7,46.7,0,0,1-22.44-6.15c-13.22-7.64-21.39-19-24.18-34a3.54,3.54,0,0,0-2.71-3c-18.91-7.05-30.21-20.52-32.78-40.6C8.59,97.51,26.52,73.81,51.8,69.55a53.44,53.44,0,0,1,8.83-.76q16.2,0,32.4,0c.4,0,.8,0,1.2,0,1.28-.14,1.63.47,1.61,1.68-.06,3.68,0,7.36,0,11,0,1.89,0,1.92-2,1.92-11,0-22.08.21-33.11-.05A34.29,34.29,0,0,0,26.4,112.07c-2.51,14.83,5.85,30.52,19.5,36.44.36.15.74.27,1.09.4.68-.44.65-1.13.81-1.71q8.24-30.49,39.14-37a38,38,0,0,1,7.39-.74c1,0,1.43.35,1.42,1.39q0,5.88,0,11.76c0,1-.39,1.41-1.4,1.44a31,31,0,0,0-8.51,1.28q-17.66,5.52-23.37,23.14c0,.07,0,.15-.07.23-.68,2.45-.67,2.48,2,2.48H92.93c.56,0,1.12,0,1.68,0,.75,0,1.21.24,1.21,1.09,0,4.08,0,8.16,0,12.24,0,.81-.34,1.16-1.14,1.14-.56,0-1.12,0-1.68,0q-14,0-28.08,0A6.36,6.36,0,0,0,62.32,165.87Z"/><path class="cls-1" d="M156.24,181.87H134.88c-2.24,0-2.3.09-2,2.3,1.37,11.14,10.94,18.47,22.05,17.16,7.39-.87,12.18-4.71,14.67-11.63.77-2.15.8-2.12,3.07-1.8,1.82.25,3.64.53,5.47.67,1.28.09,1.44.7,1.14,1.74-2.23,7.86-6.54,14.25-14.25,17.36-11.72,4.74-23,3.71-33.3-4.09a25.16,25.16,0,0,1-8.81-13.15c-2.69-8.93-2.27-17.79,1.92-26.15,5.32-10.63,14.09-16.21,26.09-16.5a28.75,28.75,0,0,1,15.87,3.81c7.39,4.41,11.1,11.24,12.6,19.48a47.67,47.67,0,0,1,.49,9.09c0,1.65-.05,1.7-1.79,1.7C170.79,181.88,163.51,181.87,156.24,181.87Zm-5.59-7.3h9.12c2.39,0,4.79,0,7.19,0,1,0,1.47-.42,1.31-1.44-.13-.87-.26-1.74-.42-2.6-2.2-11.76-13.74-17.72-24.27-12.48-6,3-8.94,8.2-10.35,14.49-.44,2-.42,2,1.6,2C140.1,174.58,145.38,174.57,150.65,174.57Z"/><path class="cls-1" d="M446,200.49c0,1.92,0,3.57,0,5.22,0,.82-.59,1.27-1.14,1.74A11.71,11.71,0,0,1,427.34,204a23.27,23.27,0,0,1-1.61-4.72c-.9.18-1,.89-1.39,1.36-4.23,5.8-10.07,8.77-17.07,9.51a24.81,24.81,0,0,1-11.81-1.33c-5.81-2.28-9.22-6.5-10-12.68s1.27-11.16,6.45-14.77a34.78,34.78,0,0,1,11-4.73c6.55-1.8,13.28-2.82,19.91-4.3l1.63-.37a1,1,0,0,0,.8-1c.26-5.05-1-10.5-6.43-13.16a15.09,15.09,0,0,0-20.56,7.91c-1,2.6-1,2.61-3.8,2.28-1.83-.22-3.66-.42-5.47-.7s-1.75-.35-1.29-2c2.13-7.59,6.78-13,14.2-15.75a30.83,30.83,0,0,1,21.62,0c6.95,2.48,10.74,7.73,12.15,14.84a31.65,31.65,0,0,1,.54,6.44c0,8.32.13,16.65-.05,25-.12,5.69,3.49,6.48,7.06,5.48Zm-21-21c-4.93,1-9.69,2-14.43,3.07-1.87.42-3.71.94-5.55,1.49A17.69,17.69,0,0,0,400.6,186c-3.48,2.15-4.33,5.4-3.72,9.13.57,3.53,2.87,5.59,6.25,6.5a16.68,16.68,0,0,0,9.21-.32C421.16,198.64,426.59,189.37,425,179.48Z"/><path class="cls-1" d="M69.27,60.14A26.67,26.67,0,1,1,95.89,33.43,26.57,26.57,0,0,1,69.27,60.14ZM82,33.71A12.79,12.79,0,1,0,69,46.35,12.78,12.78,0,0,0,82,33.71Z"/><path class="cls-1" d="M329,147.69c12.09.27,21.28,5,27.06,15.55a32.76,32.76,0,0,1,3.68,18.56c-.57,7.75-3.26,14.64-8.88,20.17a28.68,28.68,0,0,1-18.9,8.27A31.76,31.76,0,0,1,317.2,208a27.82,27.82,0,0,1-16.31-18.08c-2.69-8.79-2.44-17.6,1.7-25.92C308,153.08,317.29,148.06,329,147.69Zm-18.16,31.39a27.23,27.23,0,0,0,.55,6.58c1.06,5,3,9.45,7.23,12.6A18.14,18.14,0,0,0,346.4,190a30.73,30.73,0,0,0,.39-20.68c-2.33-7.14-7.12-11.56-14.8-12.53-8.68-1.09-16,2.91-19.16,11A28.41,28.41,0,0,0,310.87,179.08Z"/><path class="cls-1" d="M210,210.29a32.94,32.94,0,0,1-13.95-2.51c-7.73-3.33-11.95-9.29-13.1-17.55-.13-.93-.06-1.54,1.11-1.59,2.31-.11,4.63-.29,6.93-.49a1.32,1.32,0,0,1,1.65,1.25c1.6,8.94,8.29,12.16,16,12.62a21.93,21.93,0,0,0,9.65-1.41c3.78-1.54,5.53-4.32,5.3-8.2a6.44,6.44,0,0,0-3-5.21,17.24,17.24,0,0,0-6.48-2.4c-4.39-.85-8.79-1.63-13.2-2.39a28.78,28.78,0,0,1-8.18-2.63,14.07,14.07,0,0,1-8.16-12.61c-.51-9.27,5-15.34,12.47-17.78a33.48,33.48,0,0,1,24.58,1.12c7.34,3.25,10.78,9.41,11.74,17.15.1.82-.17,1.2-1,1.24-2.24.13-4.47.25-6.7.44a1.35,1.35,0,0,1-1.64-1.28,20.25,20.25,0,0,0-.76-2.77,12.63,12.63,0,0,0-8.9-8.33,23.49,23.49,0,0,0-11.39-.46,12.65,12.65,0,0,0-4.41,1.82,7.61,7.61,0,0,0-3.47,7.41,6.84,6.84,0,0,0,4.44,6c2.81,1.27,5.86,1.52,8.85,2,3.7.62,7.44,1.05,11.08,2a29.75,29.75,0,0,1,7.15,2.71c5.57,3.09,7.84,8,7.64,14.15-.26,7.44-4.23,12.34-10.89,15.25A31.19,31.19,0,0,1,210,210.29Z"/><path class="cls-1" d="M268.05,210.29a30.66,30.66,0,0,1-12.87-2.36,26.36,26.36,0,0,1-14.68-14.41,35.36,35.36,0,0,1,.33-29.54c4-8.68,11-13.72,20.29-15.59a32.79,32.79,0,0,1,14.75.21c11.1,2.84,17.25,10.37,19.59,21.3.25,1.13,1,2.48.26,3.47s-2.1.37-3.18.53c-1.5.21-3,.27-4.54.33-1.79.07-1.77,0-2.15-1.65a31.6,31.6,0,0,0-1.31-4.85C281.92,161.11,277,157.58,270,157c-9.8-.85-17.14,4.3-19.69,13.8a30.12,30.12,0,0,0,.7,18.86,18.25,18.25,0,0,0,27.21,8.78c4.15-2.82,6.31-6.91,7.32-11.68.7-3.27.67-3.27,4-3,1.67.17,3.34.3,5,.5s1.59.24,1.38,1.8c-2,14.83-12.28,23.9-26.38,24.2C269,210.3,268.53,210.29,268.05,210.29Z"/><path class="cls-1" d="M366.61,165.9V126.34a15.68,15.68,0,0,0,0-1.68c-.14-1.32.52-1.64,1.7-1.62q4.06.08,8.15,0c1.12,0,1.64.38,1.54,1.53a13.83,13.83,0,0,0,0,1.44v79.84c0,3.31.21,2.89-3,2.91-2.32,0-4.63,0-7,0-1,0-1.49-.37-1.42-1.4,0-.56,0-1.12,0-1.68Z"/><path class="cls-1" d="M196.69,109.49c-5.84,0-11.67,0-17.51,0-1.85,0-2,.08-1.74,1.9,1,9.07,7.91,16.34,17.42,16a20.93,20.93,0,0,0,5.21-.68,13.56,13.56,0,0,0,8.87-7.48,28.29,28.29,0,0,0,1.27-3.36c.28-.92.77-1.32,1.74-1.14,5.05.91,5.13-.29,3.09,4.94-3.26,8.36-9.7,12.61-18.57,13.23a24.59,24.59,0,0,1-16.58-4.35A22.76,22.76,0,0,1,170.46,112a28.59,28.59,0,0,1,3-17,23.4,23.4,0,0,1,24-12.23c11.44,1.49,17.7,9.74,18.81,20.1a42.57,42.57,0,0,1,.13,4.79c0,1.7,0,1.74-1.74,1.75-3.76,0-7.51,0-11.27,0Zm-3.37-4.78c4.8,0,9.6,0,14.4,0,1.15,0,1.57-.38,1.48-1.54a21.94,21.94,0,0,0-1.12-5.14C204.77,88.3,194.75,86,187.4,89.49c-5.46,2.62-8.28,7.31-9.65,13-.51,2.14-.48,2.19,1.65,2.2C184,104.73,188.68,104.71,193.32,104.71Z"/><path class="cls-1" d="M461.53,160c.4-.74.78-1.48,1.19-2.21,2.71-4.78,6.39-8.42,11.93-9.64a14.24,14.24,0,0,1,10.25,1.22,2.19,2.19,0,0,1,1.39,2.66,56.08,56.08,0,0,0-.65,6c-.23,2.58-.24,2.63-2.52,1.62a16.33,16.33,0,0,0-9.64-1.07c-4.67.85-7.81,3.83-9.91,8a23.27,23.27,0,0,0-2.4,10.66q0,13.78,0,27.59c0,.56,0,1.12,0,1.68,0,2.34,0,2.35-2.35,2.36s-5,0-7.44,0c-1.1,0-1.67-.32-1.56-1.5,0-.48,0-1,0-1.44v-53.5c0-.4,0-.8,0-1.2.06-1.75.06-1.79,1.71-1.81q4,0,7.92,0c1.67,0,1.7.06,1.72,1.79,0,2.92,0,5.84,0,8.76Z"/><path class="cls-1" d="M311.36,108.12c0-7.36,2-13.51,6.85-18.41,6.65-6.75,14.86-8.57,23.84-6.08,8.75,2.43,14.11,8.51,16.29,17.23a27.11,27.11,0,0,1-1.77,18.94c-3.46,7.11-9.08,11.54-16.85,12.83-8.9,1.47-16.69-.84-22.65-7.9A24.6,24.6,0,0,1,311.36,108.12Zm7.12-.27a23.47,23.47,0,0,0,1.9,10.24c2.67,6,7.22,9.26,13.75,9.59,6.93.34,12.36-2.28,15.54-8.65,2.91-5.84,3.1-12,1.57-18.24-1.48-6.06-6-11.92-14.15-12.73-6.56-.64-12.8,2.12-15.94,8A23.5,23.5,0,0,0,318.48,107.85Z"/><path class="cls-1" d="M289.37,133a24.32,24.32,0,0,1-12.47-2.78,16.45,16.45,0,0,1-8.65-12.54c-.32-2.06-.18-2.25,1.81-2.4,1-.09,2.18-.72,3-.16s.68,1.86,1,2.84a12.42,12.42,0,0,0,7.81,8.5,20.6,20.6,0,0,0,14.55,0c3-1.11,4.92-3.19,5.12-6.56a6.48,6.48,0,0,0-4.32-7,29.13,29.13,0,0,0-6-1.6q-5.07-.9-10.14-1.85a19.38,19.38,0,0,1-4.1-1.31,12.2,12.2,0,0,1-6.53-16.53c2-4.67,5.82-7.11,10.54-8.25a26.32,26.32,0,0,1,15.34.74c6.65,2.38,10,7.37,10.81,14.23.14,1.15-.15,1.67-1.31,1.64a2,2,0,0,0-.24,0c-3.28.49-3.28.49-4.16-2.64-1.33-4.73-4.34-7.76-9.16-8.79-4-.85-8-1-11.77.68a7.21,7.21,0,0,0-4.71,7.12,6.49,6.49,0,0,0,3.83,6.14,20.36,20.36,0,0,0,6,1.64c3.63.6,7.27,1.06,10.86,1.9a29.52,29.52,0,0,1,3.87,1.24c6.65,2.57,8.48,7.94,7.47,14.09-.68,4.16-3.23,7-6.86,9A22.56,22.56,0,0,1,289.37,133Z"/><path class="cls-1" d="M229.73,91.45a17.17,17.17,0,0,1,13.19-8.61c5.78-.69,11.16.34,15.36,4.88a17.46,17.46,0,0,1,4.1,9.3,33.21,33.21,0,0,1,.44,5.73q0,13.31,0,26.62c0,.32,0,.64,0,1,.08,1-.27,1.51-1.34,1.48-1.44-.05-2.88,0-4.32,0a1,1,0,0,1-1.18-1.16c0-.63,0-1.27,0-1.91q0-12.84,0-25.67a23.32,23.32,0,0,0-.72-6.65,10.91,10.91,0,0,0-9.8-8.23c-8.86-1-16,5.26-16.13,14.3-.14,8.79,0,17.59-.05,26.38,0,3.12.47,2.94-3,3-3.75,0-3.75,0-3.75-3.85V87.17c0-.64,0-1.28,0-1.91,0-.92.38-1.29,1.28-1.27,1.36,0,2.72,0,4.08,0,1.06,0,1.39.45,1.37,1.45,0,2,0,3.94,0,5.9Z"/><path class="cls-1" d="M120.81,108.68c0-7.11,1.43-13,5.55-17.8,6-7,13.81-9.13,22.68-7.87,8.51,1.21,14,6.14,16.82,14.15.13.38.21.77.35,1.15.36,1,.07,1.54-1,1.55a2.63,2.63,0,0,0-.48.06c-1.26.21-2.61.68-3.79.3-1.34-.43-1.21-2.08-1.71-3.19-3.1-6.82-10-9.41-16.69-8.57a14.89,14.89,0,0,0-12.6,9.45c-3,7.16-3,14.4.72,21.3,3.35,6.25,9,8.61,15.87,8.05,6.45-.53,10.81-3.93,13.16-9.93a7.66,7.66,0,0,0,.39-1.14,1.06,1.06,0,0,1,1.41-.88c1.26.23,2.51.48,3.78.67,1.09.18,1.14.71.89,1.69a20.41,20.41,0,0,1-17.6,15.16,26.45,26.45,0,0,1-13.43-1.57c-7.71-3.24-12-9.21-13.75-17.23A24.73,24.73,0,0,1,120.81,108.68Z"/></svg>