<svg id="Layer_1" data-name="Layer 1" xmlns="http://www.w3.org/2000/svg" viewBox="0 0 371 154.59"><defs><style>.cls-1{fill:#84c225;}.cls-2,.cls-5{fill:#838281;}.cls-3{fill:#00923f;}.cls-4{fill:#fff;}.cls-5{font-size:56px;font-family:ArialMT, Arial;}</style></defs><title>censo_colored</title><path class="cls-1" d="M42.68,120.62a21.59,21.59,0,0,0,3.53,8.48,25.41,25.41,0,0,0,19.28,11.62l1.45.16c1.32.13,1.34.13,1.35,1.52,0,2.19,0,4.37,0,6.56,0,.55,0,1.09,0,1.64-.05,1.27-.06,1.32-1.39,1.28a34.34,34.34,0,0,1-11.4-2.15c-13.15-5.09-21.21-14.54-23.95-28.42a2.56,2.56,0,0,0-1.91-2.22c-13.94-5-22.49-14.87-24.87-29.47A36.74,36.74,0,0,1,32.86,48.06a39.28,39.28,0,0,1,8.84-1c8.08,0,16.16,0,24.24,0H67.4c.69,0,1,.32,1,1q0,4.56,0,9.12c0,.67-.23,1-.94,1-.37,0-.73,0-1.1,0-8.38,0-16.76,0-25.14,0a25.91,25.91,0,0,0-11.5,49.09c.54.27,1.1.49,1.64.74a3,3,0,0,0,.65-1.71A37,37,0,0,1,62.49,78.37,33.78,33.78,0,0,1,67.2,78c.78,0,1.1.29,1.1,1.06,0,3,0,6,0,8.93,0,.83-.4,1-1.11,1a28.76,28.76,0,0,0-4.7.59Q46.86,93.46,42.66,109a2.05,2.05,0,0,0,0,.47,4.24,4.24,0,0,0,1.88.14H66.07a9.91,9.91,0,0,0,1.09,0c1-.11,1.22.39,1.21,1.29,0,2.73,0,5.46,0,8.2,0,1.47,0,1.5-1.51,1.5H42.68Z"/><path class="cls-2" d="M114.23,132.93c-5.4,0-10.81,0-16.21,0-1.71,0-1.77,0-1.54,1.75,1,7.95,7.59,14,16.53,13.09a15.24,15.24,0,0,0,4.9-1.28,12.3,12.3,0,0,0,6.24-7c.18-.45.32-.92.46-1.38a.91.91,0,0,1,1.12-.67c1.74.23,3.48.48,5.23.64.91.09.94.55.74,1.24a22.83,22.83,0,0,1-3,6.77,18.91,18.91,0,0,1-12.91,8.07,25.66,25.66,0,0,1-14.82-1.51c-7.38-3.23-11.58-9-12.84-16.87a25.92,25.92,0,0,1,2.79-17.1c4.1-7.4,10.48-11.25,18.93-11.58a21.39,21.39,0,0,1,14.51,4.33,20.25,20.25,0,0,1,7.14,11.74,32.82,32.82,0,0,1,.73,8.5c0,1.26-.05,1.29-1.37,1.29C125.28,132.94,119.76,132.93,114.23,132.93Z"/><path class="cls-2" d="M318.66,145.85a16.9,16.9,0,0,1-10.72,8,19,19,0,0,1-12.66-.72,11.89,11.89,0,0,1-1.63-20.84,27.89,27.89,0,0,1,8-3.32c5-1.36,10.2-2.17,15.29-3.27,1.52-.33,1.54-.31,1.51-1.89a15.34,15.34,0,0,0-.15-2.54,8.78,8.78,0,0,0-8.68-7.6,12.47,12.47,0,0,0-7,1.42,10.81,10.81,0,0,0-4.9,6.33c-.33,1-.76,1.26-1.81,1.09-2-.34-4.08-.45-6.21-1,1.44-6.17,4.83-10.63,10.68-13a23.46,23.46,0,0,1,16.06-.41c5.8,1.82,8.94,6,10,11.84a25.87,25.87,0,0,1,.37,4.89c0,6.26.09,12.52,0,18.77-.08,4.15,2.62,4.7,5.32,4.06a6,6,0,0,1,2-.44,22.2,22.2,0,0,1,.1,3.82c0,.79-.61,1.14-1.16,1.52a8.74,8.74,0,0,1-13.75-5A3.28,3.28,0,0,0,318.66,145.85Z"/><path class="cls-3" d="M48.27,40.49A20.25,20.25,0,1,1,68.41,20.14,20.19,20.19,0,0,1,48.27,40.49Z"/><path class="cls-2" d="M223,130.75a23.4,23.4,0,0,1,4.73-15.15,21.43,21.43,0,0,1,15.71-8.47,23.76,23.76,0,0,1,11.43,1.58,21,21,0,0,1,11.9,11.69c3.13,7.59,3,15.21-.83,22.51-3.71,7.05-9.84,10.72-17.68,11.52a23.34,23.34,0,0,1-11.61-1.61c-7.49-3.19-11.71-9-13.3-16.81a15.51,15.51,0,0,1-.33-2.34C222.92,132.7,223,131.72,223,130.75Z"/><path class="cls-2" d="M154.75,154.51a24.31,24.31,0,0,1-9.19-1.5c-6.36-2.38-10.11-6.88-11-13.7-.11-.86,0-1.21.93-1.25,1.7-.06,3.39-.2,5.08-.36a1,1,0,0,1,1.24,1c1.14,5.9,5,8.73,10.73,9.48a18.84,18.84,0,0,0,7.58-.52,9.38,9.38,0,0,0,2.49-1.09,5.64,5.64,0,0,0,2.78-5.71,5.19,5.19,0,0,0-3.44-4.52,24.07,24.07,0,0,0-5.42-1.5c-3.75-.73-7.56-1.12-11.25-2.18a14,14,0,0,1-6.58-3.7c-3.67-3.88-3.94-10.94-.61-15.52a14.46,14.46,0,0,1,8.35-5.5,26.61,26.61,0,0,1,16.13.67c6.21,2.27,9.42,6.93,10.18,13.42.1.83-.16,1.09-.93,1.12a36.67,36.67,0,0,0-4.91.3c-.7.11-1-.3-1.12-.9s-.27-1.18-.45-1.76a9.73,9.73,0,0,0-7-6.77,17.61,17.61,0,0,0-9-.22,9.27,9.27,0,0,0-3.56,1.75c-2.79,2.2-3.13,8.07,1.58,9.87a32.31,32.31,0,0,0,6.2,1.39c3.64.64,7.35.94,10.86,2.19a24.3,24.3,0,0,1,2.53,1,10.73,10.73,0,0,1,6.51,9.92c.24,5.82-2.33,9.89-7.48,12.42A24.07,24.07,0,0,1,154.75,154.51Z"/><path class="cls-2" d="M199.08,154.52c-6.53,0-12.32-1.94-16.91-6.76a22,22,0,0,1-5.64-11.43,27.37,27.37,0,0,1,1.54-16.07c3-7,8.34-11.19,15.74-12.73a25,25,0,0,1,11.73.28c7,1.91,11.47,6.53,13.73,13.35a29.05,29.05,0,0,1,1,4.62c.09.56,0,.94-.7,1-1.87.12-3.75.23-5.62.39-.84.07-1.16-.2-1.28-1.07a18.46,18.46,0,0,0-.86-3.52c-1.63-4.53-4.75-7.43-9.54-8.3-5.38-1-10.15.13-13.8,4.52a16,16,0,0,0-3.32,7.59,23,23,0,0,0,.67,11.51c1.59,4.79,4.6,8.29,9.71,9.43,4.54,1,8.84.41,12.5-2.71,2.73-2.32,3.94-5.46,4.6-8.87.06-.3.08-.61.11-.91.05-.55.36-.69.87-.63,1.93.2,3.86.43,5.8.57.87.07.94.5.84,1.21-1.61,11.8-9.72,18.5-20.64,18.55Z"/><path class="cls-2" d="M274,121V90c0-1.57,0-1.59,1.63-1.6,1.94,0,3.89,0,5.83,0,.86,0,1.23.32,1.17,1.18,0,.3,0,.6,0,.91q0,30.32,0,60.64c0,2.62-.05,2.22-2.3,2.24-1.7,0-3.4,0-5.1,0-1,0-1.32-.34-1.23-1.27,0-.42,0-.85,0-1.27Z"/><path class="cls-2" d="M145.1,78c-4.43,0-8.87,0-13.3,0-1.6,0-1.64,0-1.46,1.66.85,7.41,7.12,13,15,11.91a11.15,11.15,0,0,0,9.74-8.09c.54-1.59.54-1.59,2.13-1.33,2.84.47,2.84.47,1.85,3.17A15.67,15.67,0,0,1,144.52,95.8c-5.37.21-10.21-1.11-14.19-4.91A17.49,17.49,0,0,1,125,79.42c-.5-5.56.61-10.79,4.19-15.23,4-5,9.4-7,15.78-6.47a15.37,15.37,0,0,1,10.81,5.33,18.18,18.18,0,0,1,4.07,10.33,29.69,29.69,0,0,1,.07,3.27c0,1.27,0,1.3-1.35,1.3-3.82,0-7.65,0-11.47,0Z"/><path class="cls-2" d="M346,116.53c.29-.56.57-1.14.88-1.69,2-3.72,4.84-6.55,9.11-7.51a10.76,10.76,0,0,1,7.78.9,1.73,1.73,0,0,1,1.07,2c-.28,1.67-.34,3.37-.51,5.06-.14,1.31-.25,1.39-1.42.86a13.67,13.67,0,0,0-5.46-1.18,10.05,10.05,0,0,0-8.92,4.69,16.29,16.29,0,0,0-2.73,9.47c0,6.92,0,13.84,0,20.75v1.46c0,2.13.12,2-2,2-1.82,0-3.64,0-5.46,0-.77,0-1.12-.29-1.08-1.06,0-.37,0-.73,0-1.1V110.42c0-2.39-.14-2.2,2.13-2.2,1.45,0,2.91,0,4.37,0,2.12,0,2-.17,2,1.93s0,4.21,0,6.32Z"/><path class="cls-2" d="M268.31,76.92c-.06,5.46-1.73,10.28-5.75,14.09-4.26,4-9.42,5.38-15.13,4.63-9.11-1.21-15-8.82-15.38-17.83a19.68,19.68,0,0,1,3.49-12.75c4.15-5.71,9.85-8,16.81-7.28,10.14,1.06,15.61,9.55,15.86,17.33C268.23,75.71,268.28,76.32,268.31,76.92Z"/><path class="cls-2" d="M215.84,95.83c-4.89,0-8.85-.9-12.2-3.68a12.75,12.75,0,0,1-4.39-8.33c-.15-.94.25-1.36,1.13-1.43l.36,0c2.29-.29,2.26-.29,2.92,1.91a9.51,9.51,0,0,0,6.5,6.81A16,16,0,0,0,220.53,91a5.68,5.68,0,0,0,3.93-7,4.92,4.92,0,0,0-3.09-3.35A27.6,27.6,0,0,0,215,79c-1.91-.34-3.82-.67-5.72-1a17.06,17.06,0,0,1-2.62-.76c-3.5-1.28-5.94-3.51-6.36-7.42-.47-4.4,1.06-7.88,4.94-10.15a19.38,19.38,0,0,1,18.13.44c3.34,2.21,4.86,5.46,5.39,9.29.12.92-.16,1.27-1.14,1.36-2.46.23-2.47.29-3.13-2-1.15-4-3.82-6.18-7.87-6.88a16.41,16.41,0,0,0-6,0,8.55,8.55,0,0,0-3.48,1.48,5.5,5.5,0,0,0-2.14,5.47,4.81,4.81,0,0,0,3.25,4,28.61,28.61,0,0,0,6.19,1.4c2.09.36,4.19.69,6.26,1.13a16.4,16.4,0,0,1,3.11,1,9.44,9.44,0,0,1,3.38,14.88,12.34,12.34,0,0,1-6.13,3.73A16.93,16.93,0,0,1,215.84,95.83Z"/><path class="cls-2" d="M169.68,64.37a15,15,0,0,1,6.64-5.6,14.38,14.38,0,0,1,11.52,0c4.61,1.9,6.44,5.8,7.06,10.46a64,64,0,0,1,.26,8.19V93.05c0,1.72,0,1.73-1.68,1.75-.85,0-1.7,0-2.55,0-.61,0-.87-.29-.86-.89,0-.43,0-.85,0-1.28,0-6.5,0-13,0-19.49a19.61,19.61,0,0,0-.43-4.34c-1.67-7.31-8.87-8.47-13.78-6.11a10.47,10.47,0,0,0-6.13,9.8c-.13,5.89,0,11.78,0,17.68,0,1.21,0,2.42,0,3.64,0,.68-.26,1-1,1-1.09,0-2.18,0-3.28,0-.62,0-.87-.3-.85-.9,0-.36,0-.73,0-1.09V60.55c0-.18,0-.36,0-.55,0-1.35,0-1.36,1.45-1.39h2.18c1.42,0,1.44,0,1.46,1.4S169.68,62.92,169.68,64.37Z"/><path class="cls-2" d="M121.94,83.25c-1.29,5.33-4.22,9.29-9.35,11.32a19.1,19.1,0,0,1-14.22,0,16,16,0,0,1-9.82-10.35,21.9,21.9,0,0,1,.81-16.83c2.67-5.59,7.23-8.62,13.32-9.5a18.42,18.42,0,0,1,11.16,1.61c4.23,2.1,6.69,5.65,8,10.12.2.69.07,1-.69,1.08-1,.07-1.93.22-2.89.34a.82.82,0,0,1-1-.71,5.73,5.73,0,0,0-.36-1,11.09,11.09,0,0,0-10-7.32c-8-.68-13,4.58-14,12a20,20,0,0,0,1.06,9.85c3.84,9.88,16.23,9.5,20.7,4a12.66,12.66,0,0,0,2.43-4.43c.24-.81.61-1,1.45-.82A24.24,24.24,0,0,1,121.94,83.25Z"/><path class="cls-4" d="M109.77,127.38c-4,0-7.9,0-11.84,0-1.43,0-1.45-.05-1.16-1.46.91-4.32,2.86-8,6.7-10.42,8-5,17.91-.54,19.58,8.81.06.36.09.72.15,1.08.32,2,.32,2-1.77,2Z"/><path class="cls-4" d="M318.3,131.27c1.37,8.93-4.64,17.25-14.23,17a9.81,9.81,0,0,1-2.86-.5A5.83,5.83,0,0,1,297,143c-.42-2.67.05-5.08,2.49-6.75a14.22,14.22,0,0,1,4.15-1.82c4.72-1.36,9.56-2.19,14.36-3.23C318.06,131.17,318.18,131.25,318.3,131.27Z"/><path class="cls-4" d="M57.89,20.35a9.71,9.71,0,1,1-9.63-9.82A9.7,9.7,0,0,1,57.89,20.35Z"/><path class="cls-4" d="M260.13,130.19c-.13,4-.58,7.33-2.15,10.36-2.64,5.09-6.89,7.49-12.58,7.37-5.5-.11-9.6-2.59-11.83-7.61a22.7,22.7,0,0,1,0-19.07c2.71-6.08,8.45-8.08,14.07-7.41,7.33.87,11.08,6.36,12.08,12.87A19.48,19.48,0,0,1,260.13,130.19Z"/><path class="cls-4" d="M142.33,74.35H131.42c-.71,0-1.21-.13-1-1,1-4.61,3.07-8.5,7.48-10.57,6.25-2.94,13.88-.43,16,7.3a13.44,13.44,0,0,1,.58,3c0,1.18,0,1.23-1.18,1.24-2.73,0-5.46,0-8.19,0Z"/><path class="cls-4" d="M237.42,76.68a17.71,17.71,0,0,1,2-8.78,11.87,11.87,0,0,1,12.34-6.19c5.45.64,8.78,3.82,10.38,8.89A20.07,20.07,0,0,1,262,83.3a12.36,12.36,0,0,1-17.42,7.32c-3.7-1.79-5.63-5-6.62-8.89A21.42,21.42,0,0,1,237.42,76.68Z"/><text class="cls-5" transform="translate(87.25 44.06)">Exportação</text></svg>