<?xml version="1.0" encoding="utf-8"?>
<!-- Generator: Adobe Illustrator 16.0.0, SVG Export Plug-In . SVG Version: 6.00 Build 0)  -->
<!DOCTYPE svg PUBLIC "-//W3C//DTD SVG 1.1//EN" "http://www.w3.org/Graphics/SVG/1.1/DTD/svg11.dtd">
<svg version="1.1" id="Layer_1" xmlns="http://www.w3.org/2000/svg" xmlns:xlink="http://www.w3.org/1999/xlink" x="0px" y="0px"
	 width="336.33px" height="201.52px" viewBox="0 0 336.33 201.52" style="enable-background:new 0 0 336.33 201.52;"
	 xml:space="preserve">
<style type="text/css">
<![CDATA[
	.st0{fill:none;stroke:#FFFFFF;stroke-width:1.8754;stroke-miterlimit:10;}
]]>
</style>
<g>
	<g>
		<path class="st0" d="M153.01,12.71v40.32h-47.92v140.35H56.13V53.04H6.12V12.71H153.01z"/>
		<path class="st0" d="M329.84,182.12c-22.52,9.95-48.18,15.19-70.44,15.19c-54.99,0-97.93-28.28-97.93-94.26
			c0-55.25,39.01-94.26,93.21-94.26c29.85,0,50.8,8.12,69.65,25.4L294.49,67.7c-8.64-10.74-21.47-18.59-38.49-18.59
			c-25.92,0-43.46,19.38-43.46,55.51c0,36.66,18.33,55.51,47.65,55.51c8.38,0,16.23-1.31,25.13-4.45v-21.73h-28.8V95.19h73.32
			V182.12z"/>
		<path class="st0" d="M57.96,193.38C87.03,132.9,119.76,66.65,150.13,8h5.24c30.64,58.65,63.1,124.11,92.69,185.38h-53.42
			l-10.74-23.83h-63.63l-9.69,23.83H57.96z M172.65,136.56l-20.16-47.13l-21.73,47.13H172.65z"/>
	</g>
</g>
</svg>
