<svg width="24" height="24" viewBox="0 0 24 24" fill="none" xmlns="http://www.w3.org/2000/svg">
<path d="M4.84223 17.6336H15.7912C16.0146 17.6336 16.2288 17.5405 16.3868 17.3748C16.5447 17.2091 16.6335 16.9843 16.6335 16.75V16.3081C16.6335 14.5504 15.968 12.8647 14.7833 11.6218C13.5987 10.3789 11.992 9.68066 10.3167 9.68066C8.64143 9.68066 7.03475 10.3789 5.85013 11.6218C4.66551 12.8647 4 14.5504 4 16.3081V16.75C4 16.9843 4.08873 17.2091 4.24668 17.3748C4.40463 17.5405 4.61886 17.6336 4.84223 17.6336Z" fill="#3F45EA"/>
<path d="M10.5028 18.5433C10.8838 19.1963 11.7287 19.4206 12.3899 19.0444C12.3904 19.0441 12.3908 19.0439 12.3913 19.0436L12.5962 18.9267C12.9831 19.2536 13.4278 19.5071 13.908 19.6744V19.9078C13.908 20.6614 14.5266 21.2723 15.2898 21.2723C16.0529 21.2723 16.6716 20.6614 16.6716 19.9078V19.6745C17.1518 19.5068 17.5965 19.253 17.9833 18.9258L18.1892 19.0432C18.8506 19.4199 19.6961 19.196 20.0777 18.5428C20.4592 17.8897 20.2324 17.0548 19.571 16.678L19.3665 16.5616C19.4586 16.067 19.4586 15.5599 19.3665 15.0652L19.571 14.9488C20.2324 14.572 20.4592 13.7371 20.0777 13.084C19.6961 12.4309 18.8506 12.2069 18.1892 12.5837L17.9843 12.7006C17.597 12.3741 17.1519 12.1211 16.6716 11.9542V11.7209C16.6716 10.9673 16.0529 10.3564 15.2898 10.3564C14.5266 10.3564 13.908 10.9673 13.908 11.7209V11.9542C13.4278 12.1219 12.983 12.3757 12.5962 12.7029L12.3903 12.5851C11.7289 12.2083 10.8835 12.4323 10.5019 13.0854C10.1203 13.7385 10.3471 14.5734 11.0085 14.9502L11.2131 15.0666C11.121 15.5613 11.121 16.0683 11.2131 16.563L11.0085 16.6794C10.349 17.0572 10.1229 17.8905 10.5028 18.5433ZM15.2898 13.9951C16.3073 13.9951 17.1322 14.8096 17.1322 15.8144C17.1322 16.8191 16.3073 17.6336 15.2898 17.6336C14.2723 17.6336 13.4474 16.8191 13.4474 15.8144C13.4474 14.8096 14.2723 13.9951 15.2898 13.9951Z" fill="#222C64"/>
<path d="M8.21102 8.2828C8.83429 8.71974 9.56706 8.95295 10.3167 8.95295C11.3215 8.95178 12.2849 8.53246 12.9954 7.78698C13.7059 7.0415 14.1056 6.03074 14.1067 4.97648C14.1067 4.19 13.8844 3.42119 13.468 2.76727C13.0515 2.11334 12.4596 1.60366 11.767 1.30269C11.0745 1.00172 10.3125 0.922975 9.57725 1.07641C8.84206 1.22984 8.16674 1.60856 7.63669 2.16468C7.10664 2.7208 6.74568 3.42934 6.59944 4.2007C6.4532 4.97207 6.52825 5.7716 6.81511 6.49821C7.10197 7.22481 7.58775 7.84586 8.21102 8.2828Z" fill="#3F45EA"/>
<path fill-rule="evenodd" clip-rule="evenodd" d="M9.86388 18.9061C9.32556 17.9811 9.58126 16.8197 10.4219 16.1923C10.4021 15.9413 10.4021 15.6891 10.4219 15.4381C9.57909 14.8111 9.32283 13.6474 9.86357 12.7219C10.4045 11.796 11.5538 11.4327 12.5255 11.8401C12.7357 11.6974 12.9569 11.5712 13.1871 11.4627C13.316 10.4291 14.2083 9.62891 15.2898 9.62891C16.371 9.62891 17.2631 10.4287 17.3924 11.4619C17.6228 11.5701 17.8442 11.696 18.0546 11.8385C19.0263 11.4314 20.1752 11.7948 20.716 12.7205C21.2568 13.6461 21.0005 14.8098 20.1577 15.4367C20.1774 15.6876 20.1774 15.9396 20.1577 16.1905C21.0005 16.8175 21.2568 17.9812 20.716 18.9067C20.1751 19.8325 19.0261 20.1958 18.0545 19.7886C17.8442 19.9315 17.6229 20.0578 17.3925 20.1664C17.2636 21.1999 16.3713 22.0002 15.2898 22.0002C14.2083 22.0002 13.3161 21.2 13.1871 20.1666C12.9569 20.0582 12.7357 19.9321 12.5254 19.7894C11.5537 20.1967 10.4043 19.8322 9.86388 18.9061ZM12.7579 19.6751L12.7599 19.6739L12.7579 19.6751ZM12.3899 19.0445C11.7287 19.4208 10.8838 19.1964 10.5028 18.5435C10.1229 17.8907 10.349 17.0574 11.0086 16.6796L11.2131 16.5632C11.121 16.0685 11.121 15.5614 11.2131 15.0668L11.0086 14.9504C10.3472 14.5736 10.1203 13.7387 10.5019 13.0856C10.8835 12.4325 11.729 12.2085 12.3904 12.5853L12.5962 12.7031C12.9831 12.3759 13.4278 12.1221 13.908 11.9544V11.7211C13.908 10.9675 14.5267 10.3566 15.2898 10.3566C16.0529 10.3566 16.6716 10.9675 16.6716 11.7211V11.9544C17.152 12.1213 17.597 12.3743 17.9843 12.7008L18.1892 12.5839C18.8506 12.2071 19.6961 12.4311 20.0777 13.0842C20.4592 13.7373 20.2324 14.5722 19.571 14.949L19.3665 15.0654C19.4586 15.5601 19.4586 16.0672 19.3665 16.5618L19.571 16.6782C20.2324 17.055 20.4592 17.8899 20.0777 18.543C19.6961 19.1961 18.8506 19.4201 18.1892 19.0433L17.9833 18.926C17.5965 19.2532 17.1518 19.507 16.6716 19.6746V19.908C16.6716 20.6615 16.0529 21.2724 15.2898 21.2724C14.5267 21.2724 13.908 20.6615 13.908 19.908V19.6746C13.4279 19.5073 12.9831 19.2538 12.5962 18.9269L12.3913 19.0438L12.3899 19.0445ZM16.3952 15.8145C16.3952 15.2117 15.9003 14.723 15.2898 14.723C14.6793 14.723 14.1844 15.2117 14.1844 15.8145C14.1844 16.4174 14.6793 16.9061 15.2898 16.9061C15.9003 16.9061 16.3952 16.4174 16.3952 15.8145ZM17.1322 15.8145C17.1322 14.8098 16.3073 13.9952 15.2898 13.9952C14.2723 13.9952 13.4474 14.8098 13.4474 15.8145C13.4474 16.8193 14.2723 17.6338 15.2898 17.6338C16.3073 17.6338 17.1322 16.8193 17.1322 15.8145Z" fill="white"/>
</svg>
