<svg width="24" height="24" viewBox="0 0 24 24" fill="none" xmlns="http://www.w3.org/2000/svg">
<rect x="6" y="10" width="12" height="3" fill="#3F45EA"/>
<path d="M16.3333 5.33333H16V5C16 4.73478 15.8946 4.48043 15.7071 4.29289C15.5196 4.10536 15.2652 4 15 4C14.7348 4 14.4804 4.10536 14.2929 4.29289C14.1054 4.48043 14 4.73478 14 5V5.33333H10V5C10 4.73478 9.89464 4.48043 9.70711 4.29289C9.51957 4.10536 9.26522 4 9 4C8.73478 4 8.48043 4.10536 8.29289 4.29289C8.10536 4.48043 8 4.73478 8 5V5.33333H7.66667C6.69421 5.33333 5.76158 5.71964 5.07394 6.40728C4.38631 7.09491 4 8.02754 4 9L4 16.3333C4 17.3058 4.38631 18.2384 5.07394 18.9261C5.76158 19.6137 6.69421 20 7.66667 20H16.3333C17.3058 20 18.2384 19.6137 18.9261 18.9261C19.6137 18.2384 20 17.3058 20 16.3333V9C20 8.02754 19.6137 7.09491 18.9261 6.40728C18.2384 5.71964 17.3058 5.33333 16.3333 5.33333ZM16.3333 18H7.66667C7.22464 18 6.80072 17.8244 6.48816 17.5118C6.17559 17.1993 6 16.7754 6 16.3333V10.6667H18V16.3333C18 16.7754 17.8244 17.1993 17.5118 17.5118C17.1993 17.8244 16.7754 18 16.3333 18Z" fill="#18204E"/>
</svg>
