<svg width="24" height="24" viewBox="0 0 24 24" fill="none" xmlns="http://www.w3.org/2000/svg">
<path d="M20 16.25H6.4C5.0744 16.25 4 17.3132 4 18.625C4 19.9368 5.0744 21 6.4 21H16C18.2088 21 20 19.2275 20 17.0417V16.25ZM20 5.95833V14.6667H8.8V2H12.8V10.1922C12.8 10.6854 13.4328 10.8967 13.7352 10.5049L14.8 9.125L15.8648 10.5049C16.1672 10.8967 16.8 10.6854 16.8 10.1922V2.07996C18.6256 2.4465 20 4.04329 20 5.95833Z" fill="#18204E"/>
<path d="M6.4 14.6666C6.2376 14.6666 6.0752 14.6824 5.916 14.7149C5.22 14.7972 4.5592 15.0609 4 15.4781V5.95827C4 4.07727 5.3376 2.45514 7.2 2.0791V14.6666H6.4Z" fill="#3F45EA"/>
</svg>
