<svg width="24" height="24" viewBox="0 0 24 24" fill="none" xmlns="http://www.w3.org/2000/svg">
<path d="M19 21L5 21" stroke="#3F45EA" stroke-width="2" stroke-linecap="round"/>
<path d="M19 18H6C5.44772 18 5 17.5523 5 17V6C5 5.44772 5.44772 5 6 5H18C18.5523 5 19 5.44772 19 6V14.0455C19 14.5977 18.5523 15.0455 18 15.0455H9.23077C8.67849 15.0455 8.23077 14.5977 8.23077 14.0455V11.5M8.23077 11.5V8.95454C8.23077 8.40226 8.67848 7.95455 9.23077 7.95455H14.7692C15.3215 7.95455 15.7692 8.40226 15.7692 8.95455V10.5C15.7692 11.0523 15.3215 11.5 14.7692 11.5H8.23077Z" stroke="#18204E" stroke-width="2" stroke-linecap="round"/>
</svg>
