<svg width="24" height="24" viewBox="0 0 24 24" fill="none" xmlns="http://www.w3.org/2000/svg">
<g clip-path="url(#clip0_225_9338)">
<path d="M21 19.8751C21 20.4968 20.4967 21.0001 19.875 21.0001H5.625C4.1775 21.0001 3 19.8226 3 18.3751V4.12508C3.02475 2.64608 5.22525 2.64683 5.25 4.12508V18.3751C5.25 18.5821 5.418 18.7501 5.625 18.7501H19.875C20.4967 18.7501 21 19.2533 21 19.8751Z" fill="#222C64"/>
</g>
<path d="M16.1249 6.75H18.3749C19.8224 6.75 20.9999 7.92825 20.9999 9.37575V11.6258C20.9752 13.104 18.7747 13.1048 18.7499 11.6258V10.569L16.5374 12.7387C15.5474 13.7288 13.9409 13.7543 12.9112 12.8063C12.9112 12.8063 11.9992 12.1545 11.9542 12.1095C11.8072 11.9633 11.5694 11.964 11.4232 12.1095L8.6407 14.6985C8.1862 15.1208 7.4752 15.0968 7.0507 14.6408C6.6277 14.1863 6.65395 13.4738 7.10845 13.0508L9.8617 10.4903C10.8314 9.5205 12.4379 9.49575 13.4662 10.4438C13.4662 10.4438 14.3782 11.0955 14.4232 11.1405C14.5702 11.2868 14.8079 11.2868 14.9542 11.1405L17.1359 9H16.1249C14.6467 8.97525 14.6459 6.77475 16.1249 6.75Z" fill="#3F45EA"/>
<defs>
<clipPath id="clip0_225_9338">
<rect width="18" height="18" fill="white" transform="translate(3 3)"/>
</clipPath>
</defs>
</svg>
