<svg width="24" height="24" viewBox="0 0 24 24" fill="none" xmlns="http://www.w3.org/2000/svg">
<path d="M19.3167 9.79597L14.5927 5.07196C13.9044 4.3855 12.9721 4 12 4C11.0279 4 10.0956 4.3855 9.40734 5.07196L4.68334 9.79597C4.46599 10.0122 4.29369 10.2693 4.17639 10.5525C4.0591 10.8357 3.99915 11.1394 4.00001 11.446V18.3647C4.00072 18.7984 4.17342 19.2141 4.48024 19.5207C4.78706 19.8273 5.20294 19.9996 5.63667 20H18.3633C18.7971 19.9996 19.2129 19.8273 19.5198 19.5207C19.8266 19.2141 19.9993 18.7984 20 18.3647V11.446C20.0009 11.1394 19.9409 10.8357 19.8236 10.5525C19.7063 10.2693 19.534 10.0122 19.3167 9.79597ZM18 18H14.6667V15.8787C14.6667 15.2036 14.3985 14.5562 13.9212 14.0788C13.4438 13.6015 12.7964 13.3333 12.1213 13.3333H11.8787C11.2036 13.3333 10.5562 13.6015 10.0788 14.0788C9.6015 14.5562 9.33334 15.2036 9.33334 15.8787V18H6.00001V11.446C6.00021 11.3576 6.03517 11.2728 6.09734 11.21L10.8213 6.48596C10.9761 6.33115 11.1599 6.20835 11.3621 6.12456C11.5643 6.04077 11.7811 5.99765 12 5.99765C12.2189 5.99765 12.4357 6.04077 12.6379 6.12456C12.8401 6.20835 13.0239 6.33115 13.1787 6.48596L17.9027 11.21C17.9648 11.2728 17.9998 11.3576 18 11.446V18Z" fill="#18204E"/>
<path d="M14.6667 15.5453V20H9.33337V15.5453C9.33337 14.8703 9.60154 14.2229 10.0789 13.7455C10.5562 13.2682 11.2036 13 11.8787 13H12.1214C12.7964 13 13.4438 13.2682 13.9212 13.7455C14.3985 14.2229 14.6667 14.8703 14.6667 15.5453Z" fill="#3F45EA"/>
</svg>
