<svg width="24" height="24" viewBox="0 0 24 24" fill="none" xmlns="http://www.w3.org/2000/svg">
<path d="M18.125 16C17.6414 16 17.25 16.3714 17.25 16.8291C17.25 18.5049 15.8109 19.8689 14.0417 19.8689H7.91678V18.9498C7.91678 18.4573 7.28854 18.2108 6.92104 18.559L5.17106 20.3072C4.94298 20.5233 4.94298 20.8732 5.17106 21.0888L6.92104 22.837C7.28854 23.1852 7.91678 22.9387 7.91678 22.4462V21.5271H14.0417C16.7758 21.5271 19 19.4196 19 16.8291C19 16.3714 18.6086 16 18.125 16Z" fill="#18204E"/>
<path d="M11.0974 6.99976C10.504 6.99976 9.92402 7.1757 9.43068 7.50534C8.93734 7.83498 8.55283 8.3035 8.32577 8.85167C8.09871 9.39984 8.0393 10.003 8.15506 10.585C8.27081 11.1669 8.55653 11.7014 8.97608 12.121C9.39563 12.5405 9.93017 12.8263 10.5121 12.942C11.094 13.0578 11.6972 12.9984 12.2454 12.7713C12.7936 12.5442 13.2621 12.1597 13.5917 11.6664C13.9214 11.173 14.0973 10.593 14.0973 9.9997C14.0973 9.20407 13.7812 8.44102 13.2186 7.87842C12.656 7.31582 11.893 6.99976 11.0974 6.99976V6.99976ZM11.0974 11.4997C10.8007 11.4997 10.5107 11.4117 10.264 11.2469C10.0174 11.0821 9.8251 10.8478 9.71157 10.5737C9.59804 10.2996 9.56833 9.99804 9.62621 9.70707C9.68409 9.41611 9.82695 9.14884 10.0367 8.93906C10.2465 8.72929 10.5138 8.58643 10.8047 8.52855C11.0957 8.47067 11.3973 8.50038 11.6714 8.61391C11.9455 8.72744 12.1797 8.91969 12.3445 9.16636C12.5094 9.41303 12.5973 9.70304 12.5973 9.9997C12.5973 10.3975 12.4393 10.779 12.158 11.0603C11.8767 11.3416 11.4952 11.4997 11.0974 11.4997Z" fill="#3F45EA"/>
<path d="M18.068 11.4248L17.735 11.2328C17.8849 10.4172 17.8849 9.58102 17.735 8.76537L18.068 8.57337C18.3241 8.42563 18.5485 8.22891 18.7286 7.99442C18.9086 7.75994 19.0407 7.49229 19.1173 7.20676C19.1939 6.92122 19.2135 6.62339 19.1751 6.33028C19.1366 6.03716 19.0407 5.7545 18.893 5.49842C18.7452 5.24235 18.5485 5.01788 18.314 4.83784C18.0795 4.65779 17.8119 4.52569 17.5264 4.44909C17.2408 4.37248 16.943 4.35286 16.6499 4.39136C16.3568 4.42985 16.0741 4.5257 15.818 4.67344L15.4843 4.86618C14.8539 4.32763 14.1296 3.91014 13.3476 3.6347V3.24996C13.3476 2.65323 13.1105 2.08095 12.6886 1.659C12.2666 1.23705 11.6943 1 11.0976 1C10.5009 1 9.9286 1.23705 9.50665 1.659C9.0847 2.08095 8.84765 2.65323 8.84765 3.24996V3.6347C8.0657 3.91112 7.34156 4.32964 6.71169 4.86918L6.37644 4.67494C5.85928 4.37657 5.24477 4.29587 4.66811 4.45059C4.09144 4.6053 3.59986 4.98276 3.30149 5.49992C3.00313 6.01708 2.92243 6.63159 3.07714 7.20826C3.23186 7.78492 3.60932 8.27651 4.12648 8.57487L4.45947 8.76686C4.30956 9.58252 4.30956 10.4187 4.45947 11.2343L4.12648 11.4263C3.60932 11.7247 3.23186 12.2163 3.07714 12.7929C2.92243 13.3696 3.00313 13.9841 3.30149 14.5013C3.59986 15.0184 4.09144 15.3959 4.66811 15.5506C5.24477 15.7053 5.85928 15.6246 6.37644 15.3263L6.71019 15.1335C7.34075 15.6721 8.0654 16.0896 8.84765 16.365V16.7497C8.84765 17.3465 9.0847 17.9187 9.50665 18.3407C9.9286 18.7626 10.5009 18.9997 11.0976 18.9997C11.6943 18.9997 12.2666 18.7626 12.6886 18.3407C13.1105 17.9187 13.3476 17.3465 13.3476 16.7497V16.365C14.1295 16.0886 14.8537 15.67 15.4835 15.1305L15.8188 15.324C16.3359 15.6224 16.9504 15.7031 17.5271 15.5484C18.1038 15.3936 18.5954 15.0162 18.8937 14.499C19.1921 13.9819 19.2728 13.3673 19.1181 12.7907C18.9634 12.214 18.5859 11.7224 18.0687 11.4241L18.068 11.4248ZM16.157 8.59287C16.411 9.51315 16.411 10.485 16.157 11.4053C16.1127 11.5655 16.1228 11.7359 16.1858 11.8897C16.2488 12.0435 16.3611 12.172 16.505 12.2551L17.318 12.7245C17.4904 12.824 17.6161 12.9878 17.6677 13.18C17.7192 13.3722 17.6923 13.577 17.5929 13.7494C17.4934 13.9218 17.3296 14.0475 17.1374 14.0991C16.9452 14.1506 16.7404 14.1237 16.568 14.0243L15.7535 13.5533C15.6095 13.4698 15.4417 13.4367 15.2767 13.4591C15.1117 13.4815 14.9589 13.5582 14.8423 13.677C14.1747 14.3585 13.3338 14.8447 12.4101 15.0833C12.2489 15.1247 12.106 15.2186 12.004 15.3502C11.9021 15.4818 11.8468 15.6435 11.8468 15.81V16.7497C11.8468 16.9486 11.7678 17.1394 11.6272 17.28C11.4865 17.4207 11.2958 17.4997 11.0969 17.4997C10.898 17.4997 10.7072 17.4207 10.5665 17.28C10.4259 17.1394 10.3469 16.9486 10.3469 16.7497V15.8107C10.347 15.6443 10.2917 15.4825 10.1897 15.3509C10.0877 15.2194 9.94486 15.1255 9.78363 15.084C8.85991 14.8445 8.01916 14.3572 7.35217 13.6748C7.23557 13.5559 7.08273 13.4793 6.91775 13.4569C6.75277 13.4345 6.58502 13.4676 6.44094 13.551L5.62795 14.0213C5.54263 14.0713 5.44825 14.1039 5.35025 14.1173C5.25226 14.1307 5.15258 14.1246 5.05695 14.0993C4.96133 14.0741 4.87165 14.0301 4.79308 13.97C4.71451 13.91 4.6486 13.8349 4.59915 13.7493C4.54969 13.6636 4.51767 13.569 4.50492 13.4709C4.49217 13.3729 4.49895 13.2732 4.52487 13.1778C4.55078 13.0823 4.59532 12.9929 4.65592 12.9148C4.71652 12.8366 4.79198 12.7712 4.87797 12.7223L5.69095 12.2528C5.83491 12.1697 5.9472 12.0412 6.01019 11.8874C6.07318 11.7336 6.08329 11.5632 6.03895 11.4031C5.78497 10.4828 5.78497 9.5109 6.03895 8.59062C6.0825 8.43078 6.0719 8.26102 6.00881 8.10785C5.94572 7.95467 5.83369 7.82669 5.6902 7.74388L4.87722 7.27439C4.70486 7.17494 4.57908 7.01109 4.52753 6.81889C4.47598 6.62669 4.50289 6.42189 4.60235 6.24953C4.7018 6.07718 4.86565 5.95139 5.05785 5.89984C5.25005 5.8483 5.45485 5.87521 5.6272 5.97466L6.44169 6.44566C6.58537 6.52929 6.75277 6.56281 6.91758 6.54096C7.08238 6.5191 7.23526 6.4431 7.35217 6.32491C8.01973 5.64343 8.86072 5.15719 9.78438 4.91868C9.9461 4.87711 10.0893 4.78275 10.1914 4.65056C10.2934 4.51838 10.3484 4.35592 10.3476 4.18894V3.24996C10.3476 3.05105 10.4266 2.86029 10.5673 2.71964C10.7079 2.57899 10.8987 2.49997 11.0976 2.49997C11.2965 2.49997 11.4873 2.57899 11.6279 2.71964C11.7686 2.86029 11.8476 3.05105 11.8476 3.24996V4.18894C11.8475 4.35541 11.9028 4.51717 12.0048 4.64875C12.1068 4.78032 12.2496 4.87423 12.4108 4.91568C13.3348 5.15504 14.1759 5.64233 14.843 6.32491C14.9597 6.44376 15.1125 6.52042 15.2775 6.54283C15.4425 6.56523 15.6102 6.5321 15.7543 6.44866L16.5673 5.97841C16.6526 5.92839 16.747 5.89574 16.845 5.88234C16.943 5.86894 17.0426 5.87506 17.1383 5.90034C17.2339 5.92562 17.3236 5.96957 17.4021 6.02965C17.4807 6.08973 17.5466 6.16476 17.5961 6.25041C17.6455 6.33607 17.6776 6.43066 17.6903 6.52875C17.703 6.62683 17.6963 6.72647 17.6704 6.82192C17.6444 6.91737 17.5999 7.00675 17.5393 7.08492C17.4787 7.16309 17.4032 7.2285 17.3173 7.27739L16.5043 7.74688C16.3611 7.82991 16.2493 7.95799 16.1865 8.11115C16.1237 8.26431 16.1133 8.43395 16.157 8.59362V8.59287Z" fill="#18204E"/>
</svg>
