<svg width="24" height="24" viewBox="0 0 24 24" fill="none" xmlns="http://www.w3.org/2000/svg">
<g clip-path="url(#clip0_3623_71667)">
<path d="M18 11.9958V4.99585C18 2.23885 15.757 -0.00415039 13 -0.00415039H5C2.243 -0.00415039 0 2.23885 0 4.99585V17.8498C0 18.6428 0.435 19.3688 1.134 19.7438C1.452 19.9148 1.801 19.9988 2.149 19.9988C2.565 19.9988 2.98 19.8778 3.34 19.6388L7.303 16.9958H13C15.757 16.9958 18 14.7528 18 11.9958ZM9 13.9998C8.448 13.9998 8 13.5518 8 12.9998C8 12.4478 8.448 11.9998 9 11.9998C9.552 11.9998 10 12.4478 10 12.9998C10 13.5518 9.552 13.9998 9 13.9998ZM10.447 9.62885C10 9.87485 10 9.94685 10 9.99985C10 10.5528 9.552 10.9998 9 10.9998C8.448 10.9998 8 10.5528 8 9.99985C8 8.69185 9.038 8.12085 9.481 7.87685C9.771 7.71785 10.076 7.34185 9.983 6.81085C9.914 6.41885 9.581 6.08585 9.19 6.01785C8.884 5.96185 8.588 6.03985 8.358 6.23385C8.13 6.42385 8 6.70385 8 7.00085C8 7.55385 7.552 8.00085 7 8.00085C6.448 8.00085 6 7.55385 6 7.00085C6 6.11185 6.391 5.27385 7.072 4.70185C7.753 4.12985 8.649 3.88785 9.535 4.04885C10.744 4.25985 11.739 5.25385 11.952 6.46585C12.175 7.73785 11.57 9.00885 10.446 9.62985L10.447 9.62885Z" fill="#3F45EA"/>
<path d="M24 21.8498V8.99584C24 6.55884 22.246 4.52984 19.935 4.08984C19.973 4.38784 20 4.68784 20 4.99584V11.9958C20 15.8548 16.859 18.9958 13 18.9958H7.90799L7.33899 19.3758C8.25299 20.3648 9.54999 20.9958 11 20.9958H16.697L20.661 23.6398C21.02 23.8788 21.435 23.9998 21.851 23.9998C22.199 23.9988 22.548 23.9148 22.866 23.7438C23.565 23.3688 24 22.6428 24 21.8498Z" fill="#16205B"/>
</g>
<defs>
<clipPath id="clip0_3623_71667">
<rect width="24" height="24" fill="white"/>
</clipPath>
</defs>
</svg>
