<svg width="24" height="24" viewBox="0 0 24 24" fill="none" xmlns="http://www.w3.org/2000/svg">
<path d="M19.1501 8C18.6197 8 18.111 8.21071 17.7359 8.58579C17.3609 8.96086 17.1501 9.46957 17.1501 10V18C17.1501 18.5304 17.3609 19.0392 17.7359 19.4142C18.111 19.7893 18.6197 20 19.1501 20C19.6806 20 20.1893 19.7893 20.5644 19.4142C20.9394 19.0392 21.1502 18.5304 21.1502 18V10C21.1502 9.46957 20.9394 8.96086 20.5644 8.58579C20.1893 8.21071 19.6806 8 19.1501 8Z" fill="#3F45EA"/>
<path d="M12.75 4C12.2196 4 11.7109 4.21071 11.3358 4.58579C10.9607 4.96086 10.75 5.46957 10.75 6V18C10.75 18.5305 10.9607 19.0392 11.3358 19.4142C11.7109 19.7893 12.2196 20 12.75 20C13.2804 20 13.7891 19.7893 14.1642 19.4142C14.5393 19.0392 14.75 18.5305 14.75 18V6C14.75 5.46957 14.5393 4.96086 14.1642 4.58579C13.7891 4.21071 13.2804 4 12.75 4V4Z" fill="#18204E"/>
<path d="M6.3501 12C5.81967 12 5.31096 12.2107 4.93588 12.5858C4.56081 12.9609 4.3501 13.4696 4.3501 14V18C4.3501 18.5304 4.56081 19.0392 4.93588 19.4142C5.31096 19.7893 5.81967 20 6.3501 20C6.88053 20 7.38924 19.7893 7.76432 19.4142C8.13939 19.0392 8.3501 18.5304 8.3501 18V14C8.3501 13.4696 8.13939 12.9609 7.76432 12.5858C7.38924 12.2107 6.88053 12 6.3501 12Z" fill="#18204E"/>
</svg>
