<svg width="24" height="24" viewBox="0 0 24 24" fill="none" xmlns="http://www.w3.org/2000/svg">
<path d="M18.8 10.9699V16.7601C18.7989 17.6615 18.4403 18.5257 17.8029 19.1631C17.1655 19.8004 16.3014 20.159 15.4 20.1601H8.59995C7.69855 20.159 6.83437 19.8004 6.19698 19.1631C5.55959 18.5257 5.20103 17.6615 5.19995 16.7601V7.24009C5.20103 6.33868 5.55959 5.47451 6.19698 4.83712C6.83437 4.19973 7.69855 3.84117 8.59995 3.84009L11.6702 3.84009C11.781 3.84009 11.8905 3.84893 12 3.85641V8.60009C12 9.14113 12.2149 9.66001 12.5975 10.0426C12.98 10.4252 13.4989 10.6401 14.04 10.6401H18.7836C18.7911 10.7496 18.8 10.859 18.8 10.9699ZM13.36 16.7601C13.36 16.5797 13.2883 16.4068 13.1608 16.2793C13.0333 16.1517 12.8603 16.0801 12.68 16.0801H9.27995C9.0996 16.0801 8.92664 16.1517 8.79912 16.2793C8.67159 16.4068 8.59995 16.5797 8.59995 16.7601C8.59995 16.9404 8.67159 17.1134 8.79912 17.2409C8.92664 17.3684 9.0996 17.4401 9.27995 17.4401H12.68C12.8603 17.4401 13.0333 17.3684 13.1608 17.2409C13.2883 17.1134 13.36 16.9404 13.36 16.7601ZM15.4 14.0401C15.4 13.8597 15.3283 13.6868 15.2008 13.5593C15.0733 13.4317 14.9003 13.3601 14.72 13.3601H9.27995C9.0996 13.3601 8.92664 13.4317 8.79912 13.5593C8.67159 13.6868 8.59995 13.8597 8.59995 14.0401C8.59995 14.2204 8.67159 14.3934 8.79912 14.5209C8.92664 14.6484 9.0996 14.7201 9.27995 14.7201H14.72C14.9003 14.7201 15.0733 14.6484 15.2008 14.5209C15.3283 14.3934 15.4 14.2204 15.4 14.0401Z" fill="#16205B"/>
<path d="M13.3599 4.15308V8.60028C13.3599 8.78062 13.4315 8.95358 13.559 9.08111C13.6866 9.20863 13.8595 9.28028 14.0399 9.28028H18.4871C18.2497 8.6512 17.8808 8.07999 17.4052 7.60476L15.0361 5.23428C14.5603 4.75917 13.9889 4.39062 13.3599 4.15308Z" fill="#3F45EA"/>
</svg>
