<svg width="24" height="24" viewBox="0 0 24 24" fill="none" xmlns="http://www.w3.org/2000/svg">
<path fill-rule="evenodd" clip-rule="evenodd" d="M2.83874 6C1.27097 6 3.43323e-05 7.27093 3.43323e-05 8.8387C3.43323e-05 10.3964 1.25473 11.6611 2.80863 11.6773H0V17.3547H8.25805C9.82582 17.3547 11.0968 16.0837 11.0968 14.516C11.0968 12.9582 9.84206 11.6936 8.28816 11.6774H11.0968V6H2.83874Z" fill="#3F45EA"/>
<path fill-rule="evenodd" clip-rule="evenodd" d="M14.6453 6C13.5407 6 12.6453 6.89543 12.6453 8V11.0323L12.6453 11.0323V17.3548L17.8496 14.5161H21.0001C22.657 14.5161 24.0001 13.173 24.0001 11.5161V9C24.0001 7.34315 22.657 6 21.0001 6H14.6453Z" fill="#16205B"/>
</svg>
