<svg width="24" height="24" viewBox="0 0 24 24" fill="none" xmlns="http://www.w3.org/2000/svg">
<rect x="5.15552" y="6.58447" width="7.6745" height="3.25585" fill="#F5F5FA"/>
<rect x="10" y="8" width="3" height="8" fill="#3F45EA"/>
<path d="M18 11.1713V8C17.9991 7.20462 17.6828 6.44207 17.1203 5.87965C16.5579 5.31724 15.7954 5.00088 15 5H7C6.20462 5.00088 5.44207 5.31724 4.87965 5.87965C4.31724 6.44207 4.00088 7.20462 4 8V15.3333C4.00225 15.8928 4.20545 16.4328 4.57257 16.855C4.93968 17.2772 5.44627 17.5534 6 17.6333V17.6667C6 18.1971 6.21071 18.7058 6.58579 19.0809C6.96086 19.456 7.46957 19.6667 8 19.6667C8.53043 19.6667 9.03914 19.456 9.41421 19.0809C9.78929 18.7058 10 18.1971 10 17.6667H14C14 18.1971 14.2107 18.7058 14.5858 19.0809C14.9609 19.456 15.4696 19.6667 16 19.6667C16.5304 19.6667 17.0391 19.456 17.4142 19.0809C17.7893 18.7058 18 18.1971 18 17.6667C18 17.6553 18 17.6447 18 17.6333C18.5537 17.5534 19.0603 17.2772 19.4274 16.855C19.7945 16.4328 19.9977 15.8928 20 15.3333V14C19.9993 13.3798 19.8067 12.7749 19.4486 12.2685C19.0905 11.7621 18.5845 11.3788 18 11.1713ZM6 8.33333H8V11H6V8.33333ZM10 8.33333H12V15.6667H10V8.33333ZM14 8.33333H16V11H14V8.33333ZM6 13H8V15.6667H6.33333C6.24493 15.6667 6.16014 15.6315 6.09763 15.569C6.03512 15.5065 6 15.4217 6 15.3333V13ZM18 15.3333C18 15.4217 17.9649 15.5065 17.9024 15.569C17.8399 15.6315 17.7551 15.6667 17.6667 15.6667H14V13H17C17.2652 13 17.5196 13.1054 17.7071 13.2929C17.8946 13.4804 18 13.7348 18 14V15.3333Z" fill="#18204E"/>
</svg>
