<svg width="34" height="34" viewBox="0 0 34 34" fill="none" xmlns="http://www.w3.org/2000/svg">
<path d="M1.19669 25.4999C0.868185 25.4999 0.586611 25.3749 0.351967 25.1248C0.117322 24.8748 0 24.5747 0 24.2246V23.3995C0 22.3742 0.492754 21.5553 1.47826 20.9427C2.46377 20.33 3.76605 20.0237 5.38509 20.0237C5.61974 20.0237 5.86025 20.0299 6.10662 20.0424C6.353 20.055 6.58178 20.0737 6.79296 20.0987C6.60524 20.5488 6.46446 21.0114 6.3706 21.4865C6.27674 21.9616 6.22981 22.4617 6.22981 22.9869V25.4999H1.19669ZM27.7702 25.4999V22.9869C27.7702 22.4617 27.7233 21.9616 27.6294 21.4865C27.5355 21.0114 27.3948 20.5488 27.207 20.0987C27.4182 20.0737 27.647 20.055 27.8934 20.0424C28.1397 20.0299 28.3803 20.0237 28.6149 20.0237C30.2105 20.0237 31.5069 20.33 32.5041 20.9427C33.5014 21.5553 34 22.3742 34 23.3995V24.2246C34 24.5747 33.8827 24.8748 33.648 25.1248C33.4134 25.3749 33.1318 25.4999 32.8033 25.4999H27.7702ZM5.38509 18.9359C4.68116 18.9359 4.08282 18.6734 3.59006 18.1483C3.09731 17.6232 2.85093 16.9855 2.85093 16.2353C2.85093 15.4852 3.09731 14.8475 3.59006 14.3224C4.08282 13.7973 4.68116 13.5347 5.38509 13.5347C6.08903 13.5347 6.68737 13.7973 7.18012 14.3224C7.67288 14.8475 7.91925 15.4852 7.91925 16.2353C7.91925 16.9855 7.67288 17.6232 7.18012 18.1483C6.68737 18.6734 6.08903 18.9359 5.38509 18.9359ZM28.6149 18.9359C27.911 18.9359 27.3126 18.6734 26.8199 18.1483C26.3271 17.6232 26.0807 16.9855 26.0807 16.2353C26.0807 15.4852 26.3271 14.8475 26.8199 14.3224C27.3126 13.7973 27.911 13.5347 28.6149 13.5347C29.3188 13.5347 29.9172 13.7973 30.4099 14.3224C30.9027 14.8475 31.1491 15.4852 31.1491 16.2353C31.1491 16.9855 30.9027 17.6232 30.4099 18.1483C29.9172 18.6734 29.3188 18.9359 28.6149 18.9359Z" fill="#18204E"/>
<path d="M8.79917 25.1249C9.03382 25.375 9.31539 25.5 9.64389 25.5H24.3561C24.6846 25.5 24.9662 25.375 25.2008 25.1249C25.4355 24.8748 25.5528 24.5748 25.5528 24.2247V22.9869C25.5528 21.3365 24.7667 19.9925 23.1946 18.9547C21.6225 17.917 19.5576 17.3981 17 17.3981C14.4424 17.3981 12.3775 17.917 10.8054 18.9547C9.23326 19.9925 8.4472 21.3365 8.4472 22.9869V24.2247C8.4472 24.5748 8.56453 24.8748 8.79917 25.1249Z" fill="#3F45EA"/>
<path d="M13.9379 14.9413C14.7826 15.829 15.8033 16.2729 17 16.2729C18.1967 16.2729 19.2174 15.829 20.0621 14.9413C20.9068 14.0536 21.3292 12.9596 21.3292 11.6593C21.3292 10.3841 20.9068 9.30256 20.0621 8.41486C19.2174 7.52716 18.1967 7.08331 17 7.08331C15.8033 7.08331 14.7826 7.52716 13.9379 8.41486C13.0932 9.30256 12.6708 10.3841 12.6708 11.6593C12.6708 12.9596 13.0932 14.0536 13.9379 14.9413Z" fill="#3F45EA"/>
</svg>
