<svg width="34" height="34" viewBox="0 0 34 34" fill="none" xmlns="http://www.w3.org/2000/svg">
<g clip-path="url(#clip0_3638_71574)">
<path d="M34 12.0133V28.3333C34 28.709 33.8507 29.0694 33.5851 29.335C33.3194 29.6007 32.9591 29.75 32.5833 29.75C32.2076 29.75 31.8473 29.6007 31.5816 29.335C31.3159 29.0694 31.1667 28.709 31.1667 28.3333V16.6486L20.6833 21.658C19.578 22.3104 18.3161 22.6502 17.0326 22.6411C15.6865 22.6432 14.3649 22.2815 13.2076 21.5942L2.75258 16.6175C1.93075 16.1755 1.24214 15.5217 0.758226 14.7239C0.274309 13.9261 0.0127067 13.0133 0.000564871 12.0802C-0.011577 11.1472 0.226184 10.2279 0.689176 9.41772C1.15217 8.60756 1.82352 7.93606 2.63358 7.47289C2.67183 7.45022 2.71291 7.42897 2.75258 7.40914L13.3167 2.36864C14.4572 1.71366 15.7516 1.37432 17.0667 1.38552C18.3819 1.39673 19.6703 1.75807 20.7995 2.43239L31.2474 7.40914C32.0718 7.86528 32.7608 8.53155 33.2442 9.34023C33.7277 10.1489 33.9885 11.0712 34 12.0133Z" fill="#3F45EA"/>
<path d="M11.8674 24.0946C13.4373 25.0006 15.2187 25.4756 17.0312 25.4716V25.4744C18.7799 25.4846 20.5001 25.0309 22.0164 24.1598L28.3334 21.1423V24.9545C28.3325 26.4669 27.8483 27.9393 26.9515 29.157C26.0547 30.3747 24.7921 31.2739 23.3481 31.7234C21.2853 32.3176 19.1466 32.6073 17 32.5833C14.8537 32.6092 12.7151 32.3214 10.6519 31.729C9.20794 31.2796 7.94538 30.3804 7.04854 29.1627C6.1517 27.945 5.66753 26.4725 5.66669 24.9602V21.1352L11.8674 24.0946Z" fill="#16205B"/>
</g>
<defs>
<clipPath id="clip0_3638_71574">
<rect width="34" height="34" fill="white"/>
</clipPath>
</defs>
</svg>
