<svg width="36" height="36" viewBox="0 0 36 36" fill="none" xmlns="http://www.w3.org/2000/svg">
<g clip-path="url(#clip0_3125_62610)">
<path d="M26.8125 16.7188V20.4375H23.625C22.7796 20.4375 21.9689 20.7733 21.3711 21.3711C20.7733 21.9689 20.4375 22.7796 20.4375 23.625V26.8125H9.28125C8.85856 26.8125 8.45318 26.6446 8.1543 26.3457C7.85541 26.0468 7.6875 25.6414 7.6875 25.2188V9.28125C7.6875 8.85856 7.85541 8.45318 8.1543 8.1543C8.45318 7.85541 8.85856 7.6875 9.28125 7.6875H18.8438C19.2664 7.6875 19.6718 7.51959 19.9707 7.2207C20.2696 6.92182 20.4375 6.51644 20.4375 6.09375C20.4375 5.67106 20.2696 5.26568 19.9707 4.9668C19.6718 4.66791 19.2664 4.5 18.8438 4.5H9.28125C8.01318 4.5 6.79705 5.00374 5.9004 5.9004C5.00374 6.79705 4.5 8.01318 4.5 9.28125L4.5 25.2188C4.5 26.4868 5.00374 27.7029 5.9004 28.5996C6.79705 29.4963 8.01318 30 9.28125 30H22.0142C23.2818 30 24.4975 29.4967 25.3941 28.6007L28.5996 25.3951C29.496 24.4987 29.9997 23.283 30 22.0153V16.7188C30 16.2961 29.8321 15.8907 29.5332 15.5918C29.2343 15.2929 28.8289 15.125 28.4062 15.125C27.9836 15.125 27.5782 15.2929 27.2793 15.5918C26.9804 15.8907 26.8125 16.2961 26.8125 16.7188Z" fill="#222C64"/>
<path d="M23.4051 6.40507L10.1238 19.6863C9.92454 19.8855 9.81256 20.1557 9.8125 20.4375V23.625C9.8125 23.9068 9.92444 24.1771 10.1237 24.3763C10.323 24.5756 10.5932 24.6875 10.875 24.6875H14.0625C14.3443 24.6874 14.6145 24.5755 14.8137 24.3762L27.9154 11.2745C28.3587 10.847 28.6846 10.3126 28.8618 9.72277C29.0389 9.13292 29.0613 8.50741 28.9269 7.90638C28.7764 7.3474 28.4822 6.8376 28.0734 6.42775C27.6646 6.0179 27.1556 5.72232 26.597 5.57044C26.0384 5.41857 25.4498 5.41571 24.8897 5.56215C24.3297 5.70859 23.8178 5.99921 23.4051 6.40507Z" fill="#3F45EA"/>
</g>
<defs>
<clipPath id="clip0_3125_62610">
<rect width="25.5" height="25.5" fill="white" transform="translate(4.5 4.5)"/>
</clipPath>
</defs>
</svg>
