<svg width="30" height="30" viewBox="0 0 30 30" fill="none" xmlns="http://www.w3.org/2000/svg">
<path d="M16.1196 10.5263H23.4341C23.0426 9.50855 22.4498 8.56908 21.6558 7.775L17.7637 3.87171C16.9696 3.07763 16.0301 2.48487 15.0123 2.09342V9.4079C15.0123 10.023 15.5156 10.5263 16.1308 10.5263H16.1196ZM21.4992 22.8289H17.238C15.3926 22.8289 13.8827 21.3191 13.8827 19.4737C13.8827 17.6283 15.3926 16.1184 17.238 16.1184H21.4992C21.4992 15.2572 21.8235 14.3961 22.4834 13.7474C22.8972 13.3336 23.4005 13.0428 23.9262 12.8974V12.7632H16.1196C14.2742 12.7632 12.7643 11.2533 12.7643 9.4079V1.60132C12.5854 1.59013 12.4064 1.57895 12.2163 1.57895H7.17221C4.08537 1.57895 1.58011 4.08421 1.58011 7.17105V22.8289C1.58011 25.9158 4.08537 28.4211 7.17221 28.4211H18.3564C20.3808 28.4211 22.1591 27.3362 23.1433 25.7145C22.9084 25.5691 22.6847 25.4013 22.4834 25.2C21.8347 24.5513 21.4992 23.6901 21.4992 22.8289Z" fill="#16205B"/>
<path d="M27.4378 21.8221L27.4379 21.8219C28.7239 20.5246 28.7239 18.422 27.4378 17.1359L25.6371 15.3352C25.2009 14.899 24.4963 14.899 24.0601 15.3352C23.6239 15.7714 23.6239 16.476 24.0601 16.9122L25.5029 18.3549H17.2266C16.6114 18.3549 16.1082 18.8582 16.1082 19.4734C16.1082 20.0885 16.6114 20.5918 17.2266 20.5918H25.5029L24.0601 22.0346C23.6239 22.4707 23.6239 23.1753 24.0601 23.6115C24.2838 23.824 24.5634 23.9359 24.8542 23.9359C25.145 23.9359 25.4246 23.8352 25.6483 23.6115L27.4378 21.8221Z" fill="#3F45EA"/>
</svg>
