<svg width="34" height="34" viewBox="0 0 34 34" fill="none" xmlns="http://www.w3.org/2000/svg">
<path d="M10.3415 17.3794C11.0334 17.8418 11.8469 18.0885 12.6791 18.0885C13.7946 18.0873 14.864 17.6436 15.6528 16.8548C16.4416 16.066 16.8853 14.9966 16.8865 13.8811C16.8865 13.0489 16.6397 12.2355 16.1774 11.5435C15.7151 10.8516 15.058 10.3124 14.2892 9.99391C13.5204 9.67546 12.6744 9.59214 11.8582 9.75448C11.0421 9.91683 10.2924 10.3175 9.70395 10.906C9.11553 11.4944 8.71481 12.2441 8.55246 13.0602C8.39012 13.8764 8.47344 14.7224 8.79189 15.4912C9.11034 16.26 9.64962 16.9171 10.3415 17.3794Z" fill="#18204E"/>
<path d="M6.60164 28.3734H18.7565C19.0044 28.3734 19.2423 28.2749 19.4176 28.0995C19.593 27.9242 19.6915 27.6864 19.6915 27.4384V26.9709C19.6915 25.1111 18.9527 23.3275 17.6376 22.0124C16.3225 20.6973 14.5389 19.9585 12.6791 19.9585C10.8193 19.9585 9.03562 20.6973 7.72054 22.0124C6.40546 23.3275 5.66666 25.1111 5.66666 26.9709V27.4384C5.66666 27.6864 5.76516 27.9242 5.94051 28.0995C6.11585 28.2749 6.35367 28.3734 6.60164 28.3734Z" fill="#18204E"/>
<path d="M22.2559 14.0816C21.4238 14.0816 20.6103 13.8348 19.9184 13.3725C19.2265 12.9102 18.6872 12.253 18.3687 11.4842C18.0503 10.7154 17.967 9.86944 18.1293 9.05328C18.2917 8.23712 18.6924 7.48742 19.2808 6.899C19.8692 6.31058 20.6189 5.90986 21.4351 5.74751C22.2512 5.58517 23.0972 5.66849 23.866 5.98694C24.6348 6.30539 25.292 6.84467 25.7543 7.53658C26.2166 8.22849 26.4634 9.04196 26.4634 9.87411C26.4621 10.9896 26.0184 12.0591 25.2297 12.8479C24.4409 13.6366 23.3714 14.0803 22.2559 14.0816ZM20.9273 15.9712C20.0565 16.088 19.2192 16.3834 18.4678 16.8389C17.7165 17.2943 17.0673 17.9001 16.5609 18.6181C18.6561 19.5696 20.3024 21.2942 21.1554 23.4314H27.3983C27.6463 23.4314 27.8841 23.3329 28.0595 23.1576C28.2348 22.9822 28.3333 22.7444 28.3333 22.4964V22.4609C28.3324 21.5289 28.1326 20.6079 27.7473 19.7592C27.3621 18.9106 26.8002 18.1539 26.0993 17.5397C25.3983 16.9254 24.5744 16.4678 23.6825 16.1973C22.7907 15.9268 21.8513 15.8497 20.9273 15.9712Z" fill="#3F45EA"/>
</svg>
