<svg width="35" height="35" viewBox="0 0 35 35" fill="none" xmlns="http://www.w3.org/2000/svg">
<path d="M17.5002 29.3125C16.7467 29.3125 16.1087 29.0512 15.5861 28.5286C15.0635 28.0061 14.8022 27.3681 14.8022 26.6146V8.38542C14.8022 7.63194 15.0696 6.99392 15.6043 6.47135C16.1391 5.94878 16.771 5.6875 17.5002 5.6875C18.2536 5.6875 18.8917 5.94878 19.4142 6.47135C19.9368 6.99392 20.1981 7.63194 20.1981 8.38542V26.6146C20.1981 27.3681 19.9307 28.0061 19.396 28.5286C18.8613 29.0512 18.2293 29.3125 17.5002 29.3125ZM26.6147 29.3125C25.8613 29.3125 25.2233 29.0512 24.7007 28.5286C24.1781 28.0061 23.9168 27.3681 23.9168 26.6146V21.5104C23.9168 20.7569 24.1842 20.1189 24.7189 19.5964C25.2536 19.0738 25.8856 18.8125 26.6147 18.8125C27.3682 18.8125 28.0062 19.0738 28.5288 19.5964C29.0514 20.1189 29.3127 20.7569 29.3127 21.5104V26.6146C29.3127 27.3681 29.0453 28.0061 28.5106 28.5286C27.9759 29.0512 27.3439 29.3125 26.6147 29.3125Z" fill="#3F45EA"/>
<path d="M6.47135 28.5286C6.99392 29.0512 7.63194 29.3125 8.38542 29.3125C9.11458 29.3125 9.74653 29.0512 10.2813 28.5286C10.816 28.0061 11.0833 27.368 11.0833 26.6146V15.6771C11.0833 14.9236 10.822 14.2856 10.2995 13.763C9.77691 13.2404 9.13889 12.9792 8.38542 12.9792C7.65625 12.9792 7.02431 13.2404 6.48958 13.763C5.95486 14.2856 5.6875 14.9236 5.6875 15.6771V26.6146C5.6875 27.368 5.94878 28.0061 6.47135 28.5286Z" fill="#222C64"/>
</svg>
