<svg width="35" height="35" viewBox="0 0 35 35" fill="none" xmlns="http://www.w3.org/2000/svg">
<path d="M16.0416 16.0417C14.4374 16.0417 13.0642 15.4705 11.9218 14.3281C10.7794 13.1858 10.2083 11.8125 10.2083 10.2083C10.2083 8.60417 10.7794 7.2309 11.9218 6.08854C13.0642 4.94618 14.4374 4.375 16.0416 4.375C17.6458 4.375 19.019 4.94618 20.1614 6.08854C21.3037 7.2309 21.8749 8.60417 21.8749 10.2083C21.8749 11.8125 21.3037 13.1858 20.1614 14.3281C19.019 15.4705 17.6458 16.0417 16.0416 16.0417Z" fill="#3F45EA"/>
<path fill-rule="evenodd" clip-rule="evenodd" d="M5.83333 27.7083C5.42014 27.7083 5.07403 27.5683 4.795 27.2883C4.515 27.0093 4.375 26.6632 4.375 26.25V23.625C4.375 22.7986 4.58792 22.0388 5.01375 21.3456C5.43861 20.6534 6.00347 20.125 6.70833 19.7604C8.21528 19.0069 9.74653 18.4416 11.3021 18.0644C12.8576 17.6881 14.4375 17.5 16.0417 17.5C17.6458 17.5 19.2257 17.6881 20.7812 18.0644C22.3368 18.4416 23.8681 19.0069 25.375 19.7604C25.9908 20.0789 26.4997 20.5225 26.9018 21.091L25.7495 22.2433L24.409 20.9028C23.9346 20.4284 23.3345 20.1655 22.6549 20.1655C21.9757 20.1655 21.3765 20.4292 20.9029 20.9028C20.4293 21.3764 20.1656 21.9756 20.1656 22.6548C20.1656 23.3344 20.4286 23.9345 20.9029 24.4089L22.2435 25.7494L20.9029 27.09C20.7155 27.2774 20.561 27.4844 20.4426 27.7083H5.83333ZM27.4107 22.0258C27.6091 22.5278 27.7083 23.0609 27.7083 23.625V26.25C27.7083 26.6632 27.5683 27.0093 27.2883 27.2883C27.0093 27.5683 26.6632 27.7083 26.25 27.7083H21.7282L23.6871 25.7494L21.6247 23.687C21.3326 23.3948 21.1865 23.0508 21.1865 22.6548C21.1865 22.2602 21.3326 21.9168 21.6247 21.6246C21.9169 21.3324 22.2603 21.1864 22.6549 21.1864C23.0509 21.1864 23.395 21.3324 23.6871 21.6246L25.7495 23.687L27.4107 22.0258Z" fill="#3F45EA"/>
<path d="M28.8432 30.3114C29.2385 30.3121 29.5822 30.1664 29.8744 29.8742C30.1665 29.582 30.3123 29.2383 30.3116 28.843C30.3123 28.4477 30.1665 28.104 29.8744 27.8118L27.812 25.7494L29.8744 23.687C30.1665 23.3949 30.3123 23.0511 30.3116 22.6558C30.3123 22.2605 30.1665 21.9168 29.8744 21.6246C29.5822 21.3325 29.2381 21.1864 28.8421 21.1864C28.4475 21.1864 28.1041 21.3325 27.812 21.6246L25.7496 23.687L23.6872 21.6246C23.395 21.3325 23.0509 21.1864 22.655 21.1864C22.2604 21.1864 21.917 21.3325 21.6248 21.6246C21.3326 21.9168 21.1865 22.2602 21.1865 22.6548C21.1865 23.0508 21.3326 23.3949 21.6248 23.687L23.6872 25.7494L21.6248 27.8118C21.3326 28.104 21.1865 28.4474 21.1865 28.842C21.1865 29.238 21.3326 29.582 21.6248 29.8742C21.917 30.1664 22.2607 30.3121 22.656 30.3114C23.0513 30.3121 23.395 30.1664 23.6872 29.8742L25.7496 27.8118L27.812 29.8742C28.1041 30.1664 28.4479 30.3121 28.8432 30.3114Z" fill="#16205B"/>
</svg>
