<svg width="33" height="33" viewBox="0 0 33 33" fill="none" xmlns="http://www.w3.org/2000/svg">
<mask id="mask0_3673_73050" style="mask-type:alpha" maskUnits="userSpaceOnUse" x="0" y="0" width="33" height="33">
<rect width="33" height="33" fill="#16205B"/>
</mask>
<g mask="url(#mask0_3673_73050)">
<path d="M16.5 16.5C14.9875 16.5 13.6927 15.9615 12.6156 14.8844C11.5385 13.8073 11 12.5125 11 11C11 9.4875 11.5385 8.19271 12.6156 7.11563C13.6927 6.03854 14.9875 5.5 16.5 5.5C18.0125 5.5 19.3073 6.03854 20.3844 7.11563C21.4615 8.19271 22 9.4875 22 11C22 12.5125 21.4615 13.8073 20.3844 14.8844C19.3073 15.9615 18.0125 16.5 16.5 16.5ZM6.875 27.5C6.48542 27.5 6.15908 27.368 5.896 27.104C5.632 26.8409 5.5 26.5146 5.5 26.125V23.65C5.5 22.8708 5.70075 22.1545 6.10225 21.5009C6.50283 20.8482 7.03542 20.35 7.7 20.0063C9.12083 19.2958 10.5646 18.7628 12.0312 18.4071C13.4979 18.0524 14.9875 17.875 16.5 17.875C18.0125 17.875 19.5021 18.0524 20.9688 18.4071C22.4354 18.7628 23.8792 19.2958 25.3 20.0063C25.9646 20.35 26.4972 20.8482 26.8978 21.5009C27.2992 22.1545 27.5 22.8708 27.5 23.65V26.125C27.5 26.5146 27.368 26.8409 27.104 27.104C26.8409 27.368 26.5146 27.5 26.125 27.5H6.875Z" fill="#3F45EA"/>
</g>
</svg>
