<svg width="33" height="33" viewBox="0 0 33 33" fill="none" xmlns="http://www.w3.org/2000/svg">
<path d="M16.3281 28.1875C16.4427 28.1875 16.5744 28.1589 16.7234 28.1016C16.8723 28.0443 16.9927 27.9698 17.0843 27.8781L28.6343 16.2938C28.9322 15.9729 29.1614 15.612 29.3218 15.2109C29.4822 14.8099 29.5625 14.4031 29.5625 13.9906C29.5625 13.5781 29.4822 13.1656 29.3218 12.7531C29.1614 12.3406 28.9322 11.974 28.6343 11.6531L22.6875 5.70625C22.3666 5.40833 22.0114 5.1849 21.6218 5.03594C21.2322 4.88698 20.8312 4.8125 20.4187 4.8125C20.0291 4.8125 19.6395 4.88698 19.25 5.03594C18.8604 5.1849 18.5166 5.39687 18.2187 5.67188L17.6687 6.25625L20.4187 9.00625C20.7166 9.35 20.9916 9.74531 21.2437 10.1922C21.4958 10.6391 21.6218 11.1375 21.6218 11.6875C21.6218 12.6042 21.2609 13.412 20.539 14.1109C19.8171 14.8099 18.9979 15.1594 18.0812 15.1594C17.4854 15.1594 16.9869 15.0677 16.5859 14.8844C16.1848 14.701 15.8125 14.4375 15.4687 14.0938L12.9593 11.6187L6.87495 17.6688C6.76037 17.7833 6.68016 17.9036 6.63433 18.0297C6.58849 18.1557 6.56558 18.299 6.56558 18.4594C6.56558 18.7344 6.66297 18.9693 6.85776 19.1641C7.05256 19.3589 7.29891 19.4562 7.59683 19.4562C7.73433 19.4562 7.8661 19.4219 7.99214 19.3531C8.11818 19.2844 8.22704 19.2042 8.3187 19.1125L12.9937 14.4375L14.4375 15.8813L9.79683 20.5219C9.68224 20.6365 9.60203 20.7625 9.5562 20.9C9.51037 21.0375 9.48745 21.175 9.48745 21.3125C9.48745 21.5875 9.59058 21.8281 9.79683 22.0344C10.0031 22.2406 10.2437 22.3438 10.5187 22.3438C10.6562 22.3438 10.788 22.3151 10.914 22.2578C11.0401 22.2005 11.1489 22.126 11.2406 22.0344L15.9156 17.3937L17.3593 18.8375L12.7187 23.4437C12.627 23.5354 12.5526 23.6557 12.4953 23.8047C12.438 23.9536 12.4093 24.0969 12.4093 24.2344C12.4093 24.5094 12.5125 24.75 12.7187 24.9562C12.925 25.1625 13.1656 25.2656 13.4406 25.2656C13.5781 25.2656 13.7041 25.2427 13.8187 25.1969C13.9333 25.151 14.0479 25.0708 14.1625 24.9562L18.8031 20.2812L20.2468 21.725L15.6062 26.4C15.4916 26.5146 15.4114 26.6406 15.3656 26.7781C15.3197 26.9156 15.2968 27.0417 15.2968 27.1562C15.2968 27.4771 15.3885 27.7292 15.5718 27.9125C15.7552 28.0958 16.0072 28.1875 16.3281 28.1875ZM16.3281 30.4562C15.5489 30.4562 14.8442 30.1698 14.214 29.5969C13.5838 29.024 13.2 28.3135 13.0625 27.4656C12.3062 27.351 11.6645 27.0302 11.1375 26.5031C10.6104 25.976 10.2781 25.3344 10.1406 24.5781C9.38433 24.4406 8.74839 24.1026 8.23276 23.5641C7.71714 23.0255 7.40203 22.3896 7.28745 21.6562C6.41662 21.5187 5.7062 21.1464 5.1562 20.5391C4.6062 19.9318 4.3312 19.2156 4.3312 18.3906C4.3312 17.9781 4.41141 17.5656 4.57183 17.1531C4.73224 16.7406 4.96141 16.3854 5.25933 16.0875L12.9593 8.3875L16.8781 12.2719C17.0614 12.4552 17.2619 12.5984 17.4796 12.7016C17.6973 12.8047 17.9093 12.8563 18.1156 12.8563C18.4135 12.8563 18.6942 12.7245 18.9578 12.4609C19.2213 12.1974 19.3531 11.9167 19.3531 11.6187C19.3531 11.4812 19.3072 11.3266 19.2156 11.1547C19.1239 10.9828 18.9979 10.8052 18.8375 10.6219L13.8875 5.70625C13.5895 5.40833 13.2401 5.1849 12.839 5.03594C12.438 4.88698 12.0312 4.8125 11.6187 4.8125C11.2062 4.8125 10.8109 4.88698 10.4328 5.03594C10.0546 5.1849 9.71662 5.39687 9.4187 5.67188L4.29683 10.8281C3.97599 11.126 3.75828 11.4583 3.6437 11.825C3.52912 12.1917 3.46037 12.6042 3.43745 13.0625C3.41453 13.475 3.50047 13.8818 3.69526 14.2828C3.89006 14.6839 4.11349 15.0562 4.36558 15.4L2.74995 16.9813C2.29162 16.5229 1.91922 15.9328 1.63276 15.2109C1.34631 14.4891 1.19162 13.75 1.1687 12.9937C1.1687 12.2604 1.30047 11.5729 1.56401 10.9312C1.82756 10.2896 2.21141 9.71667 2.71558 9.2125L7.80308 4.09062C8.33016 3.58646 8.93172 3.20833 9.60776 2.95625C10.2838 2.70417 10.9656 2.57812 11.6531 2.57812C12.3635 2.57812 13.051 2.70417 13.7156 2.95625C14.3802 3.20833 14.9645 3.58646 15.4687 4.09062L16.0531 4.64062L16.6031 4.09062C17.1072 3.58646 17.6973 3.20833 18.3734 2.95625C19.0494 2.70417 19.7427 2.57812 20.4531 2.57812C21.1635 2.57812 21.851 2.7099 22.5156 2.97344C23.1802 3.23698 23.7645 3.62083 24.2687 4.125L30.25 10.1062C30.777 10.6333 31.1723 11.2406 31.4359 11.9281C31.6994 12.6156 31.8312 13.3031 31.8312 13.9906C31.8312 14.701 31.6937 15.4 31.4187 16.0875C31.1437 16.775 30.7427 17.3823 30.2156 17.9094L18.6656 29.4594C18.3447 29.7802 17.9838 30.0266 17.5828 30.1984C17.1817 30.3703 16.7635 30.4562 16.3281 30.4562Z" fill="#3F45EA"/>
</svg>
