<svg width="29" height="23" viewBox="0 0 29 23" fill="none" xmlns="http://www.w3.org/2000/svg">
<path d="M11.6429 11.1256C10.0238 11.1256 8.69048 10.6085 7.64286 9.57442C6.59524 8.54031 6.07143 7.2031 6.07143 5.56279C6.07143 3.92248 6.59524 2.58527 7.64286 1.55116C8.69048 0.517054 10.0238 0 11.6429 0C13.2857 0 14.631 0.517054 15.6786 1.55116C16.7262 2.58527 17.25 3.92248 17.25 5.56279C17.25 7.2031 16.7262 8.54031 15.6786 9.57442C14.631 10.6085 13.2857 11.1256 11.6429 11.1256ZM1.21429 23C0.880952 23 0.595238 22.8811 0.357143 22.6434C0.119048 22.4057 0 22.1204 0 21.7876V19.4698C0 18.5902 0.214286 17.7938 0.642857 17.0806C1.07143 16.3674 1.70238 15.8207 2.53571 15.4403C4.15476 14.7271 5.70833 14.1922 7.19643 13.8357C8.68452 13.4791 10.1786 13.3008 11.6786 13.3008C12.25 13.3008 12.8155 13.3245 13.375 13.3721C13.9345 13.4196 14.3571 13.4791 14.6429 13.5504V14.9767C14.4286 15.0956 14.25 15.2145 14.1071 15.3333C13.9643 15.4522 13.8214 15.6067 13.6786 15.7969C13.3929 15.7731 13.0833 15.7553 12.75 15.7434C12.4167 15.7315 12.0476 15.7256 11.6429 15.7256C10.3095 15.7256 9.00595 15.8623 7.73214 16.1357C6.45833 16.409 5.08333 16.9023 3.60714 17.6155C3.27381 17.7819 3 18.0434 2.78571 18.4C2.57143 18.7566 2.46429 19.1132 2.46429 19.4698V20.5752H12.8214V23H1.21429ZM11.6429 8.70078C12.5476 8.70078 13.2976 8.40362 13.8929 7.8093C14.4881 7.21499 14.7857 6.46615 14.7857 5.56279C14.7857 4.65943 14.494 3.91059 13.9107 3.31628C13.3274 2.72196 12.5714 2.42481 11.6429 2.42481C10.7381 2.42481 9.99405 2.72196 9.41071 3.31628C8.82738 3.91059 8.53571 4.65943 8.53571 5.56279C8.53571 6.46615 8.82738 7.21499 9.41071 7.8093C9.99405 8.40362 10.7381 8.70078 11.6429 8.70078Z" fill="#3F45EA"/>
<path d="M19.3304 14.1041C19.992 14.7682 20.8104 15.1003 21.7854 15.1003C22.7373 15.1003 23.544 14.7682 24.2057 14.1041C24.8673 13.44 25.1982 12.6185 25.1982 11.6398C25.1982 10.6844 24.8673 9.87463 24.2057 9.2105C23.544 8.54636 22.7373 8.21429 21.7854 8.21429C20.8104 8.21429 19.992 8.54636 19.3304 9.2105C18.6687 9.87463 18.3379 10.6844 18.3379 11.6398C18.3379 12.6185 18.6687 13.44 19.3304 14.1041Z" fill="#222C64"/>
<path d="M15.1341 22.6505C15.3663 22.8835 15.6565 23 16.0047 23H27.5662C27.8912 23 28.1698 22.8835 28.4019 22.6505C28.6341 22.4174 28.7502 22.1378 28.7502 21.8116V21.0775C28.7502 20.4483 28.6109 19.9007 28.3323 19.4347C28.0537 18.9686 27.6706 18.6191 27.1831 18.386C26.3241 17.92 25.4477 17.5879 24.5539 17.3898C23.6601 17.1918 22.7373 17.0927 21.7854 17.0927C20.8104 17.0927 19.8759 17.1976 18.9821 17.4073C18.0883 17.617 17.2119 17.9433 16.353 18.386C15.8654 18.6424 15.4824 18.9977 15.2038 19.4521C14.9252 19.9065 14.7859 20.4483 14.7859 21.0775V21.8116C14.7859 22.1378 14.902 22.4174 15.1341 22.6505Z" fill="#222C64"/>
</svg>
