<svg width="35" height="35" viewBox="0 0 35 35" fill="none" xmlns="http://www.w3.org/2000/svg">
<path d="M17.5 29.3125C16.7466 29.3125 16.1085 29.0512 15.586 28.5286C15.0634 28.0061 14.8021 27.3681 14.8021 26.6146V8.38542C14.8021 7.63194 15.0695 6.99392 15.6042 6.47135C16.1389 5.94878 16.7709 5.6875 17.5 5.6875C18.2535 5.6875 18.8915 5.94878 19.4141 6.47135C19.9367 6.99392 20.198 7.63194 20.198 8.38542V26.6146C20.198 27.3681 19.9306 28.0061 19.3959 28.5286C18.8612 29.0512 18.2292 29.3125 17.5 29.3125ZM26.6146 29.3125C25.8612 29.3125 25.2231 29.0512 24.7006 28.5286C24.178 28.0061 23.9167 27.3681 23.9167 26.6146V21.5104C23.9167 20.7569 24.1841 20.1189 24.7188 19.5964C25.2535 19.0738 25.8855 18.8125 26.6146 18.8125C27.3681 18.8125 28.0061 19.0738 28.5287 19.5964C29.0513 20.1189 29.3125 20.7569 29.3125 21.5104V26.6146C29.3125 27.3681 29.0452 28.0061 28.5105 28.5286C27.9757 29.0512 27.3438 29.3125 26.6146 29.3125Z" fill="#3F45EA"/>
<path d="M6.47135 28.5286C6.99392 29.0512 7.63194 29.3125 8.38542 29.3125C9.11458 29.3125 9.74653 29.0512 10.2813 28.5286C10.816 28.0061 11.0833 27.368 11.0833 26.6146V15.6771C11.0833 14.9236 10.822 14.2856 10.2995 13.763C9.77691 13.2404 9.13889 12.9792 8.38542 12.9792C7.65625 12.9792 7.02431 13.2404 6.48958 13.763C5.95486 14.2856 5.6875 14.9236 5.6875 15.6771V26.6146C5.6875 27.368 5.94878 28.0061 6.47135 28.5286Z" fill="#222C64"/>
</svg>
