<svg width="24" height="24" viewBox="0 0 24 24" fill="none" xmlns="http://www.w3.org/2000/svg">
<path d="M21 10H18C16.8954 10 16 10.8955 16 12C16 13.1046 15.1045 14 14 14H9.99998C8.89542 14 7.99997 13.1046 7.99997 12C7.99997 10.8955 7.10456 10 6 10H3C1.34316 10 0 11.3432 0 13V17C0.00332812 19.76 2.23997 21.9967 5.00002 22H19C21.76 21.9967 23.9967 19.7601 24 17V13C24 11.3432 22.6568 10 21 10Z" fill="#16205B"/>
<path d="M2.99998 7.99997H21C21.5523 7.99997 22 7.55227 22 6.99998C22 6.4477 21.5523 6 21 6H2.99998C2.4477 6 2 6.4477 2 6.99998C2 7.55222 2.4477 7.99997 2.99998 7.99997Z" fill="#3F45EA"/>
<path d="M2.99998 3.99997H21C21.5523 3.99997 22 3.55227 22 2.99998C22 2.4477 21.5523 2 21 2H2.99998C2.4477 2 2 2.4477 2 2.99998C2 3.55227 2.4477 3.99997 2.99998 3.99997Z" fill="#3F45EA"/>
</svg>
