<svg width="29" height="20" viewBox="0 0 29 20" fill="none" xmlns="http://www.w3.org/2000/svg">
<path d="M14.5045 9.51938C15.045 8.81654 15.4505 8.09819 15.7207 7.36434C15.991 6.63049 16.1261 5.78811 16.1261 4.83721C16.1261 3.86563 15.991 3.01292 15.7207 2.27907C15.4505 1.54522 15.035 0.837209 14.4745 0.155039C16.0561 -0.155039 17.4274 0.118863 18.5886 0.976744C19.7498 1.83463 20.3303 3.12145 20.3303 4.83721C20.3303 6.55297 19.7498 7.84496 18.5886 8.71318C17.4274 9.5814 16.0661 9.85013 14.5045 9.51938ZM20.3604 20C20.5606 19.938 20.7307 19.8088 20.8709 19.6124C21.011 19.416 21.0811 19.1731 21.0811 18.8837V16.9302C21.0811 15.814 20.8208 14.7959 20.3003 13.876C19.7798 12.9561 18.8689 12.1654 17.5676 11.5039C21.0911 11.938 23.4885 12.615 24.7598 13.5349C26.031 14.4548 26.6667 15.5866 26.6667 16.9302V18.9457C26.6667 19.2558 26.5716 19.509 26.3814 19.7054C26.1912 19.9018 25.9459 20 25.6456 20H20.3604ZM9.63964 9.67442C8.25826 9.67442 7.13213 9.22481 6.26126 8.32558C5.39039 7.42636 4.95496 6.26357 4.95496 4.83721C4.95496 3.41085 5.39039 2.24806 6.26126 1.34884C7.13213 0.449612 8.25826 0 9.63964 0C11.001 0 12.1221 0.449612 13.003 1.34884C13.8839 2.24806 14.3243 3.41085 14.3243 4.83721C14.3243 6.26357 13.8839 7.42636 13.003 8.32558C12.1221 9.22481 11.001 9.67442 9.63964 9.67442ZM1.02102 20C0.720721 20 0.475476 19.8966 0.285285 19.6899C0.0950951 19.4832 0 19.2351 0 18.9457V16.8992C0 16.1344 0.19019 15.4419 0.570571 14.8217C0.950951 14.2015 1.47147 13.7364 2.13213 13.4264C3.57357 12.7649 4.86987 12.2894 6.02102 12C7.17217 11.7106 8.37838 11.5659 9.63964 11.5659C10.9009 11.5659 12.0971 11.7106 13.2282 12C14.3594 12.2894 15.6456 12.7649 17.0871 13.4264C17.7477 13.7364 18.2783 14.2015 18.6787 14.8217C19.0791 15.4419 19.2793 16.1344 19.2793 16.8992V18.9457C19.2793 19.2351 19.1792 19.4832 18.979 19.6899C18.7788 19.8966 18.5285 20 18.2282 20H1.02102ZM9.63964 7.56589C10.4004 7.56589 11.026 7.30749 11.5165 6.7907C12.007 6.2739 12.2523 5.62274 12.2523 4.83721C12.2523 4.05168 12.007 3.40052 11.5165 2.88372C11.026 2.36693 10.4004 2.10853 9.63964 2.10853C8.87888 2.10853 8.24825 2.36693 7.74775 2.88372C7.24725 3.40052 6.997 4.05168 6.997 4.83721C6.997 5.62274 7.24224 6.2739 7.73273 6.7907C8.22322 7.30749 8.85886 7.56589 9.63964 7.56589ZM2.04204 17.8915H17.2072V16.9302C17.2072 16.5995 17.1271 16.2894 16.967 16C16.8068 15.7106 16.5566 15.4832 16.2162 15.3178C14.8549 14.677 13.7037 14.2429 12.7628 14.0155C11.8218 13.7881 10.7808 13.6744 9.63964 13.6744C8.4985 13.6744 7.45245 13.7881 6.5015 14.0155C5.55055 14.2429 4.38438 14.677 3.003 15.3178C2.7027 15.4625 2.46747 15.6848 2.2973 15.9845C2.12713 16.2842 2.04204 16.5995 2.04204 16.9302V17.8915Z" fill="#3F45EA"/>
<path d="M24.1489 10.1971C24.3143 10.3832 24.5235 10.4762 24.7765 10.4762C25.01 10.4762 25.2144 10.3832 25.3895 10.1971C25.5647 10.011 25.6523 9.78656 25.6523 9.52383V7.19214H27.6957C27.9487 7.19214 28.1579 7.09909 28.3233 6.913C28.4887 6.7269 28.5714 6.49154 28.5714 6.20692C28.5714 5.9223 28.4887 5.68694 28.3233 5.50084C28.1579 5.31475 27.9487 5.2217 27.6957 5.2217H25.6523V2.89001C25.6523 2.62728 25.5696 2.3974 25.4041 2.20035C25.2387 2.00331 25.0295 1.90479 24.7765 1.90479C24.5235 1.90479 24.3143 2.00331 24.1489 2.20035C23.9835 2.3974 23.9008 2.62728 23.9008 2.89001V5.2217H21.8281C21.5752 5.2217 21.3659 5.31475 21.2005 5.50084C21.0351 5.68694 20.9524 5.9223 20.9524 6.20692C20.9524 6.49154 21.0351 6.7269 21.2005 6.913C21.3659 7.09909 21.5752 7.19214 21.8281 7.19214H23.9008V9.52383C23.9008 9.78656 23.9835 10.011 24.1489 10.1971Z" fill="#222C64"/>
</svg>
