<svg width="29" height="29" viewBox="0 0 29 29" fill="none" xmlns="http://www.w3.org/2000/svg">
<g clip-path="url(#clip0_3673_73070)">
<path d="M29 24.1667V7.24999C28.9969 6.50292 28.7631 5.77506 28.3305 5.16598C27.8979 4.55689 27.2877 4.09634 26.5833 3.84732V14.8178L14.5 18.27L2.41667 14.8178V3.84732C1.71232 4.09634 1.10211 4.55689 0.669523 5.16598C0.236935 5.77506 0.00309692 6.50292 0 7.24999L0 24.1667H13.2917V26.5833H8.45833V29H20.5417V26.5833H15.7083V24.1667H29Z" fill="#16205B"/>
<path d="M4.83337 12.9944L14.5 15.7567L24.1667 12.9932V3.62502C24.1684 3.06421 24.039 2.51076 23.7887 2.0089C23.5384 1.50704 23.1742 1.07068 22.7252 0.734684C22.2925 0.401275 21.7886 0.172394 21.2528 0.0659134C20.7171 -0.0405674 20.164 -0.0217656 19.6367 0.120851L18.3377 0.385476C17.5825 0.604276 16.9183 1.06156 16.4444 1.689C15.9704 2.31645 15.7123 3.08039 15.7084 3.86668V12.8929L14.5 13.2385L13.2917 12.8929V3.86668C13.2839 3.06554 13.0136 2.28906 12.5223 1.65616C12.0311 1.02327 11.3459 0.568852 10.5717 0.362517L9.45404 0.140184C8.91462 -0.0139043 8.34679 -0.0406909 7.79525 0.0619326C7.24372 0.164556 6.72353 0.393789 6.27563 0.731588C5.82773 1.06939 5.46435 1.50653 5.21408 2.00862C4.96381 2.5107 4.83349 3.06402 4.83337 3.62502V12.9944Z" fill="#3F45EA"/>
</g>
<defs>
<clipPath id="clip0_3673_73070">
<rect width="29" height="29" fill="white"/>
</clipPath>
</defs>
</svg>
