<svg width="30" height="30" viewBox="0 0 30 30" fill="none" xmlns="http://www.w3.org/2000/svg">
<g clip-path="url(#clip0_3737_73869)">
<path d="M6.17177 10.1562C5.66884 10.1577 5.17062 10.0593 4.70595 9.86687C4.24129 9.67443 3.81941 9.39174 3.46474 9.03516L1.79677 7.55312C1.47188 7.26304 1.27553 6.85578 1.25092 6.42093C1.23873 6.20562 1.26907 5.99001 1.34021 5.78642C1.41135 5.58283 1.52189 5.39524 1.66552 5.23437C1.80916 5.07351 1.98307 4.9425 2.17733 4.84884C2.37159 4.75519 2.5824 4.70071 2.79771 4.68852C3.23256 4.66391 3.65938 4.81304 3.98427 5.10313L5.71677 6.64969C5.77318 6.71635 5.84266 6.77074 5.92092 6.80949C5.99918 6.84825 6.08456 6.87054 6.17177 6.875C6.31653 6.87497 6.45538 6.81754 6.55787 6.71531L10.5096 2.95281C10.8269 2.6657 11.2438 2.51392 11.6714 2.52983C12.099 2.54575 12.5035 2.72811 12.7986 3.03802C13.0936 3.34793 13.256 3.76086 13.2509 4.18875C13.2458 4.61663 13.0738 5.0256 12.7715 5.32844L8.84927 9.0625C8.49687 9.41198 8.07897 9.68849 7.61951 9.87617C7.16005 10.0639 6.66808 10.159 6.17177 10.1562ZM8.84927 17.8125L12.7715 14.0784C13.0738 13.7756 13.2458 13.3666 13.2509 12.9387C13.256 12.5109 13.0936 12.0979 12.7986 11.788C12.5035 11.4781 12.099 11.2958 11.6714 11.2798C11.2438 11.2639 10.8269 11.4157 10.5096 11.7028L6.55787 15.4653C6.45531 15.5678 6.31624 15.6254 6.17123 15.6254C6.02621 15.6254 5.88714 15.5678 5.78458 15.4653L4.05099 13.7306C3.74322 13.4228 3.32578 13.2499 2.89052 13.2499C2.45526 13.2499 2.03783 13.4228 1.73005 13.7306C1.42228 14.0384 1.24937 14.4558 1.24937 14.8911C1.24937 15.3264 1.42228 15.7438 1.73005 16.0516L3.46474 17.7852C4.17782 18.4978 5.14325 18.9004 6.15139 18.9055C7.15953 18.9106 8.12899 18.5179 8.84927 17.8125ZM8.84927 26.5625L12.7715 22.8284C13.0738 22.5256 13.2458 22.1166 13.2509 21.6887C13.256 21.2609 13.0936 20.8479 12.7986 20.538C12.5035 20.2281 12.099 20.0458 11.6714 20.0298C11.2438 20.0139 10.8269 20.1657 10.5096 20.4528L6.55787 24.2153C6.45538 24.3175 6.31653 24.375 6.17177 24.375C6.08456 24.3705 5.99918 24.3482 5.92092 24.3095C5.84266 24.2707 5.77318 24.2164 5.71677 24.1497L3.98427 22.6031C3.65938 22.313 3.23256 22.1639 2.79771 22.1885C2.36286 22.2131 1.9556 22.4095 1.66552 22.7344C1.37544 23.0593 1.2263 23.4861 1.25092 23.9209C1.27553 24.3558 1.47188 24.763 1.79677 25.0531L3.46255 26.5352C4.17573 27.2485 5.14162 27.6515 6.15029 27.6566C7.15896 27.6617 8.12889 27.2685 8.84927 26.5625Z" fill="#222C64"/>
<path d="M27.0192 5.16808C27.3269 5.47575 27.4998 5.89305 27.4998 6.32818C27.4998 6.7633 27.3269 7.1806 27.0192 7.48827C26.7116 7.79595 26.2943 7.9688 25.8591 7.9688H17.1091C16.674 7.9688 16.2567 7.79595 15.949 7.48827C15.6414 7.1806 15.4685 6.7633 15.4685 6.32818C15.4685 5.89305 15.6414 5.47575 15.949 5.16808C16.2567 4.8604 16.674 4.68755 17.1091 4.68755H25.8591C26.2943 4.68755 26.7116 4.8604 27.0192 5.16808Z" fill="#3F45EA"/>
<path d="M27.0192 13.9181C27.3269 14.2258 27.4998 14.6431 27.4998 15.0782C27.4998 15.5133 27.3269 15.9306 27.0192 16.2383C26.7116 16.546 26.2943 16.7188 25.8591 16.7188H17.1091C16.674 16.7188 16.2567 16.546 15.949 16.2383C15.6414 15.9306 15.4685 15.5133 15.4685 15.0782C15.4685 14.6431 15.6414 14.2258 15.949 13.9181C16.2567 13.6104 16.674 13.4376 17.1091 13.4376H25.8591C26.2943 13.4376 26.7116 13.6104 27.0192 13.9181Z" fill="#3F45EA"/>
<path d="M27.0192 22.6681C27.3269 22.9758 27.4998 23.3931 27.4998 23.8282C27.4998 24.2633 27.3269 24.6806 27.0192 24.9883C26.7116 25.296 26.2943 25.4688 25.8591 25.4688H17.1091C16.674 25.4688 16.2567 25.296 15.949 24.9883C15.6414 24.6806 15.4685 24.2633 15.4685 23.8282C15.4685 23.3931 15.6414 22.9758 15.949 22.6681C16.2567 22.3604 16.674 22.1876 17.1091 22.1876H25.8591C26.2943 22.1876 26.7116 22.3604 27.0192 22.6681Z" fill="#3F45EA"/>
</g>
<defs>
<clipPath id="clip0_3737_73869">
<rect width="26.25" height="26.25" fill="white" transform="translate(1.25 2.5)"/>
</clipPath>
</defs>
</svg>
