<svg width="31" height="26" viewBox="0 0 31 26" fill="none" xmlns="http://www.w3.org/2000/svg">
<path d="M14.7913 26C14.5975 26 14.3976 25.9816 14.1917 25.9448C13.9857 25.9079 13.7859 25.8281 13.592 25.7054L5.45135 21.2125C5.0637 20.9915 4.75479 20.6846 4.52462 20.2918C4.29445 19.899 4.17937 19.457 4.17937 18.966V11.6374L0.617819 9.72238C0.423994 9.59962 0.272568 9.44004 0.163541 9.24363C0.0545136 9.04722 0 8.83853 0 8.61756C0 8.3966 0.0484565 8.18791 0.145369 7.9915C0.242282 7.79509 0.399765 7.63551 0.617819 7.51275L13.592 0.331445C13.7859 0.233239 13.9797 0.153447 14.1735 0.092068C14.3673 0.0306893 14.5733 0 14.7913 0C15.0094 0 15.2153 0.0306893 15.4091 0.092068C15.603 0.153447 15.7968 0.233239 15.9906 0.331445L30.3458 8.24929C30.5639 8.37205 30.7274 8.53163 30.8365 8.72805C30.9455 8.92446 31 9.13315 31 9.35411V19.187C31 19.5307 30.8849 19.8192 30.6547 20.0524C30.4246 20.2857 30.1399 20.4023 29.8007 20.4023C29.4615 20.4023 29.1829 20.2857 28.9648 20.0524C28.7468 19.8192 28.6377 19.5307 28.6377 19.187V10.017L25.4396 11.6374V18.966C25.4396 19.457 25.3185 19.899 25.0762 20.2918C24.8339 20.6846 24.519 20.9915 24.1313 21.2125L15.9906 25.7054C15.7968 25.8281 15.5969 25.9079 15.391 25.9448C15.185 25.9816 14.9852 26 14.7913 26ZM14.7913 14.8045L25.9848 8.61756L14.7913 2.54108L3.67057 8.61756L14.7913 14.8045ZM14.7913 23.6431L23.041 19.0397V13.1105L15.9906 16.9405C15.7968 17.0387 15.603 17.1124 15.4091 17.1615C15.2153 17.2106 15.0094 17.2351 14.7913 17.2351C14.5733 17.2351 14.3734 17.2106 14.1917 17.1615C14.01 17.1124 13.8222 17.0387 13.6284 16.9405L6.54162 13.0368V19.0397L14.7913 23.6431Z" fill="#3F45EA"/>
</svg>
