<svg width="30" height="30" viewBox="0 0 30 30" fill="none" xmlns="http://www.w3.org/2000/svg">
<g clip-path="url(#clip0_3737_73824)">
<path d="M6.8751 8.75C9.2876 8.75 11.2501 6.7875 11.2501 4.375C11.2501 1.9625 9.2876 0 6.8751 0C4.4626 0 2.5001 1.9625 2.5001 4.375C2.5001 6.7875 4.4626 8.75 6.8751 8.75ZM19.3751 8.75C21.7876 8.75 23.7501 6.7875 23.7501 4.375C23.7501 1.9625 21.7876 0 19.3751 0C16.9626 0 15.0001 1.9625 15.0001 4.375C15.0001 6.7875 16.9626 8.75 19.3751 8.75ZM6.2501 14.375C6.2501 12.7588 6.81385 11.2738 7.75135 10.0988C7.46385 10.0675 7.1726 10.0437 6.8751 10.0437C3.0451 10.0437 -0.0199027 12.6175 9.73239e-05 16.285C0.00384732 16.9612 0.581347 17.5 1.2576 17.5H7.0101C6.52885 16.5613 6.2501 15.5013 6.2501 14.375ZM18.4988 10.0988C19.4364 11.2738 20.0001 12.7588 20.0001 14.375C20.0001 15.5013 19.7226 16.5613 19.2413 17.5H20.2313C20.7488 16.0487 22.1238 15 23.7513 15C24.7076 15 25.5726 15.3713 26.2351 15.9625C26.0726 12.47 23.0139 10.045 19.3764 10.045C19.0776 10.045 18.7876 10.0688 18.5001 10.0988H18.4988Z" fill="#2E33B7"/>
<path d="M28.7502 25C29.4402 25 30.0002 24.4412 30.0002 23.75C30.0002 23.0588 29.4402 22.5 28.7502 22.5H25.0002V18.75C25.0002 18.0588 24.4402 17.5 23.7502 17.5C23.0602 17.5 22.5002 18.0588 22.5002 18.75V22.5H18.7502C18.0602 22.5 17.5002 23.0588 17.5002 23.75C17.5002 24.4412 18.0602 25 18.7502 25H22.5002V28.75C22.5002 29.4412 23.0602 30 23.7502 30C24.4402 30 25.0002 29.4412 25.0002 28.75V25H28.7502Z" fill="#16205B"/>
<path d="M13.1251 18.75C10.7126 18.75 8.7501 16.7875 8.7501 14.375C8.7501 11.9625 10.7126 10 13.1251 10C15.5376 10 17.5001 11.9625 17.5001 14.375C17.5001 16.7875 15.5376 18.75 13.1251 18.75Z" fill="#16205B"/>
<path d="M16.4676 20.7962C15.5813 21.4825 15.0001 22.545 15.0001 23.75C15.0001 25.8162 16.6789 27.4975 18.7451 27.5H18.7426H7.5076C6.83135 27.5 6.25385 26.9613 6.2501 26.285C6.2301 22.6175 9.2951 20.0437 13.1251 20.0437C14.3313 20.0437 15.4726 20.3137 16.4676 20.7962Z" fill="#16205B"/>
</g>
<defs>
<clipPath id="clip0_3737_73824">
<rect width="30" height="30" fill="white"/>
</clipPath>
</defs>
</svg>
