<svg width="30" height="30" viewBox="0 0 30 30" fill="none" xmlns="http://www.w3.org/2000/svg">
<g clip-path="url(#clip0_3737_73867)">
<path d="M28.75 23.75V21.25C28.7455 17.8217 27.4615 14.5185 25.1495 11.987C22.8375 9.45561 19.6639 7.87825 16.25 7.56376V5.90376C16.7266 5.62859 17.0991 5.20385 17.3097 4.6954C17.5203 4.18696 17.5573 3.62323 17.4148 3.09165C17.2724 2.56006 16.9585 2.09033 16.5219 1.75531C16.0853 1.42029 15.5503 1.23869 15 1.23869C14.4497 1.23869 13.9147 1.42029 13.4781 1.75531C13.0415 2.09033 12.7276 2.56006 12.5852 3.09165C12.4427 3.62323 12.4797 4.18696 12.6903 4.6954C12.9009 5.20385 13.2734 5.62859 13.75 5.90376V7.56376C10.3361 7.87825 7.16252 9.45561 4.85051 11.987C2.53849 14.5185 1.25454 17.8217 1.25 21.25V23.75C0.918479 23.75 0.600537 23.8817 0.366117 24.1161C0.131696 24.3505 0 24.6685 0 25C0 25.3315 0.131696 25.6495 0.366117 25.8839C0.600537 26.1183 0.918479 26.25 1.25 26.25H28.75C29.0815 26.25 29.3995 26.1183 29.6339 25.8839C29.8683 25.6495 30 25.3315 30 25C30 24.6685 29.8683 24.3505 29.6339 24.1161C29.3995 23.8817 29.0815 23.75 28.75 23.75ZM3.75 21.25C4.34125 6.33251 25.6637 6.34376 26.25 21.25V23.75H3.75V21.25Z" fill="#16205B"/>
</g>
<defs>
<clipPath id="clip0_3737_73867">
<rect width="30" height="30" fill="white"/>
</clipPath>
</defs>
</svg>
