<svg width="23" height="25" viewBox="0 0 23 25" fill="none" xmlns="http://www.w3.org/2000/svg">
<path d="M3.47648 25C3.04476 25 2.67553 24.8548 2.36878 24.5645C2.06203 24.2742 1.90866 23.9247 1.90866 23.5161V21.2903C1.24972 20.9247 0.766871 20.414 0.460123 19.7581C0.153374 19.1021 0 18.4086 0 17.6774V4.80645C0 3.15054 0.886163 1.93548 2.65849 1.16129C4.43081 0.387097 7.25971 0 11.1452 0C14.9852 0 17.7914 0.381721 19.5637 1.14516C21.3361 1.9086 22.2222 3.12903 22.2222 4.80645V17.6774C22.2222 18.4086 22.0688 19.1021 21.7621 19.7581C21.4554 20.414 20.9725 20.9247 20.3136 21.2903V23.5161C20.3136 23.9247 20.1602 24.2742 19.8534 24.5645C19.5467 24.8548 19.1775 25 18.7457 25C18.2913 25 17.9164 24.8548 17.621 24.5645C17.3256 24.2742 17.1779 23.9247 17.1779 23.5161V22.3548H5.04431V23.5161C5.04431 23.9247 4.89661 24.2742 4.60123 24.5645C4.30584 24.8548 3.93093 25 3.47648 25ZM11.1452 4.03226H19.9727H2.24949H11.1452ZM17.1097 13.4839H2.31766H19.9046H17.1097ZM2.31766 11.5484H19.9046V5.96774H2.31766V11.5484ZM2.24949 4.03226H19.9727C19.4274 3.47312 18.3822 3.03226 16.8371 2.70968C15.292 2.3871 13.3947 2.22581 11.1452 2.22581C8.46398 2.22581 6.40763 2.37097 4.97614 2.66129C3.54465 2.95161 2.63576 3.4086 2.24949 4.03226ZM5.11247 20.1613H17.1097C17.905 20.1613 18.5696 19.8656 19.1036 19.2742C19.6376 18.6828 19.9046 18.0215 19.9046 17.2903V13.4839H2.31766V17.2903C2.31766 18.0215 2.58464 18.6828 3.11861 19.2742C3.65258 19.8656 4.3172 20.1613 5.11247 20.1613Z" fill="#3F45EA"/>
<path d="M7.22555 18.0645C6.86199 18.4086 6.41891 18.5807 5.8963 18.5807C5.37369 18.5807 4.93061 18.4086 4.56706 18.0645C4.2035 17.7205 4.02173 17.3011 4.02173 16.8065C4.02173 16.3119 4.2035 15.8925 4.56706 15.5484C4.93061 15.2043 5.37369 15.0323 5.8963 15.0323C6.41891 15.0323 6.86199 15.2043 7.22555 15.5484C7.5891 15.8925 7.77088 16.3119 7.77088 16.8065C7.77088 17.3011 7.5891 17.7205 7.22555 18.0645Z" fill="#222C64"/>
<path d="M17.655 18.0645C17.2914 18.4086 16.8484 18.5807 16.3258 18.5807C15.8031 18.5807 15.3601 18.4086 14.9965 18.0645C14.633 17.7205 14.4512 17.3011 14.4512 16.8065C14.4512 16.3119 14.633 15.8925 14.9965 15.5484C15.3601 15.2043 15.8031 15.0323 16.3258 15.0323C16.8484 15.0323 17.2914 15.2043 17.655 15.5484C18.0185 15.8925 18.2003 16.3119 18.2003 16.8065C18.2003 17.3011 18.0185 17.7205 17.655 18.0645Z" fill="#222C64"/>
</svg>
