<svg width="33" height="33" viewBox="0 0 33 33" fill="none" xmlns="http://www.w3.org/2000/svg">
<g clip-path="url(#clip0_3737_73812)">
<path d="M33 16.5C33 25.6025 25.6025 33 16.5 33C7.3975 33 0 25.6025 0 16.5C0 7.3975 7.3975 0 16.5 0C17.5038 0 18.5213 0.09625 19.4975 0.275C20.24 0.4125 20.735 1.1275 20.5975 1.87C20.46 2.6125 19.745 3.1075 19.0025 2.97C18.1912 2.81875 17.3388 2.75 16.5 2.75C8.92375 2.75 2.75 8.92375 2.75 16.5C2.75 24.0763 8.92375 30.25 16.5 30.25C24.0763 30.25 30.25 24.0763 30.25 16.5C30.25 15.6612 30.1675 14.8225 30.03 13.9975C29.8925 13.255 30.3875 12.54 31.13 12.4025C31.8862 12.265 32.5875 12.76 32.725 13.5025C32.9037 14.4787 33 15.4962 33 16.5ZM17.6825 8.3325C18.4387 8.4425 19.1262 7.92 19.2362 7.16375C19.3462 6.4075 18.8238 5.72 18.0675 5.61C17.545 5.54125 17.0225 5.5 16.5 5.5C10.4363 5.5 5.5 10.4363 5.5 16.5C5.5 22.5637 10.4363 27.5 16.5 27.5C22.5637 27.5 27.5 22.5637 27.5 16.5C27.5 15.9775 27.4588 15.455 27.39 14.9325C27.28 14.1762 26.5925 13.6538 25.8363 13.7638C25.08 13.8738 24.5575 14.5613 24.6675 15.3175C24.7225 15.7025 24.75 16.1013 24.75 16.5C24.75 21.0512 21.0512 24.75 16.5 24.75C11.9488 24.75 8.25 21.0512 8.25 16.5C8.25 11.9488 11.9488 8.25 16.5 8.25C16.8987 8.25 17.2975 8.2775 17.6825 8.3325ZM14.7812 12.5125C14.2725 11.9488 13.4063 11.8938 12.8425 12.4025C11.6738 13.4475 11.0138 14.9463 11.0138 16.5C11.0138 19.5388 13.475 22 16.5138 22C18.0813 22 19.5662 21.3263 20.6112 20.1713C21.12 19.6075 21.065 18.7413 20.5012 18.2325C19.9375 17.7238 19.0713 17.7788 18.5625 18.3425C18.04 18.92 17.2975 19.2638 16.5138 19.2638C15.0013 19.2638 13.7638 18.0263 13.7638 16.5138C13.7638 15.73 14.0938 14.9875 14.685 14.465C15.2488 13.9563 15.3038 13.09 14.795 12.5262L14.7812 12.5125Z" fill="#16205B"/>
<path d="M16.9124 16.1012C16.3762 15.565 16.3762 14.6987 16.9124 14.1625L16.9399 14.1762L23.4162 7.69998V4.13873C23.4162 3.76748 23.5537 3.42373 23.8149 3.16248L26.5649 0.412483C26.9637 0.0137326 27.5412 -0.110017 28.0637 0.109983C28.5862 0.316233 28.9162 0.824983 28.9162 1.37498V4.12498H31.6662C32.2162 4.12498 32.7249 4.46873 32.9312 4.97748C33.1374 5.48623 33.0274 6.07748 32.6287 6.47623L29.8787 9.22623C29.6174 9.47373 29.2737 9.62498 28.9024 9.62498H25.3412L18.8649 16.1012C18.5899 16.3625 18.2462 16.5 17.8887 16.5C17.5312 16.5 17.1874 16.3762 16.9124 16.1012Z" fill="#3F45EA"/>
</g>
<defs>
<clipPath id="clip0_3737_73812">
<rect width="33" height="33" fill="white"/>
</clipPath>
</defs>
</svg>
