<svg width="37" height="37" viewBox="0 0 37 37" fill="none" xmlns="http://www.w3.org/2000/svg">
<path d="M24.6666 5.04542H14.5757C13.4402 5.04666 12.3271 5.36137 11.3591 5.95489C10.3911 6.5484 9.60575 7.39766 9.08963 8.40906H7.84844C7.4024 8.40906 6.97462 8.58625 6.65922 8.90165C6.34382 9.21705 6.16663 9.64483 6.16663 10.0909C6.16663 10.5369 6.34382 10.9647 6.65922 11.2801C6.97462 11.5955 7.4024 11.7727 7.84844 11.7727H8.40905V14.0151H7.84844C7.4024 14.0151 6.97462 14.1923 6.65922 14.5077C6.34382 14.8231 6.16663 15.2509 6.16663 15.6969C6.16663 16.143 6.34382 16.5708 6.65922 16.8862C6.97462 17.2016 7.4024 17.3788 7.84844 17.3788H8.40905V19.6212H7.84844C7.4024 19.6212 6.97462 19.7984 6.65922 20.1138C6.34382 20.4292 6.16663 20.857 6.16663 21.303C6.16663 21.749 6.34382 22.1768 6.65922 22.4922C6.97462 22.8076 7.4024 22.9848 7.84844 22.9848H8.40905V25.2272H7.84844C7.4024 25.2272 6.97462 25.4044 6.65922 25.7198C6.34382 26.0352 6.16663 26.463 6.16663 26.9091C6.16663 27.3551 6.34382 27.7829 6.65922 28.0983C6.97462 28.4137 7.4024 28.5909 7.84844 28.5909H9.08963C9.60575 29.6023 10.3911 30.4515 11.3591 31.045C12.3271 31.6386 13.4402 31.9533 14.5757 31.9545H24.6666C26.3016 31.9527 27.8691 31.3025 29.0252 30.1464C30.1812 28.9903 30.8315 27.4228 30.8333 25.7878V11.2121C30.8315 9.57713 30.1812 8.00965 29.0252 6.85356C27.8691 5.69747 26.3016 5.0472 24.6666 5.04542ZM27.4697 25.7878C27.4697 26.5313 27.1743 27.2442 26.6487 27.7699C26.123 28.2956 25.41 28.5909 24.6666 28.5909H14.5757C13.8323 28.5909 13.1193 28.2956 12.5937 27.7699C12.068 27.2442 11.7727 26.5313 11.7727 25.7878V11.2121C11.7727 10.4687 12.068 9.75572 12.5937 9.23005C13.1193 8.70438 13.8323 8.40906 14.5757 8.40906H24.6666C25.41 8.40906 26.123 8.70438 26.6487 9.23005C27.1743 9.75572 27.4697 10.4687 27.4697 11.2121V25.7878Z" fill="#18204E"/>
<path d="M17.6391 13.7149C17.1134 14.2406 16.8181 14.9536 16.8181 15.697C16.8181 16.4404 17.1134 17.1534 17.6391 17.679C18.1648 18.2047 18.8777 18.5 19.6211 18.5C20.3646 18.5 21.0775 18.2047 21.6032 17.679C22.1289 17.1534 22.4242 16.4404 22.4242 15.697C22.4242 14.9536 22.1289 14.2406 21.6032 13.7149C21.0775 13.1893 20.3646 12.894 19.6211 12.894C18.8777 12.894 18.1648 13.1893 17.6391 13.7149Z" fill="#3F45EA"/>
<path d="M24.0721 23.5681C24.1025 23.4632 24.1095 23.3529 24.0925 23.245C23.1283 18.4641 16.0804 18.4608 15.115 23.245C15.098 23.3529 15.105 23.4632 15.1354 23.5681C15.1658 23.673 15.2188 23.7699 15.2908 23.8521C15.3628 23.9342 15.4519 23.9996 15.5519 24.0434C15.6519 24.0873 15.7604 24.1087 15.8696 24.1061H23.338C23.4471 24.1087 23.5556 24.0873 23.6556 24.0434C23.7556 23.9996 23.8447 23.9342 23.9167 23.8521C23.9887 23.7699 24.0418 23.673 24.0721 23.5681Z" fill="#3F45EA"/>
</svg>
