<svg width="29" height="29" viewBox="0 0 29 29" fill="none" xmlns="http://www.w3.org/2000/svg">
<g clip-path="url(#clip0_3720_73852)">
<path d="M3.625 25.3751V16.2208C2.54881 16.6904 1.63281 17.4636 0.98902 18.4456C0.345227 19.4276 0.0015447 20.5759 0 21.7501L0 22.9584C0.0018841 24.3335 0.472765 25.6667 1.33486 26.738C2.19695 27.8092 3.39867 28.5543 4.7415 28.8503C4.01655 27.8364 3.62622 26.6215 3.625 25.3751ZM25.375 16.2208V25.3751C25.3738 26.6215 24.9835 27.8364 24.2585 28.8503C25.6013 28.5543 26.8031 27.8092 27.6651 26.738C28.5272 25.6667 28.9981 24.3335 29 22.9584V21.7501C28.9985 20.5759 28.6548 19.4276 28.011 18.4456C27.3672 17.4636 26.4512 16.6904 25.375 16.2208Z" fill="#3F45EA"/>
<path fill-rule="evenodd" clip-rule="evenodd" d="M22.9583 20.9718V13.2917C22.9574 11.9298 22.6274 10.5882 21.9962 9.38141C21.365 8.17458 20.4514 7.13824 19.3333 6.36067V4.83333C19.3333 3.55145 18.8241 2.32208 17.9176 1.41565C17.0112 0.509225 15.7818 0 14.5 0C13.2181 0 11.9887 0.509225 11.0823 1.41565C10.1759 2.32208 9.66663 3.55145 9.66663 4.83333V6.36067C8.5485 7.13824 7.63493 8.17458 7.00374 9.38141C6.37256 10.5882 6.04248 11.9298 6.04163 13.2917V20.9718C7.0582 19.706 8.34591 18.6845 9.80981 17.9827C11.2737 17.2808 12.8765 16.9164 14.5 16.9164C16.1234 16.9164 17.7262 17.2808 19.1901 17.9827C20.654 18.6845 21.9417 19.706 22.9583 20.9718ZM19.3333 29C20.1291 28.9968 20.9017 28.7318 21.5319 28.2459C22.1621 27.76 22.615 27.0802 22.8205 26.3115C22.4745 24.3562 21.4509 22.5852 19.9294 21.3093C18.4079 20.0334 16.4856 19.3341 14.5 19.3341C12.5143 19.3341 10.592 20.0334 9.07051 21.3093C7.54899 22.5852 6.52541 24.3562 6.17938 26.3115C6.38495 27.0802 6.83778 27.76 7.46801 28.2459C8.09824 28.7318 8.87085 28.9968 9.66663 29H19.3333ZM17.771 11.2289C17.9977 11.4555 18.125 11.7629 18.125 12.0833C18.125 12.4038 17.9977 12.7111 17.771 12.9378C17.5444 13.1644 17.2371 13.2917 16.9166 13.2917H12.0833C11.7628 13.2917 11.4555 13.1644 11.2289 12.9378C11.0023 12.7111 10.875 12.4038 10.875 12.0833C10.875 11.7629 11.0023 11.4555 11.2289 11.2289C11.4555 11.0023 11.7628 10.875 12.0833 10.875H16.9166C17.2371 10.875 17.5444 11.0023 17.771 11.2289ZM12.0833 4.83333V5.19583C13.6593 4.72054 15.3406 4.72054 16.9166 5.19583V4.83333C16.9166 4.19239 16.662 3.5777 16.2088 3.12449C15.7556 2.67128 15.1409 2.41667 14.5 2.41667C13.859 2.41667 13.2443 2.67128 12.7911 3.12449C12.3379 3.5777 12.0833 4.19239 12.0833 4.83333Z" fill="#16205B"/>
</g>
<defs>
<clipPath id="clip0_3720_73852">
<rect width="29" height="29" fill="white"/>
</clipPath>
</defs>
</svg>
