<svg width="29" height="29" viewBox="0 0 29 29" fill="none" xmlns="http://www.w3.org/2000/svg">
<path d="M18.4286 7.14286H26.5714C27.2381 7.14286 27.8095 7.38095 28.2857 7.85714C28.7619 8.33333 29 8.90476 29 9.57143V26.5714C29 27.2143 28.7619 27.7798 28.2857 28.2679C27.8095 28.756 27.2381 29 26.5714 29H2.42857C1.78571 29 1.22024 28.756 0.732143 28.2679C0.244048 27.7798 0 27.2143 0 26.5714V9.57143C0 8.90476 0.244048 8.33333 0.732143 7.85714C1.22024 7.38095 1.78571 7.14286 2.42857 7.14286H10.6071V2.35714C10.6071 1.7381 10.8452 1.19048 11.3214 0.714286C11.7976 0.238095 12.3452 0 12.9643 0H16.0714C16.6905 0 17.2381 0.238095 17.7143 0.714286C18.1905 1.19048 18.4286 1.7381 18.4286 2.35714V7.14286ZM13.0357 9.28572H16V2.42857H13.0357V9.28572ZM10.6071 9.57143H2.42857V26.5714H26.5714V9.57143H18.4286C18.4286 10.2381 18.1964 10.7619 17.7321 11.1429C17.2679 11.5238 16.7024 11.7143 16.0357 11.7143H12.9643C12.3214 11.7143 11.7679 11.5238 11.3036 11.1429C10.8393 10.7619 10.6071 10.2381 10.6071 9.57143Z" fill="#3F45EA"/>
<path d="M23.4642 16.2143C23.2976 16.381 23.0833 16.4643 22.8214 16.4643H18.5357C18.2738 16.4643 18.0595 16.381 17.8928 16.2143C17.7262 16.0476 17.6428 15.8334 17.6428 15.5714C17.6428 15.3095 17.7262 15.0953 17.8928 14.9286C18.0595 14.7619 18.2738 14.6786 18.5357 14.6786H22.8214C23.0833 14.6786 23.2976 14.7619 23.4642 14.9286C23.6309 15.0953 23.7143 15.3095 23.7143 15.5714C23.7143 15.8334 23.6309 16.0476 23.4642 16.2143Z" fill="#222C64"/>
<path d="M23.4642 20.25C23.2976 20.4167 23.0833 20.5 22.8214 20.5H18.5357C18.2738 20.5 18.0595 20.4167 17.8928 20.25C17.7262 20.0834 17.6428 19.8691 17.6428 19.6072C17.6428 19.3453 17.7262 19.131 17.8928 18.9643C18.0595 18.7976 18.2738 18.7143 18.5357 18.7143H22.8214C23.0833 18.7143 23.2976 18.7976 23.4642 18.9643C23.6309 19.131 23.7143 19.3453 23.7143 19.6072C23.7143 19.8691 23.6309 20.0834 23.4642 20.25Z" fill="#222C64"/>
<path d="M11.375 18.1607C11.0059 18.5298 10.5476 18.7143 9.99997 18.7143C9.47616 18.7143 9.02377 18.5298 8.64282 18.1607C8.26187 17.7917 8.07139 17.3334 8.07139 16.7857C8.07139 16.2619 8.26187 15.8095 8.64282 15.4286C9.02377 15.0476 9.47616 14.8572 9.99997 14.8572C10.5476 14.8572 11.0059 15.0476 11.375 15.4286C11.744 15.8095 11.9285 16.2619 11.9285 16.7857C11.9285 17.3334 11.744 17.7917 11.375 18.1607Z" fill="#222C64"/>
<path d="M14.1785 22.8929H5.64282V22.3929C5.64282 21.9643 5.74996 21.5834 5.96425 21.25C6.17854 20.9167 6.46425 20.6905 6.82139 20.5714C7.46425 20.3572 8.04163 20.1964 8.55354 20.0893C9.06544 19.9822 9.54758 19.9286 9.99997 19.9286C10.4047 19.9286 10.8214 19.9703 11.25 20.0536C11.6785 20.1369 12.2738 20.3095 13.0357 20.5714C13.369 20.6905 13.6428 20.9167 13.8571 21.25C14.0714 21.5834 14.1785 21.9643 14.1785 22.3929V22.8929Z" fill="#222C64"/>
</svg>
