<svg width="24" height="25" viewBox="0 0 24 25" fill="none" xmlns="http://www.w3.org/2000/svg">
<path d="M18 16.6667C19.8909 16.6667 21.4286 15.1717 21.4286 13.3333C21.4286 11.495 19.8909 10 18 10C16.1091 10 14.5714 11.495 14.5714 13.3333C14.5714 15.1717 16.1091 16.6667 18 16.6667ZM18 11.6667C18.9454 11.6667 19.7143 12.4142 19.7143 13.3333C19.7143 14.2525 18.9454 15 18 15C17.0546 15 16.2857 14.2525 16.2857 13.3333C16.2857 12.4142 17.0546 11.6667 18 11.6667ZM24 23.1667C24 23.6275 23.616 24 23.1429 24C22.6697 24 22.2857 23.6275 22.2857 23.1667C22.2857 20.8692 20.3631 19 18 19C15.6369 19 13.7143 20.8692 13.7143 23.1667C13.7143 23.6275 13.3303 24 12.8571 24C12.384 24 12 23.6275 12 23.1667C12 19.9508 14.6914 17.3333 18 17.3333C21.3086 17.3333 24 19.9508 24 23.1667Z" fill="#3F45EA"/>
<path d="M6 2C5.20435 2 4.44129 2.31607 3.87868 2.87868C3.31607 3.44129 3 4.20435 3 5V23C3 23.2652 2.89464 23.5196 2.70711 23.7071C2.51957 23.8946 2.26522 24 2 24C1.73478 24 1.48043 23.8946 1.29289 23.7071C1.10536 23.5196 1 23.2652 1 23V5C1.00159 3.67441 1.52888 2.40356 2.46622 1.46622C3.40356 0.528882 4.67441 0.00158786 6 0L12 0C13.3256 0.00158786 14.5964 0.528882 15.5338 1.46622C16.4711 2.40356 16.9984 3.67441 17 5V7C17 7.26522 16.8946 7.51957 16.7071 7.70711C16.5196 7.89464 16.2652 8 16 8C15.7348 8 15.4804 7.89464 15.2929 7.70711C15.1054 7.51957 15 7.26522 15 7V5C15 4.20435 14.6839 3.44129 14.1213 2.87868C13.5587 2.31607 12.7956 2 12 2H6ZM8 5V6C8 6.26522 7.89464 6.51957 7.70711 6.70711C7.51957 6.89464 7.26522 7 7 7H6C5.73478 7 5.48043 6.89464 5.29289 6.70711C5.10536 6.51957 5 6.26522 5 6V5C5 4.73478 5.10536 4.48043 5.29289 4.29289C5.48043 4.10536 5.73478 4 6 4H7C7.26522 4 7.51957 4.10536 7.70711 4.29289C7.89464 4.48043 8 4.73478 8 5ZM8 10V11C8 11.2652 7.89464 11.5196 7.70711 11.7071C7.51957 11.8946 7.26522 12 7 12H6C5.73478 12 5.48043 11.8946 5.29289 11.7071C5.10536 11.5196 5 11.2652 5 11V10C5 9.73478 5.10536 9.48043 5.29289 9.29289C5.48043 9.10536 5.73478 9 6 9H7C7.26522 9 7.51957 9.10536 7.70711 9.29289C7.89464 9.48043 8 9.73478 8 10ZM8 15V16C8 16.2652 7.89464 16.5196 7.70711 16.7071C7.51957 16.8946 7.26522 17 7 17H6C5.73478 17 5.48043 16.8946 5.29289 16.7071C5.10536 16.5196 5 16.2652 5 16V15C5 14.7348 5.10536 14.4804 5.29289 14.2929C5.48043 14.1054 5.73478 14 6 14H7C7.26522 14 7.51957 14.1054 7.70711 14.2929C7.89464 14.4804 8 14.7348 8 15ZM8 20V21C8 21.2652 7.89464 21.5196 7.70711 21.7071C7.51957 21.8946 7.26522 22 7 22H6C5.73478 22 5.48043 21.8946 5.29289 21.7071C5.10536 21.5196 5 21.2652 5 21V20C5 19.7348 5.10536 19.4804 5.29289 19.2929C5.48043 19.1054 5.73478 19 6 19H7C7.26522 19 7.51957 19.1054 7.70711 19.2929C7.89464 19.4804 8 19.7348 8 20ZM12 4C12.2652 4 12.5196 4.10536 12.7071 4.29289C12.8946 4.48043 13 4.73478 13 5V6C13 6.26522 12.8946 6.51957 12.7071 6.70711C12.5196 6.89464 12.2652 7 12 7H11C10.7348 7 10.4804 6.89464 10.2929 6.70711C10.1054 6.51957 10 6.26522 10 6V5C10 4.73478 10.1054 4.48043 10.2929 4.29289C10.4804 4.10536 10.7348 4 11 4H12Z" fill="#3F45EA"/>
<path d="M12.7071 9.29289C12.5196 9.10536 12.2652 9 12 9H11C10.7348 9 10.4804 9.10536 10.2929 9.29289C10.1054 9.48043 10 9.73478 10 10V11C10 11.2652 10.1054 11.5196 10.2929 11.7071C10.4804 11.8946 10.7348 12 11 12H12C12.2652 12 12.5196 11.8946 12.7071 11.7071C12.8946 11.5196 13 11.2652 13 11V10C13 9.73478 12.8946 9.48043 12.7071 9.29289Z" fill="#3F45EA"/>
<path d="M12.7071 14.2929C12.5196 14.1054 12.2652 14 12 14H11C10.7348 14 10.4804 14.1054 10.2929 14.2929C10.1054 14.4804 10 14.7348 10 15V16C10 16.2652 10.1054 16.5196 10.2929 16.7071C10.4804 16.8946 10.7348 17 11 17H12C12.2652 17 12.5196 16.8946 12.7071 16.7071C12.8946 16.5196 13 16.2652 13 16V15C13 14.7348 12.8946 14.4804 12.7071 14.2929Z" fill="#3F45EA"/>
</svg>
