<svg width="25" height="25" viewBox="0 0 25 25" fill="none" xmlns="http://www.w3.org/2000/svg">
<path d="M5.72748 10.455C4.41621 10.455 3.30048 9.98912 2.38029 9.05743C1.4601 8.12573 1 7.01575 1 5.72748C1 4.41621 1.4601 3.30048 2.38029 2.38029C3.30048 1.4601 4.41621 1 5.72748 1C7.03876 1 8.15449 1.4601 9.07468 2.38029C9.99487 3.30048 10.455 4.41621 10.455 5.72748C10.455 7.03876 9.98912 8.15449 9.05743 9.07468C8.12573 9.99487 7.01575 10.455 5.72748 10.455ZM5.72748 8.07397C6.37162 8.07397 6.92373 7.84392 7.38383 7.38383C7.84392 6.92373 8.07397 6.37162 8.07397 5.72748C8.07397 5.06034 7.84967 4.49673 7.40108 4.03663C6.95249 3.57654 6.39462 3.34649 5.72748 3.34649C5.08335 3.34649 4.52548 3.57654 4.05388 4.03663C3.58229 4.49673 3.34649 5.06034 3.34649 5.72748C3.34649 6.37162 3.57654 6.92373 4.03663 7.38383C4.49673 7.84392 5.06034 8.07397 5.72748 8.07397ZM19.1163 23.8438C17.805 23.8438 16.6893 23.3837 15.7691 22.4635C14.8489 21.5433 14.3888 20.4275 14.3888 19.1163C14.3888 17.805 14.8546 16.6893 15.7863 15.7691C16.718 14.8489 17.828 14.3888 19.1163 14.3888C20.4275 14.3888 21.5433 14.8546 22.4635 15.7863C23.3837 16.718 23.8438 17.828 23.8438 19.1163C23.8438 20.4275 23.3837 21.5433 22.4635 22.4635C21.5433 23.3837 20.4275 23.8438 19.1163 23.8438ZM19.1163 21.4973C19.7834 21.4973 20.347 21.2672 20.8071 20.8071C21.2672 20.347 21.4973 19.7834 21.4973 19.1163C21.4973 18.4721 21.2672 17.92 20.8071 17.4599C20.347 16.9998 19.7834 16.7698 19.1163 16.7698C18.4721 16.7698 17.92 16.9941 17.4599 17.4427C16.9998 17.8913 16.7698 18.4491 16.7698 19.1163C16.7698 19.7604 16.9998 20.3183 17.4599 20.7899C17.92 21.2615 18.4721 21.4973 19.1163 21.4973Z" fill="#3F45EA" stroke="#3F45EA"/>
<path d="M1.65576 22.0149C1.65576 22.3369 1.77079 22.613 2.00083 22.843C2.23088 23.0731 2.50694 23.1881 2.82901 23.1881C3.15107 23.1881 3.42713 23.0731 3.65718 22.843L22.8432 3.65706C23.0732 3.42701 23.1882 3.15095 23.1882 2.82888C23.1882 2.50682 23.0732 2.23076 22.8432 2.00071C22.6131 1.77066 22.3371 1.65564 22.015 1.65564C21.6929 1.65564 21.4169 1.77066 21.1868 2.00071L2.00083 21.1867C1.77079 21.4167 1.65576 21.6928 1.65576 22.0149Z" fill="#222C64" stroke="#222C64"/>
</svg>
