<svg width="33" height="33" viewBox="0 0 33 33" fill="none" xmlns="http://www.w3.org/2000/svg">
<g clip-path="url(#clip0_3737_73839)">
<path fill-rule="evenodd" clip-rule="evenodd" d="M19.6719 3.88886C20.9997 3.09216 22.5142 2.65995 24.0626 2.63586C26.5308 2.7431 28.8562 3.82284 30.5309 5.63918C32.2055 7.45553 33.0932 9.86084 33.0001 12.3296C33.0001 13.976 32.5437 15.6623 31.7706 17.3379H21.3055C21.2583 17.3286 21.2094 17.3238 21.1594 17.3238H19.2983C18.2757 17.3238 17.3769 18.0142 17.112 19.0023L16.3105 21.9909L13.8509 12.0448C13.7234 11.596 13.3249 11.2886 12.8585 11.2803C12.38 11.2599 11.983 11.5635 11.8313 12.0357L9.35287 20.8101L8.64496 18.8263C8.32271 17.9274 7.46688 17.3238 6.51293 17.3238H4.5575C4.50751 17.3238 4.45866 17.3286 4.41141 17.3379H1.22948C0.456386 15.6623 6.47209e-05 13.976 6.47209e-05 12.3296C-0.0930923 9.86084 0.794622 7.45553 2.46927 5.63918C4.14391 3.82284 6.46936 2.7431 8.93757 2.63586C10.4859 2.65995 12.0004 3.09216 13.3283 3.88886C14.6561 4.68556 15.7502 5.81853 16.5001 7.17336C17.2499 5.81853 18.344 4.68556 19.6719 3.88886ZM1.99486 18.8203C4.3672 22.9854 8.46399 26.9896 12.1001 30.0396C13.3324 31.0752 14.8904 31.6429 16.5001 31.6429C18.1097 31.6429 19.6678 31.0752 20.9001 30.0396C24.5361 26.9896 28.6329 22.9854 31.0053 18.8203H21.3066C21.259 18.8297 21.2098 18.8346 21.1594 18.8346H19.2983C18.9572 18.8346 18.6576 19.065 18.5693 19.3937L17.3037 24.1091C17.1595 24.5813 16.7565 24.8781 16.2916 24.8781L16.2939 24.8789H16.281C15.8109 24.8736 15.4094 24.5654 15.2818 24.1129L12.8109 14.1215L10.4125 22.6118C10.2683 23.0628 9.89173 23.3491 9.44646 23.3665C8.98458 23.3914 8.60195 23.1285 8.43138 22.7153L7.22386 19.3355C7.11594 19.0363 6.83066 18.8346 6.51293 18.8346H4.5575C4.50713 18.8346 4.45792 18.8297 4.41034 18.8203H1.99486Z" fill="#3F45EA"/>
</g>
<defs>
<clipPath id="clip0_3737_73839">
<rect width="33" height="33" fill="white"/>
</clipPath>
</defs>
</svg>
