<svg width="31" height="31" viewBox="0 0 31 31" fill="none" xmlns="http://www.w3.org/2000/svg">
<path d="M10.1896 28.7471L14.9406 24.1025C15.0545 23.991 15.1449 23.8582 15.2065 23.712C15.2682 23.5657 15.3 23.4089 15.3 23.2504C15.3 23.092 15.2682 22.9352 15.2065 22.7889C15.1449 22.6427 15.0545 22.5099 14.9406 22.3984C14.8276 22.2859 14.6932 22.1966 14.5452 22.1357C14.3971 22.0747 14.2383 22.0434 14.0779 22.0434C13.9175 22.0434 13.7586 22.0747 13.6106 22.1357C13.4625 22.1966 13.3281 22.2859 13.2151 22.3984L8.86509 26.6708L8.86509 2.20014C8.86509 1.88184 8.73707 1.57658 8.5092 1.35151C8.28133 1.12644 7.97226 1 7.65 1C7.32773 1 7.01867 1.12644 6.7908 1.35151C6.56292 1.57658 6.4349 1.88184 6.4349 2.20014L6.4349 26.7428L2.03626 22.3984C1.81028 22.1856 1.51005 22.0669 1.19784 22.0669C0.885631 22.0669 0.585402 22.1856 0.359423 22.3984C0.245534 22.5099 0.155138 22.6427 0.0934487 22.7889C0.0317599 22.9352 -2.93215e-07 23.092 -2.8629e-07 23.2505C-2.79365e-07 23.4089 0.0317599 23.5657 0.0934487 23.712C0.155138 23.8582 0.245534 23.991 0.359423 24.1025L5.03754 28.7471C5.72104 29.4213 6.64754 29.8 7.61355 29.8C8.57955 29.8 9.50606 29.4213 10.1896 28.7471Z" fill="#16205B"/>
<path fill-rule="evenodd" clip-rule="evenodd" d="M25.9348 2.71016L29.9441 13.0748C30.1085 13.5006 29.8974 13.9793 29.4728 14.144C29.0586 14.3076 28.5697 14.1016 28.4053 13.6719L27.3312 10.8946H19.4687L18.3946 13.6719C18.2302 14.0977 17.7523 14.3087 17.3271 14.144C16.902 13.9793 16.6914 13.5001 16.8558 13.0748L20.8629 2.71346C21.6939 0.430223 25.1032 0.42857 25.9348 2.71016ZM22.4007 3.31388L20.1078 9.24205H26.6921L24.3982 3.31058C24.0137 2.39287 22.784 2.39508 22.4007 3.31388Z" fill="#3F45EA"/>
<path d="M20.3001 29.8H27.9881C29.052 29.7818 29.0531 28.1687 27.9887 28.15H20.3006C19.851 28.15 19.6972 27.7831 19.6605 27.6704C19.6227 27.5543 19.5293 27.1545 19.9044 26.8707L27.8613 20.8548C28.6774 20.2377 28.998 19.1998 28.6774 18.212C28.36 17.2325 27.505 16.6 26.5 16.6H18.8119C17.748 16.6181 17.7475 18.2313 18.8119 18.25H26.4994C26.9491 18.25 27.1029 18.6168 27.1396 18.7296C27.1774 18.8456 27.2708 19.2455 26.8956 19.5293L18.9388 25.5452C18.1226 26.1623 17.802 27.2001 18.1226 28.1879C18.44 29.1675 19.295 29.8 20.3001 29.8Z" fill="#3F45EA"/>
<path fill-rule="evenodd" clip-rule="evenodd" d="M25.9348 2.71016L29.9441 13.0748C30.1085 13.5006 29.8974 13.9793 29.4728 14.144C29.0586 14.3076 28.5697 14.1016 28.4053 13.6719L27.3312 10.8946H19.4687L18.3946 13.6719C18.2302 14.0977 17.7523 14.3087 17.3271 14.144C16.902 13.9793 16.6914 13.5001 16.8558 13.0748L20.8629 2.71346C21.6939 0.430223 25.1032 0.42857 25.9348 2.71016ZM22.4007 3.31388L20.1078 9.24205H26.6921L24.3982 3.31058C24.0137 2.39287 22.784 2.39508 22.4007 3.31388Z" stroke="#3F45EA" stroke-width="0.5"/>
<path d="M20.3001 29.8H27.9881C29.052 29.7818 29.0531 28.1687 27.9887 28.15H20.3006C19.851 28.15 19.6972 27.7831 19.6605 27.6704C19.6227 27.5543 19.5293 27.1545 19.9044 26.8707L27.8613 20.8548C28.6774 20.2377 28.998 19.1998 28.6774 18.212C28.36 17.2325 27.505 16.6 26.5 16.6H18.8119C17.748 16.6181 17.7475 18.2313 18.8119 18.25H26.4994C26.9491 18.25 27.1029 18.6168 27.1396 18.7296C27.1774 18.8456 27.2708 19.2455 26.8956 19.5293L18.9388 25.5452C18.1226 26.1623 17.802 27.2001 18.1226 28.1879C18.44 29.1675 19.295 29.8 20.3001 29.8Z" stroke="#3F45EA" stroke-width="0.5"/>
</svg>
