<svg width="30" height="30" viewBox="0 0 30 30" fill="none" xmlns="http://www.w3.org/2000/svg">
<path fill-rule="evenodd" clip-rule="evenodd" d="M27.1434 26.2522H28.7412C29.0726 26.2522 29.3903 26.3838 29.6246 26.6181C29.8589 26.8524 29.9905 27.1702 29.9905 27.5015C29.9905 27.8328 29.8589 28.1506 29.6246 28.3849C29.3903 28.6191 29.0726 28.7508 28.7412 28.7508H26.2427C25.9806 28.7506 25.7252 28.6679 25.5127 28.5146C25.3001 28.3612 25.1412 28.1449 25.0584 27.8963L23.1295 22.1096C23.0466 21.8607 22.8875 21.6443 22.6747 21.4909C22.4619 21.3375 22.2062 21.255 21.9439 21.2551H19.9101L17.3865 21.2438C16.0825 21.2148 14.8415 20.6771 13.9286 19.7455C13.0157 18.8139 12.5032 17.5623 12.5006 16.258V10.0116C12.5081 9.95507 12.5194 9.89914 12.5343 9.84415C11.3517 9.54757 10.3183 8.82883 9.62871 7.8233C8.93914 6.81776 8.641 5.59481 8.79042 4.38473C8.93984 3.17466 9.52651 2.06096 10.44 1.25337C11.3534 0.44577 12.5306 0 13.7499 0C14.9691 0 16.1463 0.44577 17.0598 1.25337C17.9732 2.06096 18.5599 3.17466 18.7093 4.38473C18.8587 5.59481 18.5606 6.81776 17.871 7.8233C17.1815 8.82883 16.1481 9.54757 14.9654 9.84415C14.9804 9.89914 14.9916 9.95507 14.9992 10.0116V13.7594H22.4948C22.8262 13.7594 23.1439 13.891 23.3782 14.1253C23.6125 14.3596 23.7441 14.6773 23.7441 15.0087C23.7441 15.34 23.6125 15.6578 23.3782 15.8921C23.1439 16.1263 22.8262 16.258 22.4948 16.258H14.9992C14.9992 16.9206 15.2624 17.5561 15.731 18.0247C16.1995 18.4933 16.8351 18.7565 17.4977 18.7565H21.9439C22.7294 18.7578 23.4946 19.0059 24.1315 19.4656C24.7683 19.9254 25.2446 20.5737 25.4931 21.3188L27.1434 26.2522ZM5.20557 14.2402C6.27067 13.356 7.55983 12.784 8.93015 12.5876C9.15911 12.5547 9.37243 12.4594 9.548 12.3147C9.37243 12.4594 9.15911 12.5547 8.93015 12.5876C7.55983 12.7839 6.27067 13.356 5.20557 14.2402ZM11.6724 3.6263C11.3979 4.03719 11.2513 4.52026 11.2513 5.01443C11.2513 5.67709 11.5146 6.31261 11.9831 6.78118C12.4517 7.24975 13.0872 7.51299 13.7499 7.51299C14.244 7.51299 14.7271 7.36645 15.138 7.09191C15.5489 6.81736 15.8691 6.42714 16.0582 5.97059C16.2474 5.51404 16.2968 5.01166 16.2004 4.52699C16.104 4.04231 15.8661 3.59711 15.5166 3.24768C15.1672 2.89825 14.722 2.66029 14.2373 2.56388C13.7526 2.46747 13.2503 2.51695 12.7937 2.70606C12.3372 2.89517 11.9469 3.21542 11.6724 3.6263Z" fill="#3F45EA"/>
<path d="M15.6474 24.9288C16.5562 23.8847 17.1582 22.6092 17.3866 21.2438L19.9101 21.2551C19.6772 23.1033 18.9325 24.8497 17.7598 26.2971C16.5871 27.7446 15.0333 28.8355 13.2736 29.4467C11.5138 30.0579 9.61832 30.1652 7.80089 29.7564C5.98345 29.3475 4.31645 28.4389 2.98799 27.133C1.65953 25.8271 0.722498 24.1759 0.282624 22.3657C-0.157251 20.5555 -0.082455 18.6585 0.498572 16.8885C1.0796 15.1186 2.14373 13.5463 3.57088 12.3491C4.99803 11.1518 6.7314 10.3772 8.57538 10.1128C8.90356 10.0657 9.23699 10.151 9.50232 10.3497C9.76765 10.5485 9.94314 10.8446 9.99019 11.1728C10.0372 11.501 9.95199 11.8344 9.7532 12.0997C9.55441 12.365 9.25836 12.5405 8.93017 12.5876C7.55986 12.784 6.27069 13.356 5.20559 14.2402C4.14049 15.1245 3.34106 16.2864 2.89594 17.5972C2.45081 18.908 2.37737 20.3165 2.68375 21.6665C2.99014 23.0164 3.66439 24.2552 4.63175 25.2454C5.59911 26.2357 6.82179 26.9387 8.16425 27.2765C9.50671 27.6143 10.9165 27.5738 12.2373 27.1594C13.5582 26.745 14.7385 25.973 15.6474 24.9288Z" fill="#16205B"/>
</svg>
