<svg width="24" height="24" viewBox="0 0 24 24" fill="none" xmlns="http://www.w3.org/2000/svg">
<path fill-rule="evenodd" clip-rule="evenodd" d="M11.8333 2H5.16667C2.86917 2 1 3.86917 1 6.16667V17.8333C1 20.1308 2.86917 22 5.16667 22H10.1627C10.054 21.7672 10 21.5131 10 21.25V19.9C10 19.2934 10.159 18.7211 10.4762 18.2047C10.7876 17.6973 11.2124 17.2975 11.7406 17.0243L11.7527 17.018L11.7528 17.0181C12.5916 16.5987 13.4499 16.2811 14.3268 16.0684L14.3274 16.0683C14.356 16.0614 14.3845 16.0546 14.4131 16.0479C14.3316 15.9777 14.2519 15.9037 14.1741 15.8259C13.4006 15.0523 13 14.0923 13 13C13 11.9077 13.4006 10.9477 14.1741 10.1741C14.7017 9.64654 15.3161 9.29243 16 9.12059V6.16667C16 3.86917 14.1308 2 11.8333 2ZM15.7904 16.8204C15.7962 16.8197 15.802 16.819 15.8078 16.8183C15.8718 16.811 15.9359 16.8042 16 16.798C15.9359 16.8042 15.8718 16.811 15.8078 16.8183C15.802 16.819 15.7962 16.8197 15.7904 16.8204ZM8.5 16.1667H5.16667C4.70583 16.1667 4.33333 15.7942 4.33333 15.3333C4.33333 14.8725 4.70583 14.5 5.16667 14.5H8.5C8.96083 14.5 9.33333 14.8725 9.33333 15.3333C9.33333 15.7942 8.96083 16.1667 8.5 16.1667ZM11.8333 12H5.16667C4.70583 12 4.33333 11.6275 4.33333 11.1667C4.33333 10.7058 4.70583 10.3333 5.16667 10.3333H11.8333C12.2942 10.3333 12.6667 10.7058 12.6667 11.1667C12.6667 11.6275 12.2942 12 11.8333 12ZM11.8333 7.83333H5.16667C4.70583 7.83333 4.33333 7.46083 4.33333 7C4.33333 6.53917 4.70583 6.16667 5.16667 6.16667H11.8333C12.2942 6.16667 12.6667 6.53917 12.6667 7C12.6667 7.46083 12.2942 7.83333 11.8333 7.83333Z" fill="#1C1F7F"/>
<path d="M17 16C16.175 16 15.4688 15.7062 14.8813 15.1187C14.2938 14.5312 14 13.825 14 13C14 12.175 14.2938 11.4688 14.8813 10.8813C15.4688 10.2938 16.175 10 17 10C17.825 10 18.5312 10.2938 19.1187 10.8813C19.7062 11.4688 20 12.175 20 13C20 13.825 19.7062 14.5312 19.1187 15.1187C18.5312 15.7062 17.825 16 17 16ZM11.75 22C11.5375 22 11.3595 21.928 11.216 21.784C11.072 21.6405 11 21.4625 11 21.25V19.9C11 19.475 11.1095 19.0842 11.3285 18.7277C11.547 18.3717 11.8375 18.1 12.2 17.9125C12.975 17.525 13.7625 17.2343 14.5625 17.0402C15.3625 16.8467 16.175 16.75 17 16.75C17.825 16.75 18.6375 16.8467 19.4375 17.0402C20.2375 17.2343 21.025 17.525 21.8 17.9125C22.1625 18.1 22.453 18.3717 22.6715 18.7277C22.8905 19.0842 23 19.475 23 19.9V21.25C23 21.4625 22.928 21.6405 22.784 21.784C22.6405 21.928 22.4625 22 22.25 22H11.75Z" fill="#3F45EA"/>
</svg>
