<svg width="27" height="29" viewBox="0 0 27 29" fill="none" xmlns="http://www.w3.org/2000/svg">
<path d="M2.34204 27.3812C1.69913 27.3812 1.14806 27.1516 0.688836 26.6924C0.229612 26.2332 0 25.6706 0 25.0048V5.13183C0 4.48892 0.206651 3.93211 0.619953 3.4614C1.03325 2.9907 1.40063 2.75535 1.72209 2.75535H8.43825C8.62194 1.9517 9.04672 1.29157 9.71259 0.774941C10.3785 0.258314 11.1362 0 11.9858 0C12.8353 0 13.5873 0.258314 14.2417 0.774941C14.8961 1.29157 15.3266 1.9517 15.5333 2.75535H22.2494C22.8923 2.75535 23.4434 2.9907 23.9026 3.4614C24.3618 3.93211 24.5915 4.48892 24.5915 5.13183V15.2922C24.2241 15.0396 23.8452 14.8272 23.4549 14.655C23.0645 14.4828 22.6627 14.3393 22.2494 14.2245V5.13183H18.5986V7.33611C18.5986 7.97902 18.3747 8.51861 17.927 8.95487C17.4792 9.39114 16.9224 9.60927 16.2565 9.60927H8.36936C7.68053 9.60927 7.11224 9.39114 6.66449 8.95487C6.21675 8.51861 5.99288 7.97902 5.99288 7.33611V5.13183H2.34204V25.0048H11.7791C11.8939 25.4181 12.0489 25.8199 12.2441 26.2102C12.4392 26.6006 12.6861 26.9909 12.9846 27.3812H2.34204ZM12.6057 4.89074C12.996 4.89074 13.3232 4.75871 13.5873 4.49466C13.8514 4.2306 13.9834 3.90341 13.9834 3.51307C13.9834 3.12272 13.8514 2.79553 13.5873 2.53147C13.3232 2.26742 12.996 2.13539 12.6057 2.13539C12.2154 2.13539 11.8882 2.26742 11.6241 2.53147C11.3601 2.79553 11.228 3.12272 11.228 3.51307C11.228 3.90341 11.3601 4.2306 11.6241 4.49466C11.8882 4.75871 12.2154 4.89074 12.6057 4.89074Z" fill="#3F45EA"/>
<path d="M19.8041 29C18.0131 29 16.4804 28.3686 15.2061 27.1057C13.9317 25.8428 13.2946 24.3159 13.2946 22.5249C13.2946 20.711 13.9317 19.1669 15.2061 17.8925C16.4804 16.6182 18.0131 15.981 19.8041 15.981C21.618 15.981 23.1564 16.6182 24.4193 17.8925C25.6821 19.1669 26.3136 20.6995 26.3136 22.4905C26.3136 24.3044 25.6821 25.8428 24.4193 27.1057C23.1564 28.3686 21.618 29 19.8041 29ZM21.2851 25.5214C21.4458 25.6821 21.6237 25.7625 21.8189 25.7625C22.0141 25.7625 22.1805 25.6821 22.3183 25.5214C22.479 25.3836 22.5594 25.2171 22.5594 25.022C22.5594 24.8268 22.479 24.6488 22.3183 24.4881L20.2518 22.4216V19.253C20.2518 19.0463 20.1829 18.8741 20.0452 18.7363C19.9074 18.5986 19.7352 18.5297 19.5285 18.5297C19.3219 18.5297 19.1497 18.6043 19.0119 18.7536C18.8741 18.9028 18.8052 19.0693 18.8052 19.253V22.4905C18.8052 22.6283 18.8339 22.766 18.8914 22.9038C18.9488 23.0416 19.0234 23.1678 19.1152 23.2827L21.2851 25.5214Z" fill="#222C64"/>
</svg>
