<svg width="24" height="24" viewBox="0 0 24 24" fill="none" xmlns="http://www.w3.org/2000/svg">
<path d="M15.325 2H7.675C5.09695 2 3 4.05583 3 6.58333V17.4167C3 19.9442 5.09695 22 7.675 22H15.325C17.903 22 20 19.9442 20 17.4167V6.58333C20 4.05583 17.903 2 15.325 2ZM17.45 17.4167C17.45 18.565 16.4963 19.5 15.325 19.5H7.675C6.5037 19.5 5.55 18.565 5.55 17.4167V6.58333C5.55 5.435 6.5037 4.5 7.675 4.5H15.325C16.4963 4.5 17.45 5.435 17.45 6.58333V17.4167Z" fill="#FAFAFE"/>
<path d="M14.475 8.6665C15.1796 8.6665 15.75 8.10734 15.75 7.4165C15.75 6.72567 15.1796 6.1665 14.475 6.1665H12.775C11.0996 6.194 11.0988 8.639 12.775 8.6665H14.475Z" fill="#FAFAFE"/>
<path d="M14.475 12.8332C15.1796 12.8332 15.75 12.274 15.75 11.5832C15.75 10.8923 15.1796 10.3332 14.475 10.3332H12.775C11.0996 10.3607 11.0988 12.8057 12.775 12.8332H14.475Z" fill="#FAFAFE"/>
<path d="M14.475 16.9998C15.1796 16.9998 15.75 16.4407 15.75 15.7498C15.75 15.059 15.1796 14.4998 14.475 14.4998H12.775C11.0996 14.5273 11.0988 16.9723 12.775 16.9998H14.475Z" fill="#FAFAFE"/>
<path d="M9.8 7.4165C9.7711 9.05984 7.27805 9.059 7.25 7.4165C7.2789 5.77317 9.77195 5.774 9.8 7.4165Z" fill="#FAFAFE"/>
<path d="M9.8 11.5832C9.7711 13.2265 7.27805 13.2257 7.25 11.5832C7.2789 9.93984 9.77195 9.94067 9.8 11.5832Z" fill="#FAFAFE"/>
<path d="M9.8 15.7498C9.7711 17.3932 7.27805 17.3923 7.25 15.7498C7.2789 14.1065 9.77195 14.1073 9.8 15.7498Z" fill="#FAFAFE"/>
</svg>
