<svg width="24" height="24" viewBox="0 0 24 24" fill="none" xmlns="http://www.w3.org/2000/svg">
<mask id="mask0_225_9403" style="mask-type:alpha" maskUnits="userSpaceOnUse" x="0" y="0" width="24" height="24">
<rect width="24" height="24" fill="#D9D9D9"/>
</mask>
<g mask="url(#mask0_225_9403)">
<path d="M18 22C17.7167 22 17.4793 21.904 17.288 21.712C17.096 21.5207 17 21.2833 17 21V14H16C15.45 14 14.9793 13.804 14.588 13.412C14.196 13.0207 14 12.55 14 12V7C14 5.61667 14.4877 4.43767 15.463 3.463C16.4377 2.48767 17.6167 2 19 2V21C19 21.2833 18.904 21.5207 18.712 21.712C18.5207 21.904 18.2833 22 18 22Z" fill="white"/>
<path d="M7.287 21.712C7.479 21.904 7.71667 22 8 22C8.28333 22 8.521 21.904 8.713 21.712C8.90433 21.5207 9 21.2833 9 21V12.85C9.85 12.6167 10.5623 12.15 11.137 11.45C11.7123 10.75 12 9.93333 12 9V3C12 2.71667 11.9043 2.479 11.713 2.287C11.521 2.09567 11.2833 2 11 2C10.7167 2 10.4793 2.09567 10.288 2.287C10.096 2.479 10 2.71667 10 3V9H9V3C9 2.71667 8.90433 2.479 8.713 2.287C8.521 2.09567 8.28333 2 8 2C7.71667 2 7.479 2.09567 7.287 2.287C7.09567 2.479 7 2.71667 7 3V9H6V3C6 2.71667 5.90433 2.479 5.713 2.287C5.521 2.09567 5.28333 2 5 2C4.71667 2 4.479 2.09567 4.287 2.287C4.09567 2.479 4 2.71667 4 3V9C4 9.93333 4.28767 10.75 4.863 11.45C5.43767 12.15 6.15 12.6167 7 12.85V21C7 21.2833 7.09567 21.5207 7.287 21.712Z" fill="white"/>
</g>
</svg>
