<svg width="24" height="24" viewBox="0 0 24 24" fill="none" xmlns="http://www.w3.org/2000/svg">
<g clip-path="url(#clip0_194_9203)">
<path d="M17.875 11.1458V13.625H15.75C15.1864 13.625 14.6459 13.8489 14.2474 14.2474C13.8489 14.6459 13.625 15.1864 13.625 15.75V17.875H6.1875C5.90571 17.875 5.63546 17.7631 5.4362 17.5638C5.23694 17.3645 5.125 17.0943 5.125 16.8125V6.1875C5.125 5.90571 5.23694 5.63546 5.4362 5.4362C5.63546 5.23694 5.90571 5.125 6.1875 5.125H12.5625C12.8443 5.125 13.1145 5.01306 13.3138 4.8138C13.5131 4.61454 13.625 4.34429 13.625 4.0625C13.625 3.78071 13.5131 3.51046 13.3138 3.3112C13.1145 3.11194 12.8443 3 12.5625 3H6.1875C5.34212 3 4.53137 3.33582 3.9336 3.9336C3.33582 4.53137 3 5.34212 3 6.1875L3 16.8125C3 17.6579 3.33582 18.4686 3.9336 19.0664C4.53137 19.6642 5.34212 20 6.1875 20H14.6762C15.5212 20 16.3317 19.6645 16.9294 19.0671L19.0664 16.9301C19.664 16.3325 19.9998 15.522 20 14.6769V11.1458C20 10.864 19.8881 10.5938 19.6888 10.3945C19.4895 10.1953 19.2193 10.0833 18.9375 10.0833C18.6557 10.0833 18.3855 10.1953 18.1862 10.3945C17.9869 10.5938 17.875 10.864 17.875 11.1458Z" fill="#FAFAFE"/>
<path d="M15.6033 4.27001L6.74917 13.1242C6.61632 13.257 6.54167 13.4371 6.54163 13.625V15.75C6.54163 15.9378 6.61625 16.118 6.74909 16.2508C6.88193 16.3837 7.0621 16.4583 7.24996 16.4583H9.37496C9.56281 16.4583 9.74294 16.3836 9.87575 16.2508L18.6102 7.51631C18.9058 7.2313 19.123 6.87506 19.2411 6.48182C19.3592 6.08858 19.3742 5.67157 19.2845 5.27089C19.1843 4.89824 18.9881 4.55837 18.7156 4.28514C18.443 4.0119 18.1037 3.81485 17.7313 3.7136C17.3589 3.61235 16.9665 3.61044 16.5931 3.70807C16.2198 3.80569 15.8785 3.99944 15.6033 4.27001Z" fill="#FAFAFE"/>
</g>
<defs>
<clipPath id="clip0_194_9203">
<rect width="17" height="17" fill="white" transform="translate(3 3)"/>
</clipPath>
</defs>
</svg>
