<svg width="24" height="24" viewBox="0 0 24 24" fill="none" xmlns="http://www.w3.org/2000/svg">
<path d="M16 3.27246H9.45455C8.71802 3.27326 7.99601 3.4774 7.36811 3.86238C6.7402 4.24736 6.23079 4.79824 5.896 5.45428H5.09091C4.80158 5.45428 4.52411 5.56921 4.31952 5.7738C4.11493 5.97838 4 6.25586 4 6.54519C4 6.83452 4.11493 7.11199 4.31952 7.31658C4.52411 7.52116 4.80158 7.6361 5.09091 7.6361H5.45455V9.09064H5.09091C4.80158 9.09064 4.52411 9.20558 4.31952 9.41016C4.11493 9.61475 4 9.89222 4 10.1816C4 10.4709 4.11493 10.7484 4.31952 10.9529C4.52411 11.1575 4.80158 11.2725 5.09091 11.2725H5.45455V12.727H5.09091C4.80158 12.727 4.52411 12.8419 4.31952 13.0465C4.11493 13.2511 4 13.5286 4 13.8179C4 14.1072 4.11493 14.3847 4.31952 14.5893C4.52411 14.7939 4.80158 14.9088 5.09091 14.9088H5.45455V16.3634H5.09091C4.80158 16.3634 4.52411 16.4783 4.31952 16.6829C4.11493 16.8875 4 17.165 4 17.4543C4 17.7436 4.11493 18.0211 4.31952 18.2257C4.52411 18.4303 4.80158 18.5452 5.09091 18.5452H5.896C6.23079 19.2012 6.7402 19.7521 7.36811 20.1371C7.99601 20.5221 8.71802 20.7262 9.45455 20.727H16C17.0605 20.7258 18.0773 20.3041 18.8272 19.5542C19.577 18.8043 19.9988 17.7875 20 16.727V7.27246C19.9988 6.21195 19.577 5.1952 18.8272 4.44531C18.0773 3.69541 17.0605 3.27362 16 3.27246ZM17.8182 16.727C17.8182 17.2092 17.6266 17.6717 17.2856 18.0127C16.9447 18.3536 16.4822 18.5452 16 18.5452H9.45455C8.97233 18.5452 8.50987 18.3536 8.1689 18.0127C7.82792 17.6717 7.63636 17.2092 7.63636 16.727V7.27246C7.63636 6.79025 7.82792 6.32779 8.1689 5.98681C8.50987 5.64584 8.97233 5.45428 9.45455 5.45428H16C16.4822 5.45428 16.9447 5.64584 17.2856 5.98681C17.6266 6.32779 17.8182 6.79025 17.8182 7.27246V16.727Z" fill="#FAFAFE"/>
<path d="M11.4416 8.89581C11.1006 9.23679 10.909 9.69925 10.909 10.1815C10.909 10.6637 11.1006 11.1261 11.4416 11.4671C11.7826 11.8081 12.245 11.9996 12.7272 11.9996C13.2094 11.9996 13.6719 11.8081 14.0129 11.4671C14.3539 11.1261 14.5454 10.6637 14.5454 10.1815C14.5454 9.69925 14.3539 9.23679 14.0129 8.89581C13.6719 8.55484 13.2094 8.36328 12.7272 8.36328C12.245 8.36328 11.7826 8.55484 11.4416 8.89581Z" fill="#FAFAFE"/>
<path d="M15.6144 15.287C15.6341 15.219 15.6386 15.1474 15.6276 15.0775C15.0021 11.9764 10.4305 11.9742 9.80432 15.0775C9.79333 15.1474 9.79784 15.219 9.81755 15.287C9.83726 15.3551 9.87167 15.418 9.91836 15.4713C9.96505 15.5245 10.0229 15.5669 10.0877 15.5954C10.1526 15.6238 10.223 15.6377 10.2938 15.636H15.1381C15.209 15.6377 15.2793 15.6238 15.3442 15.5954C15.409 15.5669 15.4669 15.5245 15.5136 15.4713C15.5602 15.418 15.5947 15.3551 15.6144 15.287Z" fill="#FAFAFE"/>
</svg>
