<svg width="34" height="34" viewBox="0 0 34 34" fill="none" xmlns="http://www.w3.org/2000/svg">
<path d="M27.0049 22.9026C26.8174 22.9026 26.63 22.9153 26.4442 22.9404V8.73608C26.4442 7.79678 26.8173 6.89595 27.4815 6.23176C28.1457 5.56757 29.0465 5.19444 29.9858 5.19444C30.2989 5.19444 30.5992 5.07006 30.8206 4.84866C31.042 4.62727 31.1663 4.32699 31.1663 4.01389C31.1663 3.70079 31.042 3.40051 30.8206 3.17912C30.5992 2.95772 30.2989 2.83334 29.9858 2.83334C28.4209 2.83522 26.9206 3.45771 25.814 4.56428C24.7074 5.67086 24.0849 7.17115 24.0831 8.73608V22.0515L20.8554 23.1281C20.8614 22.727 20.7991 22.3278 20.6713 21.9476L18.8379 15.9268C18.5512 15.0331 17.9222 14.2894 17.0886 13.8582C16.255 13.427 15.2846 13.3435 14.3896 13.6259L6.47993 16.1405C5.59601 16.4267 4.85918 17.0474 4.42699 17.8699C3.9948 18.6923 3.90157 19.6512 4.16724 20.5415L6.09625 26.8846C6.2223 27.2385 6.40447 27.5697 6.63576 27.8657L3.64189 28.8632C3.34445 28.9622 3.09849 29.1752 2.95812 29.4555C2.81776 29.7358 2.79449 30.0603 2.89343 30.3578C2.99237 30.6552 3.20541 30.9012 3.4857 31.0416C3.76599 31.1819 4.09055 31.2052 4.388 31.1063L23.592 24.7053C23.0717 25.4676 22.8216 26.3821 22.8816 27.3031C22.9416 28.224 23.3081 29.0983 23.9229 29.7867C24.5376 30.4751 25.365 30.9378 26.2734 31.1012C27.1817 31.2646 28.1185 31.1192 28.9346 30.6881C29.7506 30.2571 30.3989 29.5653 30.776 28.723C31.1531 27.8806 31.2374 26.9363 31.0153 26.0405C30.7933 25.1447 30.2778 24.3491 29.551 23.7804C28.8241 23.2117 27.9278 22.9027 27.0049 22.9026ZM13.3271 18.9478L10.417 19.8734C10.1187 19.9682 9.79481 19.9407 9.51674 19.7968C9.23867 19.6529 9.02915 19.4044 8.93428 19.106C8.83941 18.8076 8.86696 18.4838 9.01087 18.2057C9.15478 17.9276 9.40325 17.7181 9.70164 17.6232L12.6117 16.6977C12.7594 16.6507 12.915 16.6333 13.0695 16.6464C13.2239 16.6596 13.3743 16.703 13.512 16.7743C13.6497 16.8455 13.772 16.9432 13.8719 17.0617C13.9719 17.1802 14.0475 17.3173 14.0945 17.465C14.1414 17.6128 14.1588 17.7683 14.1457 17.9228C14.1326 18.0773 14.0891 18.2277 14.0179 18.3653C13.9466 18.503 13.8489 18.6253 13.7304 18.7253C13.6119 18.8252 13.4748 18.9008 13.3271 18.9478Z" fill="#16205B"/>
</svg>
